G04 ================== begin FILE IDENTIFICATION RECORD ==================*
G04 Layout Name:  BD9C601EFJEVK-101_EVAL_BRD_REV01_20140106.brd*
G04 Film Name:    ASSY_TOP*
G04 File Format:  Gerber RS274X*
G04 File Origin:  Cadence Allegro 16.3-S048*
G04 Origin Date:  Mon Jan 06 13:53:18 2014*
G04 *
G04 Layer:  REF DES/ASSEMBLY_TOP*
G04 Layer:  PACKAGE GEOMETRY/ASSEMBLY_TOP*
G04 Layer:  DRAWING FORMAT/OUTLINE*
G04 Layer:  DRAWING FORMAT/ASSEMBLY_TOP*
G04 Layer:  BOARD GEOMETRY/OUTLINE*
G04 Layer:  BOARD GEOMETRY/ASSEMBLY_TOP*
G04 Layer:  BOARD GEOMETRY/LOGO_OUTLINE*
G04 *
G04 Offset:    (0.000 0.000)*
G04 Mirror:    No*
G04 Mode:      Positive*
G04 Rotation:  0*
G04 FullContactRelief:  No*
G04 UndefLineWidth:     4.000*
G04 ================== end FILE IDENTIFICATION RECORD ====================*
%FSLAX55Y55*MOIN*%
%IR0*IPPOS*OFA0.00000B0.00000*MIA0B0*SFA1.00000B1.00000*%
%ADD10C,.005*%
%ADD11C,.006*%
%ADD12C,.007098*%
%ADD13C,.004*%
G75*
%LPD*%
G75*
G36*
G01X65000Y129250D02*
X75000D01*
Y130750D01*
X65000D01*
Y129250D01*
G37*
G54D10*
G01X6250Y100000D02*
G03I-6250J0D01*
G01Y140000D02*
G03I-6250J0D01*
G01X64000Y105500D02*
X94000D01*
Y95500D01*
X64000D01*
Y105500D01*
X66500D01*
G01X71693Y100500D02*
G03I-2693J0D01*
G01X75492Y127642D02*
Y145358D01*
X64508D01*
Y127642D01*
X75492D01*
G01X85000Y130000D02*
X81000D01*
G02X80000Y131000I0J1000D01*
G01Y142000D01*
G02X81000Y143000I1000J0D01*
G01X85000D01*
G02X86000Y142000I0J-1000D01*
G01Y131000D01*
G02X85000Y130000I-1000J0D01*
G01X68500Y136232D02*
X68000Y135732D01*
G01X68500Y136232D02*
X71500D01*
X72000Y136732D01*
G01X70000Y139232D02*
Y138232D01*
Y139732D01*
G01Y134732D02*
Y136232D01*
G01X68000Y138232D02*
X72000D01*
X70000Y136232D01*
X68000Y138232D01*
G01X102012Y99516D02*
Y106484D01*
X105988D01*
Y99516D01*
X102012D01*
G01X108205Y97805D02*
X112205D01*
Y107805D01*
X108205D01*
Y97805D01*
G01X103800Y134700D02*
Y115300D01*
X119200D01*
Y134700D01*
X103800D01*
G01X93988Y136484D02*
Y129516D01*
X90012D01*
Y136484D01*
X93988D01*
G01X109200Y131600D02*
G03I-2500J0D01*
G01X122012Y87516D02*
Y94484D01*
X125988D01*
Y87516D01*
X122012D01*
G01X113205Y97805D02*
X117205D01*
Y107805D01*
X113205D01*
Y97805D01*
G01X122000Y97600D02*
X126000D01*
Y107600D01*
X122000D01*
Y97600D01*
G01X158091Y123201D02*
X132500D01*
Y101547D01*
X158091D01*
Y123201D01*
G01X150795Y113295D02*
X141295D01*
X146795Y107795D01*
X152295Y113295D01*
X150795D01*
G01X152295Y107795D02*
X141295D01*
G01X146795D02*
Y104295D01*
G01Y113295D02*
Y116295D01*
G01X158091Y173701D02*
X132500D01*
Y152047D01*
X158091D01*
Y173701D01*
G01X150795Y163795D02*
X141295D01*
X146795Y158295D01*
X152295Y163795D01*
X150795D01*
G01X152295Y158295D02*
X141295D01*
G01X146795D02*
Y154795D01*
G01Y163795D02*
Y166795D01*
G01X161500Y116700D02*
Y131300D01*
X179500D01*
Y116700D01*
X161500D01*
G01X209500Y79500D02*
X213500D01*
G02X214500Y78500I0J-1000D01*
G01Y67500D01*
G02X213500Y66500I-1000J0D01*
G01X209500D01*
G02X208500Y67500I0J1000D01*
G01Y78500D01*
G02X209500Y79500I1000J0D01*
G01X220000D02*
X224000D01*
G02X225000Y78500I0J-1000D01*
G01Y67500D01*
G02X224000Y66500I-1000J0D01*
G01X220000D01*
G02X219000Y67500I0J1000D01*
G01Y78500D01*
G02X220000Y79500I1000J0D01*
G01X246250Y100000D02*
G03I-6250J0D01*
G01Y140000D02*
G03I-6250J0D01*
G54D11*
G01X-2600Y101567D02*
Y98467D01*
G01X-3482Y101567D02*
X-1718D01*
G01X-267Y98467D02*
Y101567D01*
X653D01*
X960Y101412D01*
X1190Y101050D01*
X1267Y100637D01*
X1190Y100224D01*
X998Y99914D01*
X653Y99758D01*
X-267D01*
G01X3600Y98467D02*
Y101567D01*
X3140Y100947D01*
G01Y98467D02*
X4060D01*
G01X-3100Y141067D02*
Y137967D01*
G01X-3982Y141067D02*
X-2218D01*
G01X-767Y137967D02*
Y141067D01*
X153D01*
X460Y140912D01*
X690Y140550D01*
X767Y140137D01*
X690Y139724D01*
X498Y139414D01*
X153Y139258D01*
X-767D01*
G01X2372Y140550D02*
X2602Y140860D01*
X2870Y141015D01*
X3177Y141067D01*
X3560Y140964D01*
X3828Y140705D01*
X3905Y140395D01*
X3867Y140085D01*
X3713Y139827D01*
X2947Y139310D01*
X2602Y138948D01*
X2372Y138432D01*
X2295Y137967D01*
X3905D01*
G01X80383Y99120D02*
X80575Y98810D01*
X80805Y98603D01*
X81073Y98500D01*
X81380Y98603D01*
X81610Y98810D01*
X81840Y99120D01*
X81917Y99533D01*
Y101600D01*
G01X84250Y98500D02*
Y101600D01*
X83790Y100980D01*
G01Y98500D02*
X84710D01*
G01X81658Y135493D02*
X81503Y135263D01*
X81400Y134995D01*
Y134688D01*
X81555Y134343D01*
X81813Y134075D01*
X82123Y133883D01*
X82640Y133730D01*
X83105Y133692D01*
X83570Y133768D01*
X83880Y133883D01*
X84190Y134113D01*
X84397Y134382D01*
X84500Y134650D01*
Y134918D01*
X84397Y135187D01*
X84242Y135417D01*
X84035Y135608D01*
G01X81917Y137022D02*
X81607Y137252D01*
X81452Y137520D01*
X81400Y137827D01*
X81503Y138210D01*
X81762Y138478D01*
X82072Y138555D01*
X82382Y138517D01*
X82640Y138363D01*
X83157Y137597D01*
X83518Y137252D01*
X84035Y137022D01*
X84500Y136945D01*
Y138555D01*
G01X67807Y141500D02*
Y144600D01*
X68573D01*
X68880Y144445D01*
X69110Y144238D01*
X69302Y143928D01*
X69455Y143567D01*
X69493Y143050D01*
X69455Y142533D01*
X69302Y142172D01*
X69110Y141862D01*
X68880Y141655D01*
X68573Y141500D01*
X67807D01*
G01X71022Y144083D02*
X71252Y144393D01*
X71520Y144548D01*
X71827Y144600D01*
X72210Y144497D01*
X72478Y144238D01*
X72555Y143928D01*
X72517Y143618D01*
X72363Y143360D01*
X71597Y142843D01*
X71252Y142482D01*
X71022Y141965D01*
X70945Y141500D01*
X72555D01*
G01X102658Y102393D02*
X102503Y102163D01*
X102400Y101895D01*
Y101588D01*
X102555Y101243D01*
X102813Y100975D01*
X103123Y100783D01*
X103640Y100630D01*
X104105Y100592D01*
X104570Y100668D01*
X104880Y100783D01*
X105190Y101013D01*
X105397Y101282D01*
X105500Y101550D01*
Y101818D01*
X105397Y102087D01*
X105242Y102317D01*
X105035Y102508D01*
G01Y103807D02*
X105293Y104037D01*
X105448Y104305D01*
X105500Y104650D01*
X105397Y104995D01*
X105190Y105263D01*
X104828Y105455D01*
X104415Y105493D01*
X104002Y105417D01*
X103743Y105225D01*
X103537Y104957D01*
X103485Y104688D01*
X103537Y104420D01*
X103743Y104075D01*
X102400Y104190D01*
Y105225D01*
G01X111705Y100688D02*
X108605D01*
Y101646D01*
X108760Y101953D01*
X108966Y102145D01*
X109380Y102221D01*
X109793Y102145D01*
X110051Y101915D01*
X110206Y101646D01*
Y100688D01*
G01Y101646D02*
X111705Y102221D01*
G01X109121Y103826D02*
X108811Y104056D01*
X108656Y104325D01*
X108605Y104631D01*
X108708Y105015D01*
X108966Y105283D01*
X109276Y105360D01*
X109586Y105321D01*
X109845Y105168D01*
X110361Y104401D01*
X110723Y104056D01*
X111240Y103826D01*
X111705Y103750D01*
Y105360D01*
G01X109511Y125805D02*
Y123583D01*
X109665Y123118D01*
X109971Y122808D01*
X110355Y122705D01*
X110738Y122808D01*
X111045Y123118D01*
X111198Y123583D01*
Y125805D01*
G01X113455Y122705D02*
Y125805D01*
X112995Y125185D01*
G01Y122705D02*
X113915D01*
G01X90658Y132493D02*
X90503Y132263D01*
X90400Y131995D01*
Y131688D01*
X90555Y131343D01*
X90813Y131075D01*
X91123Y130883D01*
X91640Y130730D01*
X92105Y130692D01*
X92570Y130768D01*
X92880Y130883D01*
X93190Y131113D01*
X93397Y131382D01*
X93500Y131650D01*
Y131918D01*
X93397Y132187D01*
X93242Y132417D01*
X93035Y132608D01*
G01X93500Y134750D02*
X90400D01*
X91020Y134290D01*
G01X93500D02*
Y135210D01*
G01X122658Y90493D02*
X122503Y90263D01*
X122400Y89995D01*
Y89688D01*
X122555Y89343D01*
X122813Y89075D01*
X123123Y88883D01*
X123640Y88730D01*
X124105Y88692D01*
X124570Y88768D01*
X124880Y88883D01*
X125190Y89113D01*
X125397Y89382D01*
X125500Y89650D01*
Y89918D01*
X125397Y90187D01*
X125242Y90417D01*
X125035Y90608D01*
G01X124208Y92022D02*
X123847Y92290D01*
X123640Y92520D01*
X123537Y92827D01*
X123640Y93095D01*
X123847Y93287D01*
X124157Y93440D01*
X124518Y93478D01*
X124828Y93440D01*
X125138Y93287D01*
X125397Y93057D01*
X125500Y92788D01*
X125397Y92482D01*
X125087Y92213D01*
X124622Y92060D01*
X124105Y92022D01*
X123433Y92098D01*
X123072Y92213D01*
X122710Y92405D01*
X122452Y92673D01*
X122400Y92942D01*
X122503Y93210D01*
X122762Y93402D01*
G01X116500Y100383D02*
X113400D01*
Y101342D01*
X113555Y101648D01*
X113762Y101840D01*
X114175Y101917D01*
X114588Y101840D01*
X114847Y101610D01*
X115002Y101342D01*
Y100383D01*
G01Y101342D02*
X116500Y101917D01*
G01X115880Y103407D02*
X116242Y103637D01*
X116448Y103943D01*
X116500Y104288D01*
X116448Y104595D01*
X116190Y104902D01*
X115880Y105093D01*
X115570Y105132D01*
X115208Y105055D01*
X114950Y104787D01*
X114847Y104518D01*
Y104173D01*
G01Y104518D02*
X114692Y104748D01*
X114433Y104940D01*
X114123Y105017D01*
X113813Y104940D01*
X113555Y104748D01*
X113400Y104403D01*
X113452Y104058D01*
X113658Y103713D01*
G01X125500Y100883D02*
X122400D01*
Y101842D01*
X122555Y102148D01*
X122762Y102340D01*
X123175Y102417D01*
X123588Y102340D01*
X123847Y102110D01*
X124002Y101842D01*
Y100883D01*
G01Y101842D02*
X125500Y102417D01*
G01Y104750D02*
X122400D01*
X123020Y104290D01*
G01X125500D02*
Y105210D01*
G01X143807Y119000D02*
Y122100D01*
X144573D01*
X144880Y121945D01*
X145110Y121738D01*
X145302Y121428D01*
X145455Y121067D01*
X145493Y120550D01*
X145455Y120033D01*
X145302Y119672D01*
X145110Y119362D01*
X144880Y119155D01*
X144573Y119000D01*
X143807D01*
G01X147750D02*
Y122100D01*
X147290Y121480D01*
G01Y119000D02*
X148210D01*
G01X134807Y160000D02*
Y163100D01*
X135573D01*
X135880Y162945D01*
X136110Y162738D01*
X136302Y162428D01*
X136455Y162067D01*
X136493Y161550D01*
X136455Y161033D01*
X136302Y160672D01*
X136110Y160362D01*
X135880Y160155D01*
X135573Y160000D01*
X134807D01*
G01X137907Y160620D02*
X138137Y160258D01*
X138443Y160052D01*
X138788Y160000D01*
X139095Y160052D01*
X139402Y160310D01*
X139593Y160620D01*
X139632Y160930D01*
X139555Y161292D01*
X139287Y161550D01*
X139018Y161653D01*
X138673D01*
G01X139018D02*
X139248Y161808D01*
X139440Y162067D01*
X139517Y162377D01*
X139440Y162687D01*
X139248Y162945D01*
X138903Y163100D01*
X138558Y163048D01*
X138213Y162842D01*
G01X166672Y126067D02*
X168128D01*
X166672Y122967D01*
X168128D01*
G01X169695D02*
X171305Y126067D01*
G01X169695D02*
X171305Y122967D01*
G01X173600D02*
Y126067D01*
X173140Y125447D01*
G01Y122967D02*
X174060D01*
G01X211976Y113295D02*
Y87705D01*
X184024D01*
Y113295D01*
X211976D01*
G01X209692Y72293D02*
X209536Y72063D01*
X209433Y71795D01*
Y71488D01*
X209588Y71143D01*
X209846Y70875D01*
X210156Y70683D01*
X210673Y70530D01*
X211138Y70492D01*
X211603Y70568D01*
X211913Y70683D01*
X212223Y70913D01*
X212430Y71182D01*
X212533Y71450D01*
Y71718D01*
X212430Y71987D01*
X212275Y72217D01*
X212068Y72408D01*
G01X212533Y75010D02*
X209433D01*
X211655Y73592D01*
Y75508D01*
G01X199658Y71993D02*
X199503Y71763D01*
X199400Y71495D01*
Y71188D01*
X199555Y70843D01*
X199813Y70575D01*
X200123Y70383D01*
X200640Y70230D01*
X201105Y70192D01*
X201570Y70268D01*
X201880Y70383D01*
X202190Y70613D01*
X202397Y70882D01*
X202500Y71150D01*
Y71418D01*
X202397Y71687D01*
X202242Y71917D01*
X202035Y72108D01*
G01X202500Y74173D02*
X201828Y74250D01*
X201260Y74365D01*
X200743Y74518D01*
X200175Y74710D01*
X199400Y75017D01*
Y73483D01*
G01X199000Y79500D02*
X203000D01*
G02X204000Y78500I0J-1000D01*
G01Y67500D01*
G02X203000Y66500I-1000J0D01*
G01X199000D01*
G02X198000Y67500I0J1000D01*
G01Y78500D01*
G02X199000Y79500I1000J0D01*
G01X198383Y103600D02*
Y100500D01*
X199917D01*
G01X202250D02*
Y103600D01*
X201790Y102980D01*
G01Y100500D02*
X202710D01*
G01X221158Y72993D02*
X221003Y72763D01*
X220900Y72495D01*
Y72188D01*
X221055Y71843D01*
X221313Y71575D01*
X221623Y71383D01*
X222140Y71230D01*
X222605Y71192D01*
X223070Y71268D01*
X223380Y71383D01*
X223690Y71613D01*
X223897Y71882D01*
X224000Y72150D01*
Y72418D01*
X223897Y72687D01*
X223742Y72917D01*
X223535Y73108D01*
G01X223380Y74407D02*
X223742Y74637D01*
X223948Y74943D01*
X224000Y75288D01*
X223948Y75595D01*
X223690Y75902D01*
X223380Y76093D01*
X223070Y76132D01*
X222708Y76055D01*
X222450Y75787D01*
X222347Y75518D01*
Y75173D01*
G01Y75518D02*
X222192Y75748D01*
X221933Y75940D01*
X221623Y76017D01*
X221313Y75940D01*
X221055Y75748D01*
X220900Y75403D01*
X220952Y75058D01*
X221158Y74713D01*
G01X230658Y75493D02*
X230503Y75263D01*
X230400Y74995D01*
Y74688D01*
X230555Y74343D01*
X230813Y74075D01*
X231123Y73883D01*
X231640Y73730D01*
X232105Y73692D01*
X232570Y73768D01*
X232880Y73883D01*
X233190Y74113D01*
X233397Y74382D01*
X233500Y74650D01*
Y74918D01*
X233397Y75187D01*
X233242Y75417D01*
X233035Y75608D01*
G01X233500Y77750D02*
X233448Y78018D01*
X233293Y78325D01*
X233035Y78517D01*
X232673Y78593D01*
X232312Y78517D01*
X232002Y78287D01*
X231847Y77942D01*
Y77558D01*
X231743Y77328D01*
X231485Y77137D01*
X231123Y77060D01*
X230762Y77175D01*
X230503Y77443D01*
X230400Y77750D01*
X230503Y78057D01*
X230762Y78325D01*
X231123Y78440D01*
X231485Y78363D01*
X231743Y78172D01*
X231847Y77942D01*
Y77558D01*
X232002Y77213D01*
X232312Y76983D01*
X232673Y76907D01*
X233035Y76983D01*
X233293Y77175D01*
X233448Y77482D01*
X233500Y77750D01*
G01X230500Y80000D02*
X233500D01*
G02X234500Y79000I0J-1000D01*
G01Y73000D01*
G02X233500Y72000I-1000J0D01*
G01X230500D01*
G02X229500Y73000I0J1000D01*
G01Y79000D01*
G02X230500Y80000I1000J0D01*
G01X236900Y101067D02*
Y97967D01*
G01X236018Y101067D02*
X237782D01*
G01X239233Y97967D02*
Y101067D01*
X240153D01*
X240460Y100912D01*
X240690Y100550D01*
X240767Y100137D01*
X240690Y99724D01*
X240498Y99414D01*
X240153Y99258D01*
X239233D01*
G01X242257Y98587D02*
X242487Y98225D01*
X242793Y98019D01*
X243138Y97967D01*
X243445Y98019D01*
X243752Y98277D01*
X243943Y98587D01*
X243982Y98897D01*
X243905Y99258D01*
X243637Y99517D01*
X243368Y99620D01*
X243023D01*
G01X243368D02*
X243598Y99775D01*
X243790Y100034D01*
X243867Y100344D01*
X243790Y100654D01*
X243598Y100912D01*
X243253Y101067D01*
X242908Y101015D01*
X242563Y100809D01*
G01X236900Y141567D02*
Y138467D01*
G01X236018Y141567D02*
X237782D01*
G01X239233Y138467D02*
Y141567D01*
X240153D01*
X240460Y141412D01*
X240690Y141050D01*
X240767Y140637D01*
X240690Y140224D01*
X240498Y139914D01*
X240153Y139758D01*
X239233D01*
G01X243560Y138467D02*
Y141567D01*
X242142Y139345D01*
X244058D01*
G54D12*
G01X1379980Y-338410D02*
X1383290D01*
G01Y-339110D02*
X1379980D01*
G01X1383290Y-340500D02*
X1379980D01*
G01Y-339800D02*
X1383290D01*
G01X1379980Y-341190D02*
X1383290D01*
G01Y-341890D02*
X1379980D01*
G01X1383290Y-342340D02*
X1379980D01*
G01X1383290Y-331310D02*
Y-342340D01*
G01X1379980D02*
Y-329590D01*
G01X1382650Y-348500D02*
X1382800Y-348540D01*
G01D02*
X1382930Y-348610D01*
G01D02*
X1383060Y-348710D01*
G01D02*
X1383160Y-348840D01*
G01D02*
X1383230Y-348970D01*
G01D02*
X1383270Y-349120D01*
G01D02*
X1383290Y-349280D01*
G01D02*
X1383270Y-349450D01*
G01D02*
X1383220Y-349610D01*
G01D02*
X1383150Y-349760D01*
G01D02*
X1383040Y-349890D01*
G01D02*
X1382910Y-350000D01*
G01D02*
X1382760Y-350070D01*
G01D02*
X1382600Y-350120D01*
G01X1382490Y-348480D02*
X1382650Y-348500D01*
G01X1382600Y-350120D02*
X1382430Y-350140D01*
G01X1380870Y-348490D02*
X1382490D01*
G01X1383290Y-346830D02*
X1380740D01*
G01D02*
X1380570Y-346850D01*
G01D02*
X1380410Y-346910D01*
G01D02*
X1380270Y-347000D01*
G01D02*
X1380150Y-347120D01*
G01X1380130Y-348080D02*
X1380240Y-348220D01*
G01D02*
X1380380Y-348330D01*
G01D02*
X1380530Y-348410D01*
G01D02*
X1380700Y-348460D01*
G01D02*
X1380870Y-348480D01*
G01X1382430Y-350140D02*
X1379980D01*
G01X1380150Y-347120D02*
X1380060Y-347260D01*
G01D02*
X1380000Y-347420D01*
G01X1379980Y-347590D02*
X1380000Y-347760D01*
G01D02*
X1380050Y-347930D01*
G01X1380000Y-347420D02*
X1379980Y-347590D01*
G01X1380050Y-347930D02*
X1380130Y-348080D01*
G01X1383290Y-334940D02*
X1379980D01*
G01Y-335640D02*
X1383290D01*
G01X1379980Y-337030D02*
X1383290D01*
G01Y-336330D02*
X1379980D01*
G01X1383290Y-337720D02*
X1379980D01*
G01X1384470Y-329120D02*
X1387500D01*
G01X1386910Y-330530D02*
X1384060D01*
G01D02*
X1383860Y-330560D01*
G01D02*
X1383680Y-330640D01*
G01D02*
X1383510Y-330760D01*
G01D02*
X1383390Y-330920D01*
G01D02*
X1383310Y-331110D01*
G01D02*
X1383290Y-331310D01*
G01X1382220Y-329260D02*
X1384470Y-329120D01*
G01X1381320Y-329390D02*
X1389890D01*
G01X1379980Y-330090D02*
X1391600D01*
G01X1383500Y-330780D02*
X1379980D01*
G01Y-331470D02*
X1383290D01*
G01X1379980Y-332860D02*
X1383290D01*
G01Y-332170D02*
X1379980D01*
G01X1383290Y-333560D02*
X1379980D01*
G01Y-334250D02*
X1383290D01*
G01X1379980Y-329590D02*
X1382220Y-329260D01*
G01X1405730Y-338410D02*
X1408800D01*
G01X1405730Y-338450D02*
X1405670Y-339030D01*
G01X1408780Y-339110D02*
X1405640D01*
G01X1405670Y-339030D02*
X1405480Y-339590D01*
G01D02*
X1405180Y-340100D01*
G01X1405350Y-339800D02*
X1408630D01*
G01X1405450Y-342170D02*
X1406320Y-341910D01*
G01X1408240Y-340500D02*
X1404650D01*
G01X1405730Y-332780D02*
Y-338450D01*
G01X1405630Y-350060D02*
X1405850Y-350120D01*
G01X1405830Y-346850D02*
X1405620Y-346910D01*
G01D02*
X1405420Y-347000D01*
G01D02*
X1405230Y-347130D01*
G01D02*
X1405080Y-347280D01*
G01D02*
X1404950Y-347460D01*
G01D02*
X1404860Y-347670D01*
G01D02*
X1404800Y-347880D01*
G01D02*
X1404780Y-348100D01*
G01D02*
Y-348850D01*
G01D02*
X1404800Y-349070D01*
G01D02*
X1404860Y-349290D01*
G01D02*
X1404950Y-349490D01*
G01D02*
X1405080Y-349680D01*
G01D02*
X1405240Y-349840D01*
G01D02*
X1405420Y-349970D01*
G01D02*
X1405630Y-350060D01*
G01X1405180Y-340100D02*
X1404710Y-340470D01*
G01D02*
X1404180Y-340730D01*
G01D02*
X1403610Y-340890D01*
G01D02*
X1403010Y-340930D01*
G01D02*
X1401400D01*
G01D02*
X1400920Y-340880D01*
G01X1400450Y-340730D02*
X1400030Y-340500D01*
G01X1400920Y-340880D02*
X1400450Y-340730D01*
G01X1398880Y-338450D02*
Y-335260D01*
G01X1399060Y-339410D02*
X1398910Y-338940D01*
G01D02*
X1398880Y-338450D01*
G01X1400030Y-340500D02*
X1399670Y-340180D01*
G01D02*
X1399320Y-339830D01*
G01D02*
X1399060Y-339410D01*
G01X1398160Y-341910D02*
X1398840Y-342110D01*
G01X1398100Y-341890D02*
X1406370D01*
G01X1397510Y-341620D02*
X1398160Y-341910D01*
G01X1400040Y-340500D02*
X1396160D01*
G01X1396520Y-340950D02*
X1396910Y-341240D01*
G01D02*
X1397510Y-341620D01*
G01X1396840Y-341190D02*
X1407530D01*
G01X1395810Y-338410D02*
X1398880D01*
G01X1395810Y-335260D02*
Y-339190D01*
G01D02*
X1395840Y-339680D01*
G01X1398970Y-339110D02*
X1395810D01*
G01X1395840Y-339680D02*
X1395980Y-340150D01*
G01D02*
X1396210Y-340580D01*
G01D02*
X1396520Y-340950D01*
G01X1395880Y-339800D02*
X1399300D01*
G01X1404550Y-342310D02*
X1405450Y-342170D01*
G01X1403640Y-342340D02*
X1404550Y-342310D01*
G01X1400890Y-342340D02*
X1403640D01*
G01X1399860Y-342280D02*
X1400890Y-342340D01*
G01X1398840Y-342110D02*
X1399860Y-342280D01*
G01X1393520Y-342340D02*
X1389860D01*
G01X1400700Y-346850D02*
X1400910Y-346830D01*
G01D02*
X1402660D01*
G01Y-350140D02*
X1400910D01*
G01D02*
X1400720Y-350120D01*
G01D02*
X1400540Y-350070D01*
G01X1400490Y-346910D02*
X1400700Y-346850D01*
G01X1400140Y-347150D02*
X1400300Y-347010D01*
G01D02*
X1400490Y-346910D01*
G01X1399820Y-347920D02*
X1399840Y-347710D01*
G01D02*
X1399900Y-347500D01*
G01D02*
X1400000Y-347310D01*
G01D02*
X1400140Y-347150D01*
G01X1399820Y-349050D02*
Y-347920D01*
G01X1400540Y-350070D02*
X1400360Y-349990D01*
G01D02*
X1400210Y-349880D01*
G01D02*
X1400080Y-349750D01*
G01D02*
X1399970Y-349590D01*
G01D02*
X1399890Y-349420D01*
G01D02*
X1399840Y-349240D01*
G01D02*
X1399820Y-349050D01*
G01X1397220Y-346830D02*
Y-350140D01*
G01X1394630D02*
Y-346830D01*
G01D02*
X1394110D01*
G01D02*
X1392700Y-350140D01*
G01D02*
X1391160Y-346830D01*
G01D02*
X1390610D01*
G01D02*
Y-350140D01*
G01X1393110Y-341890D02*
X1389470D01*
G01X1388880Y-341190D02*
X1392470D01*
G01X1387690Y-339800D02*
X1391210D01*
G01X1391840Y-340500D02*
X1388280D01*
G01X1390580Y-339110D02*
X1387090D01*
G01X1386500Y-338410D02*
X1389940D01*
G01X1389070Y-337460D02*
X1393520Y-342340D01*
G01X1389860D02*
X1385410Y-337150D01*
G01X1386240Y-346850D02*
X1386050Y-346910D01*
G01X1386300Y-350120D02*
X1386120Y-350080D01*
G01X1386050Y-346910D02*
X1385870Y-347000D01*
G01D02*
X1385720Y-347130D01*
G01D02*
X1385590Y-347280D01*
G01D02*
X1385500Y-347460D01*
G01D02*
X1385440Y-347650D01*
G01D02*
X1385420Y-347850D01*
G01X1385410Y-349080D02*
Y-348490D01*
G01D02*
X1388250D01*
G01X1385410Y-347850D02*
Y-348490D01*
G01X1386120Y-350080D02*
X1385950Y-350000D01*
G01D02*
X1385800Y-349890D01*
G01D02*
X1385670Y-349760D01*
G01D02*
X1385560Y-349610D01*
G01D02*
X1385480Y-349440D01*
G01D02*
X1385440Y-349260D01*
G01D02*
X1385420Y-349080D01*
G01X1388250Y-346830D02*
X1386440D01*
G01D02*
X1386240Y-346850D01*
G01X1388250Y-350140D02*
X1386480D01*
G01D02*
X1386300Y-350120D01*
G01X1408800Y-334940D02*
X1405730D01*
G01Y-335640D02*
X1408800D01*
G01X1405730Y-337030D02*
X1408800D01*
G01Y-336330D02*
X1405730D01*
G01X1408800Y-337720D02*
X1405730D01*
G01X1405690Y-332330D02*
X1405730Y-332780D01*
G01Y-332860D02*
X1408800D01*
G01X1408750Y-332170D02*
X1405640D01*
G01X1408800Y-333560D02*
X1405730D01*
G01Y-334250D02*
X1408800D01*
G01X1406200Y-329590D02*
X1405390Y-329310D01*
G01X1404980Y-331240D02*
X1405310Y-331540D01*
G01D02*
X1405550Y-331910D01*
G01D02*
X1405690Y-332330D01*
G01X1405230Y-331470D02*
X1408510D01*
G01X1395810Y-335260D02*
X1398880D01*
G01D02*
X1395810D01*
G01X1398880Y-334940D02*
X1395810D01*
G01Y-335640D02*
X1398880D01*
G01Y-336330D02*
X1395810D01*
G01Y-337030D02*
X1398880D01*
G01Y-337720D02*
X1395810D01*
G01X1392700Y-334670D02*
X1392580Y-335130D01*
G01D02*
X1392360Y-335550D01*
G01D02*
X1392070Y-335930D01*
G01D02*
X1391710Y-336240D01*
G01D02*
X1391110Y-336580D01*
G01D02*
X1390450Y-336820D01*
G01D02*
X1389770Y-336940D01*
G01X1405390Y-329310D02*
X1404540Y-329150D01*
G01X1404070Y-330690D02*
X1404550Y-330920D01*
G01D02*
X1404980Y-331240D01*
G01X1408040Y-330780D02*
X1404260D01*
G01X1404540Y-329150D02*
X1403680Y-329120D01*
G01X1403010Y-330530D02*
X1403550Y-330560D01*
G01D02*
X1404070Y-330690D01*
G01X1401560Y-330530D02*
X1403010D01*
G01X1403680Y-329120D02*
X1400570D01*
G01X1400990Y-330570D02*
X1401560Y-330530D01*
G01X1400570Y-329120D02*
X1399770Y-329150D01*
G01X1399940Y-330990D02*
X1400440Y-330720D01*
G01D02*
X1400990Y-330570D01*
G01X1399770Y-329150D02*
X1398970Y-329290D01*
G01X1399510Y-331360D02*
X1399940Y-330990D01*
G01X1399240Y-331670D02*
X1399510Y-331360D01*
G01X1398880Y-332820D02*
X1398920Y-332410D01*
G01D02*
X1399040Y-332020D01*
G01D02*
X1399240Y-331670D01*
G01X1398880Y-335260D02*
Y-332820D01*
G01X1405630Y-329390D02*
X1398680D01*
G01X1398970Y-329290D02*
X1398210Y-329550D01*
G01D02*
X1397500Y-329940D01*
G01X1397320Y-330090D02*
X1407200D01*
G01X1397500Y-329940D02*
X1396870Y-330450D01*
G01D02*
X1396500Y-330760D01*
G01X1400340Y-330780D02*
X1396490D01*
G01X1396500Y-330760D02*
X1396210Y-331140D01*
G01X1395980Y-331560D02*
X1395850Y-332020D01*
G01X1396210Y-331140D02*
X1395980Y-331560D01*
G01X1396030Y-331470D02*
X1399410D01*
G01X1395850Y-332020D02*
X1395810Y-332500D01*
G01X1398990Y-332170D02*
X1395840D01*
G01X1395810Y-332860D02*
X1398880D01*
G01Y-333560D02*
X1395810D01*
G01Y-334250D02*
X1398880D01*
G01X1395810Y-332500D02*
Y-335260D01*
G01X1392260Y-330770D02*
X1392480Y-331080D01*
G01D02*
X1392630Y-331430D01*
G01D02*
X1392720Y-331810D01*
G01D02*
X1392740Y-332190D01*
G01D02*
Y-334190D01*
G01D02*
X1392700Y-334670D01*
G01X1391360Y-329890D02*
X1391850Y-330290D01*
G01D02*
X1392260Y-330770D01*
G01X1390810Y-329590D02*
X1391360Y-329890D01*
G01X1392740Y-332170D02*
X1389620D01*
G01X1389670Y-332860D02*
X1392740D01*
G01X1389670Y-333640D02*
Y-332540D01*
G01X1392740Y-333560D02*
X1389670D01*
G01X1389620Y-334080D02*
X1389670Y-333640D01*
G01X1388850Y-335270D02*
X1389310Y-334900D01*
G01X1392630Y-334940D02*
X1389260D01*
G01X1389770Y-336940D02*
X1389070Y-336950D01*
G01D02*
Y-337460D01*
G01X1387770Y-335690D02*
X1388330Y-335540D01*
G01D02*
X1388850Y-335270D01*
G01X1387960Y-335640D02*
X1392300D01*
G01X1387190Y-335730D02*
X1387770Y-335690D01*
G01X1385410Y-335730D02*
X1387190D01*
G01X1385410Y-337150D02*
Y-335730D01*
G01X1391550Y-336330D02*
X1385410D01*
G01Y-337030D02*
X1389070D01*
G01X1389310Y-337720D02*
X1385900D01*
G01X1389670Y-332540D02*
X1389610Y-332100D01*
G01D02*
X1389460Y-331690D01*
G01X1389500Y-334500D02*
X1389620Y-334080D01*
G01X1389570Y-334250D02*
X1392730D01*
G01X1389170Y-329240D02*
X1390810Y-329590D01*
G01X1389460Y-331690D02*
X1389230Y-331320D01*
G01D02*
X1388920Y-331010D01*
G01X1389330Y-331470D02*
X1392640D01*
G01X1389310Y-334900D02*
X1389500Y-334500D01*
G01X1388920Y-331010D02*
X1388280Y-330720D01*
G01X1392270Y-330780D02*
X1388410D01*
G01X1387500Y-329120D02*
X1389170Y-329240D01*
G01X1388280Y-330720D02*
X1387600Y-330560D01*
G01D02*
X1386910Y-330530D01*
G01X1425810Y-338410D02*
X1422500D01*
G01Y-339110D02*
X1425810D01*
G01X1422500Y-340500D02*
X1425810D01*
G01Y-339800D02*
X1422500D01*
G01X1425810Y-341190D02*
X1422500D01*
G01Y-341890D02*
X1425810D01*
G01X1422500Y-337270D02*
Y-342340D01*
G01X1415410D02*
Y-337220D01*
G01X1422500Y-342340D02*
X1425810D01*
G01D02*
Y-329590D01*
G01X1426810Y-347510D02*
X1426890Y-347350D01*
G01Y-349600D02*
X1426810Y-349440D01*
G01X1424630Y-346830D02*
Y-348830D01*
G01X1424620D02*
X1424600Y-349060D01*
G01D02*
X1424540Y-349280D01*
G01D02*
X1424440Y-349480D01*
G01D02*
X1424310Y-349670D01*
G01D02*
X1424150Y-349830D01*
G01D02*
X1423970Y-349960D01*
G01D02*
X1423760Y-350060D01*
G01D02*
X1423540Y-350120D01*
G01D02*
X1423310Y-350140D01*
G01D02*
X1422790D01*
G01D02*
X1422570Y-350120D01*
G01D02*
X1422370Y-350070D01*
G01D02*
X1422170Y-349970D01*
G01D02*
X1421990Y-349850D01*
G01X1421560Y-348900D02*
Y-346830D01*
G01X1421990Y-349850D02*
X1421840Y-349700D01*
G01D02*
X1421720Y-349520D01*
G01D02*
X1421620Y-349320D01*
G01D02*
X1421570Y-349120D01*
G01D02*
X1421550Y-348900D01*
G01X1418550Y-347000D02*
X1418730Y-347130D01*
G01D02*
X1418890Y-347290D01*
G01D02*
X1419020Y-347470D01*
G01D02*
X1419110Y-347680D01*
G01D02*
X1419170Y-347900D01*
G01D02*
X1419190Y-348120D01*
G01D02*
Y-348830D01*
G01D02*
X1419170Y-349030D01*
G01D02*
X1419130Y-349230D01*
G01D02*
X1419050Y-349420D01*
G01D02*
X1418940Y-349600D01*
G01D02*
X1418810Y-349760D01*
G01D02*
X1418650Y-349890D01*
G01X1417900Y-346830D02*
X1418120Y-346850D01*
G01D02*
X1418340Y-346910D01*
G01D02*
X1418550Y-347000D01*
G01X1418650Y-349890D02*
X1418470Y-350000D01*
G01D02*
X1418280Y-350080D01*
G01D02*
X1418080Y-350120D01*
G01D02*
X1417880Y-350140D01*
G01X1416120Y-346830D02*
X1417900D01*
G01X1417880Y-350140D02*
X1416120D01*
G01D02*
Y-346830D01*
G01X1415410Y-338410D02*
X1412110D01*
G01Y-339110D02*
X1415410D01*
G01Y-339800D02*
X1412110D01*
G01Y-340500D02*
X1415410D01*
G01Y-341190D02*
X1412110D01*
G01Y-341890D02*
X1415410D01*
G01X1412110Y-342340D02*
X1415410D01*
G01X1408750Y-339470D02*
X1408800Y-338920D01*
G01X1408570Y-339990D02*
X1408750Y-339470D01*
G01X1408280Y-340460D02*
X1408570Y-339990D01*
G01X1407430Y-341290D02*
X1407890Y-340850D01*
G01D02*
X1408280Y-340460D01*
G01X1406900Y-341640D02*
X1407430Y-341290D01*
G01X1406320Y-341910D02*
X1406900Y-341640D01*
G01X1412110Y-329590D02*
Y-342340D01*
G01X1408800Y-338920D02*
Y-332780D01*
G01X1413760Y-346830D02*
Y-350140D01*
G01D02*
X1413210D01*
G01D02*
X1410930Y-346830D01*
G01D02*
X1410450D01*
G01D02*
Y-350140D01*
G01X1407790Y-347290D02*
X1407630Y-347130D01*
G01D02*
X1407440Y-347000D01*
G01X1408090Y-348130D02*
X1408070Y-347900D01*
G01D02*
X1408010Y-347690D01*
G01D02*
X1407920Y-347480D01*
G01D02*
X1407790Y-347290D01*
G01X1408090Y-348820D02*
Y-348130D01*
G01X1408070Y-349030D02*
X1408090Y-348820D01*
G01X1407550Y-349890D02*
X1407700Y-349750D01*
G01D02*
X1407840Y-349600D01*
G01D02*
X1407950Y-349420D01*
G01D02*
X1408030Y-349230D01*
G01D02*
X1408070Y-349030D01*
G01X1407440Y-347000D02*
X1407230Y-346910D01*
G01D02*
X1407020Y-346850D01*
G01D02*
X1406790Y-346830D01*
G01X1406770Y-350140D02*
X1406980Y-350120D01*
G01D02*
X1407180Y-350080D01*
G01D02*
X1407370Y-350000D01*
G01D02*
X1407550Y-349890D01*
G01X1406790Y-346830D02*
X1406050D01*
G01D02*
X1405830Y-346850D01*
G01X1405850Y-350120D02*
X1406070Y-350140D01*
G01D02*
X1406770D01*
G01X1422110Y-334680D02*
X1421920Y-334760D01*
G01X1421880Y-336470D02*
X1422090Y-336550D01*
G01D02*
X1422260Y-336680D01*
G01D02*
X1422390Y-336850D01*
G01D02*
X1422470Y-337050D01*
G01X1425810Y-337030D02*
X1422460D01*
G01X1422470Y-337050D02*
X1422500Y-337270D01*
G01Y-337720D02*
X1425810D01*
G01X1421920Y-334760D02*
X1421720Y-334780D01*
G01X1421670Y-336440D02*
X1421880Y-336470D01*
G01X1421720Y-334780D02*
X1416220D01*
G01D02*
X1416010Y-334760D01*
G01X1415990Y-336460D02*
X1416190Y-336440D01*
G01D02*
X1421670D01*
G01X1416010Y-334760D02*
X1415820Y-334680D01*
G01X1415800Y-336540D02*
X1415990Y-336460D01*
G01X1415440Y-337020D02*
X1415520Y-336830D01*
G01D02*
X1415640Y-336670D01*
G01D02*
X1415800Y-336540D01*
G01X1415410Y-337220D02*
X1415440Y-337020D01*
G01X1425810Y-329590D02*
X1422500D01*
G01Y-330090D02*
X1425810D01*
G01Y-330780D02*
X1422500D01*
G01Y-331470D02*
X1425810D01*
G01X1422500Y-332860D02*
X1425810D01*
G01Y-332170D02*
X1422500D01*
G01X1425810Y-333560D02*
X1422500D01*
G01Y-329590D02*
Y-334000D01*
G01D02*
X1422470Y-334200D01*
G01D02*
X1422390Y-334390D01*
G01X1422450Y-334250D02*
X1425810D01*
G01X1422390Y-334390D02*
X1422270Y-334560D01*
G01D02*
X1422110Y-334680D01*
G01X1415820D02*
X1415650Y-334550D01*
G01D02*
X1415520Y-334380D01*
G01D02*
X1415440Y-334190D01*
G01D02*
X1415410Y-333980D01*
G01D02*
Y-329590D01*
G01X1412110Y-334940D02*
X1425810D01*
G01Y-335640D02*
X1412110D01*
G01X1415440Y-337030D02*
X1412110D01*
G01Y-336330D02*
X1425810D01*
G01X1412110Y-337720D02*
X1415410D01*
G01X1412110Y-330090D02*
X1415410D01*
G01Y-329590D02*
X1412110D01*
G01X1415410Y-330780D02*
X1412110D01*
G01Y-331470D02*
X1415410D01*
G01Y-332170D02*
X1412110D01*
G01Y-332860D02*
X1415410D01*
G01Y-333560D02*
X1412110D01*
G01Y-334250D02*
X1415470D01*
G01X1408590Y-331620D02*
X1408310Y-331100D01*
G01X1408800Y-332780D02*
X1408750Y-332190D01*
G01D02*
X1408590Y-331620D01*
G01X1408310Y-331100D02*
X1407930Y-330650D01*
G01D02*
X1407410Y-330210D01*
G01D02*
X1406830Y-329860D01*
G01D02*
X1406200Y-329590D01*
G01X1441870Y-338410D02*
X1444940D01*
G01Y-339110D02*
X1441870D01*
G01Y-339800D02*
X1444940D01*
G01Y-340500D02*
X1441870D01*
G01Y-341190D02*
X1444940D01*
G01Y-341890D02*
X1441870D01*
G01Y-342340D02*
X1444940D01*
G01D02*
Y-332380D01*
G01X1441870Y-332030D02*
Y-342340D01*
G01X1444880Y-347320D02*
X1444920Y-347470D01*
G01D02*
X1444940Y-347630D01*
G01D02*
X1444920Y-347800D01*
G01X1444140Y-346830D02*
X1444300Y-346850D01*
G01D02*
X1444450Y-346890D01*
G01D02*
X1444580Y-346960D01*
G01D02*
X1444710Y-347060D01*
G01D02*
X1444810Y-347190D01*
G01D02*
X1444880Y-347320D01*
G01X1444920Y-347800D02*
X1444870Y-347960D01*
G01D02*
X1444800Y-348110D01*
G01D02*
X1444690Y-348240D01*
G01D02*
X1444560Y-348350D01*
G01D02*
X1444410Y-348420D01*
G01D02*
X1444250Y-348470D01*
G01D02*
X1444080Y-348490D01*
G01D02*
X1443800D01*
G01X1444700Y-350140D02*
X1443800Y-348490D01*
G01X1441870Y-346830D02*
X1444140D01*
G01X1443800Y-348490D02*
X1441870D01*
G01Y-346830D02*
Y-348490D01*
G01D02*
Y-350140D01*
G01X1435490Y-338410D02*
X1438800D01*
G01Y-339110D02*
X1435490D01*
G01Y-339800D02*
X1438800D01*
G01Y-340500D02*
X1435490D01*
G01Y-341190D02*
X1438800D01*
G01Y-341890D02*
X1435490D01*
G01Y-342340D02*
X1438800D01*
G01D02*
Y-331580D01*
G01X1435490Y-331570D02*
Y-342340D01*
G01X1432420D02*
Y-331600D01*
G01X1439740Y-348110D02*
X1439720Y-347890D01*
G01X1439740Y-348840D02*
Y-348110D01*
G01X1439720Y-349070D02*
X1439740Y-348840D01*
G01X1439720Y-347890D02*
X1439660Y-347670D01*
G01D02*
X1439570Y-347470D01*
G01D02*
X1439440Y-347290D01*
G01D02*
X1439280Y-347130D01*
G01D02*
X1439100Y-347000D01*
G01X1439090Y-349970D02*
X1439280Y-349840D01*
G01D02*
X1439440Y-349680D01*
G01D02*
X1439570Y-349490D01*
G01D02*
X1439660Y-349280D01*
G01D02*
X1439720Y-349070D01*
G01X1439100Y-347000D02*
X1438900Y-346910D01*
G01D02*
X1438680Y-346850D01*
G01D02*
X1438460Y-346830D01*
G01X1438440Y-350140D02*
X1438670Y-350120D01*
G01D02*
X1438880Y-350060D01*
G01D02*
X1439090Y-349970D01*
G01X1438460Y-346830D02*
X1437720D01*
G01D02*
X1437500Y-346850D01*
G01D02*
X1437280Y-346910D01*
G01X1437350Y-350080D02*
X1437550Y-350120D01*
G01D02*
X1437750Y-350140D01*
G01D02*
X1438440D01*
G01X1436730Y-347290D02*
X1436600Y-347470D01*
G01D02*
X1436510Y-347680D01*
G01D02*
X1436450Y-347900D01*
G01D02*
X1436430Y-348120D01*
G01X1436440D02*
Y-348830D01*
G01D02*
X1436460Y-349030D01*
G01D02*
X1436500Y-349230D01*
G01D02*
X1436580Y-349420D01*
G01D02*
X1436690Y-349600D01*
G01X1434310Y-346830D02*
X1432890D01*
G01D02*
Y-350140D01*
G01X1431480Y-346830D02*
X1432890D01*
G01X1437280Y-346910D02*
X1437080Y-347000D01*
G01D02*
X1436890Y-347130D01*
G01D02*
X1436730Y-347290D01*
G01X1436690Y-349600D02*
X1436820Y-349760D01*
G01D02*
X1436980Y-349890D01*
G01D02*
X1437160Y-350000D01*
G01D02*
X1437350Y-350080D01*
G01X1429350Y-338410D02*
X1432420D01*
G01Y-339110D02*
X1429350D01*
G01X1432420Y-340500D02*
X1429350D01*
G01Y-339800D02*
X1432420D01*
G01X1429350Y-341190D02*
X1432420D01*
G01Y-341890D02*
X1429350D01*
G01Y-342340D02*
X1432420D01*
G01X1429350Y-329590D02*
Y-342340D01*
G01X1427790Y-346830D02*
X1429590D01*
G01Y-350140D02*
X1427820D01*
G01X1427120Y-347070D02*
X1427270Y-346970D01*
G01D02*
X1427430Y-346890D01*
G01D02*
X1427610Y-346850D01*
G01D02*
X1427790Y-346830D01*
G01X1427820Y-350140D02*
X1427630Y-350120D01*
G01D02*
X1427450Y-350080D01*
G01D02*
X1427280Y-350000D01*
G01D02*
X1427130Y-349890D01*
G01X1426890Y-347350D02*
X1426990Y-347200D01*
G01D02*
X1427120Y-347070D01*
G01X1426750Y-347870D02*
X1426770Y-347690D01*
G01D02*
X1426810Y-347510D01*
G01X1426750Y-349070D02*
Y-347870D01*
G01X1427130Y-349890D02*
X1427000Y-349760D01*
G01D02*
X1426890Y-349600D01*
G01X1426810Y-349440D02*
X1426770Y-349260D01*
G01D02*
X1426750Y-349070D01*
G01X1444940Y-334940D02*
X1441870D01*
G01Y-335640D02*
X1444940D01*
G01Y-336330D02*
X1441870D01*
G01Y-337030D02*
X1444940D01*
G01Y-337720D02*
X1441870D01*
G01X1444940Y-332380D02*
X1444890Y-331830D01*
G01D02*
X1444730Y-331300D01*
G01D02*
X1444450Y-330820D01*
G01D02*
X1444070Y-330410D01*
G01D02*
X1443420Y-329930D01*
G01D02*
X1442690Y-329570D01*
G01D02*
X1441910Y-329350D01*
G01X1441580Y-331210D02*
X1441740Y-331450D01*
G01D02*
X1441840Y-331730D01*
G01X1441750Y-331470D02*
X1444780D01*
G01X1441840Y-331730D02*
X1441870Y-332030D01*
G01X1444920Y-332170D02*
X1441870D01*
G01Y-332860D02*
X1444940D01*
G01Y-333560D02*
X1441870D01*
G01Y-334250D02*
X1444940D01*
G01X1441910Y-329350D02*
X1440750Y-329180D01*
G01X1440880Y-330840D02*
X1441360Y-331010D01*
G01D02*
X1441580Y-331210D01*
G01X1440370Y-330770D02*
X1440880Y-330840D01*
G01X1444410Y-330780D02*
X1440450D01*
G01X1438800Y-334940D02*
X1435490D01*
G01Y-335640D02*
X1438800D01*
G01Y-336330D02*
X1435490D01*
G01Y-337030D02*
X1438800D01*
G01Y-337720D02*
X1435490D01*
G01X1440750Y-329180D02*
X1439590Y-329120D01*
G01X1439040Y-331010D02*
X1439210Y-330880D01*
G01D02*
X1439400Y-330800D01*
G01D02*
X1439610Y-330770D01*
G01D02*
X1440370D01*
G01X1438910Y-331170D02*
X1439040Y-331010D01*
G01X1438800Y-331580D02*
X1438830Y-331370D01*
G01D02*
X1438910Y-331170D01*
G01X1435470Y-331360D02*
X1435490Y-331570D01*
G01X1435480Y-331470D02*
X1438810D01*
G01X1438800Y-332170D02*
X1435490D01*
G01Y-332860D02*
X1438800D01*
G01Y-333560D02*
X1435490D01*
G01Y-334250D02*
X1438800D01*
G01X1439590Y-329120D02*
X1435260D01*
G01X1434690Y-330770D02*
X1434900Y-330800D01*
G01D02*
X1435090Y-330880D01*
G01D02*
X1435260Y-331000D01*
G01D02*
X1435380Y-331170D01*
G01D02*
X1435470Y-331360D01*
G01X1439530Y-330780D02*
X1434770D01*
G01X1433030Y-330800D02*
X1433250Y-330770D01*
G01D02*
X1434690D01*
G01X1435260Y-329120D02*
X1432290Y-329210D01*
G01X1432660Y-331010D02*
X1432840Y-330880D01*
G01D02*
X1433030Y-330800D01*
G01X1432420Y-331600D02*
X1432450Y-331380D01*
G01D02*
X1432530Y-331180D01*
G01D02*
X1432660Y-331010D01*
G01X1430900Y-329390D02*
X1442050D01*
G01X1432420Y-334940D02*
X1429350D01*
G01Y-335640D02*
X1432420D01*
G01X1429350Y-337030D02*
X1432420D01*
G01Y-336330D02*
X1429350D01*
G01X1432420Y-337720D02*
X1429350D01*
G01Y-330090D02*
X1443630D01*
G01X1432290Y-329210D02*
X1429350Y-329590D01*
G01X1433170Y-330780D02*
X1429350D01*
G01Y-331470D02*
X1432440D01*
G01X1429350Y-332860D02*
X1432420D01*
G01Y-332170D02*
X1429350D01*
G01X1432420Y-333560D02*
X1429350D01*
G01Y-334250D02*
X1432420D01*
G54D13*
G01X-267500Y-438000D02*
Y-448000D01*
G01D02*
X1932500D01*
Y1252000D01*
G01D02*
X-267500D01*
Y-438000D01*
G01X-245925Y-218000D02*
X-238050Y-193000D01*
X-230175Y-218000D01*
G01X-233010Y-209250D02*
X-243090D01*
G01X-217500Y-18000D02*
X-247500D01*
G01X-235530Y155334D02*
X-234270Y156583D01*
X-233325Y158666D01*
X-232695Y161584D01*
X-233325Y164083D01*
X-234585Y165750D01*
X-236790Y167000D01*
X-245295D01*
Y142000D01*
X-234900D01*
X-232695Y143666D01*
X-231435Y146166D01*
X-230805Y149083D01*
X-231435Y151999D01*
X-233325Y154500D01*
X-235530Y155334D01*
X-245295D01*
G01X-217500Y412000D02*
X-247500D01*
G01X-231120Y564916D02*
X-233010Y566167D01*
X-235215Y567000D01*
X-237735D01*
X-240570Y565750D01*
X-242775Y563667D01*
X-244350Y561166D01*
X-245610Y557000D01*
X-245925Y553250D01*
X-245295Y549500D01*
X-244350Y547000D01*
X-242460Y544500D01*
X-240255Y542833D01*
X-238050Y542000D01*
X-235845D01*
X-233640Y542833D01*
X-231750Y544083D01*
X-230175Y545749D01*
G01X-217500Y842000D02*
X-247500D01*
G01X-244980Y1022000D02*
Y1047000D01*
X-238680D01*
X-236160Y1045750D01*
X-234270Y1044083D01*
X-232695Y1041584D01*
X-231435Y1038666D01*
X-231120Y1034500D01*
X-231435Y1030333D01*
X-232695Y1027416D01*
X-234270Y1024916D01*
X-236160Y1023250D01*
X-238680Y1022000D01*
X-244980D01*
G01X-217500Y1182000D02*
Y-378000D01*
X-157500D01*
G01X-217500Y1182000D02*
X-167500D01*
G01X-187500D02*
X2500D01*
G01X-157500Y-378000D02*
X1362500D01*
G01X-60867Y-67450D02*
Y-59950D01*
X-58867D01*
X-58200Y-60325D01*
X-57700Y-61200D01*
X-57533Y-62200D01*
X-57700Y-63200D01*
X-58117Y-63950D01*
X-58867Y-64325D01*
X-60867D01*
G01X-54367Y-67450D02*
Y-59950D01*
X-52283D01*
X-51617Y-60325D01*
X-51200Y-60825D01*
X-51033Y-61825D01*
X-51200Y-62825D01*
X-51700Y-63450D01*
X-52283Y-63825D01*
X-54367D01*
G01X-52283D02*
X-51033Y-67450D01*
G01X-47200Y-59950D02*
X-45200D01*
G01X-46200D02*
Y-67450D01*
G01X-47200D02*
X-45200D01*
G01X-41867D02*
Y-59950D01*
X-39700Y-66200D01*
X-37533Y-59950D01*
Y-67450D01*
G01X-35283D02*
X-33200Y-59950D01*
X-31117Y-67450D01*
G01X-31867Y-64825D02*
X-34533D01*
G01X-28367Y-67450D02*
Y-59950D01*
X-26283D01*
X-25617Y-60325D01*
X-25200Y-60825D01*
X-25033Y-61825D01*
X-25200Y-62825D01*
X-25700Y-63450D01*
X-26283Y-63825D01*
X-28367D01*
G01X-26283D02*
X-25033Y-67450D01*
G01X-20200D02*
Y-64075D01*
X-21867Y-59950D01*
G01X-18533D02*
X-20200Y-64075D01*
G01X-14783Y-64950D02*
X-12617D01*
G01X-8950Y-66450D02*
X-8283Y-67075D01*
X-7533Y-67450D01*
X-6867D01*
X-6200Y-67075D01*
X-5700Y-66450D01*
X-5450Y-65575D01*
X-5617Y-64700D01*
X-6033Y-63950D01*
X-6783Y-63450D01*
X-7783Y-63200D01*
X-8367Y-62700D01*
X-8617Y-61825D01*
X-8450Y-60950D01*
X-8033Y-60325D01*
X-7450Y-59950D01*
X-6867D01*
X-6283Y-60200D01*
X-5783Y-60825D01*
G01X-1700Y-59950D02*
X300D01*
G01X-700D02*
Y-67450D01*
G01X-1700D02*
X300D01*
G01X3967D02*
Y-59950D01*
X5633D01*
X6300Y-60325D01*
X6800Y-60825D01*
X7217Y-61575D01*
X7550Y-62450D01*
X7633Y-63700D01*
X7550Y-64950D01*
X7217Y-65825D01*
X6800Y-66575D01*
X6300Y-67075D01*
X5633Y-67450D01*
X3967D01*
G01X13967D02*
X10633D01*
Y-59950D01*
X13967D01*
G01X12633Y-63575D02*
X10633D01*
G01X-61283Y-54950D02*
X-59200Y-47450D01*
X-57117Y-54950D01*
G01X-57867Y-52325D02*
X-60533D01*
G01X-54450Y-53950D02*
X-53783Y-54575D01*
X-53033Y-54950D01*
X-52367D01*
X-51700Y-54575D01*
X-51200Y-53950D01*
X-50950Y-53075D01*
X-51117Y-52200D01*
X-51533Y-51450D01*
X-52283Y-50950D01*
X-53283Y-50700D01*
X-53867Y-50200D01*
X-54117Y-49325D01*
X-53950Y-48450D01*
X-53533Y-47825D01*
X-52950Y-47450D01*
X-52367D01*
X-51783Y-47700D01*
X-51283Y-48325D01*
G01X-47950Y-53950D02*
X-47283Y-54575D01*
X-46533Y-54950D01*
X-45867D01*
X-45200Y-54575D01*
X-44700Y-53950D01*
X-44450Y-53075D01*
X-44617Y-52200D01*
X-45033Y-51450D01*
X-45783Y-50950D01*
X-46783Y-50700D01*
X-47367Y-50200D01*
X-47617Y-49325D01*
X-47450Y-48450D01*
X-47033Y-47825D01*
X-46450Y-47450D01*
X-45867D01*
X-45283Y-47700D01*
X-44783Y-48325D01*
G01X-38033Y-54950D02*
X-41367D01*
Y-47450D01*
X-38033D01*
G01X-39367Y-51075D02*
X-41367D01*
G01X-35367Y-54950D02*
Y-47450D01*
X-33200Y-53700D01*
X-31033Y-47450D01*
Y-54950D01*
G01X-26033Y-50950D02*
X-25700Y-50575D01*
X-25450Y-49950D01*
X-25283Y-49075D01*
X-25450Y-48325D01*
X-25783Y-47825D01*
X-26367Y-47450D01*
X-28617D01*
Y-54950D01*
X-25867D01*
X-25283Y-54450D01*
X-24950Y-53700D01*
X-24783Y-52825D01*
X-24950Y-51950D01*
X-25450Y-51200D01*
X-26033Y-50950D01*
X-28617D01*
G01X-21867Y-47450D02*
Y-54950D01*
X-18533D01*
G01X-13700D02*
Y-51575D01*
X-15367Y-47450D01*
G01X-12033D02*
X-13700Y-51575D01*
G01X258091Y-17500D02*
Y258091D01*
X-17500D01*
Y-17500D01*
X258091D01*
G01X5730Y-428000D02*
Y-403000D01*
X-5925Y-420917D01*
X9825D01*
G01X2500Y1182000D02*
X1872500D01*
G01X5730Y1202000D02*
Y1227000D01*
X-5925Y1209083D01*
X9825D01*
G01X272500Y-378000D02*
Y-428000D01*
G01Y1182000D02*
Y1232000D01*
G01X535020Y-423000D02*
X536910Y-425917D01*
X539430Y-427583D01*
X542265Y-428000D01*
X544785Y-427583D01*
X547305Y-425501D01*
X548880Y-423000D01*
X549195Y-420500D01*
X548565Y-417584D01*
X546360Y-415500D01*
X544155Y-414667D01*
X541320D01*
G01X544155D02*
X546045Y-413417D01*
X547620Y-411334D01*
X548250Y-408834D01*
X547620Y-406333D01*
X546045Y-404250D01*
X543210Y-403000D01*
X540375Y-403417D01*
X537540Y-405084D01*
G01X535020Y1207000D02*
X536910Y1204083D01*
X539430Y1202417D01*
X542265Y1202000D01*
X544785Y1202417D01*
X547305Y1204500D01*
X548880Y1207000D01*
X549195Y1209500D01*
X548565Y1212416D01*
X546360Y1214500D01*
X544155Y1215334D01*
X541320D01*
G01X544155D02*
X546045Y1216583D01*
X547620Y1218666D01*
X548250Y1221166D01*
X547620Y1223667D01*
X546045Y1225750D01*
X543210Y1227000D01*
X540375Y1226583D01*
X537540Y1224916D01*
G01X812500Y-428000D02*
Y-378000D01*
G01Y1182000D02*
Y1232000D01*
G01X1095965Y1222834D02*
X1097855Y1225333D01*
X1100060Y1226583D01*
X1102580Y1227000D01*
X1105730Y1226167D01*
X1107935Y1224083D01*
X1108565Y1221584D01*
X1108250Y1219083D01*
X1106990Y1217000D01*
X1100690Y1212833D01*
X1097855Y1209916D01*
X1095965Y1205749D01*
X1095335Y1202000D01*
X1108565D01*
G01X1125965Y-407167D02*
X1127855Y-404667D01*
X1130060Y-403417D01*
X1132580Y-403000D01*
X1135730Y-403833D01*
X1137935Y-405917D01*
X1138565Y-408416D01*
X1138250Y-410917D01*
X1136990Y-413000D01*
X1130690Y-417167D01*
X1127855Y-420084D01*
X1125965Y-424251D01*
X1125335Y-428000D01*
X1138565D01*
G01X1232500Y1182000D02*
Y1062000D01*
G01Y1122000D02*
X1882500D01*
G01X1232500Y1152000D02*
X1882500D01*
G01X1243750Y1132000D02*
Y1142000D01*
X1246875D01*
X1247875Y1141500D01*
X1248500Y1140833D01*
X1248750Y1139500D01*
X1248500Y1138167D01*
X1247750Y1137333D01*
X1246875Y1136833D01*
X1243750D01*
G01X1246875D02*
X1248750Y1132000D01*
G01X1258750D02*
X1253750D01*
Y1142000D01*
X1258750D01*
G01X1256750Y1137167D02*
X1253750D01*
G01X1263125Y1142000D02*
X1266250Y1132000D01*
X1269375Y1142000D01*
G01X1282500Y1152000D02*
Y1062000D01*
G01X1337500Y-378000D02*
Y-303000D01*
X1882500D01*
Y-378000D01*
X1372500D01*
G01X1882500Y1182000D02*
Y-378000D01*
X1362500D01*
G01X1372500D02*
Y-428000D01*
G01X1383645Y-338410D02*
G03I-355J0D01*
G01Y-339800D02*
G03I-355J0D01*
G01Y-339110D02*
G03I-355J0D01*
G01Y-340500D02*
G03I-355J0D01*
G01Y-341190D02*
G03I-355J0D01*
G01Y-341890D02*
G03I-355J0D01*
G01X1380335Y-338410D02*
G03I-355J0D01*
G01Y-339110D02*
G03I-355J0D01*
G01Y-340500D02*
G03I-355J0D01*
G01Y-339800D02*
G03I-355J0D01*
G01Y-341190D02*
G03I-355J0D01*
G01Y-341890D02*
G03I-355J0D01*
G01X1383645Y-342340D02*
G03I-355J0D01*
G01X1380335D02*
G03I-355J0D01*
G01X1383645Y-346830D02*
G03I-355J0D01*
G01X1383005Y-348500D02*
G03I-355J0D01*
G01X1383155Y-348540D02*
G03I-355J0D01*
G01X1383285Y-348610D02*
G03I-355J0D01*
G01X1383415Y-348710D02*
G03I-355J0D01*
G01X1383515Y-348840D02*
G03I-355J0D01*
G01X1383585Y-348970D02*
G03I-355J0D01*
G01X1383625Y-349120D02*
G03I-355J0D01*
G01X1383645Y-349280D02*
G03I-355J0D01*
G01X1383625Y-349450D02*
G03I-355J0D01*
G01X1383575Y-349610D02*
G03I-355J0D01*
G01X1383505Y-349760D02*
G03I-355J0D01*
G01X1383395Y-349890D02*
G03I-355J0D01*
G01X1383265Y-350000D02*
G03I-355J0D01*
G01X1383115Y-350070D02*
G03I-355J0D01*
G01X1382955Y-350120D02*
G03I-355J0D01*
G01X1382845Y-348490D02*
G03I-355J0D01*
G01Y-348480D02*
G03I-355J0D01*
G01X1382785Y-350140D02*
G03I-355J0D01*
G01X1381225Y-348480D02*
G03I-355J0D01*
G01Y-348490D02*
G03I-355J0D01*
G01X1381095Y-346830D02*
G03I-355J0D01*
G01X1380925Y-346850D02*
G03I-355J0D01*
G01X1380765Y-346910D02*
G03I-355J0D01*
G01X1380625Y-347000D02*
G03I-355J0D01*
G01X1380505Y-347120D02*
G03I-355J0D01*
G01X1380415Y-347260D02*
G03I-355J0D01*
G01X1380355Y-347420D02*
G03I-355J0D01*
G01X1380335Y-347590D02*
G03I-355J0D01*
G01X1380355Y-347760D02*
G03I-355J0D01*
G01X1380405Y-347930D02*
G03I-355J0D01*
G01X1380485Y-348080D02*
G03I-355J0D01*
G01X1380595Y-348220D02*
G03I-355J0D01*
G01X1380735Y-348330D02*
G03I-355J0D01*
G01X1380885Y-348410D02*
G03I-355J0D01*
G01X1381055Y-348460D02*
G03I-355J0D01*
G01X1380335Y-350140D02*
G03I-355J0D01*
G01X1383645Y-334940D02*
G03I-355J0D01*
G01Y-336330D02*
G03I-355J0D01*
G01Y-335640D02*
G03I-355J0D01*
G01Y-337030D02*
G03I-355J0D01*
G01Y-337720D02*
G03I-355J0D01*
G01X1380335Y-334940D02*
G03I-355J0D01*
G01Y-335640D02*
G03I-355J0D01*
G01Y-337030D02*
G03I-355J0D01*
G01Y-336330D02*
G03I-355J0D01*
G01Y-337720D02*
G03I-355J0D01*
G01X1384825Y-329120D02*
G03I-355J0D01*
G01X1384415Y-330530D02*
G03I-355J0D01*
G01X1384215Y-330560D02*
G03I-355J0D01*
G01X1384035Y-330640D02*
G03I-355J0D01*
G01X1383865Y-330760D02*
G03I-355J0D01*
G01X1383745Y-330920D02*
G03I-355J0D01*
G01X1383855Y-330780D02*
G03I-355J0D01*
G01X1383665Y-331110D02*
G03I-355J0D01*
G01X1383645Y-331310D02*
G03I-355J0D01*
G01Y-332170D02*
G03I-355J0D01*
G01Y-331470D02*
G03I-355J0D01*
G01Y-332860D02*
G03I-355J0D01*
G01Y-333560D02*
G03I-355J0D01*
G01Y-334250D02*
G03I-355J0D01*
G01X1382575Y-329260D02*
G03I-355J0D01*
G01X1381675Y-329390D02*
G03I-355J0D01*
G01X1380335Y-329590D02*
G03I-355J0D01*
G01D02*
G03I-355J0D01*
G01Y-330090D02*
G03I-355J0D01*
G01Y-330780D02*
G03I-355J0D01*
G01Y-331470D02*
G03I-355J0D01*
G01Y-332860D02*
G03I-355J0D01*
G01Y-332170D02*
G03I-355J0D01*
G01Y-333560D02*
G03I-355J0D01*
G01Y-334250D02*
G03I-355J0D01*
G01X1372500Y1192000D02*
Y1182000D01*
G01Y1192000D02*
Y1232000D01*
G01X1406085Y-338450D02*
G03I-355J0D01*
G01Y-338410D02*
G03I-355J0D01*
G01X1406025Y-339030D02*
G03I-355J0D01*
G01X1405995Y-339110D02*
G03I-355J0D01*
G01X1405835Y-339590D02*
G03I-355J0D01*
G01X1405535Y-340100D02*
G03I-355J0D01*
G01X1405065Y-340470D02*
G03I-355J0D01*
G01X1405705Y-339800D02*
G03I-355J0D01*
G01X1405005Y-340500D02*
G03I-355J0D01*
G01X1405805Y-342170D02*
G03I-355J0D01*
G01X1405975Y-346910D02*
G03I-355J0D01*
G01X1405985Y-350060D02*
G03I-355J0D01*
G01X1405775Y-347000D02*
G03I-355J0D01*
G01X1405585Y-347130D02*
G03I-355J0D01*
G01X1405435Y-347280D02*
G03I-355J0D01*
G01X1405305Y-347460D02*
G03I-355J0D01*
G01X1405215Y-347670D02*
G03I-355J0D01*
G01X1405155Y-347880D02*
G03I-355J0D01*
G01X1405135Y-348100D02*
G03I-355J0D01*
G01Y-348850D02*
G03I-355J0D01*
G01X1405155Y-349070D02*
G03I-355J0D01*
G01X1405215Y-349290D02*
G03I-355J0D01*
G01X1405305Y-349490D02*
G03I-355J0D01*
G01X1405435Y-349680D02*
G03I-355J0D01*
G01X1405595Y-349840D02*
G03I-355J0D01*
G01X1405775Y-349970D02*
G03I-355J0D01*
G01X1404535Y-340730D02*
G03I-355J0D01*
G01X1403965Y-340890D02*
G03I-355J0D01*
G01X1403365Y-340930D02*
G03I-355J0D01*
G01X1401755D02*
G03I-355J0D01*
G01X1401275Y-340880D02*
G03I-355J0D01*
G01X1400805Y-340730D02*
G03I-355J0D01*
G01X1400385Y-340500D02*
G03I-355J0D01*
G01X1400025Y-340180D02*
G03I-355J0D01*
G01X1400395Y-340500D02*
G03I-355J0D01*
G01X1399235Y-338450D02*
G03I-355J0D01*
G01Y-338410D02*
G03I-355J0D01*
G01X1399415Y-339410D02*
G03I-355J0D01*
G01X1399265Y-338940D02*
G03I-355J0D01*
G01X1399325Y-339110D02*
G03I-355J0D01*
G01X1399675Y-339830D02*
G03I-355J0D01*
G01X1399655Y-339800D02*
G03I-355J0D01*
G01X1398515Y-341910D02*
G03I-355J0D01*
G01X1398455Y-341890D02*
G03I-355J0D01*
G01X1397865Y-341620D02*
G03I-355J0D01*
G01X1396565Y-340580D02*
G03I-355J0D01*
G01X1396515Y-340500D02*
G03I-355J0D01*
G01X1396875Y-340950D02*
G03I-355J0D01*
G01X1397265Y-341240D02*
G03I-355J0D01*
G01X1397195Y-341190D02*
G03I-355J0D01*
G01X1396165Y-338410D02*
G03I-355J0D01*
G01Y-339190D02*
G03I-355J0D01*
G01X1396195Y-339680D02*
G03I-355J0D01*
G01X1396165Y-339110D02*
G03I-355J0D01*
G01X1396335Y-340150D02*
G03I-355J0D01*
G01X1396235Y-339800D02*
G03I-355J0D01*
G01X1393465Y-341890D02*
G03I-355J0D01*
G01X1392825Y-341190D02*
G03I-355J0D01*
G01X1391565Y-339800D02*
G03I-355J0D01*
G01X1392195Y-340500D02*
G03I-355J0D01*
G01X1390935Y-339110D02*
G03I-355J0D01*
G01X1390295Y-338410D02*
G03I-355J0D01*
G01X1404905Y-342310D02*
G03I-355J0D01*
G01X1403995Y-342340D02*
G03I-355J0D01*
G01X1401245D02*
G03I-355J0D01*
G01X1400215Y-342280D02*
G03I-355J0D01*
G01X1399195Y-342110D02*
G03I-355J0D01*
G01X1393875Y-342340D02*
G03I-355J0D01*
G01X1390215D02*
G03I-355J0D01*
G01X1403015Y-346830D02*
G03I-355J0D01*
G01Y-350140D02*
G03I-355J0D01*
G01X1400845Y-346910D02*
G03I-355J0D01*
G01X1401055Y-346850D02*
G03I-355J0D01*
G01X1401265Y-346830D02*
G03I-355J0D01*
G01Y-350140D02*
G03I-355J0D01*
G01X1401075Y-350120D02*
G03I-355J0D01*
G01X1400895Y-350070D02*
G03I-355J0D01*
G01X1400355Y-347310D02*
G03I-355J0D01*
G01X1400495Y-347150D02*
G03I-355J0D01*
G01X1400655Y-347010D02*
G03I-355J0D01*
G01X1400175Y-347920D02*
G03I-355J0D01*
G01X1400195Y-347710D02*
G03I-355J0D01*
G01X1400255Y-347500D02*
G03I-355J0D01*
G01X1400175Y-349050D02*
G03I-355J0D01*
G01X1400715Y-349990D02*
G03I-355J0D01*
G01X1400565Y-349880D02*
G03I-355J0D01*
G01X1400435Y-349750D02*
G03I-355J0D01*
G01X1400325Y-349590D02*
G03I-355J0D01*
G01X1400245Y-349420D02*
G03I-355J0D01*
G01X1400195Y-349240D02*
G03I-355J0D01*
G01X1397575Y-346830D02*
G03I-355J0D01*
G01Y-350140D02*
G03I-355J0D01*
G01X1394985Y-346830D02*
G03I-355J0D01*
G01Y-350140D02*
G03I-355J0D01*
G01X1394465Y-346830D02*
G03I-355J0D01*
G01X1393055Y-350140D02*
G03I-355J0D01*
G01X1391515Y-346830D02*
G03I-355J0D01*
G01X1390965D02*
G03I-355J0D01*
G01Y-350140D02*
G03I-355J0D01*
G01X1389825Y-341890D02*
G03I-355J0D01*
G01X1389235Y-341190D02*
G03I-355J0D01*
G01X1388045Y-339800D02*
G03I-355J0D01*
G01X1388635Y-340500D02*
G03I-355J0D01*
G01X1387445Y-339110D02*
G03I-355J0D01*
G01X1386855Y-338410D02*
G03I-355J0D01*
G01X1388605Y-346830D02*
G03I-355J0D01*
G01Y-348490D02*
G03I-355J0D01*
G01Y-350140D02*
G03I-355J0D01*
G01X1386405Y-346910D02*
G03I-355J0D01*
G01X1386305Y-350000D02*
G03I-355J0D01*
G01X1386225Y-347000D02*
G03I-355J0D01*
G01X1386075Y-347130D02*
G03I-355J0D01*
G01X1385945Y-347280D02*
G03I-355J0D01*
G01X1385855Y-347460D02*
G03I-355J0D01*
G01X1385795Y-347650D02*
G03I-355J0D01*
G01X1385775Y-347850D02*
G03I-355J0D01*
G01X1385765D02*
G03I-355J0D01*
G01X1385775Y-349080D02*
G03I-355J0D01*
G01X1385765D02*
G03I-355J0D01*
G01Y-348490D02*
G03I-355J0D01*
G01D02*
G03I-355J0D01*
G01X1386155Y-349890D02*
G03I-355J0D01*
G01X1386025Y-349760D02*
G03I-355J0D01*
G01X1385915Y-349610D02*
G03I-355J0D01*
G01X1385835Y-349440D02*
G03I-355J0D01*
G01X1385795Y-349260D02*
G03I-355J0D01*
G01X1386795Y-346830D02*
G03I-355J0D01*
G01X1386595Y-346850D02*
G03I-355J0D01*
G01X1386835Y-350140D02*
G03I-355J0D01*
G01X1386655Y-350120D02*
G03I-355J0D01*
G01X1386475Y-350080D02*
G03I-355J0D01*
G01X1406085Y-334940D02*
G03I-355J0D01*
G01Y-335640D02*
G03I-355J0D01*
G01Y-337030D02*
G03I-355J0D01*
G01Y-336330D02*
G03I-355J0D01*
G01Y-337720D02*
G03I-355J0D01*
G01X1405985Y-329390D02*
G03I-355J0D01*
G01X1405905Y-331910D02*
G03I-355J0D01*
G01X1406045Y-332330D02*
G03I-355J0D01*
G01X1406085Y-332780D02*
G03I-355J0D01*
G01Y-332860D02*
G03I-355J0D01*
G01X1405995Y-332170D02*
G03I-355J0D01*
G01X1406085Y-333560D02*
G03I-355J0D01*
G01Y-334250D02*
G03I-355J0D01*
G01X1405745Y-329310D02*
G03I-355J0D01*
G01X1405335Y-331240D02*
G03I-355J0D01*
G01X1405665Y-331540D02*
G03I-355J0D01*
G01X1405585Y-331470D02*
G03I-355J0D01*
G01X1399235Y-335260D02*
G03I-355J0D01*
G01D02*
G03I-355J0D01*
G01D02*
G03I-355J0D01*
G01Y-334940D02*
G03I-355J0D01*
G01Y-335640D02*
G03I-355J0D01*
G01Y-336330D02*
G03I-355J0D01*
G01Y-337030D02*
G03I-355J0D01*
G01Y-337720D02*
G03I-355J0D01*
G01X1396165Y-335260D02*
G03I-355J0D01*
G01D02*
G03I-355J0D01*
G01D02*
G03I-355J0D01*
G01Y-334940D02*
G03I-355J0D01*
G01Y-335640D02*
G03I-355J0D01*
G01Y-336330D02*
G03I-355J0D01*
G01Y-337030D02*
G03I-355J0D01*
G01Y-337720D02*
G03I-355J0D01*
G01X1393055Y-334670D02*
G03I-355J0D01*
G01X1392935Y-335130D02*
G03I-355J0D01*
G01X1392985Y-334940D02*
G03I-355J0D01*
G01X1392715Y-335550D02*
G03I-355J0D01*
G01X1392425Y-335930D02*
G03I-355J0D01*
G01X1392655Y-335640D02*
G03I-355J0D01*
G01X1392065Y-336240D02*
G03I-355J0D01*
G01X1391465Y-336580D02*
G03I-355J0D01*
G01X1391905Y-336330D02*
G03I-355J0D01*
G01X1390805Y-336820D02*
G03I-355J0D01*
G01X1390125Y-336940D02*
G03I-355J0D01*
G01X1404895Y-329150D02*
G03I-355J0D01*
G01X1404425Y-330690D02*
G03I-355J0D01*
G01X1404905Y-330920D02*
G03I-355J0D01*
G01X1404615Y-330780D02*
G03I-355J0D01*
G01X1404035Y-329120D02*
G03I-355J0D01*
G01X1403365Y-330530D02*
G03I-355J0D01*
G01X1403905Y-330560D02*
G03I-355J0D01*
G01X1401915Y-330530D02*
G03I-355J0D01*
G01X1400925Y-329120D02*
G03I-355J0D01*
G01X1400795Y-330720D02*
G03I-355J0D01*
G01X1401345Y-330570D02*
G03I-355J0D01*
G01X1400125Y-329150D02*
G03I-355J0D01*
G01X1400295Y-330990D02*
G03I-355J0D01*
G01X1400695Y-330780D02*
G03I-355J0D01*
G01X1399325Y-329290D02*
G03I-355J0D01*
G01X1399865Y-331360D02*
G03I-355J0D01*
G01D02*
G03I-355J0D01*
G01X1399765Y-331470D02*
G03I-355J0D01*
G01X1399395Y-332020D02*
G03I-355J0D01*
G01X1399595Y-331670D02*
G03I-355J0D01*
G01X1399235Y-332820D02*
G03I-355J0D01*
G01X1399275Y-332410D02*
G03I-355J0D01*
G01X1399345Y-332170D02*
G03I-355J0D01*
G01X1399235Y-332860D02*
G03I-355J0D01*
G01Y-333560D02*
G03I-355J0D01*
G01Y-334250D02*
G03I-355J0D01*
G01X1399035Y-329390D02*
G03I-355J0D01*
G01X1398565Y-329550D02*
G03I-355J0D01*
G01X1397855Y-329940D02*
G03I-355J0D01*
G01X1397675Y-330090D02*
G03I-355J0D01*
G01X1397225Y-330450D02*
G03I-355J0D01*
G01X1396855Y-330760D02*
G03I-355J0D01*
G01X1396565Y-331140D02*
G03I-355J0D01*
G01X1396845Y-330780D02*
G03I-355J0D01*
G01X1396335Y-331560D02*
G03I-355J0D01*
G01X1396205Y-332020D02*
G03I-355J0D01*
G01X1396335Y-331560D02*
G03I-355J0D01*
G01X1396385Y-331470D02*
G03I-355J0D01*
G01X1396165Y-332500D02*
G03I-355J0D01*
G01X1396195Y-332170D02*
G03I-355J0D01*
G01X1396165Y-332860D02*
G03I-355J0D01*
G01Y-333560D02*
G03I-355J0D01*
G01Y-334250D02*
G03I-355J0D01*
G01X1392615Y-330770D02*
G03I-355J0D01*
G01X1392835Y-331080D02*
G03I-355J0D01*
G01X1392625Y-330780D02*
G03I-355J0D01*
G01X1392985Y-331430D02*
G03I-355J0D01*
G01X1393075Y-331810D02*
G03I-355J0D01*
G01X1393095Y-332190D02*
G03I-355J0D01*
G01X1392995Y-331470D02*
G03I-355J0D01*
G01X1393095Y-332170D02*
G03I-355J0D01*
G01Y-332860D02*
G03I-355J0D01*
G01Y-333560D02*
G03I-355J0D01*
G01Y-334190D02*
G03I-355J0D01*
G01X1393085Y-334250D02*
G03I-355J0D01*
G01X1391715Y-329890D02*
G03I-355J0D01*
G01X1392205Y-330290D02*
G03I-355J0D01*
G01X1391955Y-330090D02*
G03I-355J0D01*
G01X1391165Y-329590D02*
G03I-355J0D01*
G01X1390245Y-329390D02*
G03I-355J0D01*
G01X1390025Y-332540D02*
G03I-355J0D01*
G01X1389965Y-332100D02*
G03I-355J0D01*
G01X1389975Y-332170D02*
G03I-355J0D01*
G01X1390025Y-332860D02*
G03I-355J0D01*
G01Y-333640D02*
G03I-355J0D01*
G01Y-333560D02*
G03I-355J0D01*
G01X1389975Y-334080D02*
G03I-355J0D01*
G01X1389855Y-334500D02*
G03I-355J0D01*
G01X1389205Y-335270D02*
G03I-355J0D01*
G01X1389665Y-334900D02*
G03I-355J0D01*
G01X1389615Y-334940D02*
G03I-355J0D01*
G01X1389425Y-336950D02*
G03I-355J0D01*
G01Y-337030D02*
G03I-355J0D01*
G01Y-337460D02*
G03I-355J0D01*
G01X1389665Y-337720D02*
G03I-355J0D01*
G01X1388125Y-335690D02*
G03I-355J0D01*
G01X1388685Y-335540D02*
G03I-355J0D01*
G01X1388315Y-335640D02*
G03I-355J0D01*
G01X1387545Y-335730D02*
G03I-355J0D01*
G01X1385765D02*
G03I-355J0D01*
G01Y-337150D02*
G03I-355J0D01*
G01Y-336330D02*
G03I-355J0D01*
G01Y-337030D02*
G03I-355J0D01*
G01X1386255Y-337720D02*
G03I-355J0D01*
G01X1389815Y-331690D02*
G03I-355J0D01*
G01X1389925Y-334250D02*
G03I-355J0D01*
G01X1389525Y-329240D02*
G03I-355J0D01*
G01X1389275Y-331010D02*
G03I-355J0D01*
G01X1389685Y-331470D02*
G03I-355J0D01*
G01X1389585Y-331320D02*
G03I-355J0D01*
G01X1388635Y-330720D02*
G03I-355J0D01*
G01X1388765Y-330780D02*
G03I-355J0D01*
G01X1387855Y-329120D02*
G03I-355J0D01*
G01X1387955Y-330560D02*
G03I-355J0D01*
G01X1387265Y-330530D02*
G03I-355J0D01*
G01X1426165Y-338410D02*
G03I-355J0D01*
G01Y-339110D02*
G03I-355J0D01*
G01Y-340500D02*
G03I-355J0D01*
G01Y-339800D02*
G03I-355J0D01*
G01Y-341190D02*
G03I-355J0D01*
G01Y-341890D02*
G03I-355J0D01*
G01X1422855Y-338410D02*
G03I-355J0D01*
G01Y-339800D02*
G03I-355J0D01*
G01Y-339110D02*
G03I-355J0D01*
G01Y-340500D02*
G03I-355J0D01*
G01Y-341190D02*
G03I-355J0D01*
G01Y-341890D02*
G03I-355J0D01*
G01X1415765Y-338410D02*
G03I-355J0D01*
G01Y-339110D02*
G03I-355J0D01*
G01Y-339800D02*
G03I-355J0D01*
G01Y-340500D02*
G03I-355J0D01*
G01Y-341190D02*
G03I-355J0D01*
G01Y-341890D02*
G03I-355J0D01*
G01X1426165Y-342340D02*
G03I-355J0D01*
G01X1422855D02*
G03I-355J0D01*
G01X1415765D02*
G03I-355J0D01*
G01X1424985Y-346830D02*
G03I-355J0D01*
G01Y-348830D02*
G03I-355J0D01*
G01X1424975D02*
G03I-355J0D01*
G01X1424955Y-349060D02*
G03I-355J0D01*
G01X1424895Y-349280D02*
G03I-355J0D01*
G01X1424795Y-349480D02*
G03I-355J0D01*
G01X1424665Y-349670D02*
G03I-355J0D01*
G01X1424505Y-349830D02*
G03I-355J0D01*
G01X1424325Y-349960D02*
G03I-355J0D01*
G01X1424115Y-350060D02*
G03I-355J0D01*
G01X1423895Y-350120D02*
G03I-355J0D01*
G01X1423665Y-350140D02*
G03I-355J0D01*
G01X1423145D02*
G03I-355J0D01*
G01X1422925Y-350120D02*
G03I-355J0D01*
G01X1422725Y-350070D02*
G03I-355J0D01*
G01X1422525Y-349970D02*
G03I-355J0D01*
G01X1422345Y-349850D02*
G03I-355J0D01*
G01X1422195Y-349700D02*
G03I-355J0D01*
G01X1421915Y-346830D02*
G03I-355J0D01*
G01X1421925Y-349120D02*
G03I-355J0D01*
G01X1421905Y-348900D02*
G03I-355J0D01*
G01X1421915D02*
G03I-355J0D01*
G01X1422075Y-349520D02*
G03I-355J0D01*
G01X1421975Y-349320D02*
G03I-355J0D01*
G01X1418905Y-347000D02*
G03I-355J0D01*
G01X1419085Y-347130D02*
G03I-355J0D01*
G01X1419245Y-347290D02*
G03I-355J0D01*
G01X1419545Y-348120D02*
G03I-355J0D01*
G01X1419375Y-347470D02*
G03I-355J0D01*
G01X1419465Y-347680D02*
G03I-355J0D01*
G01X1419525Y-347900D02*
G03I-355J0D01*
G01X1419545Y-348120D02*
G03I-355J0D01*
G01Y-348830D02*
G03I-355J0D01*
G01X1419525Y-349030D02*
G03I-355J0D01*
G01X1419485Y-349230D02*
G03I-355J0D01*
G01X1419405Y-349420D02*
G03I-355J0D01*
G01X1419295Y-349600D02*
G03I-355J0D01*
G01X1419165Y-349760D02*
G03I-355J0D01*
G01X1419005Y-349890D02*
G03I-355J0D01*
G01X1418825Y-350000D02*
G03I-355J0D01*
G01X1418255Y-346830D02*
G03I-355J0D01*
G01X1418475Y-346850D02*
G03I-355J0D01*
G01X1418695Y-346910D02*
G03I-355J0D01*
G01X1418635Y-350080D02*
G03I-355J0D01*
G01X1418435Y-350120D02*
G03I-355J0D01*
G01X1418235Y-350140D02*
G03I-355J0D01*
G01X1416475Y-346830D02*
G03I-355J0D01*
G01Y-350140D02*
G03I-355J0D01*
G01X1412465Y-338410D02*
G03I-355J0D01*
G01Y-339110D02*
G03I-355J0D01*
G01Y-339800D02*
G03I-355J0D01*
G01Y-340500D02*
G03I-355J0D01*
G01Y-341190D02*
G03I-355J0D01*
G01Y-341890D02*
G03I-355J0D01*
G01Y-342340D02*
G03I-355J0D01*
G01X1409155Y-338920D02*
G03I-355J0D01*
G01Y-338410D02*
G03I-355J0D01*
G01X1409105Y-339470D02*
G03I-355J0D01*
G01X1409135Y-339110D02*
G03I-355J0D01*
G01X1408635Y-340460D02*
G03I-355J0D01*
G01X1408925Y-339990D02*
G03I-355J0D01*
G01X1408595Y-340500D02*
G03I-355J0D01*
G01X1408985Y-339800D02*
G03I-355J0D01*
G01X1407785Y-341290D02*
G03I-355J0D01*
G01X1408245Y-340850D02*
G03I-355J0D01*
G01X1407885Y-341190D02*
G03I-355J0D01*
G01X1407255Y-341640D02*
G03I-355J0D01*
G01X1406675Y-341910D02*
G03I-355J0D01*
G01X1406725Y-341890D02*
G03I-355J0D01*
G01X1414115Y-346830D02*
G03I-355J0D01*
G01Y-350140D02*
G03I-355J0D01*
G01X1413565D02*
G03I-355J0D01*
G01X1411285Y-346830D02*
G03I-355J0D01*
G01X1410805D02*
G03I-355J0D01*
G01Y-350140D02*
G03I-355J0D01*
G01X1408145Y-347290D02*
G03I-355J0D01*
G01X1407985Y-347130D02*
G03I-355J0D01*
G01X1407795Y-347000D02*
G03I-355J0D01*
G01X1408445Y-348130D02*
G03I-355J0D01*
G01X1408425Y-347900D02*
G03I-355J0D01*
G01X1408365Y-347690D02*
G03I-355J0D01*
G01X1408275Y-347480D02*
G03I-355J0D01*
G01X1408445Y-348820D02*
G03I-355J0D01*
G01X1408385Y-349230D02*
G03I-355J0D01*
G01X1408425Y-349030D02*
G03I-355J0D01*
G01X1408445Y-348820D02*
G03I-355J0D01*
G01X1407725Y-350000D02*
G03I-355J0D01*
G01X1407905Y-349890D02*
G03I-355J0D01*
G01X1408055Y-349750D02*
G03I-355J0D01*
G01X1408195Y-349600D02*
G03I-355J0D01*
G01X1408305Y-349420D02*
G03I-355J0D01*
G01X1407585Y-346910D02*
G03I-355J0D01*
G01X1407375Y-346850D02*
G03I-355J0D01*
G01X1407145Y-346830D02*
G03I-355J0D01*
G01X1407125Y-350140D02*
G03I-355J0D01*
G01X1407335Y-350120D02*
G03I-355J0D01*
G01X1407535Y-350080D02*
G03I-355J0D01*
G01X1406405Y-346830D02*
G03I-355J0D01*
G01X1406185Y-346850D02*
G03I-355J0D01*
G01X1406205Y-350120D02*
G03I-355J0D01*
G01X1406425Y-350140D02*
G03I-355J0D01*
G01X1426165Y-334940D02*
G03I-355J0D01*
G01Y-336330D02*
G03I-355J0D01*
G01Y-335640D02*
G03I-355J0D01*
G01Y-337030D02*
G03I-355J0D01*
G01Y-337720D02*
G03I-355J0D01*
G01X1422625Y-334560D02*
G03I-355J0D01*
G01X1422465Y-334680D02*
G03I-355J0D01*
G01X1422275Y-334760D02*
G03I-355J0D01*
G01X1422235Y-336470D02*
G03I-355J0D01*
G01X1422445Y-336550D02*
G03I-355J0D01*
G01X1422615Y-336680D02*
G03I-355J0D01*
G01X1422745Y-336850D02*
G03I-355J0D01*
G01X1422825Y-337050D02*
G03I-355J0D01*
G01X1422855Y-337270D02*
G03I-355J0D01*
G01X1422815Y-337030D02*
G03I-355J0D01*
G01X1422855Y-337720D02*
G03I-355J0D01*
G01X1422075Y-334780D02*
G03I-355J0D01*
G01X1422025Y-336440D02*
G03I-355J0D01*
G01X1416575Y-334780D02*
G03I-355J0D01*
G01X1416365Y-334760D02*
G03I-355J0D01*
G01X1416175Y-334680D02*
G03I-355J0D01*
G01X1416155Y-336540D02*
G03I-355J0D01*
G01X1416345Y-336460D02*
G03I-355J0D01*
G01X1416545Y-336440D02*
G03I-355J0D01*
G01X1416005Y-334550D02*
G03I-355J0D01*
G01X1415795Y-337020D02*
G03I-355J0D01*
G01X1415875Y-336830D02*
G03I-355J0D01*
G01X1415995Y-336670D02*
G03I-355J0D01*
G01X1415795Y-337030D02*
G03I-355J0D01*
G01X1415765Y-337220D02*
G03I-355J0D01*
G01Y-337720D02*
G03I-355J0D01*
G01X1426165Y-329590D02*
G03I-355J0D01*
G01Y-330090D02*
G03I-355J0D01*
G01Y-330780D02*
G03I-355J0D01*
G01Y-331470D02*
G03I-355J0D01*
G01Y-332860D02*
G03I-355J0D01*
G01Y-332170D02*
G03I-355J0D01*
G01Y-333560D02*
G03I-355J0D01*
G01Y-334250D02*
G03I-355J0D01*
G01X1422855Y-329590D02*
G03I-355J0D01*
G01Y-330090D02*
G03I-355J0D01*
G01Y-330780D02*
G03I-355J0D01*
G01Y-331470D02*
G03I-355J0D01*
G01Y-332860D02*
G03I-355J0D01*
G01Y-332170D02*
G03I-355J0D01*
G01Y-333560D02*
G03I-355J0D01*
G01Y-334000D02*
G03I-355J0D01*
G01X1422825Y-334200D02*
G03I-355J0D01*
G01X1422745Y-334390D02*
G03I-355J0D01*
G01X1422805Y-334250D02*
G03I-355J0D01*
G01X1415765Y-330090D02*
G03I-355J0D01*
G01Y-329590D02*
G03I-355J0D01*
G01D02*
G03I-355J0D01*
G01Y-330780D02*
G03I-355J0D01*
G01Y-331470D02*
G03I-355J0D01*
G01Y-332170D02*
G03I-355J0D01*
G01Y-332860D02*
G03I-355J0D01*
G01Y-333560D02*
G03I-355J0D01*
G01X1415875Y-334380D02*
G03I-355J0D01*
G01X1415795Y-334190D02*
G03I-355J0D01*
G01X1415765Y-333980D02*
G03I-355J0D01*
G01X1415825Y-334250D02*
G03I-355J0D01*
G01X1412465Y-334940D02*
G03I-355J0D01*
G01Y-336330D02*
G03I-355J0D01*
G01Y-335640D02*
G03I-355J0D01*
G01Y-337030D02*
G03I-355J0D01*
G01Y-337720D02*
G03I-355J0D01*
G01X1409155Y-334940D02*
G03I-355J0D01*
G01Y-336330D02*
G03I-355J0D01*
G01Y-335640D02*
G03I-355J0D01*
G01Y-337030D02*
G03I-355J0D01*
G01Y-337720D02*
G03I-355J0D01*
G01X1412465Y-330090D02*
G03I-355J0D01*
G01Y-329590D02*
G03I-355J0D01*
G01Y-330780D02*
G03I-355J0D01*
G01Y-331470D02*
G03I-355J0D01*
G01Y-332170D02*
G03I-355J0D01*
G01Y-332860D02*
G03I-355J0D01*
G01Y-333560D02*
G03I-355J0D01*
G01Y-334250D02*
G03I-355J0D01*
G01X1408665Y-331100D02*
G03I-355J0D01*
G01X1408945Y-331620D02*
G03I-355J0D01*
G01X1408865Y-331470D02*
G03I-355J0D01*
G01X1409155Y-332780D02*
G03I-355J0D01*
G01X1409105Y-332190D02*
G03I-355J0D01*
G01X1409155Y-332860D02*
G03I-355J0D01*
G01X1409105Y-332170D02*
G03I-355J0D01*
G01X1409155Y-333560D02*
G03I-355J0D01*
G01Y-334250D02*
G03I-355J0D01*
G01X1407765Y-330210D02*
G03I-355J0D01*
G01X1408285Y-330650D02*
G03I-355J0D01*
G01X1408395Y-330780D02*
G03I-355J0D01*
G01X1407185Y-329860D02*
G03I-355J0D01*
G01X1407555Y-330090D02*
G03I-355J0D01*
G01X1406555Y-329590D02*
G03I-355J0D01*
G01X1445295Y-338410D02*
G03I-355J0D01*
G01Y-339110D02*
G03I-355J0D01*
G01Y-339800D02*
G03I-355J0D01*
G01Y-340500D02*
G03I-355J0D01*
G01Y-341190D02*
G03I-355J0D01*
G01Y-341890D02*
G03I-355J0D01*
G01X1442225Y-338410D02*
G03I-355J0D01*
G01Y-339110D02*
G03I-355J0D01*
G01Y-339800D02*
G03I-355J0D01*
G01Y-340500D02*
G03I-355J0D01*
G01Y-341190D02*
G03I-355J0D01*
G01Y-341890D02*
G03I-355J0D01*
G01X1445295Y-342340D02*
G03I-355J0D01*
G01X1442225D02*
G03I-355J0D01*
G01X1445165Y-347190D02*
G03I-355J0D01*
G01X1445235Y-347320D02*
G03I-355J0D01*
G01X1445275Y-347470D02*
G03I-355J0D01*
G01X1445295Y-347630D02*
G03I-355J0D01*
G01X1445275Y-347800D02*
G03I-355J0D01*
G01X1445225Y-347960D02*
G03I-355J0D01*
G01X1445155Y-348110D02*
G03I-355J0D01*
G01X1444495Y-346830D02*
G03I-355J0D01*
G01X1444655Y-346850D02*
G03I-355J0D01*
G01X1444805Y-346890D02*
G03I-355J0D01*
G01X1444935Y-346960D02*
G03I-355J0D01*
G01X1445065Y-347060D02*
G03I-355J0D01*
G01X1445045Y-348240D02*
G03I-355J0D01*
G01X1444915Y-348350D02*
G03I-355J0D01*
G01X1444765Y-348420D02*
G03I-355J0D01*
G01X1444605Y-348470D02*
G03I-355J0D01*
G01X1444435Y-348490D02*
G03I-355J0D01*
G01X1445055Y-350140D02*
G03I-355J0D01*
G01X1444155Y-348490D02*
G03I-355J0D01*
G01D02*
G03I-355J0D01*
G01X1442225Y-346830D02*
G03I-355J0D01*
G01D02*
G03I-355J0D01*
G01Y-348490D02*
G03I-355J0D01*
G01D02*
G03I-355J0D01*
G01Y-350140D02*
G03I-355J0D01*
G01X1439155Y-338410D02*
G03I-355J0D01*
G01Y-339110D02*
G03I-355J0D01*
G01Y-339800D02*
G03I-355J0D01*
G01Y-340500D02*
G03I-355J0D01*
G01Y-341190D02*
G03I-355J0D01*
G01Y-341890D02*
G03I-355J0D01*
G01Y-342340D02*
G03I-355J0D01*
G01X1435845Y-338410D02*
G03I-355J0D01*
G01Y-339110D02*
G03I-355J0D01*
G01Y-339800D02*
G03I-355J0D01*
G01Y-340500D02*
G03I-355J0D01*
G01Y-341190D02*
G03I-355J0D01*
G01Y-341890D02*
G03I-355J0D01*
G01X1432775Y-338410D02*
G03I-355J0D01*
G01Y-339110D02*
G03I-355J0D01*
G01Y-340500D02*
G03I-355J0D01*
G01Y-339800D02*
G03I-355J0D01*
G01Y-341190D02*
G03I-355J0D01*
G01Y-341890D02*
G03I-355J0D01*
G01X1435845Y-342340D02*
G03I-355J0D01*
G01X1432775D02*
G03I-355J0D01*
G01X1440095Y-348110D02*
G03I-355J0D01*
G01X1440075Y-347890D02*
G03I-355J0D01*
G01X1440095Y-348840D02*
G03I-355J0D01*
G01X1440075Y-349070D02*
G03I-355J0D01*
G01X1440095Y-348840D02*
G03I-355J0D01*
G01X1440015Y-347670D02*
G03I-355J0D01*
G01X1439925Y-347470D02*
G03I-355J0D01*
G01X1439795Y-347290D02*
G03I-355J0D01*
G01X1439635Y-347130D02*
G03I-355J0D01*
G01X1439455Y-347000D02*
G03I-355J0D01*
G01X1439255Y-346910D02*
G03I-355J0D01*
G01X1440015Y-349280D02*
G03I-355J0D01*
G01X1439235Y-350060D02*
G03I-355J0D01*
G01X1439445Y-349970D02*
G03I-355J0D01*
G01X1439635Y-349840D02*
G03I-355J0D01*
G01X1439795Y-349680D02*
G03I-355J0D01*
G01X1439925Y-349490D02*
G03I-355J0D01*
G01X1439035Y-346850D02*
G03I-355J0D01*
G01X1438815Y-346830D02*
G03I-355J0D01*
G01X1438795Y-350140D02*
G03I-355J0D01*
G01X1439025Y-350120D02*
G03I-355J0D01*
G01X1438075Y-346830D02*
G03I-355J0D01*
G01X1437855Y-346850D02*
G03I-355J0D01*
G01X1437635Y-346910D02*
G03I-355J0D01*
G01X1437515Y-350000D02*
G03I-355J0D01*
G01X1437705Y-350080D02*
G03I-355J0D01*
G01X1437905Y-350120D02*
G03I-355J0D01*
G01X1438105Y-350140D02*
G03I-355J0D01*
G01X1437435Y-347000D02*
G03I-355J0D01*
G01X1436865Y-347680D02*
G03I-355J0D01*
G01X1436805Y-347900D02*
G03I-355J0D01*
G01X1436785Y-348120D02*
G03I-355J0D01*
G01X1436795D02*
G03I-355J0D01*
G01Y-348830D02*
G03I-355J0D01*
G01X1436815Y-349030D02*
G03I-355J0D01*
G01X1436855Y-349230D02*
G03I-355J0D01*
G01X1434665Y-346830D02*
G03I-355J0D01*
G01X1433245D02*
G03I-355J0D01*
G01D02*
G03I-355J0D01*
G01Y-350140D02*
G03I-355J0D01*
G01X1431835Y-346830D02*
G03I-355J0D01*
G01X1437245Y-347130D02*
G03I-355J0D01*
G01X1437085Y-347290D02*
G03I-355J0D01*
G01X1436955Y-347470D02*
G03I-355J0D01*
G01X1436935Y-349420D02*
G03I-355J0D01*
G01X1437045Y-349600D02*
G03I-355J0D01*
G01X1437175Y-349760D02*
G03I-355J0D01*
G01X1437335Y-349890D02*
G03I-355J0D01*
G01X1429705Y-338410D02*
G03I-355J0D01*
G01Y-339800D02*
G03I-355J0D01*
G01Y-339110D02*
G03I-355J0D01*
G01Y-340500D02*
G03I-355J0D01*
G01Y-341190D02*
G03I-355J0D01*
G01Y-341890D02*
G03I-355J0D01*
G01Y-342340D02*
G03I-355J0D01*
G01X1429945Y-346830D02*
G03I-355J0D01*
G01Y-350140D02*
G03I-355J0D01*
G01X1428145Y-346830D02*
G03I-355J0D01*
G01X1428175Y-350140D02*
G03I-355J0D01*
G01X1427245Y-347350D02*
G03I-355J0D01*
G01X1427345Y-347200D02*
G03I-355J0D01*
G01X1427475Y-347070D02*
G03I-355J0D01*
G01X1427625Y-346970D02*
G03I-355J0D01*
G01X1427785Y-346890D02*
G03I-355J0D01*
G01X1427965Y-346850D02*
G03I-355J0D01*
G01X1427985Y-350120D02*
G03I-355J0D01*
G01X1427805Y-350080D02*
G03I-355J0D01*
G01X1427635Y-350000D02*
G03I-355J0D01*
G01X1427485Y-349890D02*
G03I-355J0D01*
G01X1427355Y-349760D02*
G03I-355J0D01*
G01X1427245Y-349600D02*
G03I-355J0D01*
G01X1427165Y-347510D02*
G03I-355J0D01*
G01X1427105Y-347870D02*
G03I-355J0D01*
G01X1427125Y-347690D02*
G03I-355J0D01*
G01X1427105Y-349070D02*
G03I-355J0D01*
G01X1427165Y-349440D02*
G03I-355J0D01*
G01X1427125Y-349260D02*
G03I-355J0D01*
G01X1445295Y-334940D02*
G03I-355J0D01*
G01Y-335640D02*
G03I-355J0D01*
G01Y-336330D02*
G03I-355J0D01*
G01Y-337030D02*
G03I-355J0D01*
G01Y-337720D02*
G03I-355J0D01*
G01X1442225Y-334940D02*
G03I-355J0D01*
G01Y-335640D02*
G03I-355J0D01*
G01Y-336330D02*
G03I-355J0D01*
G01Y-337030D02*
G03I-355J0D01*
G01Y-337720D02*
G03I-355J0D01*
G01X1445245Y-331830D02*
G03I-355J0D01*
G01X1445295Y-332380D02*
G03I-355J0D01*
G01X1445275Y-332170D02*
G03I-355J0D01*
G01X1445295Y-332860D02*
G03I-355J0D01*
G01Y-333560D02*
G03I-355J0D01*
G01Y-334250D02*
G03I-355J0D01*
G01X1445085Y-331300D02*
G03I-355J0D01*
G01X1444805Y-330820D02*
G03I-355J0D01*
G01X1444425Y-330410D02*
G03I-355J0D01*
G01X1444765Y-330780D02*
G03I-355J0D01*
G01X1445135Y-331470D02*
G03I-355J0D01*
G01X1443985Y-330090D02*
G03I-355J0D01*
G01X1443775Y-329930D02*
G03I-355J0D01*
G01D02*
G03I-355J0D01*
G01X1443045Y-329570D02*
G03I-355J0D01*
G01X1442265Y-329350D02*
G03I-355J0D01*
G01X1442405Y-329390D02*
G03I-355J0D01*
G01X1441935Y-331210D02*
G03I-355J0D01*
G01X1442095Y-331450D02*
G03I-355J0D01*
G01X1442195Y-331730D02*
G03I-355J0D01*
G01X1442225Y-332030D02*
G03I-355J0D01*
G01X1442105Y-331470D02*
G03I-355J0D01*
G01X1442225Y-332170D02*
G03I-355J0D01*
G01Y-332860D02*
G03I-355J0D01*
G01Y-333560D02*
G03I-355J0D01*
G01Y-334250D02*
G03I-355J0D01*
G01X1441105Y-329180D02*
G03I-355J0D01*
G01X1441235Y-330840D02*
G03I-355J0D01*
G01X1441715Y-331010D02*
G03I-355J0D01*
G01X1440725Y-330770D02*
G03I-355J0D01*
G01X1440805Y-330780D02*
G03I-355J0D01*
G01X1439155Y-334940D02*
G03I-355J0D01*
G01Y-335640D02*
G03I-355J0D01*
G01Y-336330D02*
G03I-355J0D01*
G01Y-337030D02*
G03I-355J0D01*
G01Y-337720D02*
G03I-355J0D01*
G01X1435845Y-334940D02*
G03I-355J0D01*
G01Y-335640D02*
G03I-355J0D01*
G01Y-336330D02*
G03I-355J0D01*
G01Y-337030D02*
G03I-355J0D01*
G01Y-337720D02*
G03I-355J0D01*
G01X1432775Y-334940D02*
G03I-355J0D01*
G01Y-335640D02*
G03I-355J0D01*
G01Y-337030D02*
G03I-355J0D01*
G01Y-336330D02*
G03I-355J0D01*
G01Y-337720D02*
G03I-355J0D01*
G01X1439945Y-329120D02*
G03I-355J0D01*
G01X1439265Y-331170D02*
G03I-355J0D01*
G01X1439395Y-331010D02*
G03I-355J0D01*
G01X1439565Y-330880D02*
G03I-355J0D01*
G01X1439755Y-330800D02*
G03I-355J0D01*
G01X1439965Y-330770D02*
G03I-355J0D01*
G01X1439885Y-330780D02*
G03I-355J0D01*
G01X1439185Y-331370D02*
G03I-355J0D01*
G01X1439165Y-331470D02*
G03I-355J0D01*
G01X1439155Y-331580D02*
G03I-355J0D01*
G01Y-332170D02*
G03I-355J0D01*
G01Y-332860D02*
G03I-355J0D01*
G01Y-333560D02*
G03I-355J0D01*
G01Y-334250D02*
G03I-355J0D01*
G01X1435825Y-331360D02*
G03I-355J0D01*
G01X1435845Y-331570D02*
G03I-355J0D01*
G01X1435835Y-331470D02*
G03I-355J0D01*
G01X1435845Y-332170D02*
G03I-355J0D01*
G01Y-332860D02*
G03I-355J0D01*
G01Y-333560D02*
G03I-355J0D01*
G01Y-334250D02*
G03I-355J0D01*
G01X1435615Y-329120D02*
G03I-355J0D01*
G01X1435045Y-330770D02*
G03I-355J0D01*
G01X1435255Y-330800D02*
G03I-355J0D01*
G01X1435445Y-330880D02*
G03I-355J0D01*
G01X1435615Y-331000D02*
G03I-355J0D01*
G01X1435735Y-331170D02*
G03I-355J0D01*
G01X1435125Y-330780D02*
G03I-355J0D01*
G01X1433385Y-330800D02*
G03I-355J0D01*
G01X1433605Y-330770D02*
G03I-355J0D01*
G01X1433525Y-330780D02*
G03I-355J0D01*
G01X1432645Y-329210D02*
G03I-355J0D01*
G01X1432885Y-331180D02*
G03I-355J0D01*
G01X1433015Y-331010D02*
G03I-355J0D01*
G01X1433195Y-330880D02*
G03I-355J0D01*
G01X1432775Y-331600D02*
G03I-355J0D01*
G01X1432805Y-331380D02*
G03I-355J0D01*
G01X1432795Y-331470D02*
G03I-355J0D01*
G01X1432775Y-332860D02*
G03I-355J0D01*
G01Y-332170D02*
G03I-355J0D01*
G01Y-333560D02*
G03I-355J0D01*
G01Y-334250D02*
G03I-355J0D01*
G01X1431255Y-329390D02*
G03I-355J0D01*
G01X1429705Y-334940D02*
G03I-355J0D01*
G01Y-336330D02*
G03I-355J0D01*
G01Y-335640D02*
G03I-355J0D01*
G01Y-337030D02*
G03I-355J0D01*
G01Y-337720D02*
G03I-355J0D01*
G01Y-329590D02*
G03I-355J0D01*
G01Y-330090D02*
G03I-355J0D01*
G01Y-330780D02*
G03I-355J0D01*
G01Y-332170D02*
G03I-355J0D01*
G01Y-331470D02*
G03I-355J0D01*
G01Y-332860D02*
G03I-355J0D01*
G01Y-333560D02*
G03I-355J0D01*
G01Y-334250D02*
G03I-355J0D01*
G01X1433500Y1132000D02*
Y1142000D01*
X1436000D01*
X1437000Y1141500D01*
X1437750Y1140833D01*
X1438375Y1139834D01*
X1438875Y1138666D01*
X1439000Y1137000D01*
X1438875Y1135333D01*
X1438375Y1134166D01*
X1437750Y1133166D01*
X1437000Y1132500D01*
X1436000Y1132000D01*
X1433500D01*
G01X1448750D02*
X1443750D01*
Y1142000D01*
X1448750D01*
G01X1446750Y1137167D02*
X1443750D01*
G01X1453625Y1133333D02*
X1454625Y1132500D01*
X1455750Y1132000D01*
X1456750D01*
X1457750Y1132500D01*
X1458500Y1133333D01*
X1458875Y1134500D01*
X1458625Y1135667D01*
X1458000Y1136667D01*
X1456875Y1137333D01*
X1455375Y1137667D01*
X1454500Y1138333D01*
X1454125Y1139500D01*
X1454375Y1140667D01*
X1455000Y1141500D01*
X1455875Y1142000D01*
X1456750D01*
X1457625Y1141667D01*
X1458375Y1140833D01*
G01X1469000Y1141166D02*
X1468250Y1141667D01*
X1467375Y1142000D01*
X1466375D01*
X1465250Y1141500D01*
X1464375Y1140667D01*
X1463750Y1139667D01*
X1463250Y1138000D01*
X1463125Y1136500D01*
X1463375Y1135000D01*
X1463750Y1134000D01*
X1464500Y1133000D01*
X1465375Y1132333D01*
X1466250Y1132000D01*
X1467125D01*
X1468000Y1132333D01*
X1468750Y1132833D01*
X1469375Y1133500D01*
G01X1473750Y1132000D02*
Y1142000D01*
X1476875D01*
X1477875Y1141500D01*
X1478500Y1140833D01*
X1478750Y1139500D01*
X1478500Y1138167D01*
X1477750Y1137333D01*
X1476875Y1136833D01*
X1473750D01*
G01X1476875D02*
X1478750Y1132000D01*
G01X1484750Y1142000D02*
X1487750D01*
G01X1486250D02*
Y1132000D01*
G01X1484750D02*
X1487750D01*
G01X1493750D02*
Y1142000D01*
X1496750D01*
X1497750Y1141500D01*
X1498500Y1140333D01*
X1498750Y1139000D01*
X1498500Y1137667D01*
X1497875Y1136667D01*
X1496750Y1136166D01*
X1493750D01*
G01X1506250Y1142000D02*
Y1132000D01*
G01X1503375Y1142000D02*
X1509125D01*
G01X1514750D02*
X1517750D01*
G01X1516250D02*
Y1132000D01*
G01X1514750D02*
X1517750D01*
G01X1526250D02*
X1525250Y1132167D01*
X1524375Y1132833D01*
X1523625Y1133833D01*
X1523125Y1135000D01*
X1522875Y1136333D01*
Y1137667D01*
X1523125Y1139000D01*
X1523625Y1140167D01*
X1524375Y1141166D01*
X1525250Y1141833D01*
X1526250Y1142000D01*
X1527250Y1141833D01*
X1528125Y1141166D01*
X1528875Y1140167D01*
X1529375Y1139000D01*
X1529625Y1137667D01*
Y1136333D01*
X1529375Y1135000D01*
X1528875Y1133833D01*
X1528125Y1132833D01*
X1527250Y1132167D01*
X1526250Y1132000D01*
G01X1533375D02*
Y1142000D01*
X1539125Y1132000D01*
Y1142000D01*
G01X1605000Y-366000D02*
X1487500D01*
G01Y-303000D02*
Y-378000D01*
G01X1605000Y-344000D02*
X1487500D01*
G01X1605000Y-355500D02*
X1487500D01*
G01X1605000Y-333000D02*
X1487500D01*
G01X1493927Y-364000D02*
Y-359000D01*
X1494993D01*
X1495420Y-359250D01*
X1495740Y-359583D01*
X1496007Y-360083D01*
X1496220Y-360667D01*
X1496273Y-361500D01*
X1496220Y-362333D01*
X1496007Y-362917D01*
X1495740Y-363417D01*
X1495420Y-363750D01*
X1494993Y-364000D01*
X1493927D01*
G01X1497967D02*
X1499300Y-359000D01*
X1500633Y-364000D01*
G01X1500153Y-362250D02*
X1498447D01*
G01X1503500Y-359000D02*
Y-364000D01*
G01X1502273Y-359000D02*
X1504727D01*
G01X1508767Y-364000D02*
X1506633D01*
Y-359000D01*
X1508767D01*
G01X1507913Y-361417D02*
X1506633D01*
G01X1511900Y-364167D02*
X1511793Y-364083D01*
Y-363917D01*
X1511900Y-363833D01*
X1512007Y-363917D01*
Y-364083D01*
X1511900Y-364167D01*
G01Y-361917D02*
X1511793Y-361833D01*
Y-361667D01*
X1511900Y-361583D01*
X1512007Y-361667D01*
Y-361833D01*
X1511900Y-361917D01*
G01X1493033Y-374000D02*
X1493300Y-374500D01*
X1493620Y-374833D01*
X1493993Y-375000D01*
X1494420Y-374833D01*
X1494740Y-374500D01*
X1495060Y-374000D01*
X1495167Y-373333D01*
Y-370000D01*
G01X1498300Y-375000D02*
X1497873Y-374917D01*
X1497500Y-374583D01*
X1497180Y-374083D01*
X1496967Y-373500D01*
X1496860Y-372833D01*
Y-372167D01*
X1496967Y-371500D01*
X1497180Y-370917D01*
X1497500Y-370417D01*
X1497873Y-370083D01*
X1498300Y-370000D01*
X1498727Y-370083D01*
X1499100Y-370417D01*
X1499420Y-370917D01*
X1499633Y-371500D01*
X1499740Y-372167D01*
Y-372833D01*
X1499633Y-373500D01*
X1499420Y-374083D01*
X1499100Y-374583D01*
X1498727Y-374917D01*
X1498300Y-375000D01*
G01X1502927Y-372333D02*
X1503140Y-372083D01*
X1503300Y-371667D01*
X1503407Y-371083D01*
X1503300Y-370583D01*
X1503087Y-370250D01*
X1502713Y-370000D01*
X1501273D01*
Y-375000D01*
X1503033D01*
X1503407Y-374667D01*
X1503620Y-374167D01*
X1503727Y-373583D01*
X1503620Y-373000D01*
X1503300Y-372500D01*
X1502927Y-372333D01*
X1501273D01*
G01X1505633Y-376667D02*
X1506700Y-370000D01*
G01X1507767D02*
X1506700Y-376667D01*
G01X1505100Y-374167D02*
X1508300D01*
G01Y-372500D02*
X1505100D01*
G01X1510900Y-375167D02*
X1510793Y-375083D01*
Y-374917D01*
X1510900Y-374833D01*
X1511007Y-374917D01*
Y-375083D01*
X1510900Y-375167D01*
G01Y-372917D02*
X1510793Y-372833D01*
Y-372667D01*
X1510900Y-372583D01*
X1511007Y-372667D01*
Y-372833D01*
X1510900Y-372917D01*
G01X1492927Y-342000D02*
Y-337000D01*
X1493993D01*
X1494420Y-337250D01*
X1494740Y-337583D01*
X1495007Y-338083D01*
X1495220Y-338667D01*
X1495273Y-339500D01*
X1495220Y-340333D01*
X1495007Y-340917D01*
X1494740Y-341417D01*
X1494420Y-341750D01*
X1493993Y-342000D01*
X1492927D01*
G01X1499367D02*
X1497233D01*
Y-337000D01*
X1499367D01*
G01X1498513Y-339417D02*
X1497233D01*
G01X1501380Y-341334D02*
X1501807Y-341750D01*
X1502287Y-342000D01*
X1502713D01*
X1503140Y-341750D01*
X1503460Y-341334D01*
X1503620Y-340750D01*
X1503513Y-340167D01*
X1503247Y-339667D01*
X1502767Y-339333D01*
X1502127Y-339167D01*
X1501753Y-338833D01*
X1501593Y-338250D01*
X1501700Y-337667D01*
X1501967Y-337250D01*
X1502340Y-337000D01*
X1502713D01*
X1503087Y-337167D01*
X1503407Y-337583D01*
G01X1506060Y-337000D02*
X1507340D01*
G01X1506700D02*
Y-342000D01*
G01X1506060D02*
X1507340D01*
G01X1511220Y-339500D02*
X1512287D01*
Y-341000D01*
X1511967Y-341500D01*
X1511593Y-341833D01*
X1511060Y-342000D01*
X1510527Y-341833D01*
X1510153Y-341500D01*
X1509833Y-341000D01*
X1509620Y-340417D01*
X1509513Y-339750D01*
Y-339167D01*
X1509620Y-338667D01*
X1509833Y-338083D01*
X1510153Y-337583D01*
X1510473Y-337250D01*
X1510900Y-337000D01*
X1511273D01*
X1511700Y-337167D01*
X1512020Y-337500D01*
G01X1513873Y-342000D02*
Y-337000D01*
X1516327Y-342000D01*
Y-337000D01*
G01X1520367Y-342000D02*
X1518233D01*
Y-337000D01*
X1520367D01*
G01X1519513Y-339417D02*
X1518233D01*
G01X1522433Y-342000D02*
Y-337000D01*
X1523767D01*
X1524193Y-337250D01*
X1524460Y-337583D01*
X1524567Y-338250D01*
X1524460Y-338917D01*
X1524140Y-339333D01*
X1523767Y-339583D01*
X1522433D01*
G01X1523767D02*
X1524567Y-342000D01*
G01X1527700Y-342167D02*
X1527593Y-342083D01*
Y-341917D01*
X1527700Y-341833D01*
X1527807Y-341917D01*
Y-342083D01*
X1527700Y-342167D01*
G01Y-339917D02*
X1527593Y-339833D01*
Y-339667D01*
X1527700Y-339583D01*
X1527807Y-339667D01*
Y-339833D01*
X1527700Y-339917D01*
G01X1495273Y-348417D02*
X1494953Y-348167D01*
X1494580Y-348000D01*
X1494153D01*
X1493673Y-348250D01*
X1493300Y-348667D01*
X1493033Y-349167D01*
X1492820Y-350000D01*
X1492767Y-350750D01*
X1492873Y-351500D01*
X1493033Y-352000D01*
X1493353Y-352500D01*
X1493727Y-352833D01*
X1494100Y-353000D01*
X1494473D01*
X1494847Y-352833D01*
X1495167Y-352583D01*
X1495433Y-352250D01*
G01X1497180Y-353000D02*
Y-348000D01*
G01X1499420D02*
Y-353000D01*
G01Y-350500D02*
X1497180D01*
G01X1503567Y-353000D02*
X1501433D01*
Y-348000D01*
X1503567D01*
G01X1502713Y-350417D02*
X1501433D01*
G01X1507873Y-348417D02*
X1507553Y-348167D01*
X1507180Y-348000D01*
X1506753D01*
X1506273Y-348250D01*
X1505900Y-348667D01*
X1505633Y-349167D01*
X1505420Y-350000D01*
X1505367Y-350750D01*
X1505473Y-351500D01*
X1505633Y-352000D01*
X1505953Y-352500D01*
X1506327Y-352833D01*
X1506700Y-353000D01*
X1507073D01*
X1507447Y-352833D01*
X1507767Y-352583D01*
X1508033Y-352250D01*
G01X1509727Y-353000D02*
Y-348000D01*
G01X1511753D02*
X1509727Y-351083D01*
G01X1512073Y-353000D02*
X1510633Y-349667D01*
G01X1516167Y-353000D02*
X1514033D01*
Y-348000D01*
X1516167D01*
G01X1515313Y-350417D02*
X1514033D01*
G01X1518233Y-353000D02*
Y-348000D01*
X1519567D01*
X1519993Y-348250D01*
X1520260Y-348583D01*
X1520367Y-349250D01*
X1520260Y-349917D01*
X1519940Y-350333D01*
X1519567Y-350583D01*
X1518233D01*
G01X1519567D02*
X1520367Y-353000D01*
G01X1523500Y-353167D02*
X1523393Y-353083D01*
Y-352917D01*
X1523500Y-352833D01*
X1523607Y-352917D01*
Y-353083D01*
X1523500Y-353167D01*
G01Y-350917D02*
X1523393Y-350833D01*
Y-350667D01*
X1523500Y-350583D01*
X1523607Y-350667D01*
Y-350833D01*
X1523500Y-350917D01*
G01X1521100Y-359000D02*
X1520673Y-359167D01*
X1520353Y-359583D01*
X1520140Y-360083D01*
X1519980Y-360750D01*
X1519927Y-361500D01*
X1519980Y-362250D01*
X1520140Y-362917D01*
X1520353Y-363417D01*
X1520673Y-363833D01*
X1521100Y-364000D01*
X1521527Y-363833D01*
X1521847Y-363417D01*
X1522060Y-362917D01*
X1522220Y-362250D01*
X1522273Y-361500D01*
X1522220Y-360750D01*
X1522060Y-360083D01*
X1521847Y-359583D01*
X1521527Y-359167D01*
X1521100Y-359000D01*
G01X1524287Y-361917D02*
X1524660Y-361333D01*
X1524980Y-361000D01*
X1525407Y-360833D01*
X1525780Y-361000D01*
X1526047Y-361333D01*
X1526260Y-361833D01*
X1526313Y-362417D01*
X1526260Y-362917D01*
X1526047Y-363417D01*
X1525727Y-363833D01*
X1525353Y-364000D01*
X1524927Y-363833D01*
X1524553Y-363334D01*
X1524340Y-362583D01*
X1524287Y-361750D01*
X1524393Y-360667D01*
X1524553Y-360083D01*
X1524820Y-359500D01*
X1525193Y-359083D01*
X1525567Y-359000D01*
X1525940Y-359167D01*
X1526207Y-359583D01*
G01X1528433Y-363000D02*
X1528700Y-363500D01*
X1529020Y-363833D01*
X1529393Y-364000D01*
X1529820Y-363833D01*
X1530140Y-363500D01*
X1530460Y-363000D01*
X1530567Y-362333D01*
Y-359000D01*
G01X1532367Y-364000D02*
X1533700Y-359000D01*
X1535033Y-364000D01*
G01X1534553Y-362250D02*
X1532847D01*
G01X1536673Y-364000D02*
Y-359000D01*
X1539127Y-364000D01*
Y-359000D01*
G01X1542100Y-364000D02*
Y-359000D01*
X1541460Y-360000D01*
G01Y-364000D02*
X1542740D01*
G01X1546940D02*
Y-359000D01*
X1544967Y-362583D01*
X1547633D01*
G01X1518087Y-372917D02*
X1518460Y-372333D01*
X1518780Y-372000D01*
X1519207Y-371833D01*
X1519580Y-372000D01*
X1519847Y-372333D01*
X1520060Y-372833D01*
X1520113Y-373417D01*
X1520060Y-373917D01*
X1519847Y-374417D01*
X1519527Y-374833D01*
X1519153Y-375000D01*
X1518727Y-374833D01*
X1518353Y-374334D01*
X1518140Y-373583D01*
X1518087Y-372750D01*
X1518193Y-371667D01*
X1518353Y-371083D01*
X1518620Y-370500D01*
X1518993Y-370083D01*
X1519367Y-370000D01*
X1519740Y-370167D01*
X1520007Y-370583D01*
G01X1523300Y-375000D02*
X1523673Y-374917D01*
X1524100Y-374667D01*
X1524367Y-374250D01*
X1524473Y-373667D01*
X1524367Y-373083D01*
X1524047Y-372583D01*
X1523567Y-372333D01*
X1523033D01*
X1522713Y-372167D01*
X1522447Y-371750D01*
X1522340Y-371167D01*
X1522500Y-370583D01*
X1522873Y-370167D01*
X1523300Y-370000D01*
X1523727Y-370167D01*
X1524100Y-370583D01*
X1524260Y-371167D01*
X1524153Y-371750D01*
X1523887Y-372167D01*
X1523567Y-372333D01*
X1523033D01*
X1522553Y-372583D01*
X1522233Y-373083D01*
X1522127Y-373667D01*
X1522233Y-374250D01*
X1522500Y-374667D01*
X1522927Y-374917D01*
X1523300Y-375000D01*
G01X1526327Y-374000D02*
X1526647Y-374583D01*
X1527073Y-374917D01*
X1527553Y-375000D01*
X1527980Y-374917D01*
X1528407Y-374500D01*
X1528673Y-374000D01*
X1528727Y-373500D01*
X1528620Y-372917D01*
X1528247Y-372500D01*
X1527873Y-372333D01*
X1527393D01*
G01X1527873D02*
X1528193Y-372083D01*
X1528460Y-371667D01*
X1528567Y-371167D01*
X1528460Y-370667D01*
X1528193Y-370250D01*
X1527713Y-370000D01*
X1527233Y-370083D01*
X1526753Y-370417D01*
G01X1531007Y-373333D02*
X1532393D01*
G01X1535900Y-370000D02*
X1535473Y-370167D01*
X1535153Y-370583D01*
X1534940Y-371083D01*
X1534780Y-371750D01*
X1534727Y-372500D01*
X1534780Y-373250D01*
X1534940Y-373917D01*
X1535153Y-374417D01*
X1535473Y-374833D01*
X1535900Y-375000D01*
X1536327Y-374833D01*
X1536647Y-374417D01*
X1536860Y-373917D01*
X1537020Y-373250D01*
X1537073Y-372500D01*
X1537020Y-371750D01*
X1536860Y-371083D01*
X1536647Y-370583D01*
X1536327Y-370167D01*
X1535900Y-370000D01*
G01X1538927Y-374000D02*
X1539247Y-374583D01*
X1539673Y-374917D01*
X1540153Y-375000D01*
X1540580Y-374917D01*
X1541007Y-374500D01*
X1541273Y-374000D01*
X1541327Y-373500D01*
X1541220Y-372917D01*
X1540847Y-372500D01*
X1540473Y-372333D01*
X1539993D01*
G01X1540473D02*
X1540793Y-372083D01*
X1541060Y-371667D01*
X1541167Y-371167D01*
X1541060Y-370667D01*
X1540793Y-370250D01*
X1540313Y-370000D01*
X1539833Y-370083D01*
X1539353Y-370417D01*
G01X1544300Y-370000D02*
X1543873Y-370167D01*
X1543553Y-370583D01*
X1543340Y-371083D01*
X1543180Y-371750D01*
X1543127Y-372500D01*
X1543180Y-373250D01*
X1543340Y-373917D01*
X1543553Y-374417D01*
X1543873Y-374833D01*
X1544300Y-375000D01*
X1544727Y-374833D01*
X1545047Y-374417D01*
X1545260Y-373917D01*
X1545420Y-373250D01*
X1545473Y-372500D01*
X1545420Y-371750D01*
X1545260Y-371083D01*
X1545047Y-370583D01*
X1544727Y-370167D01*
X1544300Y-370000D01*
G01X1548500Y-375000D02*
Y-370000D01*
X1547860Y-371000D01*
G01Y-375000D02*
X1549140D01*
G01X1551687Y-370833D02*
X1552007Y-370333D01*
X1552380Y-370083D01*
X1552807Y-370000D01*
X1553340Y-370167D01*
X1553713Y-370583D01*
X1553820Y-371083D01*
X1553767Y-371584D01*
X1553553Y-372000D01*
X1552487Y-372833D01*
X1552007Y-373417D01*
X1551687Y-374250D01*
X1551580Y-375000D01*
X1553820D01*
G01X1556900Y-370000D02*
X1556473Y-370167D01*
X1556153Y-370583D01*
X1555940Y-371083D01*
X1555780Y-371750D01*
X1555727Y-372500D01*
X1555780Y-373250D01*
X1555940Y-373917D01*
X1556153Y-374417D01*
X1556473Y-374833D01*
X1556900Y-375000D01*
X1557327Y-374833D01*
X1557647Y-374417D01*
X1557860Y-373917D01*
X1558020Y-373250D01*
X1558073Y-372500D01*
X1558020Y-371750D01*
X1557860Y-371083D01*
X1557647Y-370583D01*
X1557327Y-370167D01*
X1556900Y-370000D01*
G01X1561100Y-375000D02*
Y-370000D01*
X1560460Y-371000D01*
G01Y-375000D02*
X1561740D01*
G01X1564287Y-370833D02*
X1564607Y-370333D01*
X1564980Y-370083D01*
X1565407Y-370000D01*
X1565940Y-370167D01*
X1566313Y-370583D01*
X1566420Y-371083D01*
X1566367Y-371584D01*
X1566153Y-372000D01*
X1565087Y-372833D01*
X1564607Y-373417D01*
X1564287Y-374250D01*
X1564180Y-375000D01*
X1566420D01*
G01X1568807Y-373333D02*
X1570193D01*
G01X1573700Y-370000D02*
X1573273Y-370167D01*
X1572953Y-370583D01*
X1572740Y-371083D01*
X1572580Y-371750D01*
X1572527Y-372500D01*
X1572580Y-373250D01*
X1572740Y-373917D01*
X1572953Y-374417D01*
X1573273Y-374833D01*
X1573700Y-375000D01*
X1574127Y-374833D01*
X1574447Y-374417D01*
X1574660Y-373917D01*
X1574820Y-373250D01*
X1574873Y-372500D01*
X1574820Y-371750D01*
X1574660Y-371083D01*
X1574447Y-370583D01*
X1574127Y-370167D01*
X1573700Y-370000D01*
G01X1577900Y-375000D02*
Y-370000D01*
X1577260Y-371000D01*
G01Y-375000D02*
X1578540D01*
G01X1523750Y1162000D02*
Y1172000D01*
X1526875D01*
X1527875Y1171500D01*
X1528500Y1170833D01*
X1528750Y1169500D01*
X1528500Y1168167D01*
X1527750Y1167333D01*
X1526875Y1166833D01*
X1523750D01*
G01X1526875D02*
X1528750Y1162000D01*
G01X1538750D02*
X1533750D01*
Y1172000D01*
X1538750D01*
G01X1536750Y1167167D02*
X1533750D01*
G01X1543125Y1172000D02*
X1546250Y1162000D01*
X1549375Y1172000D01*
G01X1554750D02*
X1557750D01*
G01X1556250D02*
Y1162000D01*
G01X1554750D02*
X1557750D01*
G01X1563625Y1163333D02*
X1564625Y1162500D01*
X1565750Y1162000D01*
X1566750D01*
X1567750Y1162500D01*
X1568500Y1163333D01*
X1568875Y1164500D01*
X1568625Y1165666D01*
X1568000Y1166667D01*
X1566875Y1167333D01*
X1565375Y1167667D01*
X1564500Y1168333D01*
X1564125Y1169500D01*
X1564375Y1170667D01*
X1565000Y1171500D01*
X1565875Y1172000D01*
X1566750D01*
X1567625Y1171667D01*
X1568375Y1170833D01*
G01X1574750Y1172000D02*
X1577750D01*
G01X1576250D02*
Y1162000D01*
G01X1574750D02*
X1577750D01*
G01X1586250D02*
X1585250Y1162167D01*
X1584375Y1162833D01*
X1583625Y1163833D01*
X1583125Y1165000D01*
X1582875Y1166333D01*
Y1167667D01*
X1583125Y1169000D01*
X1583625Y1170167D01*
X1584375Y1171167D01*
X1585250Y1171833D01*
X1586250Y1172000D01*
X1587250Y1171833D01*
X1588125Y1171167D01*
X1588875Y1170167D01*
X1589375Y1169000D01*
X1589625Y1167667D01*
Y1166333D01*
X1589375Y1165000D01*
X1588875Y1163833D01*
X1588125Y1162833D01*
X1587250Y1162167D01*
X1586250Y1162000D01*
G01X1593375D02*
Y1172000D01*
X1599125Y1162000D01*
Y1172000D01*
G01X1603625Y1163333D02*
X1604625Y1162500D01*
X1605750Y1162000D01*
X1606750D01*
X1607750Y1162500D01*
X1608500Y1163333D01*
X1608875Y1164500D01*
X1608625Y1165666D01*
X1608000Y1166667D01*
X1606875Y1167333D01*
X1605375Y1167667D01*
X1604500Y1168333D01*
X1604125Y1169500D01*
X1604375Y1170667D01*
X1605000Y1171500D01*
X1605875Y1172000D01*
X1606750D01*
X1607625Y1171667D01*
X1608375Y1170833D01*
G01X1533033Y-342000D02*
Y-337000D01*
X1534313D01*
X1534740Y-337250D01*
X1535060Y-337833D01*
X1535167Y-338500D01*
X1535060Y-339167D01*
X1534793Y-339667D01*
X1534313Y-339917D01*
X1533033D01*
G01X1538300Y-337000D02*
Y-342000D01*
G01X1537073Y-337000D02*
X1539527D01*
G01X1541380Y-342000D02*
Y-337000D01*
G01X1543620D02*
Y-342000D01*
G01Y-339500D02*
X1541380D01*
G01X1545367Y-337000D02*
X1546700Y-342000D01*
X1548033Y-337000D01*
G01X1549727Y-342000D02*
Y-337000D01*
X1550793D01*
X1551220Y-337250D01*
X1551540Y-337583D01*
X1551807Y-338083D01*
X1552020Y-338667D01*
X1552073Y-339500D01*
X1552020Y-340333D01*
X1551807Y-340917D01*
X1551540Y-341417D01*
X1551220Y-341750D01*
X1550793Y-342000D01*
X1549727D01*
G01X1556273Y-337417D02*
X1555953Y-337167D01*
X1555580Y-337000D01*
X1555153D01*
X1554673Y-337250D01*
X1554300Y-337667D01*
X1554033Y-338167D01*
X1553820Y-339000D01*
X1553767Y-339750D01*
X1553873Y-340500D01*
X1554033Y-341000D01*
X1554353Y-341500D01*
X1554727Y-341833D01*
X1555100Y-342000D01*
X1555473D01*
X1555847Y-341833D01*
X1556167Y-341583D01*
X1556433Y-341250D01*
G01X1533460Y-348000D02*
X1534740D01*
G01X1534100D02*
Y-353000D01*
G01X1533460D02*
X1534740D01*
G01X1537073D02*
Y-348000D01*
X1539527Y-353000D01*
Y-348000D01*
G01X1541860D02*
X1543140D01*
G01X1542500D02*
Y-353000D01*
G01X1541860D02*
X1543140D01*
G01X1546700Y-348000D02*
Y-353000D01*
G01X1545473Y-348000D02*
X1547927D01*
G01X1550260D02*
X1551540D01*
G01X1550900D02*
Y-353000D01*
G01X1550260D02*
X1551540D01*
G01X1553767D02*
X1555100Y-348000D01*
X1556433Y-353000D01*
G01X1555953Y-351250D02*
X1554247D01*
G01X1558233Y-348000D02*
Y-353000D01*
X1560367D01*
G01X1605000Y-303000D02*
Y-378000D01*
G01X1608167Y-340500D02*
Y-334500D01*
X1609767D01*
X1610300Y-334800D01*
X1610700Y-335500D01*
X1610833Y-336300D01*
X1610700Y-337100D01*
X1610367Y-337700D01*
X1609767Y-338000D01*
X1608167D01*
G01X1613367Y-340500D02*
Y-334500D01*
X1615033D01*
X1615567Y-334800D01*
X1615900Y-335200D01*
X1616033Y-336000D01*
X1615900Y-336800D01*
X1615500Y-337300D01*
X1615033Y-337600D01*
X1613367D01*
G01X1615033D02*
X1616033Y-340500D01*
G01X1619900D02*
X1619367Y-340400D01*
X1618900Y-340000D01*
X1618500Y-339400D01*
X1618233Y-338700D01*
X1618100Y-337900D01*
Y-337100D01*
X1618233Y-336300D01*
X1618500Y-335600D01*
X1618900Y-335000D01*
X1619367Y-334600D01*
X1619900Y-334500D01*
X1620433Y-334600D01*
X1620900Y-335000D01*
X1621300Y-335600D01*
X1621567Y-336300D01*
X1621700Y-337100D01*
Y-337900D01*
X1621567Y-338700D01*
X1621300Y-339400D01*
X1620900Y-340000D01*
X1620433Y-340400D01*
X1619900Y-340500D01*
G01X1623767Y-339300D02*
X1624100Y-339900D01*
X1624500Y-340300D01*
X1624967Y-340500D01*
X1625500Y-340300D01*
X1625900Y-339900D01*
X1626300Y-339300D01*
X1626433Y-338500D01*
Y-334500D01*
G01X1631633Y-340500D02*
X1628967D01*
Y-334500D01*
X1631633D01*
G01X1630567Y-337400D02*
X1628967D01*
G01X1636967Y-335000D02*
X1636567Y-334700D01*
X1636100Y-334500D01*
X1635567D01*
X1634967Y-334800D01*
X1634500Y-335300D01*
X1634167Y-335900D01*
X1633900Y-336900D01*
X1633833Y-337800D01*
X1633967Y-338700D01*
X1634167Y-339300D01*
X1634567Y-339900D01*
X1635033Y-340300D01*
X1635500Y-340500D01*
X1635967D01*
X1636433Y-340300D01*
X1636833Y-340000D01*
X1637167Y-339600D01*
G01X1640700Y-334500D02*
Y-340500D01*
G01X1639167Y-334500D02*
X1642233D01*
G01X1649567Y-340500D02*
Y-334500D01*
X1652633Y-340500D01*
Y-334500D01*
G01X1654633Y-340500D02*
X1656300Y-334500D01*
X1657967Y-340500D01*
G01X1657367Y-338400D02*
X1655233D01*
G01X1659767Y-340500D02*
Y-334500D01*
X1661500Y-339500D01*
X1663233Y-334500D01*
Y-340500D01*
G01X1668033D02*
X1665367D01*
Y-334500D01*
X1668033D01*
G01X1666967Y-337400D02*
X1665367D01*
G01X1671900Y-340700D02*
X1671767Y-340600D01*
Y-340400D01*
X1671900Y-340300D01*
X1672033Y-340400D01*
Y-340600D01*
X1671900Y-340700D01*
G01Y-338000D02*
X1671767Y-337900D01*
Y-337700D01*
X1671900Y-337600D01*
X1672033Y-337700D01*
Y-337900D01*
X1671900Y-338000D01*
G01X1802500Y-355500D02*
X1605000D01*
G01X1802500Y-333000D02*
X1605000D01*
G01X1610967Y-305000D02*
X1610567Y-304700D01*
X1610100Y-304500D01*
X1609567D01*
X1608967Y-304800D01*
X1608500Y-305300D01*
X1608167Y-305900D01*
X1607900Y-306900D01*
X1607833Y-307800D01*
X1607967Y-308700D01*
X1608167Y-309300D01*
X1608567Y-309900D01*
X1609033Y-310300D01*
X1609500Y-310500D01*
X1609967D01*
X1610433Y-310300D01*
X1610833Y-310000D01*
X1611167Y-309600D01*
G01X1614700Y-310500D02*
X1614167Y-310400D01*
X1613700Y-310000D01*
X1613300Y-309400D01*
X1613033Y-308700D01*
X1612900Y-307900D01*
Y-307100D01*
X1613033Y-306300D01*
X1613300Y-305600D01*
X1613700Y-305000D01*
X1614167Y-304600D01*
X1614700Y-304500D01*
X1615233Y-304600D01*
X1615700Y-305000D01*
X1616100Y-305600D01*
X1616367Y-306300D01*
X1616500Y-307100D01*
Y-307900D01*
X1616367Y-308700D01*
X1616100Y-309400D01*
X1615700Y-310000D01*
X1615233Y-310400D01*
X1614700Y-310500D01*
G01X1618167D02*
Y-304500D01*
X1619900Y-309500D01*
X1621633Y-304500D01*
Y-310500D01*
G01X1623767D02*
Y-304500D01*
X1625367D01*
X1625900Y-304800D01*
X1626300Y-305500D01*
X1626433Y-306300D01*
X1626300Y-307100D01*
X1625967Y-307700D01*
X1625367Y-308000D01*
X1623767D01*
G01X1628633Y-310500D02*
X1630300Y-304500D01*
X1631967Y-310500D01*
G01X1631367Y-308400D02*
X1629233D01*
G01X1633967Y-310500D02*
Y-304500D01*
X1637033Y-310500D01*
Y-304500D01*
G01X1640700Y-310500D02*
Y-307800D01*
X1639367Y-304500D01*
G01X1642033D02*
X1640700Y-307800D01*
G01X1649567Y-310500D02*
Y-304500D01*
X1652633Y-310500D01*
Y-304500D01*
G01X1654633Y-310500D02*
X1656300Y-304500D01*
X1657967Y-310500D01*
G01X1657367Y-308400D02*
X1655233D01*
G01X1659767Y-310500D02*
Y-304500D01*
X1661500Y-309500D01*
X1663233Y-304500D01*
Y-310500D01*
G01X1668033D02*
X1665367D01*
Y-304500D01*
X1668033D01*
G01X1666967Y-307400D02*
X1665367D01*
G01X1671900Y-310700D02*
X1671767Y-310600D01*
Y-310400D01*
X1671900Y-310300D01*
X1672033Y-310400D01*
Y-310600D01*
X1671900Y-310700D01*
G01Y-308000D02*
X1671767Y-307900D01*
Y-307700D01*
X1671900Y-307600D01*
X1672033Y-307700D01*
Y-307900D01*
X1671900Y-308000D01*
G01X1631867Y-328000D02*
Y-320000D01*
X1634033D01*
X1634727Y-320400D01*
X1635160Y-320933D01*
X1635333Y-322000D01*
X1635160Y-323067D01*
X1634640Y-323733D01*
X1634033Y-324133D01*
X1631867D01*
G01X1634033D02*
X1635333Y-328000D01*
G01X1640400D02*
X1639707Y-327867D01*
X1639100Y-327334D01*
X1638580Y-326533D01*
X1638233Y-325600D01*
X1638060Y-324533D01*
Y-323467D01*
X1638233Y-322400D01*
X1638580Y-321467D01*
X1639100Y-320667D01*
X1639707Y-320133D01*
X1640400Y-320000D01*
X1641093Y-320133D01*
X1641700Y-320667D01*
X1642220Y-321467D01*
X1642567Y-322400D01*
X1642740Y-323467D01*
Y-324533D01*
X1642567Y-325600D01*
X1642220Y-326533D01*
X1641700Y-327334D01*
X1641093Y-327867D01*
X1640400Y-328000D01*
G01X1645380D02*
Y-320000D01*
G01X1649020D02*
Y-328000D01*
G01Y-324000D02*
X1645380D01*
G01X1651747Y-328000D02*
Y-320000D01*
X1654000Y-326667D01*
X1656253Y-320000D01*
Y-328000D01*
G01X1665780Y-326934D02*
X1666473Y-327600D01*
X1667253Y-328000D01*
X1667947D01*
X1668640Y-327600D01*
X1669160Y-326934D01*
X1669420Y-326000D01*
X1669247Y-325067D01*
X1668813Y-324267D01*
X1668033Y-323733D01*
X1666993Y-323467D01*
X1666387Y-322933D01*
X1666127Y-322000D01*
X1666300Y-321067D01*
X1666733Y-320400D01*
X1667340Y-320000D01*
X1667947D01*
X1668553Y-320267D01*
X1669073Y-320933D01*
G01X1676133Y-328000D02*
X1672667D01*
Y-320000D01*
X1676133D01*
G01X1674747Y-323867D02*
X1672667D01*
G01X1678947Y-328000D02*
Y-320000D01*
X1681200Y-326667D01*
X1683453Y-320000D01*
Y-328000D01*
G01X1686960Y-320000D02*
X1689040D01*
G01X1688000D02*
Y-328000D01*
G01X1686960D02*
X1689040D01*
G01X1696707Y-320667D02*
X1696187Y-320267D01*
X1695580Y-320000D01*
X1694887D01*
X1694107Y-320400D01*
X1693500Y-321067D01*
X1693067Y-321867D01*
X1692720Y-323200D01*
X1692633Y-324400D01*
X1692807Y-325600D01*
X1693067Y-326400D01*
X1693587Y-327200D01*
X1694193Y-327733D01*
X1694800Y-328000D01*
X1695407D01*
X1696013Y-327733D01*
X1696533Y-327334D01*
X1696967Y-326800D01*
G01X1701600Y-328000D02*
X1700907Y-327867D01*
X1700300Y-327334D01*
X1699780Y-326533D01*
X1699433Y-325600D01*
X1699260Y-324533D01*
Y-323467D01*
X1699433Y-322400D01*
X1699780Y-321467D01*
X1700300Y-320667D01*
X1700907Y-320133D01*
X1701600Y-320000D01*
X1702293Y-320133D01*
X1702900Y-320667D01*
X1703420Y-321467D01*
X1703767Y-322400D01*
X1703940Y-323467D01*
Y-324533D01*
X1703767Y-325600D01*
X1703420Y-326533D01*
X1702900Y-327334D01*
X1702293Y-327867D01*
X1701600Y-328000D01*
G01X1706407D02*
Y-320000D01*
X1710393Y-328000D01*
Y-320000D01*
G01X1713293Y-328000D02*
Y-320000D01*
X1715027D01*
X1715720Y-320400D01*
X1716240Y-320933D01*
X1716673Y-321733D01*
X1717020Y-322667D01*
X1717107Y-324000D01*
X1717020Y-325333D01*
X1716673Y-326267D01*
X1716240Y-327067D01*
X1715720Y-327600D01*
X1715027Y-328000D01*
X1713293D01*
G01X1720093Y-320000D02*
Y-325733D01*
X1720440Y-326934D01*
X1721133Y-327733D01*
X1722000Y-328000D01*
X1722867Y-327733D01*
X1723560Y-326934D01*
X1723907Y-325733D01*
Y-320000D01*
G01X1730707Y-320667D02*
X1730187Y-320267D01*
X1729580Y-320000D01*
X1728887D01*
X1728107Y-320400D01*
X1727500Y-321067D01*
X1727067Y-321867D01*
X1726720Y-323200D01*
X1726633Y-324400D01*
X1726807Y-325600D01*
X1727067Y-326400D01*
X1727587Y-327200D01*
X1728193Y-327733D01*
X1728800Y-328000D01*
X1729407D01*
X1730013Y-327733D01*
X1730533Y-327334D01*
X1730967Y-326800D01*
G01X1735600Y-320000D02*
Y-328000D01*
G01X1733607Y-320000D02*
X1737593D01*
G01X1742400Y-328000D02*
X1741707Y-327867D01*
X1741100Y-327334D01*
X1740580Y-326533D01*
X1740233Y-325600D01*
X1740060Y-324533D01*
Y-323467D01*
X1740233Y-322400D01*
X1740580Y-321467D01*
X1741100Y-320667D01*
X1741707Y-320133D01*
X1742400Y-320000D01*
X1743093Y-320133D01*
X1743700Y-320667D01*
X1744220Y-321467D01*
X1744567Y-322400D01*
X1744740Y-323467D01*
Y-324533D01*
X1744567Y-325600D01*
X1744220Y-326533D01*
X1743700Y-327334D01*
X1743093Y-327867D01*
X1742400Y-328000D01*
G01X1747467D02*
Y-320000D01*
X1749633D01*
X1750327Y-320400D01*
X1750760Y-320933D01*
X1750933Y-322000D01*
X1750760Y-323067D01*
X1750240Y-323733D01*
X1749633Y-324133D01*
X1747467D01*
G01X1749633D02*
X1750933Y-328000D01*
G01X1760893Y-320000D02*
Y-325733D01*
X1761240Y-326934D01*
X1761933Y-327733D01*
X1762800Y-328000D01*
X1763667Y-327733D01*
X1764360Y-326934D01*
X1764707Y-325733D01*
Y-320000D01*
G01X1767780Y-326934D02*
X1768473Y-327600D01*
X1769253Y-328000D01*
X1769947D01*
X1770640Y-327600D01*
X1771160Y-326934D01*
X1771420Y-326000D01*
X1771247Y-325067D01*
X1770813Y-324267D01*
X1770033Y-323733D01*
X1768993Y-323467D01*
X1768387Y-322933D01*
X1768127Y-322000D01*
X1768300Y-321067D01*
X1768733Y-320400D01*
X1769340Y-320000D01*
X1769947D01*
X1770553Y-320267D01*
X1771073Y-320933D01*
G01X1774233Y-328000D02*
X1776400Y-320000D01*
X1778567Y-328000D01*
G01X1777787Y-325200D02*
X1775013D01*
G01X1651293Y-348733D02*
X1651640Y-348333D01*
X1651900Y-347667D01*
X1652073Y-346733D01*
X1651900Y-345933D01*
X1651553Y-345400D01*
X1650947Y-345000D01*
X1648607D01*
Y-353000D01*
X1651467D01*
X1652073Y-352467D01*
X1652420Y-351667D01*
X1652593Y-350733D01*
X1652420Y-349800D01*
X1651900Y-349000D01*
X1651293Y-348733D01*
X1648607D01*
G01X1655493Y-353000D02*
Y-345000D01*
X1657227D01*
X1657920Y-345400D01*
X1658440Y-345933D01*
X1658873Y-346733D01*
X1659220Y-347667D01*
X1659307Y-349000D01*
X1659220Y-350333D01*
X1658873Y-351267D01*
X1658440Y-352067D01*
X1657920Y-352600D01*
X1657227Y-353000D01*
X1655493D01*
G01X1662727Y-352067D02*
X1663333Y-352733D01*
X1664027Y-353000D01*
X1664720Y-352733D01*
X1665327Y-351934D01*
X1665760Y-350733D01*
X1665933Y-349533D01*
Y-348067D01*
X1665760Y-346867D01*
X1665327Y-345800D01*
X1664807Y-345267D01*
X1664200Y-345000D01*
X1663507Y-345267D01*
X1662987Y-345800D01*
X1662640Y-346600D01*
X1662467Y-347667D01*
X1662640Y-348600D01*
X1663073Y-349533D01*
X1663593Y-350067D01*
X1664200Y-350200D01*
X1664893Y-349934D01*
X1665413Y-349267D01*
X1665933Y-348067D01*
G01X1672907Y-345667D02*
X1672387Y-345267D01*
X1671780Y-345000D01*
X1671087D01*
X1670307Y-345400D01*
X1669700Y-346067D01*
X1669267Y-346867D01*
X1668920Y-348200D01*
X1668833Y-349400D01*
X1669007Y-350600D01*
X1669267Y-351400D01*
X1669787Y-352200D01*
X1670393Y-352733D01*
X1671000Y-353000D01*
X1671607D01*
X1672213Y-352733D01*
X1672733Y-352334D01*
X1673167Y-351800D01*
G01X1676153Y-349667D02*
X1676760Y-348733D01*
X1677280Y-348200D01*
X1677973Y-347933D01*
X1678580Y-348200D01*
X1679013Y-348733D01*
X1679360Y-349533D01*
X1679447Y-350467D01*
X1679360Y-351267D01*
X1679013Y-352067D01*
X1678493Y-352733D01*
X1677887Y-353000D01*
X1677193Y-352733D01*
X1676587Y-351934D01*
X1676240Y-350733D01*
X1676153Y-349400D01*
X1676327Y-347667D01*
X1676587Y-346733D01*
X1677020Y-345800D01*
X1677627Y-345133D01*
X1678233Y-345000D01*
X1678840Y-345267D01*
X1679273Y-345933D01*
G01X1684600Y-345000D02*
X1683907Y-345267D01*
X1683387Y-345933D01*
X1683040Y-346733D01*
X1682780Y-347800D01*
X1682693Y-349000D01*
X1682780Y-350200D01*
X1683040Y-351267D01*
X1683387Y-352067D01*
X1683907Y-352733D01*
X1684600Y-353000D01*
X1685293Y-352733D01*
X1685813Y-352067D01*
X1686160Y-351267D01*
X1686420Y-350200D01*
X1686507Y-349000D01*
X1686420Y-347800D01*
X1686160Y-346733D01*
X1685813Y-345933D01*
X1685293Y-345267D01*
X1684600Y-345000D01*
G01X1691400Y-353000D02*
Y-345000D01*
X1690360Y-346600D01*
G01Y-353000D02*
X1692440D01*
G01X1699933D02*
X1696467D01*
Y-345000D01*
X1699933D01*
G01X1698547Y-348867D02*
X1696467D01*
G01X1703353Y-353000D02*
Y-345000D01*
X1706647D01*
G01X1705433Y-348867D02*
X1703353D01*
G01X1710067Y-351400D02*
X1710500Y-352200D01*
X1711020Y-352733D01*
X1711627Y-353000D01*
X1712320Y-352733D01*
X1712840Y-352200D01*
X1713360Y-351400D01*
X1713533Y-350333D01*
Y-345000D01*
G01X1720333Y-353000D02*
X1716867D01*
Y-345000D01*
X1720333D01*
G01X1718947Y-348867D02*
X1716867D01*
G01X1723233Y-345000D02*
X1725400Y-353000D01*
X1727567Y-345000D01*
G01X1730293Y-353000D02*
Y-345000D01*
G01X1733587D02*
X1730293Y-349934D01*
G01X1734107Y-353000D02*
X1731767Y-347667D01*
G01X1737873Y-350333D02*
X1740127D01*
G01X1745800Y-353000D02*
Y-345000D01*
X1744760Y-346600D01*
G01Y-353000D02*
X1746840D01*
G01X1752600Y-345000D02*
X1751907Y-345267D01*
X1751387Y-345933D01*
X1751040Y-346733D01*
X1750780Y-347800D01*
X1750693Y-349000D01*
X1750780Y-350200D01*
X1751040Y-351267D01*
X1751387Y-352067D01*
X1751907Y-352733D01*
X1752600Y-353000D01*
X1753293Y-352733D01*
X1753813Y-352067D01*
X1754160Y-351267D01*
X1754420Y-350200D01*
X1754507Y-349000D01*
X1754420Y-347800D01*
X1754160Y-346733D01*
X1753813Y-345933D01*
X1753293Y-345267D01*
X1752600Y-345000D01*
G01X1759400Y-353000D02*
Y-345000D01*
X1758360Y-346600D01*
G01Y-353000D02*
X1760440D01*
G01X1662500Y-428000D02*
Y-398000D01*
G01X1672500Y1202000D02*
Y1232000D01*
G01X1692500Y1062000D02*
Y1152000D01*
G01X1728967Y-363000D02*
Y-357000D01*
X1730633D01*
X1731167Y-357300D01*
X1731500Y-357700D01*
X1731633Y-358500D01*
X1731500Y-359300D01*
X1731100Y-359800D01*
X1730633Y-360100D01*
X1728967D01*
G01X1730633D02*
X1731633Y-363000D01*
G01X1736833D02*
X1734167D01*
Y-357000D01*
X1736833D01*
G01X1735767Y-359900D02*
X1734167D01*
G01X1739033Y-357000D02*
X1740700Y-363000D01*
X1742367Y-357000D01*
G01X1745900Y-363200D02*
X1745767Y-363100D01*
Y-362900D01*
X1745900Y-362800D01*
X1746033Y-362900D01*
Y-363100D01*
X1745900Y-363200D01*
G01X1731600Y-367500D02*
X1730907Y-367767D01*
X1730387Y-368433D01*
X1730040Y-369233D01*
X1729780Y-370300D01*
X1729693Y-371500D01*
X1729780Y-372700D01*
X1730040Y-373767D01*
X1730387Y-374567D01*
X1730907Y-375233D01*
X1731600Y-375500D01*
X1732293Y-375233D01*
X1732813Y-374567D01*
X1733160Y-373767D01*
X1733420Y-372700D01*
X1733507Y-371500D01*
X1733420Y-370300D01*
X1733160Y-369233D01*
X1732813Y-368433D01*
X1732293Y-367767D01*
X1731600Y-367500D01*
G01X1738400Y-375500D02*
Y-367500D01*
X1737360Y-369100D01*
G01Y-375500D02*
X1739440D01*
G01X1723100Y-355500D02*
Y-378000D01*
G01X1723500Y1132000D02*
Y1142000D01*
X1726000D01*
X1727000Y1141500D01*
X1727750Y1140833D01*
X1728375Y1139834D01*
X1728875Y1138666D01*
X1729000Y1137000D01*
X1728875Y1135333D01*
X1728375Y1134166D01*
X1727750Y1133166D01*
X1727000Y1132500D01*
X1726000Y1132000D01*
X1723500D01*
G01X1733125D02*
X1736250Y1142000D01*
X1739375Y1132000D01*
G01X1738250Y1135500D02*
X1734250D01*
G01X1746250Y1142000D02*
Y1132000D01*
G01X1743375Y1142000D02*
X1749125D01*
G01X1758750Y1132000D02*
X1753750D01*
Y1142000D01*
X1758750D01*
G01X1756750Y1137167D02*
X1753750D01*
G01X1758700Y-362200D02*
X1759233Y-362700D01*
X1759833Y-363000D01*
X1760367D01*
X1760900Y-362700D01*
X1761300Y-362200D01*
X1761500Y-361500D01*
X1761367Y-360800D01*
X1761033Y-360200D01*
X1760433Y-359800D01*
X1759633Y-359600D01*
X1759167Y-359200D01*
X1758967Y-358500D01*
X1759100Y-357800D01*
X1759433Y-357300D01*
X1759900Y-357000D01*
X1760367D01*
X1760833Y-357200D01*
X1761233Y-357700D01*
G01X1763900Y-363000D02*
Y-357000D01*
G01X1766700D02*
Y-363000D01*
G01Y-360000D02*
X1763900D01*
G01X1771833Y-363000D02*
X1769167D01*
Y-357000D01*
X1771833D01*
G01X1770767Y-359900D02*
X1769167D01*
G01X1777033Y-363000D02*
X1774367D01*
Y-357000D01*
X1777033D01*
G01X1775967Y-359900D02*
X1774367D01*
G01X1780900Y-357000D02*
Y-363000D01*
G01X1779367Y-357000D02*
X1782433D01*
G01X1786100Y-363200D02*
X1785967Y-363100D01*
Y-362900D01*
X1786100Y-362800D01*
X1786233Y-362900D01*
Y-363100D01*
X1786100Y-363200D01*
G01Y-360500D02*
X1785967Y-360400D01*
Y-360200D01*
X1786100Y-360100D01*
X1786233Y-360200D01*
Y-360400D01*
X1786100Y-360500D01*
G01X1753100Y-355500D02*
Y-378000D01*
G01X1802500Y-303000D02*
Y-378000D01*
G01X1782500Y1062000D02*
Y1152000D01*
G01X1793125Y1132000D02*
X1796250Y1142000D01*
X1799375Y1132000D01*
G01X1798250Y1135500D02*
X1794250D01*
G01X1803750Y1132000D02*
Y1142000D01*
X1806750D01*
X1807750Y1141500D01*
X1808500Y1140333D01*
X1808750Y1139000D01*
X1808500Y1137667D01*
X1807875Y1136667D01*
X1806750Y1136166D01*
X1803750D01*
G01X1813750Y1132000D02*
Y1142000D01*
X1816750D01*
X1817750Y1141500D01*
X1818500Y1140333D01*
X1818750Y1139000D01*
X1818500Y1137667D01*
X1817875Y1136667D01*
X1816750Y1136166D01*
X1813750D01*
G01X1823750Y1132000D02*
Y1142000D01*
X1826875D01*
X1827875Y1141500D01*
X1828500Y1140833D01*
X1828750Y1139500D01*
X1828500Y1138167D01*
X1827750Y1137333D01*
X1826875Y1136833D01*
X1823750D01*
G01X1826875D02*
X1828750Y1132000D01*
G01X1836250D02*
X1835250Y1132167D01*
X1834375Y1132833D01*
X1833625Y1133833D01*
X1833125Y1135000D01*
X1832875Y1136333D01*
Y1137667D01*
X1833125Y1139000D01*
X1833625Y1140167D01*
X1834375Y1141166D01*
X1835250Y1141833D01*
X1836250Y1142000D01*
X1837250Y1141833D01*
X1838125Y1141166D01*
X1838875Y1140167D01*
X1839375Y1139000D01*
X1839625Y1137667D01*
Y1136333D01*
X1839375Y1135000D01*
X1838875Y1133833D01*
X1838125Y1132833D01*
X1837250Y1132167D01*
X1836250Y1132000D01*
G01X1843125Y1142000D02*
X1846250Y1132000D01*
X1849375Y1142000D01*
G01X1858750Y1132000D02*
X1853750D01*
Y1142000D01*
X1858750D01*
G01X1856750Y1137167D02*
X1853750D01*
G01X1863500Y1132000D02*
Y1142000D01*
X1866000D01*
X1867000Y1141500D01*
X1867750Y1140833D01*
X1868375Y1139834D01*
X1868875Y1138666D01*
X1869000Y1137000D01*
X1868875Y1135333D01*
X1868375Y1134166D01*
X1867750Y1133166D01*
X1867000Y1132500D01*
X1866000Y1132000D01*
X1863500D01*
G01X1824800Y-371633D02*
X1824713Y-371567D01*
Y-371433D01*
X1824800Y-371367D01*
X1824887Y-371433D01*
Y-371567D01*
X1824800Y-371633D01*
G01X1828200Y-367500D02*
X1827853Y-367633D01*
X1827593Y-367967D01*
X1827420Y-368367D01*
X1827290Y-368900D01*
X1827247Y-369500D01*
X1827290Y-370100D01*
X1827420Y-370633D01*
X1827593Y-371033D01*
X1827853Y-371367D01*
X1828200Y-371500D01*
X1828547Y-371367D01*
X1828807Y-371033D01*
X1828980Y-370633D01*
X1829110Y-370100D01*
X1829153Y-369500D01*
X1829110Y-368900D01*
X1828980Y-368367D01*
X1828807Y-367967D01*
X1828547Y-367633D01*
X1828200Y-367500D01*
G01X1831600Y-371500D02*
Y-367500D01*
X1831080Y-368300D01*
G01Y-371500D02*
X1832120D01*
G01X1835000Y-367500D02*
X1834653Y-367633D01*
X1834393Y-367967D01*
X1834220Y-368367D01*
X1834090Y-368900D01*
X1834047Y-369500D01*
X1834090Y-370100D01*
X1834220Y-370633D01*
X1834393Y-371033D01*
X1834653Y-371367D01*
X1835000Y-371500D01*
X1835347Y-371367D01*
X1835607Y-371033D01*
X1835780Y-370633D01*
X1835910Y-370100D01*
X1835953Y-369500D01*
X1835910Y-368900D01*
X1835780Y-368367D01*
X1835607Y-367967D01*
X1835347Y-367633D01*
X1835000Y-367500D01*
G01X1824800Y-359633D02*
X1824713Y-359567D01*
Y-359433D01*
X1824800Y-359367D01*
X1824887Y-359433D01*
Y-359567D01*
X1824800Y-359633D01*
G01X1828200Y-359500D02*
Y-355500D01*
X1827680Y-356300D01*
G01Y-359500D02*
X1828720D01*
G01X1824800Y-365633D02*
X1824713Y-365567D01*
Y-365433D01*
X1824800Y-365367D01*
X1824887Y-365433D01*
Y-365567D01*
X1824800Y-365633D01*
G01X1828200Y-361500D02*
X1827853Y-361633D01*
X1827593Y-361967D01*
X1827420Y-362367D01*
X1827290Y-362900D01*
X1827247Y-363500D01*
X1827290Y-364100D01*
X1827420Y-364633D01*
X1827593Y-365033D01*
X1827853Y-365367D01*
X1828200Y-365500D01*
X1828547Y-365367D01*
X1828807Y-365033D01*
X1828980Y-364633D01*
X1829110Y-364100D01*
X1829153Y-363500D01*
X1829110Y-362900D01*
X1828980Y-362367D01*
X1828807Y-361967D01*
X1828547Y-361633D01*
X1828200Y-361500D01*
G01X1830647Y-364700D02*
X1830907Y-365167D01*
X1831253Y-365433D01*
X1831643Y-365500D01*
X1831990Y-365433D01*
X1832337Y-365100D01*
X1832553Y-364700D01*
X1832597Y-364300D01*
X1832510Y-363833D01*
X1832207Y-363500D01*
X1831903Y-363367D01*
X1831513D01*
G01X1831903D02*
X1832163Y-363167D01*
X1832380Y-362833D01*
X1832467Y-362433D01*
X1832380Y-362033D01*
X1832163Y-361700D01*
X1831773Y-361500D01*
X1831383Y-361567D01*
X1830993Y-361833D01*
G01X1808490Y-371500D02*
X1810310Y-367500D01*
G01X1808490D02*
X1810310Y-371500D01*
G01X1811890D02*
X1813710Y-367500D01*
G01X1811890D02*
X1813710Y-371500D01*
G01X1815290D02*
X1817110Y-367500D01*
G01X1815290D02*
X1817110Y-371500D01*
G01X1811890Y-365500D02*
X1813710Y-361500D01*
G01X1811890D02*
X1813710Y-365500D01*
G01X1815290D02*
X1817110Y-361500D01*
G01X1815290D02*
X1817110Y-365500D01*
G01X1815290Y-359500D02*
X1817110Y-355500D01*
G01X1815290D02*
X1817110Y-359500D01*
G01X1819500Y-371500D02*
X1822500D01*
G01X1821000Y-367800D02*
Y-370800D01*
G01X1819500Y-359500D02*
X1822500D01*
G01X1819500Y-365500D02*
X1822500D01*
G01X1821000Y-361800D02*
Y-364800D01*
G01X1819500Y-363300D02*
X1822500D01*
G01X1819500Y-369300D02*
X1822500D01*
G01X1824700Y-341500D02*
Y-345500D01*
G01X1823703Y-341500D02*
X1825697D01*
G01X1828100Y-345500D02*
X1827753Y-345433D01*
X1827450Y-345167D01*
X1827190Y-344767D01*
X1827017Y-344300D01*
X1826930Y-343767D01*
Y-343233D01*
X1827017Y-342700D01*
X1827190Y-342233D01*
X1827450Y-341833D01*
X1827753Y-341567D01*
X1828100Y-341500D01*
X1828447Y-341567D01*
X1828750Y-341833D01*
X1829010Y-342233D01*
X1829183Y-342700D01*
X1829270Y-343233D01*
Y-343767D01*
X1829183Y-344300D01*
X1829010Y-344767D01*
X1828750Y-345167D01*
X1828447Y-345433D01*
X1828100Y-345500D01*
G01X1830633Y-341500D02*
Y-345500D01*
X1832367D01*
G01X1835767D02*
X1834033D01*
Y-341500D01*
X1835767D01*
G01X1835073Y-343433D02*
X1834033D01*
G01X1837433Y-345500D02*
Y-341500D01*
X1838517D01*
X1838863Y-341700D01*
X1839080Y-341967D01*
X1839167Y-342500D01*
X1839080Y-343033D01*
X1838820Y-343367D01*
X1838517Y-343567D01*
X1837433D01*
G01X1838517D02*
X1839167Y-345500D01*
G01X1840617D02*
X1841700Y-341500D01*
X1842783Y-345500D01*
G01X1842393Y-344100D02*
X1841007D01*
G01X1844103Y-345500D02*
Y-341500D01*
X1846097Y-345500D01*
Y-341500D01*
G01X1849453Y-341833D02*
X1849193Y-341633D01*
X1848890Y-341500D01*
X1848543D01*
X1848153Y-341700D01*
X1847850Y-342033D01*
X1847633Y-342433D01*
X1847460Y-343100D01*
X1847417Y-343700D01*
X1847503Y-344300D01*
X1847633Y-344700D01*
X1847893Y-345100D01*
X1848197Y-345367D01*
X1848500Y-345500D01*
X1848803D01*
X1849107Y-345367D01*
X1849367Y-345167D01*
X1849583Y-344900D01*
G01X1852767Y-345500D02*
X1851033D01*
Y-341500D01*
X1852767D01*
G01X1852073Y-343433D02*
X1851033D01*
G01X1854390Y-344967D02*
X1854737Y-345300D01*
X1855127Y-345500D01*
X1855473D01*
X1855820Y-345300D01*
X1856080Y-344967D01*
X1856210Y-344500D01*
X1856123Y-344033D01*
X1855907Y-343633D01*
X1855517Y-343367D01*
X1854997Y-343233D01*
X1854693Y-342967D01*
X1854563Y-342500D01*
X1854650Y-342033D01*
X1854867Y-341700D01*
X1855170Y-341500D01*
X1855473D01*
X1855777Y-341633D01*
X1856037Y-341967D01*
G01X1809847Y-354000D02*
Y-350000D01*
X1810713D01*
X1811060Y-350200D01*
X1811320Y-350467D01*
X1811537Y-350867D01*
X1811710Y-351333D01*
X1811753Y-352000D01*
X1811710Y-352667D01*
X1811537Y-353133D01*
X1811320Y-353533D01*
X1811060Y-353800D01*
X1810713Y-354000D01*
X1809847D01*
G01X1815067D02*
X1813333D01*
Y-350000D01*
X1815067D01*
G01X1814373Y-351933D02*
X1813333D01*
G01X1818553Y-350333D02*
X1818293Y-350133D01*
X1817990Y-350000D01*
X1817643D01*
X1817253Y-350200D01*
X1816950Y-350533D01*
X1816733Y-350933D01*
X1816560Y-351600D01*
X1816517Y-352200D01*
X1816603Y-352800D01*
X1816733Y-353200D01*
X1816993Y-353600D01*
X1817297Y-353867D01*
X1817600Y-354000D01*
X1817903D01*
X1818207Y-353867D01*
X1818467Y-353667D01*
X1818683Y-353400D01*
G01X1820480Y-350000D02*
X1821520D01*
G01X1821000D02*
Y-354000D01*
G01X1820480D02*
X1821520D01*
G01X1823273D02*
Y-350000D01*
X1824400Y-353333D01*
X1825527Y-350000D01*
Y-354000D01*
G01X1826717D02*
X1827800Y-350000D01*
X1828883Y-354000D01*
G01X1828493Y-352600D02*
X1827107D01*
G01X1830333Y-350000D02*
Y-354000D01*
X1832067D01*
G01X1821000Y-355800D02*
Y-358800D01*
G01X1819500Y-357300D02*
X1822500D01*
G01X1818517Y-330500D02*
X1819600Y-326500D01*
X1820683Y-330500D01*
G01X1820293Y-329100D02*
X1818907D01*
G01X1822133Y-330500D02*
Y-326500D01*
X1823217D01*
X1823563Y-326700D01*
X1823780Y-326967D01*
X1823867Y-327500D01*
X1823780Y-328033D01*
X1823520Y-328367D01*
X1823217Y-328567D01*
X1822133D01*
G01X1823217D02*
X1823867Y-330500D01*
G01X1827267D02*
X1825533D01*
Y-326500D01*
X1827267D01*
G01X1826573Y-328433D02*
X1825533D01*
G01X1832680Y-326500D02*
X1833720D01*
G01X1833200D02*
Y-330500D01*
G01X1832680D02*
X1833720D01*
G01X1835603D02*
Y-326500D01*
X1837597Y-330500D01*
Y-326500D01*
G01X1842880D02*
X1843920D01*
G01X1843400D02*
Y-330500D01*
G01X1842880D02*
X1843920D01*
G01X1845803D02*
Y-326500D01*
X1847797Y-330500D01*
Y-326500D01*
G01X1851153Y-326833D02*
X1850893Y-326633D01*
X1850590Y-326500D01*
X1850243D01*
X1849853Y-326700D01*
X1849550Y-327033D01*
X1849333Y-327433D01*
X1849160Y-328100D01*
X1849117Y-328700D01*
X1849203Y-329300D01*
X1849333Y-329700D01*
X1849593Y-330100D01*
X1849897Y-330367D01*
X1850200Y-330500D01*
X1850503D01*
X1850807Y-330367D01*
X1851067Y-330167D01*
X1851283Y-329900D01*
G01X1852690Y-330500D02*
Y-326500D01*
G01X1854510D02*
Y-330500D01*
G01Y-328500D02*
X1852690D01*
G01X1857867Y-330500D02*
X1856133D01*
Y-326500D01*
X1857867D01*
G01X1857173Y-328433D02*
X1856133D01*
G01X1859490Y-329967D02*
X1859837Y-330300D01*
X1860227Y-330500D01*
X1860573D01*
X1860920Y-330300D01*
X1861180Y-329967D01*
X1861310Y-329500D01*
X1861223Y-329033D01*
X1861007Y-328633D01*
X1860617Y-328367D01*
X1860097Y-328233D01*
X1859793Y-327967D01*
X1859663Y-327500D01*
X1859750Y-327033D01*
X1859967Y-326700D01*
X1860270Y-326500D01*
X1860573D01*
X1860877Y-326633D01*
X1861137Y-326967D01*
G01X1806790Y-322467D02*
X1807137Y-322800D01*
X1807527Y-323000D01*
X1807873D01*
X1808220Y-322800D01*
X1808480Y-322467D01*
X1808610Y-322000D01*
X1808523Y-321533D01*
X1808307Y-321133D01*
X1807917Y-320867D01*
X1807397Y-320733D01*
X1807093Y-320467D01*
X1806963Y-320000D01*
X1807050Y-319533D01*
X1807267Y-319200D01*
X1807570Y-319000D01*
X1807873D01*
X1808177Y-319133D01*
X1808437Y-319467D01*
G01X1810233Y-323000D02*
Y-319000D01*
X1811273D01*
X1811620Y-319200D01*
X1811880Y-319667D01*
X1811967Y-320200D01*
X1811880Y-320733D01*
X1811663Y-321133D01*
X1811273Y-321333D01*
X1810233D01*
G01X1815367Y-323000D02*
X1813633D01*
Y-319000D01*
X1815367D01*
G01X1814673Y-320933D02*
X1813633D01*
G01X1818853Y-319333D02*
X1818593Y-319133D01*
X1818290Y-319000D01*
X1817943D01*
X1817553Y-319200D01*
X1817250Y-319533D01*
X1817033Y-319933D01*
X1816860Y-320600D01*
X1816817Y-321200D01*
X1816903Y-321800D01*
X1817033Y-322200D01*
X1817293Y-322600D01*
X1817597Y-322867D01*
X1817900Y-323000D01*
X1818203D01*
X1818507Y-322867D01*
X1818767Y-322667D01*
X1818983Y-322400D01*
G01X1820780Y-319000D02*
X1821820D01*
G01X1821300D02*
Y-323000D01*
G01X1820780D02*
X1821820D01*
G01X1823877D02*
Y-319000D01*
X1825523D01*
G01X1824917Y-320933D02*
X1823877D01*
G01X1827580Y-319000D02*
X1828620D01*
G01X1828100D02*
Y-323000D01*
G01X1827580D02*
X1828620D01*
G01X1832367D02*
X1830633D01*
Y-319000D01*
X1832367D01*
G01X1831673Y-320933D02*
X1830633D01*
G01X1833947Y-323000D02*
Y-319000D01*
X1834813D01*
X1835160Y-319200D01*
X1835420Y-319467D01*
X1835637Y-319867D01*
X1835810Y-320333D01*
X1835853Y-321000D01*
X1835810Y-321667D01*
X1835637Y-322133D01*
X1835420Y-322533D01*
X1835160Y-322800D01*
X1834813Y-323000D01*
X1833947D01*
G01X1840747D02*
Y-319000D01*
X1841613D01*
X1841960Y-319200D01*
X1842220Y-319467D01*
X1842437Y-319867D01*
X1842610Y-320333D01*
X1842653Y-321000D01*
X1842610Y-321667D01*
X1842437Y-322133D01*
X1842220Y-322533D01*
X1841960Y-322800D01*
X1841613Y-323000D01*
X1840747D01*
G01X1844580Y-319000D02*
X1845620D01*
G01X1845100D02*
Y-323000D01*
G01X1844580D02*
X1845620D01*
G01X1847373D02*
Y-319000D01*
X1848500Y-322333D01*
X1849627Y-319000D01*
Y-323000D01*
G01X1852767D02*
X1851033D01*
Y-319000D01*
X1852767D01*
G01X1852073Y-320933D02*
X1851033D01*
G01X1854303Y-323000D02*
Y-319000D01*
X1856297Y-323000D01*
Y-319000D01*
G01X1857790Y-322467D02*
X1858137Y-322800D01*
X1858527Y-323000D01*
X1858873D01*
X1859220Y-322800D01*
X1859480Y-322467D01*
X1859610Y-322000D01*
X1859523Y-321533D01*
X1859307Y-321133D01*
X1858917Y-320867D01*
X1858397Y-320733D01*
X1858093Y-320467D01*
X1857963Y-320000D01*
X1858050Y-319533D01*
X1858267Y-319200D01*
X1858570Y-319000D01*
X1858873D01*
X1859177Y-319133D01*
X1859437Y-319467D01*
G01X1861580Y-319000D02*
X1862620D01*
G01X1862100D02*
Y-323000D01*
G01X1861580D02*
X1862620D01*
G01X1865500D02*
X1865153Y-322933D01*
X1864850Y-322667D01*
X1864590Y-322267D01*
X1864417Y-321800D01*
X1864330Y-321267D01*
Y-320733D01*
X1864417Y-320200D01*
X1864590Y-319733D01*
X1864850Y-319333D01*
X1865153Y-319067D01*
X1865500Y-319000D01*
X1865847Y-319067D01*
X1866150Y-319333D01*
X1866410Y-319733D01*
X1866583Y-320200D01*
X1866670Y-320733D01*
Y-321267D01*
X1866583Y-321800D01*
X1866410Y-322267D01*
X1866150Y-322667D01*
X1865847Y-322933D01*
X1865500Y-323000D01*
G01X1867903D02*
Y-319000D01*
X1869897Y-323000D01*
Y-319000D01*
G01X1871390Y-322467D02*
X1871737Y-322800D01*
X1872127Y-323000D01*
X1872473D01*
X1872820Y-322800D01*
X1873080Y-322467D01*
X1873210Y-322000D01*
X1873123Y-321533D01*
X1872907Y-321133D01*
X1872517Y-320867D01*
X1871997Y-320733D01*
X1871693Y-320467D01*
X1871563Y-320000D01*
X1871650Y-319533D01*
X1871867Y-319200D01*
X1872170Y-319000D01*
X1872473D01*
X1872777Y-319133D01*
X1873037Y-319467D01*
G01X1813547Y-311500D02*
Y-314367D01*
X1813720Y-314967D01*
X1814067Y-315367D01*
X1814500Y-315500D01*
X1814933Y-315367D01*
X1815280Y-314967D01*
X1815453Y-314367D01*
Y-311500D01*
G01X1816903Y-315500D02*
Y-311500D01*
X1818897Y-315500D01*
Y-311500D01*
G01X1820433D02*
Y-315500D01*
X1822167D01*
G01X1825567D02*
X1823833D01*
Y-311500D01*
X1825567D01*
G01X1824873Y-313433D02*
X1823833D01*
G01X1827190Y-314967D02*
X1827537Y-315300D01*
X1827927Y-315500D01*
X1828273D01*
X1828620Y-315300D01*
X1828880Y-314967D01*
X1829010Y-314500D01*
X1828923Y-314033D01*
X1828707Y-313633D01*
X1828317Y-313367D01*
X1827797Y-313233D01*
X1827493Y-312967D01*
X1827363Y-312500D01*
X1827450Y-312033D01*
X1827667Y-311700D01*
X1827970Y-311500D01*
X1828273D01*
X1828577Y-311633D01*
X1828837Y-311967D01*
G01X1830590Y-314967D02*
X1830937Y-315300D01*
X1831327Y-315500D01*
X1831673D01*
X1832020Y-315300D01*
X1832280Y-314967D01*
X1832410Y-314500D01*
X1832323Y-314033D01*
X1832107Y-313633D01*
X1831717Y-313367D01*
X1831197Y-313233D01*
X1830893Y-312967D01*
X1830763Y-312500D01*
X1830850Y-312033D01*
X1831067Y-311700D01*
X1831370Y-311500D01*
X1831673D01*
X1831977Y-311633D01*
X1832237Y-311967D01*
G01X1838300Y-315500D02*
X1837953Y-315433D01*
X1837650Y-315167D01*
X1837390Y-314767D01*
X1837217Y-314300D01*
X1837130Y-313767D01*
Y-313233D01*
X1837217Y-312700D01*
X1837390Y-312233D01*
X1837650Y-311833D01*
X1837953Y-311567D01*
X1838300Y-311500D01*
X1838647Y-311567D01*
X1838950Y-311833D01*
X1839210Y-312233D01*
X1839383Y-312700D01*
X1839470Y-313233D01*
Y-313767D01*
X1839383Y-314300D01*
X1839210Y-314767D01*
X1838950Y-315167D01*
X1838647Y-315433D01*
X1838300Y-315500D01*
G01X1841700Y-311500D02*
Y-315500D01*
G01X1840703Y-311500D02*
X1842697D01*
G01X1844190Y-315500D02*
Y-311500D01*
G01X1846010D02*
Y-315500D01*
G01Y-313500D02*
X1844190D01*
G01X1849367Y-315500D02*
X1847633D01*
Y-311500D01*
X1849367D01*
G01X1848673Y-313433D02*
X1847633D01*
G01X1851033Y-315500D02*
Y-311500D01*
X1852117D01*
X1852463Y-311700D01*
X1852680Y-311967D01*
X1852767Y-312500D01*
X1852680Y-313033D01*
X1852420Y-313367D01*
X1852117Y-313567D01*
X1851033D01*
G01X1852117D02*
X1852767Y-315500D01*
G01X1854000Y-311500D02*
X1854607Y-315500D01*
X1855300Y-311500D01*
X1855993Y-315500D01*
X1856600Y-311500D01*
G01X1858180D02*
X1859220D01*
G01X1858700D02*
Y-315500D01*
G01X1858180D02*
X1859220D01*
G01X1861190Y-314967D02*
X1861537Y-315300D01*
X1861927Y-315500D01*
X1862273D01*
X1862620Y-315300D01*
X1862880Y-314967D01*
X1863010Y-314500D01*
X1862923Y-314033D01*
X1862707Y-313633D01*
X1862317Y-313367D01*
X1861797Y-313233D01*
X1861493Y-312967D01*
X1861363Y-312500D01*
X1861450Y-312033D01*
X1861667Y-311700D01*
X1861970Y-311500D01*
X1862273D01*
X1862577Y-311633D01*
X1862837Y-311967D01*
G01X1866367Y-315500D02*
X1864633D01*
Y-311500D01*
X1866367D01*
G01X1865673Y-313433D02*
X1864633D01*
G01X1842373Y-366000D02*
Y-362000D01*
X1843500Y-365333D01*
X1844627Y-362000D01*
Y-366000D01*
G01X1845817D02*
X1846900Y-362000D01*
X1847983Y-366000D01*
G01X1847593Y-364600D02*
X1846207D01*
G01X1851253Y-362333D02*
X1850993Y-362133D01*
X1850690Y-362000D01*
X1850343D01*
X1849953Y-362200D01*
X1849650Y-362533D01*
X1849433Y-362933D01*
X1849260Y-363600D01*
X1849217Y-364200D01*
X1849303Y-364800D01*
X1849433Y-365200D01*
X1849693Y-365600D01*
X1849997Y-365867D01*
X1850300Y-366000D01*
X1850603D01*
X1850907Y-365867D01*
X1851167Y-365667D01*
X1851383Y-365400D01*
G01X1852790Y-366000D02*
Y-362000D01*
G01X1854610D02*
Y-366000D01*
G01Y-364000D02*
X1852790D01*
G01X1859677Y-366000D02*
Y-362000D01*
X1861323D01*
G01X1860717Y-363933D02*
X1859677D01*
G01X1863380Y-362000D02*
X1864420D01*
G01X1863900D02*
Y-366000D01*
G01X1863380D02*
X1864420D01*
G01X1866303D02*
Y-362000D01*
X1868297Y-366000D01*
Y-362000D01*
G01X1870180D02*
X1871220D01*
G01X1870700D02*
Y-366000D01*
G01X1870180D02*
X1871220D01*
G01X1873190Y-365467D02*
X1873537Y-365800D01*
X1873927Y-366000D01*
X1874273D01*
X1874620Y-365800D01*
X1874880Y-365467D01*
X1875010Y-365000D01*
X1874923Y-364533D01*
X1874707Y-364133D01*
X1874317Y-363867D01*
X1873797Y-363733D01*
X1873493Y-363467D01*
X1873363Y-363000D01*
X1873450Y-362533D01*
X1873667Y-362200D01*
X1873970Y-362000D01*
X1874273D01*
X1874577Y-362133D01*
X1874837Y-362467D01*
G01X1876590Y-366000D02*
Y-362000D01*
G01X1878410D02*
Y-366000D01*
G01Y-364000D02*
X1876590D01*
G01X1861347Y-359200D02*
X1861607Y-359667D01*
X1861953Y-359933D01*
X1862343Y-360000D01*
X1862690Y-359933D01*
X1863037Y-359600D01*
X1863253Y-359200D01*
X1863297Y-358800D01*
X1863210Y-358333D01*
X1862907Y-358000D01*
X1862603Y-357867D01*
X1862213D01*
G01X1862603D02*
X1862863Y-357667D01*
X1863080Y-357333D01*
X1863167Y-356933D01*
X1863080Y-356533D01*
X1862863Y-356200D01*
X1862473Y-356000D01*
X1862083Y-356067D01*
X1861693Y-356333D01*
G01X1865700Y-356000D02*
X1865353Y-356133D01*
X1865093Y-356467D01*
X1864920Y-356867D01*
X1864790Y-357400D01*
X1864747Y-358000D01*
X1864790Y-358600D01*
X1864920Y-359133D01*
X1865093Y-359533D01*
X1865353Y-359867D01*
X1865700Y-360000D01*
X1866047Y-359867D01*
X1866307Y-359533D01*
X1866480Y-359133D01*
X1866610Y-358600D01*
X1866653Y-358000D01*
X1866610Y-357400D01*
X1866480Y-356867D01*
X1866307Y-356467D01*
X1866047Y-356133D01*
X1865700Y-356000D01*
G01X1863000Y-367000D02*
X1860700Y-371500D01*
X1859200Y-369300D01*
G01X1856200Y-359500D02*
X1859200D01*
G01X1861500Y-367000D02*
X1864500D01*
G01X1849617Y-354000D02*
X1850700Y-350000D01*
X1851783Y-354000D01*
G01X1851393Y-352600D02*
X1850007D01*
G01X1853103Y-354000D02*
Y-350000D01*
X1855097Y-354000D01*
Y-350000D01*
G01X1857760Y-352000D02*
X1858627D01*
Y-353200D01*
X1858367Y-353600D01*
X1858063Y-353867D01*
X1857630Y-354000D01*
X1857197Y-353867D01*
X1856893Y-353600D01*
X1856633Y-353200D01*
X1856460Y-352733D01*
X1856373Y-352200D01*
Y-351733D01*
X1856460Y-351333D01*
X1856633Y-350867D01*
X1856893Y-350467D01*
X1857153Y-350200D01*
X1857500Y-350000D01*
X1857803D01*
X1858150Y-350133D01*
X1858410Y-350400D01*
G01X1860033Y-350000D02*
Y-354000D01*
X1861767D01*
G01X1865167D02*
X1863433D01*
Y-350000D01*
X1865167D01*
G01X1864473Y-351933D02*
X1863433D01*
G01X1857700Y-355800D02*
Y-358800D01*
G01X1856200Y-357300D02*
X1859200D01*
G01X1882500Y-18000D02*
X1912500D01*
G01X1882500Y412000D02*
X1912500D01*
G01X1882500Y842000D02*
X1912500D01*
G01X1872500Y1182000D02*
X1882500D01*
G01X1904075Y-208000D02*
X1911950Y-183000D01*
X1919825Y-208000D01*
G01X1916990Y-199250D02*
X1906910D01*
G01X1914470Y175334D02*
X1915730Y176583D01*
X1916675Y178666D01*
X1917305Y181584D01*
X1916675Y184083D01*
X1915415Y185750D01*
X1913210Y187000D01*
X1904705D01*
Y162000D01*
X1915100D01*
X1917305Y163666D01*
X1918565Y166166D01*
X1919195Y169083D01*
X1918565Y171999D01*
X1916675Y174500D01*
X1914470Y175334D01*
X1904705D01*
G01X1908880Y594916D02*
X1906990Y596167D01*
X1904785Y597000D01*
X1902265D01*
X1899430Y595750D01*
X1897225Y593667D01*
X1895650Y591166D01*
X1894390Y587000D01*
X1894075Y583250D01*
X1894705Y579500D01*
X1895650Y577000D01*
X1897540Y574500D01*
X1899745Y572833D01*
X1901950Y572000D01*
X1904155D01*
X1906360Y572833D01*
X1908250Y574083D01*
X1909825Y575749D01*
G01X1905020Y1022000D02*
Y1047000D01*
X1911320D01*
X1913840Y1045750D01*
X1915730Y1044083D01*
X1917305Y1041584D01*
X1918565Y1038666D01*
X1918880Y1034500D01*
X1918565Y1030333D01*
X1917305Y1027416D01*
X1915730Y1024916D01*
X1913840Y1023250D01*
X1911320Y1022000D01*
X1905020D01*
M02*
