G04 ================== begin FILE IDENTIFICATION RECORD ==================*
G04 Layout Name:  BD9C601EFJEVK-101_EVAL_BRD_REV01_20140106.brd*
G04 Film Name:    BOTTOM*
G04 File Format:  Gerber RS274X*
G04 File Origin:  Cadence Allegro 16.3-S048*
G04 Origin Date:  Mon Jan 06 13:53:18 2014*
G04 *
G04 Layer:  VIA CLASS/BOTTOM*
G04 Layer:  PIN/BOTTOM*
G04 Layer:  ETCH/BOTTOM*
G04 Layer:  DRAWING FORMAT/BOTTOM*
G04 Layer:  BOARD GEOMETRY/OUTLINE*
G04 Layer:  BOARD GEOMETRY/LOGO_M*
G04 *
G04 Offset:    (0.000 0.000)*
G04 Mirror:    No*
G04 Mode:      Positive*
G04 Rotation:  0*
G04 FullContactRelief:  No*
G04 UndefLineWidth:     5.000*
G04 ================== end FILE IDENTIFICATION RECORD ====================*
%FSLAX55Y55*MOIN*%
%IR0*IPPOS*OFA0.00000B0.00000*MIA0B0*SFA1.00000B1.00000*%
%ADD10C,.25*%
%ADD13C,.04*%
%ADD15C,.06*%
%ADD11C,.024*%
%ADD12C,.093*%
%ADD14R,.06X.06*%
%ADD16C,.007098*%
%ADD17C,.02*%
%ADD18C,.015*%
%ADD19C,.005*%
%ADD22C,.109004*%
%ADD21C,.266004*%
%ADD20C,.056004*%
%ADD23R,.076004X.076004*%
G75*
%LPD*%
G75*
G36*
G01X-15000Y255500D02*
X255500D01*
Y-15000D01*
X-15000D01*
Y255500D01*
G37*
%LPC*%
G75*
G36*
G01X112005Y95128D02*
Y65541D01*
X117246Y60300D01*
X237754D01*
X239200Y61746D01*
Y94606D01*
X239035Y94636D01*
G02X242800Y95324I965J5364D01*
G01Y60254D01*
X239246Y56700D01*
X115754D01*
X108405Y64050D01*
Y95128D01*
G02X112005I1800J872D01*
G37*
G36*
G01X83358Y107050D02*
X114358D01*
X126950Y119642D01*
Y121236D01*
G02X130050I1550J1264D01*
G01Y118358D01*
X115642Y103950D01*
X84642D01*
X82551Y101859D01*
X82592Y101740D01*
G02X80240Y104092I-3592J-1240D01*
G01X80359Y104051D01*
X83358Y107050D01*
G37*
G54D22*
X0Y100000D03*
G54D21*
Y0D03*
Y240000D03*
X240000Y0D03*
Y240000D03*
G54D20*
X70000Y119500D03*
X91000Y124500D03*
X222000Y85500D03*
X36000Y99000D03*
Y129000D03*
X166000Y82000D03*
X232000Y86000D03*
X222500Y117500D03*
X170500Y144000D03*
G54D23*
X69000Y100500D03*
%LPD*%
G75*
G54D10*
X0Y0D03*
Y240000D03*
X240000Y0D03*
Y240000D03*
G54D11*
X-13000Y14000D03*
Y24000D03*
X-3500D03*
X-13000Y34000D03*
X-3500D03*
X-13000Y44000D03*
Y54000D03*
X-3500D03*
Y44000D03*
X-13000Y74000D03*
X-3500D03*
X-13000Y64000D03*
X-3500D03*
Y84000D03*
X-13000Y94000D03*
Y84000D03*
Y114000D03*
Y104000D03*
Y124000D03*
Y134000D03*
Y144000D03*
X-3500Y154000D03*
X-13000D03*
Y164000D03*
X-3500D03*
X-13000Y174000D03*
Y184000D03*
X-3500Y174000D03*
Y184000D03*
X-13000Y204000D03*
X-3500D03*
X-13000Y194000D03*
X-3500D03*
X-13000Y224000D03*
X-3500D03*
X-13000Y214000D03*
X-3500D03*
X16295Y-13205D03*
X25795D03*
X26000Y-6000D03*
X16500D03*
Y4000D03*
Y14000D03*
Y24000D03*
Y34000D03*
X6500Y24000D03*
Y34000D03*
X16500Y54000D03*
Y44000D03*
X6500Y54000D03*
Y44000D03*
X16500Y74000D03*
X26000D03*
X6500D03*
X16500Y64000D03*
X26000D03*
X6500D03*
X16500Y84000D03*
X26000D03*
X6500D03*
X16500Y144000D03*
X26000D03*
X16500Y154000D03*
X26000D03*
X7500Y153500D03*
X6500Y164000D03*
X16500D03*
X26000D03*
X6500Y174000D03*
Y184000D03*
X16500D03*
Y174000D03*
X26000Y184000D03*
Y174000D03*
X6500Y204000D03*
Y194000D03*
X16500Y204000D03*
Y194000D03*
X26000D03*
X6500Y224000D03*
Y214000D03*
X16500Y224000D03*
Y214000D03*
X16000Y244000D03*
Y234000D03*
X26000Y244000D03*
Y254000D03*
X16000D03*
X45795Y-13205D03*
X35795D03*
X36000Y-6000D03*
X46000D03*
Y74000D03*
X36000D03*
X46000Y64000D03*
X36000D03*
X46000Y84000D03*
Y144000D03*
Y154000D03*
X36000D03*
Y164000D03*
X46000D03*
X36000Y184000D03*
X46000D03*
Y174000D03*
X36000Y194000D03*
X46000D03*
X36000Y244000D03*
X46000D03*
X36000Y254000D03*
X46000D03*
X66000Y-13000D03*
X55795Y-13205D03*
X66000Y-6000D03*
X56000D03*
Y74000D03*
X66000Y64000D03*
X56000D03*
X66000Y84000D03*
X56000D03*
X64000Y144000D03*
Y148500D03*
X66000Y154000D03*
X56000D03*
X66000Y164000D03*
X56000D03*
X66000Y184000D03*
X56000D03*
Y174000D03*
X66000Y194000D03*
X56000D03*
X66000Y244000D03*
X56000D03*
X66000Y254000D03*
X56000D03*
X86000Y-13000D03*
X76000D03*
X86000Y-6000D03*
X76000D03*
X86000Y4000D03*
Y14000D03*
Y24000D03*
Y34000D03*
Y44000D03*
Y54000D03*
Y80000D03*
Y74000D03*
Y64000D03*
X76000Y74000D03*
Y64000D03*
Y84000D03*
X85500Y86000D03*
Y92500D03*
X89500Y109000D03*
X84500D03*
X89500Y114000D03*
X76000Y144000D03*
X85000Y147500D03*
X76000Y148500D03*
X80000Y147500D03*
X85000Y154000D03*
Y164000D03*
X76000D03*
X75500Y154000D03*
X86000Y184000D03*
Y174000D03*
X76000Y184000D03*
Y174000D03*
X86000Y194000D03*
X76000D03*
X86000Y224000D03*
Y244000D03*
X76000D03*
X86000Y234000D03*
Y254000D03*
X76000D03*
X106000Y-13000D03*
X96000D03*
Y-6000D03*
X106000D03*
Y4000D03*
X96000D03*
X106000Y14000D03*
X96000D03*
X106000Y24000D03*
X96000D03*
X106000Y34000D03*
X96000D03*
X106000Y44000D03*
Y54000D03*
X96000Y44000D03*
Y54000D03*
X106000Y80000D03*
Y74000D03*
X95500Y80000D03*
X96000Y64000D03*
X106000D03*
X95000Y97500D03*
Y92500D03*
X95500Y86000D03*
X104500Y93000D03*
X110205Y96000D03*
X108000Y120500D03*
X106000Y111000D03*
Y116000D03*
X108000Y125000D03*
Y129500D03*
X91000Y140000D03*
X101500Y144000D03*
X106500D03*
X106000Y134000D03*
X96500Y139000D03*
X101500D03*
X106500D03*
X101500Y154000D03*
X91000Y145000D03*
X96500Y149000D03*
X101500D03*
X106500D03*
X96500Y154000D03*
X106500D03*
X95000Y164000D03*
X105000D03*
X96000Y184000D03*
X106000D03*
X96000Y174000D03*
Y194000D03*
X106000D03*
Y224000D03*
X96000D03*
Y234000D03*
X106000D03*
X96000Y244000D03*
X106000D03*
X96000Y254000D03*
X106000D03*
X116000Y-6000D03*
X126000D03*
X116000Y-13000D03*
X126000D03*
X116000Y14000D03*
Y4000D03*
X126000Y14000D03*
Y4000D03*
X116000Y24000D03*
Y34000D03*
X126000Y24000D03*
Y34000D03*
X116000Y44000D03*
Y54000D03*
X126000D03*
Y44000D03*
X115500Y80000D03*
X126500D03*
X115500Y74000D03*
X126000D03*
X116000Y64000D03*
X129500Y97500D03*
Y92500D03*
Y87500D03*
X115500Y86000D03*
X129500Y112500D03*
Y107500D03*
Y102500D03*
X115000Y120500D03*
X111500D03*
X120000Y106500D03*
X116500Y111000D03*
X111500D03*
X116500Y116000D03*
X111500D03*
X128500Y122500D03*
X111500Y139000D03*
X115000Y125000D03*
X111500D03*
X115000Y129500D03*
X111500D03*
X116500Y144000D03*
X111500Y134000D03*
X116500D03*
Y139000D03*
X111500Y154000D03*
X116500Y149000D03*
X111500D03*
X116500Y154000D03*
X115000Y164000D03*
X115500Y174000D03*
X127500Y170500D03*
Y184000D03*
Y177500D03*
X116700Y184700D03*
X125500Y204000D03*
Y194000D03*
X113500D03*
X125500Y214000D03*
Y224000D03*
X116000D03*
Y234000D03*
X125500D03*
X116000Y244000D03*
X125500D03*
Y254000D03*
X116000D03*
X146000Y-6000D03*
X136000D03*
Y-13000D03*
X146000D03*
X136000Y14000D03*
X146000D03*
X136000Y4000D03*
X146000D03*
X136000Y24000D03*
X146000D03*
Y34000D03*
X136000D03*
X146000Y54000D03*
Y44000D03*
X136000Y54000D03*
Y44000D03*
X146000Y74000D03*
Y64000D03*
X132500Y80000D03*
X136000Y74000D03*
Y64000D03*
X148000Y176000D03*
X142500D03*
X148000Y182500D03*
X142500D03*
X145500Y205000D03*
X135500Y204000D03*
X142500Y194500D03*
X135000D03*
X145500Y214000D03*
X135500D03*
Y224000D03*
X145500D03*
Y234000D03*
X135500D03*
X145500Y244000D03*
X135500D03*
X145500Y254000D03*
X135500D03*
X166000Y-6000D03*
X156000D03*
X166000Y-13000D03*
X156000D03*
X166000Y14000D03*
Y4000D03*
X156000Y14000D03*
Y4000D03*
X166000Y24000D03*
Y34000D03*
X156000Y24000D03*
Y34000D03*
X166000Y54000D03*
Y44000D03*
X156000D03*
Y54000D03*
X166000Y74000D03*
X156000D03*
Y64000D03*
X160000Y182500D03*
Y176000D03*
X165500Y174000D03*
Y184000D03*
Y204000D03*
X155500D03*
X165500Y194000D03*
X156000Y194500D03*
X165500Y214000D03*
X155500D03*
X165500Y224000D03*
X155500D03*
X165500Y244000D03*
X155500D03*
X165500Y234000D03*
X155500D03*
X165500Y254000D03*
X155500D03*
X185500Y-13000D03*
Y-6000D03*
X176000D03*
Y-13000D03*
X185500Y4000D03*
Y14000D03*
X176000D03*
Y4000D03*
X185500Y24000D03*
Y34000D03*
X176000Y24000D03*
Y34000D03*
Y54000D03*
Y44000D03*
X185500D03*
Y54000D03*
X176000Y74000D03*
Y64000D03*
X185500D03*
Y74000D03*
Y84000D03*
X177500D03*
X185500Y134000D03*
Y124000D03*
Y153500D03*
Y164000D03*
Y174000D03*
X175500D03*
X185500Y184000D03*
X175500D03*
X185500Y204000D03*
X175500D03*
X185500Y194000D03*
X175500Y224000D03*
Y214000D03*
X185500Y224000D03*
Y214000D03*
Y234000D03*
Y244000D03*
X175500Y234000D03*
Y244000D03*
X185500Y254000D03*
X175500D03*
X205500Y-13000D03*
X195500D03*
X205500Y-6000D03*
X195500D03*
X205500Y4000D03*
X195500D03*
X205500Y14000D03*
X195500D03*
X205500Y24000D03*
X195500D03*
X205500Y34000D03*
X195500D03*
Y44000D03*
Y54000D03*
X205500D03*
X201000Y62500D03*
X211500Y62000D03*
X196000Y71000D03*
Y66000D03*
X206500D03*
Y71000D03*
X195500Y115000D03*
X205500D03*
X195500Y124000D03*
X205500D03*
Y134000D03*
X195500D03*
Y144000D03*
X205500D03*
X195500Y154000D03*
X205500D03*
Y164000D03*
X195500D03*
X205500Y174000D03*
X195500D03*
X205500Y184000D03*
X195500D03*
X205500Y204000D03*
X195500D03*
X205500Y194000D03*
X195500D03*
X205500Y224000D03*
X195500D03*
X205500Y214000D03*
X195500D03*
X205500Y234000D03*
X195500D03*
X205500Y244000D03*
X195500D03*
X205500Y254000D03*
X195500D03*
X215500Y-13000D03*
X226000D03*
X215500Y-6000D03*
Y4000D03*
Y14000D03*
X226000D03*
X236000Y24000D03*
X215500D03*
X226000D03*
X236000Y34000D03*
X215500D03*
X226000D03*
X236000Y54000D03*
X226000Y44000D03*
X215500D03*
Y54000D03*
X222000Y62000D03*
X227500Y64500D03*
X232000Y67000D03*
X227500Y70500D03*
X217000Y66000D03*
Y71000D03*
X226000Y134000D03*
Y144000D03*
X215500D03*
X236000Y154000D03*
X226000D03*
X215500D03*
X236000Y164000D03*
X226000D03*
X215500D03*
X236000Y184000D03*
Y174000D03*
X226000Y184000D03*
Y174000D03*
X215500Y184000D03*
X236000Y204000D03*
Y194000D03*
X226000Y204000D03*
Y194000D03*
X215500Y204000D03*
Y194000D03*
X236000Y224000D03*
Y214000D03*
X226000Y224000D03*
Y214000D03*
X215500Y224000D03*
Y214000D03*
Y234000D03*
Y244000D03*
X226000Y254000D03*
X215500D03*
X254000Y14000D03*
Y24000D03*
X246500Y34000D03*
X254000D03*
Y44000D03*
X246500D03*
X254000Y54000D03*
X246500D03*
X237000Y71000D03*
X246500Y74000D03*
Y64000D03*
X254000Y74000D03*
Y64000D03*
Y84000D03*
Y94000D03*
Y104000D03*
Y114000D03*
Y124000D03*
Y134000D03*
Y144000D03*
Y154000D03*
X246500D03*
X254000Y164000D03*
X246500D03*
X254000Y184000D03*
Y174000D03*
X246500D03*
Y184000D03*
X254000Y204000D03*
Y194000D03*
X246500Y204000D03*
Y194000D03*
X254000Y224000D03*
Y214000D03*
X246500D03*
G54D12*
X0Y100000D03*
Y140000D03*
X240000Y100000D03*
Y140000D03*
G54D13*
X36000Y84000D03*
Y99000D03*
Y144000D03*
Y129000D03*
Y174000D03*
X66000Y74000D03*
X56000Y144000D03*
X66000Y174000D03*
X84500Y114000D03*
X70000Y119500D03*
X95500Y74000D03*
X106000Y86000D03*
X96500Y144000D03*
X91000Y124500D03*
X105500Y174000D03*
X126000Y64000D03*
X111500Y144000D03*
X166000Y64000D03*
Y82000D03*
X170500Y144000D03*
X185500D03*
X175500Y194000D03*
X205500Y44000D03*
X215500Y134000D03*
Y174000D03*
X226000Y54000D03*
X236000Y44000D03*
X232000Y86000D03*
X222000Y85500D03*
X222500Y117500D03*
X237000Y63500D03*
G54D14*
X69000Y100500D03*
G54D15*
X79000D03*
X89000D03*
G54D16*
G01X342340Y-108620D02*
X339270D01*
G01Y-109320D02*
X342340D01*
G01Y-110010D02*
X339270D01*
G01Y-110710D02*
X342340D01*
G01Y-111400D02*
X339270D01*
G01Y-112100D02*
X342340D01*
G01Y-112550D02*
X339270D01*
G01D02*
Y-102590D01*
G01X339330Y-117530D02*
X339290Y-117680D01*
G01D02*
X339270Y-117840D01*
G01D02*
X339290Y-118010D01*
G01X339500Y-117270D02*
X339400Y-117400D01*
G01D02*
X339330Y-117530D01*
G01X339290Y-118010D02*
X339340Y-118170D01*
G01D02*
X339410Y-118320D01*
G01D02*
X339520Y-118450D01*
G01X339270Y-105150D02*
X342340D01*
G01Y-105850D02*
X339270D01*
G01Y-106540D02*
X342340D01*
G01Y-107240D02*
X339270D01*
G01Y-107930D02*
X342340D01*
G01X339270Y-102590D02*
X339320Y-102040D01*
G01D02*
X339480Y-101510D01*
G01X339290Y-102380D02*
X342340D01*
G01Y-103070D02*
X339270D01*
G01Y-103770D02*
X342340D01*
G01Y-104460D02*
X339270D01*
G01X348720Y-108620D02*
X345410D01*
G01Y-109320D02*
X348720D01*
G01Y-110010D02*
X345410D01*
G01Y-110710D02*
X348720D01*
G01Y-111400D02*
X345410D01*
G01Y-112100D02*
X348720D01*
G01Y-112550D02*
X345410D01*
G01X342340Y-102240D02*
Y-112550D01*
G01X345410D02*
Y-101790D01*
G01X348720Y-101780D02*
Y-112550D01*
G01X351790D02*
Y-101810D01*
G01X340070Y-117040D02*
X339910Y-117060D01*
G01D02*
X339760Y-117100D01*
G01D02*
X339630Y-117170D01*
G01D02*
X339500Y-117270D01*
G01X342340Y-117040D02*
X340070D01*
G01X344470Y-118320D02*
X344490Y-118100D01*
G01D02*
X344550Y-117880D01*
G01D02*
X344640Y-117680D01*
G01D02*
X344770Y-117500D01*
G01D02*
X344930Y-117340D01*
G01D02*
X345110Y-117210D01*
G01D02*
X345310Y-117120D01*
G01D02*
X345530Y-117060D01*
G01D02*
X345750Y-117040D01*
G01D02*
X346490D01*
G01D02*
X346710Y-117060D01*
G01D02*
X346930Y-117120D01*
G01X347480Y-117500D02*
X347610Y-117680D01*
G01D02*
X347700Y-117890D01*
G01D02*
X347760Y-118110D01*
G01X349900Y-117040D02*
X351320D01*
G01X352730D02*
X351320D01*
G01X346930Y-117120D02*
X347130Y-117210D01*
G01D02*
X347320Y-117340D01*
G01D02*
X347480Y-117500D01*
G01X354860Y-108620D02*
X351790D01*
G01Y-109320D02*
X354860D01*
G01X351790Y-110710D02*
X354860D01*
G01Y-110010D02*
X351790D01*
G01X354860Y-111400D02*
X351790D01*
G01Y-112100D02*
X354860D01*
G01X358400Y-108620D02*
X361710D01*
G01Y-109320D02*
X358400D01*
G01X361710Y-110710D02*
X358400D01*
G01Y-110010D02*
X361710D01*
G01X358400Y-111400D02*
X361710D01*
G01Y-112100D02*
X358400D01*
G01X354860Y-112550D02*
X351790D01*
G01X361710D02*
X358400D01*
G01X354860Y-99800D02*
Y-112550D01*
G01X358400D02*
Y-99800D01*
G01X356420Y-117040D02*
X354620D01*
G01X357090Y-117280D02*
X356940Y-117180D01*
G01D02*
X356780Y-117100D01*
G01D02*
X356600Y-117060D01*
G01D02*
X356420Y-117040D01*
G01X357400Y-117720D02*
X357320Y-117560D01*
G01D02*
X357220Y-117410D01*
G01D02*
X357090Y-117280D01*
G01X357460Y-118080D02*
X357440Y-117900D01*
G01D02*
X357400Y-117720D01*
G01X339520Y-118450D02*
X339650Y-118560D01*
G01D02*
X339800Y-118630D01*
G01D02*
X339960Y-118680D01*
G01D02*
X340130Y-118700D01*
G01D02*
X340410D01*
G01X339510Y-120350D02*
X340410Y-118700D01*
G01D02*
X342340D01*
G01Y-117040D02*
Y-118700D01*
G01D02*
Y-120350D01*
G01X344470Y-119050D02*
Y-118320D01*
G01X344490Y-119280D02*
X344470Y-119050D01*
G01X345120Y-120180D02*
X344930Y-120050D01*
G01D02*
X344770Y-119890D01*
G01D02*
X344640Y-119700D01*
G01D02*
X344550Y-119490D01*
G01D02*
X344490Y-119280D01*
G01X345770Y-120350D02*
X345540Y-120330D01*
G01D02*
X345330Y-120270D01*
G01D02*
X345120Y-120180D01*
G01X346860Y-120290D02*
X346660Y-120330D01*
G01D02*
X346460Y-120350D01*
G01D02*
X345770D01*
G01X347760Y-118110D02*
X347780Y-118330D01*
G01X347770D02*
Y-119040D01*
G01D02*
X347750Y-119240D01*
G01D02*
X347710Y-119440D01*
G01D02*
X347630Y-119630D01*
G01D02*
X347520Y-119810D01*
G01X351320Y-117040D02*
Y-120350D01*
G01X347520Y-119810D02*
X347390Y-119970D01*
G01D02*
X347230Y-120100D01*
G01D02*
X347050Y-120210D01*
G01D02*
X346860Y-120290D01*
G01X354620Y-120350D02*
X356390D01*
G01D02*
X356580Y-120330D01*
G01D02*
X356760Y-120290D01*
G01D02*
X356930Y-120210D01*
G01D02*
X357080Y-120100D01*
G01X357460Y-119280D02*
Y-118080D01*
G01X357080Y-120100D02*
X357210Y-119970D01*
G01D02*
X357320Y-119810D01*
G01D02*
X357400Y-119650D01*
G01D02*
X357440Y-119470D01*
G01D02*
X357460Y-119280D01*
G01X359580Y-117040D02*
Y-119040D01*
G01X359590D02*
X359610Y-119270D01*
G01D02*
X359670Y-119490D01*
G01D02*
X359770Y-119690D01*
G01D02*
X359900Y-119880D01*
G01D02*
X360060Y-120040D01*
G01D02*
X360240Y-120170D01*
G01D02*
X360450Y-120270D01*
G01X345410Y-105150D02*
X348720D01*
G01Y-105850D02*
X345410D01*
G01Y-106540D02*
X348720D01*
G01Y-107240D02*
X345410D01*
G01Y-107930D02*
X348720D01*
G01X339480Y-101510D02*
X339760Y-101030D01*
G01D02*
X340140Y-100620D01*
G01D02*
X340790Y-100140D01*
G01D02*
X341520Y-99780D01*
G01D02*
X342300Y-99560D01*
G01X342630Y-101420D02*
X342470Y-101660D01*
G01D02*
X342370Y-101940D01*
G01X342460Y-101680D02*
X339430D01*
G01X342370Y-101940D02*
X342340Y-102240D01*
G01X342300Y-99560D02*
X343460Y-99390D01*
G01X343330Y-101050D02*
X342850Y-101220D01*
G01D02*
X342630Y-101420D01*
G01X343840Y-100980D02*
X343330Y-101050D01*
G01X339800Y-100990D02*
X343760D01*
G01X343460Y-99390D02*
X344620Y-99330D01*
G01X345170Y-101220D02*
X345000Y-101090D01*
G01D02*
X344810Y-101010D01*
G01D02*
X344600Y-100980D01*
G01D02*
X343840D01*
G01X345300Y-101380D02*
X345170Y-101220D01*
G01X345410Y-101790D02*
X345380Y-101580D01*
G01D02*
X345300Y-101380D01*
G01X348740Y-101570D02*
X348720Y-101780D01*
G01X348730Y-101680D02*
X345400D01*
G01X345410Y-102380D02*
X348720D01*
G01Y-103070D02*
X345410D01*
G01Y-103770D02*
X348720D01*
G01Y-104460D02*
X345410D01*
G01X344620Y-99330D02*
X348950D01*
G01X349520Y-100980D02*
X349310Y-101010D01*
G01D02*
X349120Y-101090D01*
G01D02*
X348950Y-101210D01*
G01D02*
X348830Y-101380D01*
G01D02*
X348740Y-101570D01*
G01X344680Y-100990D02*
X349440D01*
G01X351180Y-101010D02*
X350960Y-100980D01*
G01D02*
X349520D01*
G01X348950Y-99330D02*
X351920Y-99420D01*
G01X351550Y-101220D02*
X351370Y-101090D01*
G01D02*
X351180Y-101010D01*
G01X351790Y-101810D02*
X351760Y-101590D01*
G01D02*
X351680Y-101390D01*
G01D02*
X351550Y-101220D01*
G01X353310Y-99600D02*
X342160D01*
G01X351790Y-105150D02*
X354860D01*
G01Y-105850D02*
X351790D01*
G01X354860Y-107240D02*
X351790D01*
G01Y-106540D02*
X354860D01*
G01X351790Y-107930D02*
X354860D01*
G01X358400Y-107240D02*
X361750D01*
G01X361710Y-107930D02*
X358400D01*
G01X372100Y-105150D02*
X358400D01*
G01Y-105850D02*
X372100D01*
G01Y-106540D02*
X358400D01*
G01X354860Y-100300D02*
X340580D01*
G01X351920Y-99420D02*
X354860Y-99800D01*
G01X351040Y-100990D02*
X354860D01*
G01Y-101680D02*
X351770D01*
G01X354860Y-103070D02*
X351790D01*
G01Y-102380D02*
X354860D01*
G01X351790Y-103770D02*
X354860D01*
G01Y-104460D02*
X351790D01*
G01X358400Y-99800D02*
X361710D01*
G01Y-100300D02*
X358400D01*
G01Y-100990D02*
X361710D01*
G01Y-101680D02*
X358400D01*
G01X361710Y-103070D02*
X358400D01*
G01Y-102380D02*
X361710D01*
G01X358400Y-103770D02*
X361710D01*
G01X361760Y-104460D02*
X358400D01*
G01X361710Y-107480D02*
Y-112550D01*
G01X368800D02*
Y-107430D01*
G01Y-108620D02*
X372100D01*
G01Y-109320D02*
X368800D01*
G01Y-110010D02*
X372100D01*
G01Y-110710D02*
X368800D01*
G01Y-111400D02*
X372100D01*
G01Y-112100D02*
X368800D01*
G01X372100Y-112550D02*
X368800D01*
G01X375460Y-109680D02*
X375410Y-109130D01*
G01X375640Y-110200D02*
X375460Y-109680D01*
G01X375930Y-110670D02*
X375640Y-110200D01*
G01X376780Y-111500D02*
X376320Y-111060D01*
G01D02*
X375930Y-110670D01*
G01X377310Y-111850D02*
X376780Y-111500D01*
G01X378480Y-108620D02*
X375410D01*
G01X378480Y-108660D02*
X378540Y-109240D01*
G01X375430Y-109320D02*
X378570D01*
G01X377890Y-112120D02*
X377310Y-111850D01*
G01X378540Y-109240D02*
X378730Y-109800D01*
G01D02*
X379030Y-110310D01*
G01X378860Y-110010D02*
X375580D01*
G01X378760Y-112380D02*
X377890Y-112120D01*
G01X375970Y-110710D02*
X379560D01*
G01X372100Y-99800D02*
Y-112550D01*
G01X375410Y-109130D02*
Y-102990D01*
G01X378480D02*
Y-108660D01*
G01X365660Y-117210D02*
X365480Y-117340D01*
G01D02*
X365320Y-117500D01*
G01D02*
X365190Y-117680D01*
G01D02*
X365100Y-117890D01*
G01D02*
X365040Y-118110D01*
G01X366310Y-117040D02*
X366090Y-117060D01*
G01D02*
X365870Y-117120D01*
G01D02*
X365660Y-117210D01*
G01X368090Y-117040D02*
X366310D01*
G01X373280D02*
X373760D01*
G01X376420Y-117500D02*
X376580Y-117340D01*
G01D02*
X376770Y-117210D01*
G01X376140Y-118110D02*
X376200Y-117900D01*
G01D02*
X376290Y-117690D01*
G01D02*
X376420Y-117500D01*
G01X376770Y-117210D02*
X376980Y-117120D01*
G01D02*
X377190Y-117060D01*
G01D02*
X377420Y-117040D01*
G01D02*
X378160D01*
G01D02*
X378380Y-117060D01*
G01D02*
X378590Y-117120D01*
G01D02*
X378790Y-117210D01*
G01D02*
X378980Y-117340D01*
G01D02*
X379130Y-117490D01*
G01D02*
X379260Y-117670D01*
G01D02*
X379350Y-117880D01*
G01D02*
X379410Y-118090D01*
G01D02*
X379430Y-118310D01*
G01X379030Y-110310D02*
X379500Y-110680D01*
G01D02*
X380030Y-110940D01*
G01D02*
X380600Y-111100D01*
G01D02*
X381200Y-111140D01*
G01X386110Y-112100D02*
X377840D01*
G01X387370Y-111400D02*
X376680D01*
G01X379660Y-112520D02*
X378760Y-112380D01*
G01X380570Y-112550D02*
X379660Y-112520D01*
G01X383320Y-112550D02*
X380570D01*
G01X360450Y-120270D02*
X360670Y-120330D01*
G01D02*
X360900Y-120350D01*
G01D02*
X361420D01*
G01D02*
X361640Y-120330D01*
G01D02*
X361840Y-120280D01*
G01D02*
X362040Y-120180D01*
G01D02*
X362220Y-120060D01*
G01X362650Y-119110D02*
Y-117040D01*
G01X362220Y-120060D02*
X362370Y-119910D01*
G01D02*
X362490Y-119730D01*
G01D02*
X362590Y-119530D01*
G01D02*
X362640Y-119330D01*
G01D02*
X362660Y-119110D01*
G01X365040Y-118110D02*
X365020Y-118330D01*
G01D02*
Y-119040D01*
G01D02*
X365040Y-119240D01*
G01D02*
X365080Y-119440D01*
G01D02*
X365160Y-119630D01*
G01D02*
X365270Y-119810D01*
G01D02*
X365400Y-119970D01*
G01D02*
X365560Y-120100D01*
G01D02*
X365740Y-120210D01*
G01D02*
X365930Y-120290D01*
G01D02*
X366130Y-120330D01*
G01D02*
X366330Y-120350D01*
G01D02*
X368090D01*
G01D02*
Y-117040D01*
G01X370450D02*
Y-120350D01*
G01D02*
X371000D01*
G01D02*
X373280Y-117040D01*
G01X373760D02*
Y-120350D01*
G01X376120Y-118340D02*
X376140Y-118110D01*
G01X376120Y-119030D02*
Y-118340D01*
G01X376140Y-119240D02*
X376120Y-119030D01*
G01X376660Y-120100D02*
X376510Y-119960D01*
G01D02*
X376370Y-119810D01*
G01D02*
X376260Y-119630D01*
G01D02*
X376180Y-119440D01*
G01D02*
X376140Y-119240D01*
G01X377440Y-120350D02*
X377230Y-120330D01*
G01D02*
X377030Y-120290D01*
G01D02*
X376840Y-120210D01*
G01D02*
X376660Y-120100D01*
G01X378580Y-120270D02*
X378360Y-120330D01*
G01D02*
X378140Y-120350D01*
G01D02*
X377440D01*
G01X379430Y-118310D02*
Y-119060D01*
G01D02*
X379410Y-119280D01*
G01D02*
X379350Y-119500D01*
G01D02*
X379260Y-119700D01*
G01D02*
X379130Y-119890D01*
G01D02*
X378970Y-120050D01*
G01D02*
X378790Y-120180D01*
G01D02*
X378580Y-120270D01*
G01X362100Y-104890D02*
X362290Y-104970D01*
G01X362330Y-106680D02*
X362120Y-106760D01*
G01D02*
X361950Y-106890D01*
G01D02*
X361820Y-107060D01*
G01D02*
X361740Y-107260D01*
G01D02*
X361710Y-107480D01*
G01X362290Y-104970D02*
X362490Y-104990D01*
G01X362540Y-106650D02*
X362330Y-106680D01*
G01X362490Y-104990D02*
X367990D01*
G01D02*
X368200Y-104970D01*
G01X368220Y-106670D02*
X368020Y-106650D01*
G01D02*
X362540D01*
G01X368200Y-104970D02*
X368390Y-104890D01*
G01X368410Y-106750D02*
X368220Y-106670D01*
G01X368770Y-107230D02*
X368690Y-107040D01*
G01D02*
X368570Y-106880D01*
G01D02*
X368410Y-106750D01*
G01X368800Y-107430D02*
X368770Y-107230D01*
G01Y-107240D02*
X372100D01*
G01Y-107930D02*
X368800D01*
G01X375410Y-105150D02*
X378480D01*
G01Y-105850D02*
X375410D01*
G01X378480Y-107240D02*
X375410D01*
G01Y-106540D02*
X378480D01*
G01X375410Y-107930D02*
X378480D01*
G01X361710Y-99800D02*
Y-104210D01*
G01D02*
X361740Y-104410D01*
G01D02*
X361820Y-104600D01*
G01D02*
X361940Y-104770D01*
G01D02*
X362100Y-104890D01*
G01X368390D02*
X368560Y-104760D01*
G01D02*
X368690Y-104590D01*
G01D02*
X368770Y-104400D01*
G01D02*
X368800Y-104190D01*
G01D02*
Y-99800D01*
G01X372100Y-100300D02*
X368800D01*
G01Y-99800D02*
X372100D01*
G01X368800Y-100990D02*
X372100D01*
G01Y-101680D02*
X368800D01*
G01Y-102380D02*
X372100D01*
G01Y-103070D02*
X368800D01*
G01Y-103770D02*
X372100D01*
G01Y-104460D02*
X368740D01*
G01X375620Y-101830D02*
X375900Y-101310D01*
G01X375410Y-102990D02*
X375460Y-102400D01*
G01D02*
X375620Y-101830D01*
G01X375900Y-101310D02*
X376280Y-100860D01*
G01D02*
X376800Y-100420D01*
G01D02*
X377380Y-100070D01*
G01D02*
X378010Y-99800D01*
G01X378520Y-102540D02*
X378480Y-102990D01*
G01Y-103070D02*
X375410D01*
G01X375460Y-102380D02*
X378570D01*
G01X375410Y-103770D02*
X378480D01*
G01Y-104460D02*
X375410D01*
G01X378010Y-99800D02*
X378820Y-99520D01*
G01X379230Y-101450D02*
X378900Y-101750D01*
G01D02*
X378660Y-102120D01*
G01D02*
X378520Y-102540D01*
G01X378980Y-101680D02*
X375700D01*
G01X378820Y-99520D02*
X379670Y-99360D01*
G01X380140Y-100900D02*
X379660Y-101130D01*
G01D02*
X379230Y-101450D01*
G01X376170Y-100990D02*
X379950D01*
G01X379670Y-99360D02*
X380530Y-99330D01*
G01X381200Y-100740D02*
X380660Y-100770D01*
G01D02*
X380140Y-100900D01*
G01X380530Y-99330D02*
X383640D01*
G01X378580Y-99600D02*
X385530D01*
G01X386890Y-100300D02*
X377010D01*
G01X387690Y-111160D02*
X387300Y-111450D01*
G01D02*
X386700Y-111830D01*
G01X388400Y-105470D02*
Y-109400D01*
G01D02*
X388370Y-109890D01*
G01D02*
X388230Y-110360D01*
G01D02*
X388000Y-110790D01*
G01D02*
X387690Y-111160D01*
G01X391100Y-112100D02*
X394740D01*
G01X395330Y-111400D02*
X391740D01*
G01X396520Y-110010D02*
X393000D01*
G01X392370Y-110710D02*
X395930D01*
G01X393630Y-109320D02*
X397120D01*
G01X390690Y-112550D02*
X394350D01*
G01X404230Y-108620D02*
X400920D01*
G01Y-109320D02*
X404230D01*
G01X400920Y-110710D02*
X404230D01*
G01Y-110010D02*
X400920D01*
G01X404230Y-111400D02*
X400920D01*
G01Y-112100D02*
X404230D01*
G01X397710Y-108620D02*
X394270D01*
G01X400920Y-112550D02*
X404230D01*
G01X400920Y-101520D02*
Y-112550D01*
G01X395140Y-107670D02*
X390690Y-112550D01*
G01X389580Y-117040D02*
X390100D01*
G01X393050D02*
X393600D01*
G01X394350Y-112550D02*
X398800Y-107360D01*
G01X397970Y-117060D02*
X398160Y-117120D01*
G01D02*
X398340Y-117210D01*
G01D02*
X398490Y-117340D01*
G01D02*
X398620Y-117490D01*
G01D02*
X398710Y-117670D01*
G01D02*
X398770Y-117860D01*
G01D02*
X398790Y-118060D01*
G01X400920Y-117040D02*
X403470D01*
G01X395960D02*
X397770D01*
G01D02*
X397970Y-117060D01*
G01X386990Y-117040D02*
Y-120350D01*
G01X389580D02*
Y-117040D01*
G01X390100D02*
X391510Y-120350D01*
G01D02*
X393050Y-117040D01*
G01X393600D02*
Y-120350D01*
G01X397910Y-120330D02*
X398090Y-120290D01*
G01X398800Y-119290D02*
Y-118700D01*
G01D02*
X395960D01*
G01X398800Y-118060D02*
Y-118700D01*
G01X398090Y-120290D02*
X398260Y-120210D01*
G01D02*
X398410Y-120100D01*
G01D02*
X398540Y-119970D01*
G01D02*
X398650Y-119820D01*
G01D02*
X398730Y-119650D01*
G01D02*
X398770Y-119470D01*
G01D02*
X398790Y-119290D01*
G01X401560Y-118710D02*
X401410Y-118750D01*
G01D02*
X401280Y-118820D01*
G01D02*
X401150Y-118920D01*
G01D02*
X401050Y-119050D01*
G01D02*
X400980Y-119180D01*
G01D02*
X400940Y-119330D01*
G01D02*
X400920Y-119490D01*
G01D02*
X400940Y-119660D01*
G01D02*
X400990Y-119820D01*
G01D02*
X401060Y-119970D01*
G01D02*
X401170Y-120100D01*
G01D02*
X401300Y-120210D01*
G01D02*
X401450Y-120280D01*
G01D02*
X401610Y-120330D01*
G01X401720Y-118690D02*
X401560Y-118710D01*
G01X401610Y-120330D02*
X401780Y-120350D01*
G01X403340Y-118700D02*
X401720D01*
G01X401780Y-120350D02*
X404230D01*
G01X395960D02*
X397730D01*
G01D02*
X397910Y-120330D01*
G01X381200Y-111140D02*
X382810D01*
G01D02*
X383290Y-111090D01*
G01X383760Y-110940D02*
X384180Y-110710D01*
G01X383290Y-111090D02*
X383760Y-110940D01*
G01X385330Y-108660D02*
Y-105470D01*
G01X385150Y-109620D02*
X385300Y-109150D01*
G01D02*
X385330Y-108660D01*
G01X384180Y-110710D02*
X384540Y-110390D01*
G01D02*
X384890Y-110040D01*
G01D02*
X385150Y-109620D01*
G01X386050Y-112120D02*
X385370Y-112320D01*
G01X386700Y-111830D02*
X386050Y-112120D01*
G01X384170Y-110710D02*
X388050D01*
G01X388400Y-108620D02*
X385330D01*
G01X385240Y-109320D02*
X388400D01*
G01X388330Y-110010D02*
X384910D01*
G01X384350Y-112490D02*
X383320Y-112550D01*
G01X385370Y-112320D02*
X384350Y-112490D01*
G01X383510Y-117060D02*
X383300Y-117040D01*
G01D02*
X381550D01*
G01X383720Y-117120D02*
X383510Y-117060D01*
G01X384070Y-117360D02*
X383910Y-117220D01*
G01D02*
X383720Y-117120D01*
G01X384390Y-118130D02*
X384370Y-117920D01*
G01D02*
X384310Y-117710D01*
G01D02*
X384210Y-117520D01*
G01D02*
X384070Y-117360D01*
G01X381550Y-120350D02*
X383300D01*
G01D02*
X383490Y-120330D01*
G01D02*
X383670Y-120280D01*
G01X384390Y-119260D02*
Y-118130D01*
G01X383670Y-120280D02*
X383850Y-120200D01*
G01D02*
X384000Y-120090D01*
G01D02*
X384130Y-119960D01*
G01D02*
X384240Y-119800D01*
G01D02*
X384320Y-119630D01*
G01D02*
X384370Y-119450D01*
G01D02*
X384390Y-119260D01*
G01X391510Y-104880D02*
X391630Y-105340D01*
G01D02*
X391850Y-105760D01*
G01D02*
X392140Y-106140D01*
G01D02*
X392500Y-106450D01*
G01D02*
X393100Y-106790D01*
G01D02*
X393760Y-107030D01*
G01D02*
X394440Y-107150D01*
G01X395360Y-105480D02*
X394900Y-105110D01*
G01X391580Y-105150D02*
X394950D01*
G01X394440Y-107150D02*
X395140Y-107160D01*
G01D02*
Y-107670D01*
G01X396440Y-105900D02*
X395880Y-105750D01*
G01D02*
X395360Y-105480D01*
G01X396250Y-105850D02*
X391910D01*
G01X397020Y-105940D02*
X396440Y-105900D01*
G01X398800Y-105940D02*
X397020D01*
G01X398800Y-107360D02*
Y-105940D01*
G01X392660Y-106540D02*
X398800D01*
G01Y-107240D02*
X395140D01*
G01X394900Y-107930D02*
X398310D01*
G01X400920Y-105150D02*
X404230D01*
G01Y-105850D02*
X400920D01*
G01X404230Y-107240D02*
X400920D01*
G01Y-106540D02*
X404230D01*
G01X400920Y-107930D02*
X404230D01*
G01X386710Y-100150D02*
X387340Y-100660D01*
G01D02*
X387710Y-100970D01*
G01D02*
X388000Y-101350D01*
G01X388230Y-101770D02*
X388360Y-102230D01*
G01X388000Y-101350D02*
X388230Y-101770D01*
G01X388360Y-102230D02*
X388400Y-102710D01*
G01D02*
Y-105470D01*
G01X391950Y-100980D02*
X391730Y-101290D01*
G01D02*
X391580Y-101640D01*
G01D02*
X391490Y-102020D01*
G01D02*
X391470Y-102400D01*
G01D02*
Y-104400D01*
G01D02*
X391510Y-104880D01*
G01X392850Y-100100D02*
X392360Y-100500D01*
G01D02*
X391950Y-100980D01*
G01X393400Y-99800D02*
X392850Y-100100D01*
G01X394540Y-102750D02*
X394600Y-102310D01*
G01D02*
X394750Y-101900D01*
G01X391470Y-102380D02*
X394590D01*
G01X394540Y-103070D02*
X391470D01*
G01X394540Y-103850D02*
Y-102750D01*
G01X391470Y-103770D02*
X394540D01*
G01X394710Y-104710D02*
X394590Y-104290D01*
G01D02*
X394540Y-103850D01*
G01X394640Y-104460D02*
X391480D01*
G01X395040Y-99450D02*
X393400Y-99800D01*
G01X394750Y-101900D02*
X394980Y-101530D01*
G01D02*
X395290Y-101220D01*
G01X394880Y-101680D02*
X391570D01*
G01X394900Y-105110D02*
X394710Y-104710D01*
G01X395290Y-101220D02*
X395930Y-100930D01*
G01X391940Y-100990D02*
X395800D01*
G01X396710Y-99330D02*
X395040Y-99450D01*
G01X395930Y-100930D02*
X396610Y-100770D01*
G01D02*
X397300Y-100740D01*
G01X399740Y-99330D02*
X396710D01*
G01X397300Y-100740D02*
X400150D01*
G01D02*
X400350Y-100770D01*
G01D02*
X400530Y-100850D01*
G01D02*
X400700Y-100970D01*
G01D02*
X400820Y-101130D01*
G01D02*
X400900Y-101320D01*
G01D02*
X400920Y-101520D01*
G01X401990Y-99470D02*
X399740Y-99330D01*
G01X402890Y-99600D02*
X394320D01*
G01X404230Y-100300D02*
X392610D01*
G01X400710Y-100990D02*
X404230D01*
G01Y-101680D02*
X400920D01*
G01X404230Y-103070D02*
X400920D01*
G01Y-102380D02*
X404230D01*
G01X400920Y-103770D02*
X404230D01*
G01Y-104460D02*
X400920D01*
G01X404230Y-99800D02*
X401990Y-99470D01*
G01X388400Y-105470D02*
X385330D01*
G01D02*
X388400D01*
G01X385330Y-105150D02*
X388400D01*
G01Y-105850D02*
X385330D01*
G01Y-106540D02*
X388400D01*
G01Y-107240D02*
X385330D01*
G01Y-107930D02*
X388400D01*
G01X382650Y-100740D02*
X381200D01*
G01X383220Y-100780D02*
X382650Y-100740D01*
G01X383640Y-99330D02*
X384440Y-99360D01*
G01X384270Y-101200D02*
X383770Y-100930D01*
G01D02*
X383220Y-100780D01*
G01X384440Y-99360D02*
X385240Y-99500D01*
G01X384700Y-101570D02*
X384270Y-101200D01*
G01X384970Y-101880D02*
X384700Y-101570D01*
G01X385330Y-103030D02*
X385290Y-102620D01*
G01D02*
X385170Y-102230D01*
G01D02*
X384970Y-101880D01*
G01X385330Y-105470D02*
Y-103030D01*
G01X385240Y-99500D02*
X386000Y-99760D01*
G01D02*
X386710Y-100150D01*
G01X383870Y-100990D02*
X387720D01*
G01X388180Y-101680D02*
X384800D01*
G01X385220Y-102380D02*
X388370D01*
G01X388400Y-103070D02*
X385330D01*
G01Y-103770D02*
X388400D01*
G01Y-104460D02*
X385330D01*
G01X404230Y-112550D02*
Y-99800D01*
G01X403470Y-117040D02*
X403640Y-117060D01*
G01D02*
X403800Y-117120D01*
G01D02*
X403940Y-117210D01*
G01D02*
X404060Y-117330D01*
G01D02*
X404150Y-117470D01*
G01D02*
X404210Y-117630D01*
G01X404230Y-117800D02*
X404210Y-117970D01*
G01D02*
X404160Y-118140D01*
G01X404210Y-117630D02*
X404230Y-117800D01*
G01X404080Y-118290D02*
X403970Y-118430D01*
G01D02*
X403830Y-118540D01*
G01D02*
X403680Y-118620D01*
G01D02*
X403510Y-118670D01*
G01D02*
X403340Y-118690D01*
G01X404160Y-118140D02*
X404080Y-118290D01*
G54D17*
G01X240000Y100000D02*
X241000Y99000D01*
Y61000D01*
X238500Y58500D01*
X116500D01*
X110205Y64795D01*
Y96000D01*
G54D18*
G01X79000Y100500D02*
X84000Y105500D01*
X115000D01*
X128500Y119000D01*
Y122500D01*
G54D19*
G01X443300Y-144950D02*
Y-69950D01*
X-101700D01*
Y-144950D01*
X443300D01*
G01X-61573Y-132950D02*
Y-128950D01*
X-62700Y-132283D01*
X-63827Y-128950D01*
Y-132950D01*
G01X-65017D02*
X-66100Y-128950D01*
X-67183Y-132950D01*
G01X-66793Y-131550D02*
X-65407D01*
G01X-70453Y-129283D02*
X-70193Y-129083D01*
X-69890Y-128950D01*
X-69543D01*
X-69153Y-129150D01*
X-68850Y-129483D01*
X-68633Y-129883D01*
X-68460Y-130550D01*
X-68417Y-131150D01*
X-68503Y-131750D01*
X-68633Y-132150D01*
X-68893Y-132550D01*
X-69197Y-132817D01*
X-69500Y-132950D01*
X-69803D01*
X-70107Y-132817D01*
X-70367Y-132617D01*
X-70583Y-132350D01*
G01X-71990Y-132950D02*
Y-128950D01*
G01X-73810D02*
Y-132950D01*
G01Y-130950D02*
X-71990D01*
G01X-78877Y-132950D02*
Y-128950D01*
X-80523D01*
G01X-79917Y-130883D02*
X-78877D01*
G01X-82580Y-128950D02*
X-83620D01*
G01X-83100D02*
Y-132950D01*
G01X-82580D02*
X-83620D01*
G01X-85503D02*
Y-128950D01*
X-87497Y-132950D01*
Y-128950D01*
G01X-89380D02*
X-90420D01*
G01X-89900D02*
Y-132950D01*
G01X-89380D02*
X-90420D01*
G01X-92390Y-132417D02*
X-92737Y-132750D01*
X-93127Y-132950D01*
X-93473D01*
X-93820Y-132750D01*
X-94080Y-132417D01*
X-94210Y-131950D01*
X-94123Y-131483D01*
X-93907Y-131083D01*
X-93517Y-130817D01*
X-92997Y-130683D01*
X-92693Y-130417D01*
X-92563Y-129950D01*
X-92650Y-129483D01*
X-92867Y-129150D01*
X-93170Y-128950D01*
X-93473D01*
X-93777Y-129083D01*
X-94037Y-129417D01*
G01X-95790Y-132950D02*
Y-128950D01*
G01X-97610D02*
Y-132950D01*
G01Y-130950D02*
X-95790D01*
G01X-80700Y-133950D02*
X-83700D01*
G01X-82200D02*
X-79900Y-138450D01*
X-78400Y-136250D01*
G01X-80547Y-126150D02*
X-80807Y-126617D01*
X-81153Y-126883D01*
X-81543Y-126950D01*
X-81890Y-126883D01*
X-82237Y-126550D01*
X-82453Y-126150D01*
X-82497Y-125750D01*
X-82410Y-125283D01*
X-82107Y-124950D01*
X-81803Y-124817D01*
X-81413D01*
G01X-81803D02*
X-82063Y-124617D01*
X-82280Y-124283D01*
X-82367Y-123883D01*
X-82280Y-123483D01*
X-82063Y-123150D01*
X-81673Y-122950D01*
X-81283Y-123017D01*
X-80893Y-123283D01*
G01X-84900Y-122950D02*
X-84553Y-123083D01*
X-84293Y-123417D01*
X-84120Y-123817D01*
X-83990Y-124350D01*
X-83947Y-124950D01*
X-83990Y-125550D01*
X-84120Y-126083D01*
X-84293Y-126483D01*
X-84553Y-126817D01*
X-84900Y-126950D01*
X-85247Y-126817D01*
X-85507Y-126483D01*
X-85680Y-126083D01*
X-85810Y-125550D01*
X-85853Y-124950D01*
X-85810Y-124350D01*
X-85680Y-123817D01*
X-85507Y-123417D01*
X-85247Y-123083D01*
X-84900Y-122950D01*
G01X-68817Y-120950D02*
X-69900Y-116950D01*
X-70983Y-120950D01*
G01X-70593Y-119550D02*
X-69207D01*
G01X-72303Y-120950D02*
Y-116950D01*
X-74297Y-120950D01*
Y-116950D01*
G01X-76960Y-118950D02*
X-77827D01*
Y-120150D01*
X-77567Y-120550D01*
X-77263Y-120817D01*
X-76830Y-120950D01*
X-76397Y-120817D01*
X-76093Y-120550D01*
X-75833Y-120150D01*
X-75660Y-119683D01*
X-75573Y-119150D01*
Y-118683D01*
X-75660Y-118283D01*
X-75833Y-117817D01*
X-76093Y-117417D01*
X-76353Y-117150D01*
X-76700Y-116950D01*
X-77003D01*
X-77350Y-117083D01*
X-77610Y-117350D01*
G01X-79233Y-116950D02*
Y-120950D01*
X-80967D01*
G01X-84367D02*
X-82633D01*
Y-116950D01*
X-84367D01*
G01X-83673Y-118883D02*
X-82633D01*
G01X-25990Y-89417D02*
X-26337Y-89750D01*
X-26727Y-89950D01*
X-27073D01*
X-27420Y-89750D01*
X-27680Y-89417D01*
X-27810Y-88950D01*
X-27723Y-88483D01*
X-27507Y-88083D01*
X-27117Y-87817D01*
X-26597Y-87683D01*
X-26293Y-87417D01*
X-26163Y-86950D01*
X-26250Y-86483D01*
X-26467Y-86150D01*
X-26770Y-85950D01*
X-27073D01*
X-27377Y-86083D01*
X-27637Y-86417D01*
G01X-29433Y-89950D02*
Y-85950D01*
X-30473D01*
X-30820Y-86150D01*
X-31080Y-86617D01*
X-31167Y-87150D01*
X-31080Y-87683D01*
X-30863Y-88083D01*
X-30473Y-88283D01*
X-29433D01*
G01X-34567Y-89950D02*
X-32833D01*
Y-85950D01*
X-34567D01*
G01X-33873Y-87883D02*
X-32833D01*
G01X-38053Y-86283D02*
X-37793Y-86083D01*
X-37490Y-85950D01*
X-37143D01*
X-36753Y-86150D01*
X-36450Y-86483D01*
X-36233Y-86883D01*
X-36060Y-87550D01*
X-36017Y-88150D01*
X-36103Y-88750D01*
X-36233Y-89150D01*
X-36493Y-89550D01*
X-36797Y-89817D01*
X-37100Y-89950D01*
X-37403D01*
X-37707Y-89817D01*
X-37967Y-89617D01*
X-38183Y-89350D01*
G01X-39980Y-85950D02*
X-41020D01*
G01X-40500D02*
Y-89950D01*
G01X-39980D02*
X-41020D01*
G01X-43077D02*
Y-85950D01*
X-44723D01*
G01X-44117Y-87883D02*
X-43077D01*
G01X-46780Y-85950D02*
X-47820D01*
G01X-47300D02*
Y-89950D01*
G01X-46780D02*
X-47820D01*
G01X-51567D02*
X-49833D01*
Y-85950D01*
X-51567D01*
G01X-50873Y-87883D02*
X-49833D01*
G01X-53147Y-89950D02*
Y-85950D01*
X-54013D01*
X-54360Y-86150D01*
X-54620Y-86417D01*
X-54837Y-86817D01*
X-55010Y-87283D01*
X-55053Y-87950D01*
X-55010Y-88617D01*
X-54837Y-89083D01*
X-54620Y-89483D01*
X-54360Y-89750D01*
X-54013Y-89950D01*
X-53147D01*
G01X-59947D02*
Y-85950D01*
X-60813D01*
X-61160Y-86150D01*
X-61420Y-86417D01*
X-61637Y-86817D01*
X-61810Y-87283D01*
X-61853Y-87950D01*
X-61810Y-88617D01*
X-61637Y-89083D01*
X-61420Y-89483D01*
X-61160Y-89750D01*
X-60813Y-89950D01*
X-59947D01*
G01X-63780Y-85950D02*
X-64820D01*
G01X-64300D02*
Y-89950D01*
G01X-63780D02*
X-64820D01*
G01X-66573D02*
Y-85950D01*
X-67700Y-89283D01*
X-68827Y-85950D01*
Y-89950D01*
G01X-71967D02*
X-70233D01*
Y-85950D01*
X-71967D01*
G01X-71273Y-87883D02*
X-70233D01*
G01X-73503Y-89950D02*
Y-85950D01*
X-75497Y-89950D01*
Y-85950D01*
G01X-76990Y-89417D02*
X-77337Y-89750D01*
X-77727Y-89950D01*
X-78073D01*
X-78420Y-89750D01*
X-78680Y-89417D01*
X-78810Y-88950D01*
X-78723Y-88483D01*
X-78507Y-88083D01*
X-78117Y-87817D01*
X-77597Y-87683D01*
X-77293Y-87417D01*
X-77163Y-86950D01*
X-77250Y-86483D01*
X-77467Y-86150D01*
X-77770Y-85950D01*
X-78073D01*
X-78377Y-86083D01*
X-78637Y-86417D01*
G01X-80780Y-85950D02*
X-81820D01*
G01X-81300D02*
Y-89950D01*
G01X-80780D02*
X-81820D01*
G01X-84700D02*
X-84353Y-89883D01*
X-84050Y-89617D01*
X-83790Y-89217D01*
X-83617Y-88750D01*
X-83530Y-88217D01*
Y-87683D01*
X-83617Y-87150D01*
X-83790Y-86683D01*
X-84050Y-86283D01*
X-84353Y-86017D01*
X-84700Y-85950D01*
X-85047Y-86017D01*
X-85350Y-86283D01*
X-85610Y-86683D01*
X-85783Y-87150D01*
X-85870Y-87683D01*
Y-88217D01*
X-85783Y-88750D01*
X-85610Y-89217D01*
X-85350Y-89617D01*
X-85047Y-89883D01*
X-84700Y-89950D01*
G01X-87103D02*
Y-85950D01*
X-89097Y-89950D01*
Y-85950D01*
G01X-90590Y-89417D02*
X-90937Y-89750D01*
X-91327Y-89950D01*
X-91673D01*
X-92020Y-89750D01*
X-92280Y-89417D01*
X-92410Y-88950D01*
X-92323Y-88483D01*
X-92107Y-88083D01*
X-91717Y-87817D01*
X-91197Y-87683D01*
X-90893Y-87417D01*
X-90763Y-86950D01*
X-90850Y-86483D01*
X-91067Y-86150D01*
X-91370Y-85950D01*
X-91673D01*
X-91977Y-86083D01*
X-92237Y-86417D01*
G01X-37717Y-97450D02*
X-38800Y-93450D01*
X-39883Y-97450D01*
G01X-39493Y-96050D02*
X-38107D01*
G01X-41333Y-97450D02*
Y-93450D01*
X-42417D01*
X-42763Y-93650D01*
X-42980Y-93917D01*
X-43067Y-94450D01*
X-42980Y-94983D01*
X-42720Y-95317D01*
X-42417Y-95517D01*
X-41333D01*
G01X-42417D02*
X-43067Y-97450D01*
G01X-46467D02*
X-44733D01*
Y-93450D01*
X-46467D01*
G01X-45773Y-95383D02*
X-44733D01*
G01X-51880Y-93450D02*
X-52920D01*
G01X-52400D02*
Y-97450D01*
G01X-51880D02*
X-52920D01*
G01X-54803D02*
Y-93450D01*
X-56797Y-97450D01*
Y-93450D01*
G01X-62080D02*
X-63120D01*
G01X-62600D02*
Y-97450D01*
G01X-62080D02*
X-63120D01*
G01X-65003D02*
Y-93450D01*
X-66997Y-97450D01*
Y-93450D01*
G01X-70353Y-93783D02*
X-70093Y-93583D01*
X-69790Y-93450D01*
X-69443D01*
X-69053Y-93650D01*
X-68750Y-93983D01*
X-68533Y-94383D01*
X-68360Y-95050D01*
X-68317Y-95650D01*
X-68403Y-96250D01*
X-68533Y-96650D01*
X-68793Y-97050D01*
X-69097Y-97317D01*
X-69400Y-97450D01*
X-69703D01*
X-70007Y-97317D01*
X-70267Y-97117D01*
X-70483Y-96850D01*
G01X-71890Y-97450D02*
Y-93450D01*
G01X-73710D02*
Y-97450D01*
G01Y-95450D02*
X-71890D01*
G01X-77067Y-97450D02*
X-75333D01*
Y-93450D01*
X-77067D01*
G01X-76373Y-95383D02*
X-75333D01*
G01X-78690Y-96917D02*
X-79037Y-97250D01*
X-79427Y-97450D01*
X-79773D01*
X-80120Y-97250D01*
X-80380Y-96917D01*
X-80510Y-96450D01*
X-80423Y-95983D01*
X-80207Y-95583D01*
X-79817Y-95317D01*
X-79297Y-95183D01*
X-78993Y-94917D01*
X-78863Y-94450D01*
X-78950Y-93983D01*
X-79167Y-93650D01*
X-79470Y-93450D01*
X-79773D01*
X-80077Y-93583D01*
X-80337Y-93917D01*
G01X-32747Y-78450D02*
Y-81317D01*
X-32920Y-81917D01*
X-33267Y-82317D01*
X-33700Y-82450D01*
X-34133Y-82317D01*
X-34480Y-81917D01*
X-34653Y-81317D01*
Y-78450D01*
G01X-36103Y-82450D02*
Y-78450D01*
X-38097Y-82450D01*
Y-78450D01*
G01X-39633D02*
Y-82450D01*
X-41367D01*
G01X-44767D02*
X-43033D01*
Y-78450D01*
X-44767D01*
G01X-44073Y-80383D02*
X-43033D01*
G01X-46390Y-81917D02*
X-46737Y-82250D01*
X-47127Y-82450D01*
X-47473D01*
X-47820Y-82250D01*
X-48080Y-81917D01*
X-48210Y-81450D01*
X-48123Y-80983D01*
X-47907Y-80583D01*
X-47517Y-80317D01*
X-46997Y-80183D01*
X-46693Y-79917D01*
X-46563Y-79450D01*
X-46650Y-78983D01*
X-46867Y-78650D01*
X-47170Y-78450D01*
X-47473D01*
X-47777Y-78583D01*
X-48037Y-78917D01*
G01X-49790Y-81917D02*
X-50137Y-82250D01*
X-50527Y-82450D01*
X-50873D01*
X-51220Y-82250D01*
X-51480Y-81917D01*
X-51610Y-81450D01*
X-51523Y-80983D01*
X-51307Y-80583D01*
X-50917Y-80317D01*
X-50397Y-80183D01*
X-50093Y-79917D01*
X-49963Y-79450D01*
X-50050Y-78983D01*
X-50267Y-78650D01*
X-50570Y-78450D01*
X-50873D01*
X-51177Y-78583D01*
X-51437Y-78917D01*
G01X-57500Y-82450D02*
X-57153Y-82383D01*
X-56850Y-82117D01*
X-56590Y-81717D01*
X-56417Y-81250D01*
X-56330Y-80717D01*
Y-80183D01*
X-56417Y-79650D01*
X-56590Y-79183D01*
X-56850Y-78783D01*
X-57153Y-78517D01*
X-57500Y-78450D01*
X-57847Y-78517D01*
X-58150Y-78783D01*
X-58410Y-79183D01*
X-58583Y-79650D01*
X-58670Y-80183D01*
Y-80717D01*
X-58583Y-81250D01*
X-58410Y-81717D01*
X-58150Y-82117D01*
X-57847Y-82383D01*
X-57500Y-82450D01*
G01X-60900Y-78450D02*
Y-82450D01*
G01X-59903Y-78450D02*
X-61897D01*
G01X-63390Y-82450D02*
Y-78450D01*
G01X-65210D02*
Y-82450D01*
G01Y-80450D02*
X-63390D01*
G01X-68567Y-82450D02*
X-66833D01*
Y-78450D01*
X-68567D01*
G01X-67873Y-80383D02*
X-66833D01*
G01X-70233Y-82450D02*
Y-78450D01*
X-71317D01*
X-71663Y-78650D01*
X-71880Y-78917D01*
X-71967Y-79450D01*
X-71880Y-79983D01*
X-71620Y-80317D01*
X-71317Y-80517D01*
X-70233D01*
G01X-71317D02*
X-71967Y-82450D01*
G01X-73200Y-78450D02*
X-73807Y-82450D01*
X-74500Y-78450D01*
X-75193Y-82450D01*
X-75800Y-78450D01*
G01X-77380D02*
X-78420D01*
G01X-77900D02*
Y-82450D01*
G01X-77380D02*
X-78420D01*
G01X-80390Y-81917D02*
X-80737Y-82250D01*
X-81127Y-82450D01*
X-81473D01*
X-81820Y-82250D01*
X-82080Y-81917D01*
X-82210Y-81450D01*
X-82123Y-80983D01*
X-81907Y-80583D01*
X-81517Y-80317D01*
X-80997Y-80183D01*
X-80693Y-79917D01*
X-80563Y-79450D01*
X-80650Y-78983D01*
X-80867Y-78650D01*
X-81170Y-78450D01*
X-81473D01*
X-81777Y-78583D01*
X-82037Y-78917D01*
G01X-85567Y-82450D02*
X-83833D01*
Y-78450D01*
X-85567D01*
G01X-84873Y-80383D02*
X-83833D01*
G01X-43900Y-108450D02*
Y-112450D01*
G01X-42903Y-108450D02*
X-44897D01*
G01X-47300Y-112450D02*
X-46953Y-112383D01*
X-46650Y-112117D01*
X-46390Y-111717D01*
X-46217Y-111250D01*
X-46130Y-110717D01*
Y-110183D01*
X-46217Y-109650D01*
X-46390Y-109183D01*
X-46650Y-108783D01*
X-46953Y-108517D01*
X-47300Y-108450D01*
X-47647Y-108517D01*
X-47950Y-108783D01*
X-48210Y-109183D01*
X-48383Y-109650D01*
X-48470Y-110183D01*
Y-110717D01*
X-48383Y-111250D01*
X-48210Y-111717D01*
X-47950Y-112117D01*
X-47647Y-112383D01*
X-47300Y-112450D01*
G01X-49833Y-108450D02*
Y-112450D01*
X-51567D01*
G01X-54967D02*
X-53233D01*
Y-108450D01*
X-54967D01*
G01X-54273Y-110383D02*
X-53233D01*
G01X-56633Y-112450D02*
Y-108450D01*
X-57717D01*
X-58063Y-108650D01*
X-58280Y-108917D01*
X-58367Y-109450D01*
X-58280Y-109983D01*
X-58020Y-110317D01*
X-57717Y-110517D01*
X-56633D01*
G01X-57717D02*
X-58367Y-112450D01*
G01X-59817D02*
X-60900Y-108450D01*
X-61983Y-112450D01*
G01X-61593Y-111050D02*
X-60207D01*
G01X-63303Y-112450D02*
Y-108450D01*
X-65297Y-112450D01*
Y-108450D01*
G01X-68653Y-108783D02*
X-68393Y-108583D01*
X-68090Y-108450D01*
X-67743D01*
X-67353Y-108650D01*
X-67050Y-108983D01*
X-66833Y-109383D01*
X-66660Y-110050D01*
X-66617Y-110650D01*
X-66703Y-111250D01*
X-66833Y-111650D01*
X-67093Y-112050D01*
X-67397Y-112317D01*
X-67700Y-112450D01*
X-68003D01*
X-68307Y-112317D01*
X-68567Y-112117D01*
X-68783Y-111850D01*
G01X-71967Y-112450D02*
X-70233D01*
Y-108450D01*
X-71967D01*
G01X-71273Y-110383D02*
X-70233D01*
G01X-73590Y-111917D02*
X-73937Y-112250D01*
X-74327Y-112450D01*
X-74673D01*
X-75020Y-112250D01*
X-75280Y-111917D01*
X-75410Y-111450D01*
X-75323Y-110983D01*
X-75107Y-110583D01*
X-74717Y-110317D01*
X-74197Y-110183D01*
X-73893Y-109917D01*
X-73763Y-109450D01*
X-73850Y-108983D01*
X-74067Y-108650D01*
X-74370Y-108450D01*
X-74673D01*
X-74977Y-108583D01*
X-75237Y-108917D01*
G01X-75400Y-124250D02*
X-78400D01*
G01X-75400Y-126450D02*
X-78400D01*
G01X-76900Y-122750D02*
Y-125750D01*
G01X-44000Y-138583D02*
X-43913Y-138517D01*
Y-138383D01*
X-44000Y-138317D01*
X-44087Y-138383D01*
Y-138517D01*
X-44000Y-138583D01*
G01X-47400Y-134450D02*
X-47053Y-134583D01*
X-46793Y-134917D01*
X-46620Y-135317D01*
X-46490Y-135850D01*
X-46447Y-136450D01*
X-46490Y-137050D01*
X-46620Y-137583D01*
X-46793Y-137983D01*
X-47053Y-138317D01*
X-47400Y-138450D01*
X-47747Y-138317D01*
X-48007Y-137983D01*
X-48180Y-137583D01*
X-48310Y-137050D01*
X-48353Y-136450D01*
X-48310Y-135850D01*
X-48180Y-135317D01*
X-48007Y-134917D01*
X-47747Y-134583D01*
X-47400Y-134450D01*
G01X-50800Y-138450D02*
Y-134450D01*
X-50280Y-135250D01*
G01Y-138450D02*
X-51320D01*
G01X-54200Y-134450D02*
X-53853Y-134583D01*
X-53593Y-134917D01*
X-53420Y-135317D01*
X-53290Y-135850D01*
X-53247Y-136450D01*
X-53290Y-137050D01*
X-53420Y-137583D01*
X-53593Y-137983D01*
X-53853Y-138317D01*
X-54200Y-138450D01*
X-54547Y-138317D01*
X-54807Y-137983D01*
X-54980Y-137583D01*
X-55110Y-137050D01*
X-55153Y-136450D01*
X-55110Y-135850D01*
X-54980Y-135317D01*
X-54807Y-134917D01*
X-54547Y-134583D01*
X-54200Y-134450D01*
G01X-44000Y-132583D02*
X-43913Y-132517D01*
Y-132383D01*
X-44000Y-132317D01*
X-44087Y-132383D01*
Y-132517D01*
X-44000Y-132583D01*
G01X-47400Y-128450D02*
X-47053Y-128583D01*
X-46793Y-128917D01*
X-46620Y-129317D01*
X-46490Y-129850D01*
X-46447Y-130450D01*
X-46490Y-131050D01*
X-46620Y-131583D01*
X-46793Y-131983D01*
X-47053Y-132317D01*
X-47400Y-132450D01*
X-47747Y-132317D01*
X-48007Y-131983D01*
X-48180Y-131583D01*
X-48310Y-131050D01*
X-48353Y-130450D01*
X-48310Y-129850D01*
X-48180Y-129317D01*
X-48007Y-128917D01*
X-47747Y-128583D01*
X-47400Y-128450D01*
G01X-49847Y-131650D02*
X-50107Y-132117D01*
X-50453Y-132383D01*
X-50843Y-132450D01*
X-51190Y-132383D01*
X-51537Y-132050D01*
X-51753Y-131650D01*
X-51797Y-131250D01*
X-51710Y-130783D01*
X-51407Y-130450D01*
X-51103Y-130317D01*
X-50713D01*
G01X-51103D02*
X-51363Y-130117D01*
X-51580Y-129783D01*
X-51667Y-129383D01*
X-51580Y-128983D01*
X-51363Y-128650D01*
X-50973Y-128450D01*
X-50583Y-128517D01*
X-50193Y-128783D01*
G01X-38700Y-138450D02*
X-41700D01*
G01X-40200Y-134750D02*
Y-137750D01*
G01X-38700Y-136250D02*
X-41700D01*
G01X-38700Y-132450D02*
X-41700D01*
G01X-40200Y-128750D02*
Y-131750D01*
G01X-38700Y-130250D02*
X-41700D01*
G01X-44000Y-126583D02*
X-43913Y-126517D01*
Y-126383D01*
X-44000Y-126317D01*
X-44087Y-126383D01*
Y-126517D01*
X-44000Y-126583D01*
G01X-47400Y-126450D02*
Y-122450D01*
X-46880Y-123250D01*
G01Y-126450D02*
X-47920D01*
G01X-29047Y-120950D02*
Y-116950D01*
X-29913D01*
X-30260Y-117150D01*
X-30520Y-117417D01*
X-30737Y-117817D01*
X-30910Y-118283D01*
X-30953Y-118950D01*
X-30910Y-119617D01*
X-30737Y-120083D01*
X-30520Y-120483D01*
X-30260Y-120750D01*
X-29913Y-120950D01*
X-29047D01*
G01X-34267D02*
X-32533D01*
Y-116950D01*
X-34267D01*
G01X-33573Y-118883D02*
X-32533D01*
G01X-37753Y-117283D02*
X-37493Y-117083D01*
X-37190Y-116950D01*
X-36843D01*
X-36453Y-117150D01*
X-36150Y-117483D01*
X-35933Y-117883D01*
X-35760Y-118550D01*
X-35717Y-119150D01*
X-35803Y-119750D01*
X-35933Y-120150D01*
X-36193Y-120550D01*
X-36497Y-120817D01*
X-36800Y-120950D01*
X-37103D01*
X-37407Y-120817D01*
X-37667Y-120617D01*
X-37883Y-120350D01*
G01X-39680Y-116950D02*
X-40720D01*
G01X-40200D02*
Y-120950D01*
G01X-39680D02*
X-40720D01*
G01X-42473D02*
Y-116950D01*
X-43600Y-120283D01*
X-44727Y-116950D01*
Y-120950D01*
G01X-45917D02*
X-47000Y-116950D01*
X-48083Y-120950D01*
G01X-47693Y-119550D02*
X-46307D01*
G01X-49533Y-116950D02*
Y-120950D01*
X-51267D01*
G01X-38700Y-124250D02*
X-41700D01*
G01X-38700Y-126450D02*
X-41700D01*
G01X-40200Y-122750D02*
Y-125750D01*
G01X-31090Y-132450D02*
X-32910Y-128450D01*
G01X-31090D02*
X-32910Y-132450D01*
G01X-34490D02*
X-36310Y-128450D01*
G01X-34490D02*
X-36310Y-132450D01*
G01X-27690Y-138450D02*
X-29510Y-134450D01*
G01X-27690D02*
X-29510Y-138450D01*
G01X-31090D02*
X-32910Y-134450D01*
G01X-31090D02*
X-32910Y-138450D01*
G01X-34490D02*
X-36310Y-134450D01*
G01X-34490D02*
X-36310Y-138450D01*
G01X2433Y-129950D02*
Y-123950D01*
X767D01*
X233Y-124250D01*
X-100Y-124650D01*
X-233Y-125450D01*
X-100Y-126250D01*
X300Y-126750D01*
X767Y-127050D01*
X2433D01*
G01X767D02*
X-233Y-129950D01*
G01X-5433D02*
X-2767D01*
Y-123950D01*
X-5433D01*
G01X-4367Y-126850D02*
X-2767D01*
G01X-7633Y-123950D02*
X-9300Y-129950D01*
X-10967Y-123950D01*
G01X-14500Y-130150D02*
X-14367Y-130050D01*
Y-129850D01*
X-14500Y-129750D01*
X-14633Y-129850D01*
Y-130050D01*
X-14500Y-130150D01*
G01X-21700Y-69950D02*
Y-144950D01*
G01X-34490Y-126450D02*
X-36310Y-122450D01*
G01X-34490D02*
X-36310Y-126450D01*
G01X-21700Y-122450D02*
X175800D01*
G01X-21700Y-99950D02*
X175800D01*
G01X258091Y-17500D02*
Y258091D01*
X-17500D01*
Y-17500D01*
X258091D01*
G01X-3300Y-134450D02*
X-2607Y-134717D01*
X-2087Y-135383D01*
X-1740Y-136183D01*
X-1480Y-137250D01*
X-1393Y-138450D01*
X-1480Y-139650D01*
X-1740Y-140717D01*
X-2087Y-141517D01*
X-2607Y-142183D01*
X-3300Y-142450D01*
X-3993Y-142183D01*
X-4513Y-141517D01*
X-4860Y-140717D01*
X-5120Y-139650D01*
X-5207Y-138450D01*
X-5120Y-137250D01*
X-4860Y-136183D01*
X-4513Y-135383D01*
X-3993Y-134717D01*
X-3300Y-134450D01*
G01X-10100Y-142450D02*
Y-134450D01*
X-9060Y-136050D01*
G01Y-142450D02*
X-11140D01*
G01X148933Y-94950D02*
Y-86950D01*
X146767D01*
X146073Y-87350D01*
X145640Y-87883D01*
X145467Y-88950D01*
X145640Y-90017D01*
X146160Y-90683D01*
X146767Y-91083D01*
X148933D01*
G01X146767D02*
X145467Y-94950D01*
G01X140400D02*
X141093Y-94817D01*
X141700Y-94284D01*
X142220Y-93483D01*
X142567Y-92550D01*
X142740Y-91483D01*
Y-90417D01*
X142567Y-89350D01*
X142220Y-88417D01*
X141700Y-87617D01*
X141093Y-87083D01*
X140400Y-86950D01*
X139707Y-87083D01*
X139100Y-87617D01*
X138580Y-88417D01*
X138233Y-89350D01*
X138060Y-90417D01*
Y-91483D01*
X138233Y-92550D01*
X138580Y-93483D01*
X139100Y-94284D01*
X139707Y-94817D01*
X140400Y-94950D01*
G01X135420D02*
Y-86950D01*
G01X131780D02*
Y-94950D01*
G01Y-90950D02*
X135420D01*
G01X129053Y-94950D02*
Y-86950D01*
X126800Y-93617D01*
X124547Y-86950D01*
Y-94950D01*
G01X115020Y-93884D02*
X114327Y-94550D01*
X113547Y-94950D01*
X112853D01*
X112160Y-94550D01*
X111640Y-93884D01*
X111380Y-92950D01*
X111553Y-92017D01*
X111987Y-91217D01*
X112767Y-90683D01*
X113807Y-90417D01*
X114413Y-89883D01*
X114673Y-88950D01*
X114500Y-88017D01*
X114067Y-87350D01*
X113460Y-86950D01*
X112853D01*
X112247Y-87217D01*
X111727Y-87883D01*
G01X104667Y-94950D02*
X108133D01*
Y-86950D01*
X104667D01*
G01X106053Y-90817D02*
X108133D01*
G01X101853Y-94950D02*
Y-86950D01*
X99600Y-93617D01*
X97347Y-86950D01*
Y-94950D01*
G01X93840Y-86950D02*
X91760D01*
G01X92800D02*
Y-94950D01*
G01X93840D02*
X91760D01*
G01X84093Y-87617D02*
X84613Y-87217D01*
X85220Y-86950D01*
X85913D01*
X86693Y-87350D01*
X87300Y-88017D01*
X87733Y-88817D01*
X88080Y-90150D01*
X88167Y-91350D01*
X87993Y-92550D01*
X87733Y-93350D01*
X87213Y-94150D01*
X86607Y-94683D01*
X86000Y-94950D01*
X85393D01*
X84787Y-94683D01*
X84267Y-94284D01*
X83833Y-93750D01*
G01X79200Y-94950D02*
X79893Y-94817D01*
X80500Y-94284D01*
X81020Y-93483D01*
X81367Y-92550D01*
X81540Y-91483D01*
Y-90417D01*
X81367Y-89350D01*
X81020Y-88417D01*
X80500Y-87617D01*
X79893Y-87083D01*
X79200Y-86950D01*
X78507Y-87083D01*
X77900Y-87617D01*
X77380Y-88417D01*
X77033Y-89350D01*
X76860Y-90417D01*
Y-91483D01*
X77033Y-92550D01*
X77380Y-93483D01*
X77900Y-94284D01*
X78507Y-94817D01*
X79200Y-94950D01*
G01X74393D02*
Y-86950D01*
X70407Y-94950D01*
Y-86950D01*
G01X67507Y-94950D02*
Y-86950D01*
X65773D01*
X65080Y-87350D01*
X64560Y-87883D01*
X64127Y-88683D01*
X63780Y-89617D01*
X63693Y-90950D01*
X63780Y-92283D01*
X64127Y-93217D01*
X64560Y-94017D01*
X65080Y-94550D01*
X65773Y-94950D01*
X67507D01*
G01X60707Y-86950D02*
Y-92683D01*
X60360Y-93884D01*
X59667Y-94683D01*
X58800Y-94950D01*
X57933Y-94683D01*
X57240Y-93884D01*
X56893Y-92683D01*
Y-86950D01*
G01X50093Y-87617D02*
X50613Y-87217D01*
X51220Y-86950D01*
X51913D01*
X52693Y-87350D01*
X53300Y-88017D01*
X53733Y-88817D01*
X54080Y-90150D01*
X54167Y-91350D01*
X53993Y-92550D01*
X53733Y-93350D01*
X53213Y-94150D01*
X52607Y-94683D01*
X52000Y-94950D01*
X51393D01*
X50787Y-94683D01*
X50267Y-94284D01*
X49833Y-93750D01*
G01X45200Y-86950D02*
Y-94950D01*
G01X47193Y-86950D02*
X43207D01*
G01X38400Y-94950D02*
X39093Y-94817D01*
X39700Y-94284D01*
X40220Y-93483D01*
X40567Y-92550D01*
X40740Y-91483D01*
Y-90417D01*
X40567Y-89350D01*
X40220Y-88417D01*
X39700Y-87617D01*
X39093Y-87083D01*
X38400Y-86950D01*
X37707Y-87083D01*
X37100Y-87617D01*
X36580Y-88417D01*
X36233Y-89350D01*
X36060Y-90417D01*
Y-91483D01*
X36233Y-92550D01*
X36580Y-93483D01*
X37100Y-94284D01*
X37707Y-94817D01*
X38400Y-94950D01*
G01X33333D02*
Y-86950D01*
X31167D01*
X30473Y-87350D01*
X30040Y-87883D01*
X29867Y-88950D01*
X30040Y-90017D01*
X30560Y-90683D01*
X31167Y-91083D01*
X33333D01*
G01X31167D02*
X29867Y-94950D01*
G01X19907Y-86950D02*
Y-92683D01*
X19560Y-93884D01*
X18867Y-94683D01*
X18000Y-94950D01*
X17133Y-94683D01*
X16440Y-93884D01*
X16093Y-92683D01*
Y-86950D01*
G01X13020Y-93884D02*
X12327Y-94550D01*
X11547Y-94950D01*
X10853D01*
X10160Y-94550D01*
X9640Y-93884D01*
X9380Y-92950D01*
X9553Y-92017D01*
X9987Y-91217D01*
X10767Y-90683D01*
X11807Y-90417D01*
X12413Y-89883D01*
X12673Y-88950D01*
X12500Y-88017D01*
X12067Y-87350D01*
X11460Y-86950D01*
X10853D01*
X10247Y-87217D01*
X9727Y-87883D01*
G01X6567Y-94950D02*
X4400Y-86950D01*
X2233Y-94950D01*
G01X3013Y-92150D02*
X5787D01*
G01X8300Y-122450D02*
Y-144950D01*
G01X129507Y-115683D02*
X129160Y-115283D01*
X128900Y-114617D01*
X128727Y-113683D01*
X128900Y-112883D01*
X129247Y-112350D01*
X129853Y-111950D01*
X132193D01*
Y-119950D01*
X129333D01*
X128727Y-119417D01*
X128380Y-118617D01*
X128207Y-117683D01*
X128380Y-116750D01*
X128900Y-115950D01*
X129507Y-115683D01*
X132193D01*
G01X125307Y-119950D02*
Y-111950D01*
X123573D01*
X122880Y-112350D01*
X122360Y-112883D01*
X121927Y-113683D01*
X121580Y-114617D01*
X121493Y-115950D01*
X121580Y-117283D01*
X121927Y-118217D01*
X122360Y-119017D01*
X122880Y-119550D01*
X123573Y-119950D01*
X125307D01*
G01X118073Y-119017D02*
X117467Y-119683D01*
X116773Y-119950D01*
X116080Y-119683D01*
X115473Y-118884D01*
X115040Y-117683D01*
X114867Y-116483D01*
Y-115017D01*
X115040Y-113817D01*
X115473Y-112750D01*
X115993Y-112217D01*
X116600Y-111950D01*
X117293Y-112217D01*
X117813Y-112750D01*
X118160Y-113550D01*
X118333Y-114617D01*
X118160Y-115550D01*
X117727Y-116483D01*
X117207Y-117017D01*
X116600Y-117150D01*
X115907Y-116884D01*
X115387Y-116217D01*
X114867Y-115017D01*
G01X107893Y-112617D02*
X108413Y-112217D01*
X109020Y-111950D01*
X109713D01*
X110493Y-112350D01*
X111100Y-113017D01*
X111533Y-113817D01*
X111880Y-115150D01*
X111967Y-116350D01*
X111793Y-117550D01*
X111533Y-118350D01*
X111013Y-119150D01*
X110407Y-119683D01*
X109800Y-119950D01*
X109193D01*
X108587Y-119683D01*
X108067Y-119284D01*
X107633Y-118750D01*
G01X104647Y-116617D02*
X104040Y-115683D01*
X103520Y-115150D01*
X102827Y-114883D01*
X102220Y-115150D01*
X101787Y-115683D01*
X101440Y-116483D01*
X101353Y-117417D01*
X101440Y-118217D01*
X101787Y-119017D01*
X102307Y-119683D01*
X102913Y-119950D01*
X103607Y-119683D01*
X104213Y-118884D01*
X104560Y-117683D01*
X104647Y-116350D01*
X104473Y-114617D01*
X104213Y-113683D01*
X103780Y-112750D01*
X103173Y-112083D01*
X102567Y-111950D01*
X101960Y-112217D01*
X101527Y-112883D01*
G01X96200Y-111950D02*
X96893Y-112217D01*
X97413Y-112883D01*
X97760Y-113683D01*
X98020Y-114750D01*
X98107Y-115950D01*
X98020Y-117150D01*
X97760Y-118217D01*
X97413Y-119017D01*
X96893Y-119683D01*
X96200Y-119950D01*
X95507Y-119683D01*
X94987Y-119017D01*
X94640Y-118217D01*
X94380Y-117150D01*
X94293Y-115950D01*
X94380Y-114750D01*
X94640Y-113683D01*
X94987Y-112883D01*
X95507Y-112217D01*
X96200Y-111950D01*
G01X89400Y-119950D02*
Y-111950D01*
X90440Y-113550D01*
G01Y-119950D02*
X88360D01*
G01X80867D02*
X84333D01*
Y-111950D01*
X80867D01*
G01X82253Y-115817D02*
X84333D01*
G01X77447Y-119950D02*
Y-111950D01*
X74153D01*
G01X75367Y-115817D02*
X77447D01*
G01X70733Y-118350D02*
X70300Y-119150D01*
X69780Y-119683D01*
X69173Y-119950D01*
X68480Y-119683D01*
X67960Y-119150D01*
X67440Y-118350D01*
X67267Y-117283D01*
Y-111950D01*
G01X60467Y-119950D02*
X63933D01*
Y-111950D01*
X60467D01*
G01X61853Y-115817D02*
X63933D01*
G01X57567Y-111950D02*
X55400Y-119950D01*
X53233Y-111950D01*
G01X50507Y-119950D02*
Y-111950D01*
G01X47213D02*
X50507Y-116884D01*
G01X46693Y-119950D02*
X49033Y-114617D01*
G01X42927Y-117283D02*
X40673D01*
G01X35000Y-119950D02*
Y-111950D01*
X36040Y-113550D01*
G01Y-119950D02*
X33960D01*
G01X28200Y-111950D02*
X28893Y-112217D01*
X29413Y-112883D01*
X29760Y-113683D01*
X30020Y-114750D01*
X30107Y-115950D01*
X30020Y-117150D01*
X29760Y-118217D01*
X29413Y-119017D01*
X28893Y-119683D01*
X28200Y-119950D01*
X27507Y-119683D01*
X26987Y-119017D01*
X26640Y-118217D01*
X26380Y-117150D01*
X26293Y-115950D01*
X26380Y-114750D01*
X26640Y-113683D01*
X26987Y-112883D01*
X27507Y-112217D01*
X28200Y-111950D01*
G01X21400Y-119950D02*
Y-111950D01*
X22440Y-113550D01*
G01Y-119950D02*
X20360D01*
G01X112293Y-142450D02*
Y-134450D01*
X108307Y-142450D01*
Y-134450D01*
G01X105407D02*
Y-140183D01*
X105060Y-141384D01*
X104367Y-142183D01*
X103500Y-142450D01*
X102633Y-142183D01*
X101940Y-141384D01*
X101593Y-140183D01*
Y-134450D01*
G01X98953Y-142450D02*
Y-134450D01*
X96700Y-141117D01*
X94447Y-134450D01*
Y-142450D01*
G01X89207Y-138183D02*
X88860Y-137783D01*
X88600Y-137117D01*
X88427Y-136183D01*
X88600Y-135383D01*
X88947Y-134850D01*
X89553Y-134450D01*
X91893D01*
Y-142450D01*
X89033D01*
X88427Y-141917D01*
X88080Y-141117D01*
X87907Y-140183D01*
X88080Y-139250D01*
X88600Y-138450D01*
X89207Y-138183D01*
X91893D01*
G01X81367Y-142450D02*
X84833D01*
Y-134450D01*
X81367D01*
G01X82753Y-138317D02*
X84833D01*
G01X78033Y-142450D02*
Y-134450D01*
X75867D01*
X75173Y-134850D01*
X74740Y-135383D01*
X74567Y-136450D01*
X74740Y-137517D01*
X75260Y-138183D01*
X75867Y-138583D01*
X78033D01*
G01X75867D02*
X74567Y-142450D01*
G01X172633Y-129950D02*
Y-123950D01*
X171033D01*
X170500Y-124250D01*
X170100Y-124950D01*
X169967Y-125750D01*
X170100Y-126550D01*
X170433Y-127150D01*
X171033Y-127450D01*
X172633D01*
G01X167433Y-129950D02*
Y-123950D01*
X165767D01*
X165233Y-124250D01*
X164900Y-124650D01*
X164767Y-125450D01*
X164900Y-126250D01*
X165300Y-126750D01*
X165767Y-127050D01*
X167433D01*
G01X165767D02*
X164767Y-129950D01*
G01X160900D02*
X161433Y-129850D01*
X161900Y-129450D01*
X162300Y-128850D01*
X162567Y-128150D01*
X162700Y-127350D01*
Y-126550D01*
X162567Y-125750D01*
X162300Y-125050D01*
X161900Y-124450D01*
X161433Y-124050D01*
X160900Y-123950D01*
X160367Y-124050D01*
X159900Y-124450D01*
X159500Y-125050D01*
X159233Y-125750D01*
X159100Y-126550D01*
Y-127350D01*
X159233Y-128150D01*
X159500Y-128850D01*
X159900Y-129450D01*
X160367Y-129850D01*
X160900Y-129950D01*
G01X157033Y-128750D02*
X156700Y-129350D01*
X156300Y-129750D01*
X155833Y-129950D01*
X155300Y-129750D01*
X154900Y-129350D01*
X154500Y-128750D01*
X154367Y-127950D01*
Y-123950D01*
G01X149167Y-129950D02*
X151833D01*
Y-123950D01*
X149167D01*
G01X150233Y-126850D02*
X151833D01*
G01X143833Y-124450D02*
X144233Y-124150D01*
X144700Y-123950D01*
X145233D01*
X145833Y-124250D01*
X146300Y-124750D01*
X146633Y-125350D01*
X146900Y-126350D01*
X146967Y-127250D01*
X146833Y-128150D01*
X146633Y-128750D01*
X146233Y-129350D01*
X145767Y-129750D01*
X145300Y-129950D01*
X144833D01*
X144367Y-129750D01*
X143967Y-129450D01*
X143633Y-129050D01*
G01X140100Y-123950D02*
Y-129950D01*
G01X141633Y-123950D02*
X138567D01*
G01X131233Y-129950D02*
Y-123950D01*
X128167Y-129950D01*
Y-123950D01*
G01X125967D02*
Y-128250D01*
X125700Y-129150D01*
X125167Y-129750D01*
X124500Y-129950D01*
X123833Y-129750D01*
X123300Y-129150D01*
X123033Y-128250D01*
Y-123950D01*
G01X121033Y-129950D02*
Y-123950D01*
X119300Y-128950D01*
X117567Y-123950D01*
Y-129950D01*
G01X113567Y-126750D02*
X113300Y-126450D01*
X113100Y-125950D01*
X112967Y-125250D01*
X113100Y-124650D01*
X113367Y-124250D01*
X113833Y-123950D01*
X115633D01*
Y-129950D01*
X113433D01*
X112967Y-129550D01*
X112700Y-128950D01*
X112567Y-128250D01*
X112700Y-127550D01*
X113100Y-126950D01*
X113567Y-126750D01*
X115633D01*
G01X107567Y-129950D02*
X110233D01*
Y-123950D01*
X107567D01*
G01X108633Y-126850D02*
X110233D01*
G01X105033Y-129950D02*
Y-123950D01*
X103367D01*
X102833Y-124250D01*
X102500Y-124650D01*
X102367Y-125450D01*
X102500Y-126250D01*
X102900Y-126750D01*
X103367Y-127050D01*
X105033D01*
G01X103367D02*
X102367Y-129950D01*
G01X98500Y-130150D02*
X98633Y-130050D01*
Y-129850D01*
X98500Y-129750D01*
X98367Y-129850D01*
Y-130050D01*
X98500Y-130150D01*
G01Y-127450D02*
X98633Y-127350D01*
Y-127150D01*
X98500Y-127050D01*
X98367Y-127150D01*
Y-127350D01*
X98500Y-127450D01*
G01X172633Y-107450D02*
Y-101450D01*
X171033D01*
X170500Y-101750D01*
X170100Y-102450D01*
X169967Y-103250D01*
X170100Y-104050D01*
X170433Y-104650D01*
X171033Y-104950D01*
X172633D01*
G01X167433Y-107450D02*
Y-101450D01*
X165767D01*
X165233Y-101750D01*
X164900Y-102150D01*
X164767Y-102950D01*
X164900Y-103750D01*
X165300Y-104250D01*
X165767Y-104550D01*
X167433D01*
G01X165767D02*
X164767Y-107450D01*
G01X160900D02*
X161433Y-107350D01*
X161900Y-106950D01*
X162300Y-106350D01*
X162567Y-105650D01*
X162700Y-104850D01*
Y-104050D01*
X162567Y-103250D01*
X162300Y-102550D01*
X161900Y-101950D01*
X161433Y-101550D01*
X160900Y-101450D01*
X160367Y-101550D01*
X159900Y-101950D01*
X159500Y-102550D01*
X159233Y-103250D01*
X159100Y-104050D01*
Y-104850D01*
X159233Y-105650D01*
X159500Y-106350D01*
X159900Y-106950D01*
X160367Y-107350D01*
X160900Y-107450D01*
G01X157033Y-106250D02*
X156700Y-106850D01*
X156300Y-107250D01*
X155833Y-107450D01*
X155300Y-107250D01*
X154900Y-106850D01*
X154500Y-106250D01*
X154367Y-105450D01*
Y-101450D01*
G01X149167Y-107450D02*
X151833D01*
Y-101450D01*
X149167D01*
G01X150233Y-104350D02*
X151833D01*
G01X143833Y-101950D02*
X144233Y-101650D01*
X144700Y-101450D01*
X145233D01*
X145833Y-101750D01*
X146300Y-102250D01*
X146633Y-102850D01*
X146900Y-103850D01*
X146967Y-104750D01*
X146833Y-105650D01*
X146633Y-106250D01*
X146233Y-106850D01*
X145767Y-107250D01*
X145300Y-107450D01*
X144833D01*
X144367Y-107250D01*
X143967Y-106950D01*
X143633Y-106550D01*
G01X140100Y-101450D02*
Y-107450D01*
G01X141633Y-101450D02*
X138567D01*
G01X131233Y-107450D02*
Y-101450D01*
X128167Y-107450D01*
Y-101450D01*
G01X126167Y-107450D02*
X124500Y-101450D01*
X122833Y-107450D01*
G01X123433Y-105350D02*
X125567D01*
G01X121033Y-107450D02*
Y-101450D01*
X119300Y-106450D01*
X117567Y-101450D01*
Y-107450D01*
G01X112767D02*
X115433D01*
Y-101450D01*
X112767D01*
G01X113833Y-104350D02*
X115433D01*
G01X108900Y-107650D02*
X109033Y-107550D01*
Y-107350D01*
X108900Y-107250D01*
X108767Y-107350D01*
Y-107550D01*
X108900Y-107650D01*
G01Y-104950D02*
X109033Y-104850D01*
Y-104650D01*
X108900Y-104550D01*
X108767Y-104650D01*
Y-104850D01*
X108900Y-104950D01*
G01X169833Y-71950D02*
X170233Y-71650D01*
X170700Y-71450D01*
X171233D01*
X171833Y-71750D01*
X172300Y-72250D01*
X172633Y-72850D01*
X172900Y-73850D01*
X172967Y-74750D01*
X172833Y-75650D01*
X172633Y-76250D01*
X172233Y-76850D01*
X171767Y-77250D01*
X171300Y-77450D01*
X170833D01*
X170367Y-77250D01*
X169967Y-76950D01*
X169633Y-76550D01*
G01X166100Y-77450D02*
X166633Y-77350D01*
X167100Y-76950D01*
X167500Y-76350D01*
X167767Y-75650D01*
X167900Y-74850D01*
Y-74050D01*
X167767Y-73250D01*
X167500Y-72550D01*
X167100Y-71950D01*
X166633Y-71550D01*
X166100Y-71450D01*
X165567Y-71550D01*
X165100Y-71950D01*
X164700Y-72550D01*
X164433Y-73250D01*
X164300Y-74050D01*
Y-74850D01*
X164433Y-75650D01*
X164700Y-76350D01*
X165100Y-76950D01*
X165567Y-77350D01*
X166100Y-77450D01*
G01X162633D02*
Y-71450D01*
X160900Y-76450D01*
X159167Y-71450D01*
Y-77450D01*
G01X157033D02*
Y-71450D01*
X155433D01*
X154900Y-71750D01*
X154500Y-72450D01*
X154367Y-73250D01*
X154500Y-74050D01*
X154833Y-74650D01*
X155433Y-74950D01*
X157033D01*
G01X152167Y-77450D02*
X150500Y-71450D01*
X148833Y-77450D01*
G01X149433Y-75350D02*
X151567D01*
G01X146833Y-77450D02*
Y-71450D01*
X143767Y-77450D01*
Y-71450D01*
G01X140100Y-77450D02*
Y-74750D01*
X141433Y-71450D01*
G01X138767D02*
X140100Y-74750D01*
G01X131233Y-77450D02*
Y-71450D01*
X128167Y-77450D01*
Y-71450D01*
G01X126167Y-77450D02*
X124500Y-71450D01*
X122833Y-77450D01*
G01X123433Y-75350D02*
X125567D01*
G01X121033Y-77450D02*
Y-71450D01*
X119300Y-76450D01*
X117567Y-71450D01*
Y-77450D01*
G01X112767D02*
X115433D01*
Y-71450D01*
X112767D01*
G01X113833Y-74350D02*
X115433D01*
G01X108900Y-77650D02*
X109033Y-77550D01*
Y-77350D01*
X108900Y-77250D01*
X108767Y-77350D01*
Y-77550D01*
X108900Y-77650D01*
G01Y-74950D02*
X109033Y-74850D01*
Y-74650D01*
X108900Y-74550D01*
X108767Y-74650D01*
Y-74850D01*
X108900Y-74950D01*
G01X175800Y-69950D02*
Y-144950D01*
G01Y-132950D02*
X293300D01*
G01X254267Y-119950D02*
Y-114950D01*
X252933D01*
X252507Y-115200D01*
X252240Y-115533D01*
X252133Y-116200D01*
X252240Y-116867D01*
X252560Y-117283D01*
X252933Y-117533D01*
X254267D01*
G01X252933D02*
X252133Y-119950D01*
G01X249000D02*
X249427Y-119867D01*
X249800Y-119533D01*
X250120Y-119033D01*
X250333Y-118450D01*
X250440Y-117783D01*
Y-117117D01*
X250333Y-116450D01*
X250120Y-115867D01*
X249800Y-115367D01*
X249427Y-115033D01*
X249000Y-114950D01*
X248573Y-115033D01*
X248200Y-115367D01*
X247880Y-115867D01*
X247667Y-116450D01*
X247560Y-117117D01*
Y-117783D01*
X247667Y-118450D01*
X247880Y-119033D01*
X248200Y-119533D01*
X248573Y-119867D01*
X249000Y-119950D01*
G01X245920D02*
Y-114950D01*
G01X243680D02*
Y-119950D01*
G01Y-117450D02*
X245920D01*
G01X241987Y-119950D02*
Y-114950D01*
X240600Y-119117D01*
X239213Y-114950D01*
Y-119950D01*
G01X233320Y-119284D02*
X232893Y-119700D01*
X232413Y-119950D01*
X231987D01*
X231560Y-119700D01*
X231240Y-119284D01*
X231080Y-118700D01*
X231187Y-118117D01*
X231453Y-117617D01*
X231933Y-117283D01*
X232573Y-117117D01*
X232947Y-116783D01*
X233107Y-116200D01*
X233000Y-115617D01*
X232733Y-115200D01*
X232360Y-114950D01*
X231987D01*
X231613Y-115117D01*
X231293Y-115533D01*
G01X226933Y-119950D02*
X229067D01*
Y-114950D01*
X226933D01*
G01X227787Y-117367D02*
X229067D01*
G01X225187Y-119950D02*
Y-114950D01*
X223800Y-119117D01*
X222413Y-114950D01*
Y-119950D01*
G01X220240Y-114950D02*
X218960D01*
G01X219600D02*
Y-119950D01*
G01X220240D02*
X218960D01*
G01X214227Y-115367D02*
X214547Y-115117D01*
X214920Y-114950D01*
X215347D01*
X215827Y-115200D01*
X216200Y-115617D01*
X216467Y-116117D01*
X216680Y-116950D01*
X216733Y-117700D01*
X216627Y-118450D01*
X216467Y-118950D01*
X216147Y-119450D01*
X215773Y-119783D01*
X215400Y-119950D01*
X215027D01*
X214653Y-119783D01*
X214333Y-119533D01*
X214067Y-119200D01*
G01X211200Y-119950D02*
X211627Y-119867D01*
X212000Y-119533D01*
X212320Y-119033D01*
X212533Y-118450D01*
X212640Y-117783D01*
Y-117117D01*
X212533Y-116450D01*
X212320Y-115867D01*
X212000Y-115367D01*
X211627Y-115033D01*
X211200Y-114950D01*
X210773Y-115033D01*
X210400Y-115367D01*
X210080Y-115867D01*
X209867Y-116450D01*
X209760Y-117117D01*
Y-117783D01*
X209867Y-118450D01*
X210080Y-119033D01*
X210400Y-119533D01*
X210773Y-119867D01*
X211200Y-119950D01*
G01X208227D02*
Y-114950D01*
X205773Y-119950D01*
Y-114950D01*
G01X203973Y-119950D02*
Y-114950D01*
X202907D01*
X202480Y-115200D01*
X202160Y-115533D01*
X201893Y-116033D01*
X201680Y-116617D01*
X201627Y-117450D01*
X201680Y-118283D01*
X201893Y-118867D01*
X202160Y-119367D01*
X202480Y-119700D01*
X202907Y-119950D01*
X203973D01*
G01X199773Y-114950D02*
Y-118533D01*
X199560Y-119284D01*
X199133Y-119783D01*
X198600Y-119950D01*
X198067Y-119783D01*
X197640Y-119284D01*
X197427Y-118533D01*
Y-114950D01*
G01X193227Y-115367D02*
X193547Y-115117D01*
X193920Y-114950D01*
X194347D01*
X194827Y-115200D01*
X195200Y-115617D01*
X195467Y-116117D01*
X195680Y-116950D01*
X195733Y-117700D01*
X195627Y-118450D01*
X195467Y-118950D01*
X195147Y-119450D01*
X194773Y-119783D01*
X194400Y-119950D01*
X194027D01*
X193653Y-119783D01*
X193333Y-119533D01*
X193067Y-119200D01*
G01X190200Y-114950D02*
Y-119950D01*
G01X191427Y-114950D02*
X188973D01*
G01X186000Y-119950D02*
X186427Y-119867D01*
X186800Y-119533D01*
X187120Y-119033D01*
X187333Y-118450D01*
X187440Y-117783D01*
Y-117117D01*
X187333Y-116450D01*
X187120Y-115867D01*
X186800Y-115367D01*
X186427Y-115033D01*
X186000Y-114950D01*
X185573Y-115033D01*
X185200Y-115367D01*
X184880Y-115867D01*
X184667Y-116450D01*
X184560Y-117117D01*
Y-117783D01*
X184667Y-118450D01*
X184880Y-119033D01*
X185200Y-119533D01*
X185573Y-119867D01*
X186000Y-119950D01*
G01X182867D02*
Y-114950D01*
X181533D01*
X181107Y-115200D01*
X180840Y-115533D01*
X180733Y-116200D01*
X180840Y-116867D01*
X181160Y-117283D01*
X181533Y-117533D01*
X182867D01*
G01X181533D02*
X180733Y-119950D01*
G01X175800Y-121950D02*
X293300D01*
G01X175800Y-110950D02*
X293300D01*
G01X278550Y-93950D02*
X277883Y-94575D01*
X277133Y-94950D01*
X276467D01*
X275800Y-94575D01*
X275300Y-93950D01*
X275050Y-93075D01*
X275217Y-92200D01*
X275633Y-91450D01*
X276383Y-90950D01*
X277383Y-90700D01*
X277967Y-90200D01*
X278217Y-89325D01*
X278050Y-88450D01*
X277633Y-87825D01*
X277050Y-87450D01*
X276467D01*
X275883Y-87700D01*
X275383Y-88325D01*
G01X268633Y-94950D02*
X271967D01*
Y-87450D01*
X268633D01*
G01X269967Y-91075D02*
X271967D01*
G01X261967Y-88075D02*
X262467Y-87700D01*
X263050Y-87450D01*
X263717D01*
X264467Y-87825D01*
X265050Y-88450D01*
X265467Y-89200D01*
X265800Y-90450D01*
X265883Y-91575D01*
X265717Y-92700D01*
X265467Y-93450D01*
X264967Y-94200D01*
X264383Y-94700D01*
X263800Y-94950D01*
X263217D01*
X262633Y-94700D01*
X262133Y-94325D01*
X261717Y-93825D01*
G01X257300Y-94950D02*
X257967Y-94825D01*
X258550Y-94325D01*
X259050Y-93575D01*
X259383Y-92700D01*
X259550Y-91700D01*
Y-90700D01*
X259383Y-89700D01*
X259050Y-88825D01*
X258550Y-88075D01*
X257967Y-87575D01*
X257300Y-87450D01*
X256633Y-87575D01*
X256050Y-88075D01*
X255550Y-88825D01*
X255217Y-89700D01*
X255050Y-90700D01*
Y-91700D01*
X255217Y-92700D01*
X255550Y-93575D01*
X256050Y-94325D01*
X256633Y-94825D01*
X257300Y-94950D01*
G01X252717D02*
Y-87450D01*
X248883Y-94950D01*
Y-87450D01*
G01X246133Y-94950D02*
Y-87450D01*
X244467D01*
X243800Y-87825D01*
X243300Y-88325D01*
X242883Y-89075D01*
X242550Y-89950D01*
X242467Y-91200D01*
X242550Y-92450D01*
X242883Y-93325D01*
X243300Y-94075D01*
X243800Y-94575D01*
X244467Y-94950D01*
X246133D01*
G01X239883D02*
X237800Y-87450D01*
X235717Y-94950D01*
G01X236467Y-92325D02*
X239133D01*
G01X232967Y-94950D02*
Y-87450D01*
X230883D01*
X230217Y-87825D01*
X229800Y-88325D01*
X229633Y-89325D01*
X229800Y-90325D01*
X230300Y-90950D01*
X230883Y-91325D01*
X232967D01*
G01X230883D02*
X229633Y-94950D01*
G01X224800D02*
Y-91575D01*
X226467Y-87450D01*
G01X223133D02*
X224800Y-91575D01*
G01X219383Y-92450D02*
X217217D01*
G01X213550Y-93950D02*
X212883Y-94575D01*
X212133Y-94950D01*
X211467D01*
X210800Y-94575D01*
X210300Y-93950D01*
X210050Y-93075D01*
X210217Y-92200D01*
X210633Y-91450D01*
X211383Y-90950D01*
X212383Y-90700D01*
X212967Y-90200D01*
X213217Y-89325D01*
X213050Y-88450D01*
X212633Y-87825D01*
X212050Y-87450D01*
X211467D01*
X210883Y-87700D01*
X210383Y-88325D01*
G01X206300Y-87450D02*
X204300D01*
G01X205300D02*
Y-94950D01*
G01X206300D02*
X204300D01*
G01X200633D02*
Y-87450D01*
X198967D01*
X198300Y-87825D01*
X197800Y-88325D01*
X197383Y-89075D01*
X197050Y-89950D01*
X196967Y-91200D01*
X197050Y-92450D01*
X197383Y-93325D01*
X197800Y-94075D01*
X198300Y-94575D01*
X198967Y-94950D01*
X200633D01*
G01X190633D02*
X193967D01*
Y-87450D01*
X190633D01*
G01X191967Y-91075D02*
X193967D01*
G01X175800Y-99950D02*
X293300D01*
G01X262713Y-139867D02*
X262340Y-139283D01*
X262020Y-138950D01*
X261593Y-138783D01*
X261220Y-138950D01*
X260953Y-139283D01*
X260740Y-139783D01*
X260687Y-140367D01*
X260740Y-140867D01*
X260953Y-141367D01*
X261273Y-141783D01*
X261647Y-141950D01*
X262073Y-141783D01*
X262447Y-141284D01*
X262660Y-140533D01*
X262713Y-139700D01*
X262607Y-138617D01*
X262447Y-138033D01*
X262180Y-137450D01*
X261807Y-137033D01*
X261433Y-136950D01*
X261060Y-137117D01*
X260793Y-137533D01*
G01X257500Y-141950D02*
X257127Y-141867D01*
X256700Y-141617D01*
X256433Y-141200D01*
X256327Y-140617D01*
X256433Y-140033D01*
X256753Y-139533D01*
X257233Y-139283D01*
X257767D01*
X258087Y-139117D01*
X258353Y-138700D01*
X258460Y-138117D01*
X258300Y-137533D01*
X257927Y-137117D01*
X257500Y-136950D01*
X257073Y-137117D01*
X256700Y-137533D01*
X256540Y-138117D01*
X256647Y-138700D01*
X256913Y-139117D01*
X257233Y-139283D01*
X257767D01*
X258247Y-139533D01*
X258567Y-140033D01*
X258673Y-140617D01*
X258567Y-141200D01*
X258300Y-141617D01*
X257873Y-141867D01*
X257500Y-141950D01*
G01X254473Y-140950D02*
X254153Y-141533D01*
X253727Y-141867D01*
X253247Y-141950D01*
X252820Y-141867D01*
X252393Y-141450D01*
X252127Y-140950D01*
X252073Y-140450D01*
X252180Y-139867D01*
X252553Y-139450D01*
X252927Y-139283D01*
X253407D01*
G01X252927D02*
X252607Y-139033D01*
X252340Y-138617D01*
X252233Y-138117D01*
X252340Y-137617D01*
X252607Y-137200D01*
X253087Y-136950D01*
X253567Y-137033D01*
X254047Y-137367D01*
G01X249793Y-140283D02*
X248407D01*
G01X244900Y-136950D02*
X245327Y-137117D01*
X245647Y-137533D01*
X245860Y-138033D01*
X246020Y-138700D01*
X246073Y-139450D01*
X246020Y-140200D01*
X245860Y-140867D01*
X245647Y-141367D01*
X245327Y-141783D01*
X244900Y-141950D01*
X244473Y-141783D01*
X244153Y-141367D01*
X243940Y-140867D01*
X243780Y-140200D01*
X243727Y-139450D01*
X243780Y-138700D01*
X243940Y-138033D01*
X244153Y-137533D01*
X244473Y-137117D01*
X244900Y-136950D01*
G01X241873Y-140950D02*
X241553Y-141533D01*
X241127Y-141867D01*
X240647Y-141950D01*
X240220Y-141867D01*
X239793Y-141450D01*
X239527Y-140950D01*
X239473Y-140450D01*
X239580Y-139867D01*
X239953Y-139450D01*
X240327Y-139283D01*
X240807D01*
G01X240327D02*
X240007Y-139033D01*
X239740Y-138617D01*
X239633Y-138117D01*
X239740Y-137617D01*
X240007Y-137200D01*
X240487Y-136950D01*
X240967Y-137033D01*
X241447Y-137367D01*
G01X236500Y-136950D02*
X236927Y-137117D01*
X237247Y-137533D01*
X237460Y-138033D01*
X237620Y-138700D01*
X237673Y-139450D01*
X237620Y-140200D01*
X237460Y-140867D01*
X237247Y-141367D01*
X236927Y-141783D01*
X236500Y-141950D01*
X236073Y-141783D01*
X235753Y-141367D01*
X235540Y-140867D01*
X235380Y-140200D01*
X235327Y-139450D01*
X235380Y-138700D01*
X235540Y-138033D01*
X235753Y-137533D01*
X236073Y-137117D01*
X236500Y-136950D01*
G01X232300Y-141950D02*
Y-136950D01*
X232940Y-137950D01*
G01Y-141950D02*
X231660D01*
G01X229113Y-137783D02*
X228793Y-137283D01*
X228420Y-137033D01*
X227993Y-136950D01*
X227460Y-137117D01*
X227087Y-137533D01*
X226980Y-138033D01*
X227033Y-138534D01*
X227247Y-138950D01*
X228313Y-139783D01*
X228793Y-140367D01*
X229113Y-141200D01*
X229220Y-141950D01*
X226980D01*
G01X223900Y-136950D02*
X224327Y-137117D01*
X224647Y-137533D01*
X224860Y-138033D01*
X225020Y-138700D01*
X225073Y-139450D01*
X225020Y-140200D01*
X224860Y-140867D01*
X224647Y-141367D01*
X224327Y-141783D01*
X223900Y-141950D01*
X223473Y-141783D01*
X223153Y-141367D01*
X222940Y-140867D01*
X222780Y-140200D01*
X222727Y-139450D01*
X222780Y-138700D01*
X222940Y-138033D01*
X223153Y-137533D01*
X223473Y-137117D01*
X223900Y-136950D01*
G01X219700Y-141950D02*
Y-136950D01*
X220340Y-137950D01*
G01Y-141950D02*
X219060D01*
G01X216513Y-137783D02*
X216193Y-137283D01*
X215820Y-137033D01*
X215393Y-136950D01*
X214860Y-137117D01*
X214487Y-137533D01*
X214380Y-138033D01*
X214433Y-138534D01*
X214647Y-138950D01*
X215713Y-139783D01*
X216193Y-140367D01*
X216513Y-141200D01*
X216620Y-141950D01*
X214380D01*
G01X211993Y-140283D02*
X210607D01*
G01X207100Y-136950D02*
X207527Y-137117D01*
X207847Y-137533D01*
X208060Y-138033D01*
X208220Y-138700D01*
X208273Y-139450D01*
X208220Y-140200D01*
X208060Y-140867D01*
X207847Y-141367D01*
X207527Y-141783D01*
X207100Y-141950D01*
X206673Y-141783D01*
X206353Y-141367D01*
X206140Y-140867D01*
X205980Y-140200D01*
X205927Y-139450D01*
X205980Y-138700D01*
X206140Y-138033D01*
X206353Y-137533D01*
X206673Y-137117D01*
X207100Y-136950D01*
G01X202900Y-141950D02*
Y-136950D01*
X203540Y-137950D01*
G01Y-141950D02*
X202260D01*
G01X259700Y-125950D02*
X260127Y-126117D01*
X260447Y-126533D01*
X260660Y-127033D01*
X260820Y-127700D01*
X260873Y-128450D01*
X260820Y-129200D01*
X260660Y-129867D01*
X260447Y-130367D01*
X260127Y-130783D01*
X259700Y-130950D01*
X259273Y-130783D01*
X258953Y-130367D01*
X258740Y-129867D01*
X258580Y-129200D01*
X258527Y-128450D01*
X258580Y-127700D01*
X258740Y-127033D01*
X258953Y-126533D01*
X259273Y-126117D01*
X259700Y-125950D01*
G01X256513Y-128867D02*
X256140Y-128283D01*
X255820Y-127950D01*
X255393Y-127783D01*
X255020Y-127950D01*
X254753Y-128283D01*
X254540Y-128783D01*
X254487Y-129367D01*
X254540Y-129867D01*
X254753Y-130367D01*
X255073Y-130783D01*
X255447Y-130950D01*
X255873Y-130783D01*
X256247Y-130284D01*
X256460Y-129533D01*
X256513Y-128700D01*
X256407Y-127617D01*
X256247Y-127033D01*
X255980Y-126450D01*
X255607Y-126033D01*
X255233Y-125950D01*
X254860Y-126117D01*
X254593Y-126533D01*
G01X252367Y-129950D02*
X252100Y-130450D01*
X251780Y-130783D01*
X251407Y-130950D01*
X250980Y-130783D01*
X250660Y-130450D01*
X250340Y-129950D01*
X250233Y-129283D01*
Y-125950D01*
G01X248433Y-130950D02*
X247100Y-125950D01*
X245767Y-130950D01*
G01X246247Y-129200D02*
X247953D01*
G01X244127Y-130950D02*
Y-125950D01*
X241673Y-130950D01*
Y-125950D01*
G01X238700Y-130950D02*
Y-125950D01*
X239340Y-126950D01*
G01Y-130950D02*
X238060D01*
G01X233860D02*
Y-125950D01*
X235833Y-129533D01*
X233167D01*
G01X247767Y-108950D02*
Y-103950D01*
X246487D01*
X246060Y-104200D01*
X245740Y-104783D01*
X245633Y-105450D01*
X245740Y-106117D01*
X246007Y-106617D01*
X246487Y-106867D01*
X247767D01*
G01X242500Y-103950D02*
Y-108950D01*
G01X243727Y-103950D02*
X241273D01*
G01X239420Y-108950D02*
Y-103950D01*
G01X237180D02*
Y-108950D01*
G01Y-106450D02*
X239420D01*
G01X235433Y-103950D02*
X234100Y-108950D01*
X232767Y-103950D01*
G01X231073Y-108950D02*
Y-103950D01*
X230007D01*
X229580Y-104200D01*
X229260Y-104533D01*
X228993Y-105033D01*
X228780Y-105617D01*
X228727Y-106450D01*
X228780Y-107283D01*
X228993Y-107867D01*
X229260Y-108367D01*
X229580Y-108700D01*
X230007Y-108950D01*
X231073D01*
G01X224527Y-104367D02*
X224847Y-104117D01*
X225220Y-103950D01*
X225647D01*
X226127Y-104200D01*
X226500Y-104617D01*
X226767Y-105117D01*
X226980Y-105950D01*
X227033Y-106700D01*
X226927Y-107450D01*
X226767Y-107950D01*
X226447Y-108450D01*
X226073Y-108783D01*
X225700Y-108950D01*
X225327D01*
X224953Y-108783D01*
X224633Y-108533D01*
X224367Y-108200D01*
G01X240800Y-74450D02*
X241467Y-74700D01*
X241967Y-75325D01*
X242300Y-76075D01*
X242550Y-77075D01*
X242633Y-78200D01*
X242550Y-79325D01*
X242300Y-80325D01*
X241967Y-81075D01*
X241467Y-81700D01*
X240800Y-81950D01*
X240133Y-81700D01*
X239633Y-81075D01*
X239300Y-80325D01*
X239050Y-79325D01*
X238967Y-78200D01*
X239050Y-77075D01*
X239300Y-76075D01*
X239633Y-75325D01*
X240133Y-74700D01*
X240800Y-74450D01*
G01X233300Y-81950D02*
Y-74450D01*
X236383Y-79825D01*
X232217D01*
G01X287873Y-108950D02*
Y-103950D01*
X286807D01*
X286380Y-104200D01*
X286060Y-104533D01*
X285793Y-105033D01*
X285580Y-105617D01*
X285527Y-106450D01*
X285580Y-107283D01*
X285793Y-107867D01*
X286060Y-108367D01*
X286380Y-108700D01*
X286807Y-108950D01*
X287873D01*
G01X281433D02*
X283567D01*
Y-103950D01*
X281433D01*
G01X282287Y-106367D02*
X283567D01*
G01X279420Y-108284D02*
X278993Y-108700D01*
X278513Y-108950D01*
X278087D01*
X277660Y-108700D01*
X277340Y-108284D01*
X277180Y-107700D01*
X277287Y-107117D01*
X277553Y-106617D01*
X278033Y-106283D01*
X278673Y-106117D01*
X279047Y-105783D01*
X279207Y-105200D01*
X279100Y-104617D01*
X278833Y-104200D01*
X278460Y-103950D01*
X278087D01*
X277713Y-104117D01*
X277393Y-104533D01*
G01X274740Y-103950D02*
X273460D01*
G01X274100D02*
Y-108950D01*
G01X274740D02*
X273460D01*
G01X269580Y-106450D02*
X268513D01*
Y-107950D01*
X268833Y-108450D01*
X269207Y-108783D01*
X269740Y-108950D01*
X270273Y-108783D01*
X270647Y-108450D01*
X270967Y-107950D01*
X271180Y-107367D01*
X271287Y-106700D01*
Y-106117D01*
X271180Y-105617D01*
X270967Y-105033D01*
X270647Y-104533D01*
X270327Y-104200D01*
X269900Y-103950D01*
X269527D01*
X269100Y-104117D01*
X268780Y-104450D01*
G01X266927Y-108950D02*
Y-103950D01*
X264473Y-108950D01*
Y-103950D01*
G01X260433Y-108950D02*
X262567D01*
Y-103950D01*
X260433D01*
G01X261287Y-106367D02*
X262567D01*
G01X258367Y-108950D02*
Y-103950D01*
X257033D01*
X256607Y-104200D01*
X256340Y-104533D01*
X256233Y-105200D01*
X256340Y-105867D01*
X256660Y-106283D01*
X257033Y-106533D01*
X258367D01*
G01X257033D02*
X256233Y-108950D01*
G01X253100Y-109117D02*
X253207Y-109033D01*
Y-108867D01*
X253100Y-108783D01*
X252993Y-108867D01*
Y-109033D01*
X253100Y-109117D01*
G01Y-106867D02*
X253207Y-106783D01*
Y-106617D01*
X253100Y-106533D01*
X252993Y-106617D01*
Y-106783D01*
X253100Y-106867D01*
G01X281467Y-74450D02*
Y-81950D01*
X278133D01*
G01X275383D02*
X273300Y-74450D01*
X271217Y-81950D01*
G01X271967Y-79325D02*
X274633D01*
G01X266800Y-81950D02*
Y-78575D01*
X268467Y-74450D01*
G01X265133D02*
X266800Y-78575D01*
G01X258633Y-81950D02*
X261967D01*
Y-74450D01*
X258633D01*
G01X259967Y-78075D02*
X261967D01*
G01X255467Y-81950D02*
Y-74450D01*
X253383D01*
X252717Y-74825D01*
X252300Y-75325D01*
X252133Y-76325D01*
X252300Y-77325D01*
X252800Y-77950D01*
X253383Y-78325D01*
X255467D01*
G01X253383D02*
X252133Y-81950D01*
G01X247300Y-82200D02*
X247467Y-82075D01*
Y-81825D01*
X247300Y-81700D01*
X247133Y-81825D01*
Y-82075D01*
X247300Y-82200D01*
G01Y-78825D02*
X247467Y-78700D01*
Y-78450D01*
X247300Y-78325D01*
X247133Y-78450D01*
Y-78700D01*
X247300Y-78825D01*
G01X287767Y-140950D02*
X287500Y-141450D01*
X287180Y-141783D01*
X286807Y-141950D01*
X286380Y-141783D01*
X286060Y-141450D01*
X285740Y-140950D01*
X285633Y-140283D01*
Y-136950D01*
G01X282500Y-141950D02*
X282927Y-141867D01*
X283300Y-141533D01*
X283620Y-141033D01*
X283833Y-140450D01*
X283940Y-139783D01*
Y-139117D01*
X283833Y-138450D01*
X283620Y-137867D01*
X283300Y-137367D01*
X282927Y-137033D01*
X282500Y-136950D01*
X282073Y-137033D01*
X281700Y-137367D01*
X281380Y-137867D01*
X281167Y-138450D01*
X281060Y-139117D01*
Y-139783D01*
X281167Y-140450D01*
X281380Y-141033D01*
X281700Y-141533D01*
X282073Y-141867D01*
X282500Y-141950D01*
G01X277873Y-139283D02*
X277660Y-139033D01*
X277500Y-138617D01*
X277393Y-138033D01*
X277500Y-137533D01*
X277713Y-137200D01*
X278087Y-136950D01*
X279527D01*
Y-141950D01*
X277767D01*
X277393Y-141617D01*
X277180Y-141117D01*
X277073Y-140533D01*
X277180Y-139950D01*
X277500Y-139450D01*
X277873Y-139283D01*
X279527D01*
G01X275167Y-143617D02*
X274100Y-136950D01*
G01X273033D02*
X274100Y-143617D01*
G01X275700Y-141117D02*
X272500D01*
G01Y-139450D02*
X275700D01*
G01X269900Y-142117D02*
X270007Y-142033D01*
Y-141867D01*
X269900Y-141783D01*
X269793Y-141867D01*
Y-142033D01*
X269900Y-142117D01*
G01Y-139867D02*
X270007Y-139783D01*
Y-139617D01*
X269900Y-139533D01*
X269793Y-139617D01*
Y-139783D01*
X269900Y-139867D01*
G01X286873Y-130950D02*
Y-125950D01*
X285807D01*
X285380Y-126200D01*
X285060Y-126533D01*
X284793Y-127033D01*
X284580Y-127617D01*
X284527Y-128450D01*
X284580Y-129283D01*
X284793Y-129867D01*
X285060Y-130367D01*
X285380Y-130700D01*
X285807Y-130950D01*
X286873D01*
G01X282833D02*
X281500Y-125950D01*
X280167Y-130950D01*
G01X280647Y-129200D02*
X282353D01*
G01X277300Y-125950D02*
Y-130950D01*
G01X278527Y-125950D02*
X276073D01*
G01X272033Y-130950D02*
X274167D01*
Y-125950D01*
X272033D01*
G01X272887Y-128367D02*
X274167D01*
G01X268900Y-131117D02*
X269007Y-131033D01*
Y-130867D01*
X268900Y-130783D01*
X268793Y-130867D01*
Y-131033D01*
X268900Y-131117D01*
G01Y-128867D02*
X269007Y-128783D01*
Y-128617D01*
X268900Y-128533D01*
X268793Y-128617D01*
Y-128783D01*
X268900Y-128867D01*
G01X285527Y-115367D02*
X285847Y-115117D01*
X286220Y-114950D01*
X286647D01*
X287127Y-115200D01*
X287500Y-115617D01*
X287767Y-116117D01*
X287980Y-116950D01*
X288033Y-117700D01*
X287927Y-118450D01*
X287767Y-118950D01*
X287447Y-119450D01*
X287073Y-119783D01*
X286700Y-119950D01*
X286327D01*
X285953Y-119783D01*
X285633Y-119533D01*
X285367Y-119200D01*
G01X283620Y-119950D02*
Y-114950D01*
G01X281380D02*
Y-119950D01*
G01Y-117450D02*
X283620D01*
G01X277233Y-119950D02*
X279367D01*
Y-114950D01*
X277233D01*
G01X278087Y-117367D02*
X279367D01*
G01X272927Y-115367D02*
X273247Y-115117D01*
X273620Y-114950D01*
X274047D01*
X274527Y-115200D01*
X274900Y-115617D01*
X275167Y-116117D01*
X275380Y-116950D01*
X275433Y-117700D01*
X275327Y-118450D01*
X275167Y-118950D01*
X274847Y-119450D01*
X274473Y-119783D01*
X274100Y-119950D01*
X273727D01*
X273353Y-119783D01*
X273033Y-119533D01*
X272767Y-119200D01*
G01X271073Y-119950D02*
Y-114950D01*
G01X269047D02*
X271073Y-118033D01*
G01X268727Y-119950D02*
X270167Y-116617D01*
G01X264633Y-119950D02*
X266767D01*
Y-114950D01*
X264633D01*
G01X265487Y-117367D02*
X266767D01*
G01X262567Y-119950D02*
Y-114950D01*
X261233D01*
X260807Y-115200D01*
X260540Y-115533D01*
X260433Y-116200D01*
X260540Y-116867D01*
X260860Y-117283D01*
X261233Y-117533D01*
X262567D01*
G01X261233D02*
X260433Y-119950D01*
G01X257300Y-120117D02*
X257407Y-120033D01*
Y-119867D01*
X257300Y-119783D01*
X257193Y-119867D01*
Y-120033D01*
X257300Y-120117D01*
G01Y-117867D02*
X257407Y-117783D01*
Y-117617D01*
X257300Y-117533D01*
X257193Y-117617D01*
Y-117783D01*
X257300Y-117867D01*
G01X293300Y-69950D02*
Y-144950D01*
G01X339620Y-108625D02*
G03I-355J0D01*
G01Y-109325D02*
G03I-355J0D01*
G01Y-110015D02*
G03I-355J0D01*
G01Y-110715D02*
G03I-355J0D01*
G01Y-111405D02*
G03I-355J0D01*
G01Y-112105D02*
G03I-355J0D01*
G01Y-112555D02*
G03I-355J0D01*
G01X339680Y-117535D02*
G03I-355J0D01*
G01X339640Y-117685D02*
G03I-355J0D01*
G01X339620Y-117845D02*
G03I-355J0D01*
G01X339640Y-118015D02*
G03I-355J0D01*
G01X339690Y-118175D02*
G03I-355J0D01*
G01X339620Y-105155D02*
G03I-355J0D01*
G01Y-105855D02*
G03I-355J0D01*
G01Y-106545D02*
G03I-355J0D01*
G01Y-107245D02*
G03I-355J0D01*
G01Y-107935D02*
G03I-355J0D01*
G01X339670Y-102045D02*
G03I-355J0D01*
G01X339620Y-102595D02*
G03I-355J0D01*
G01X339640Y-102385D02*
G03I-355J0D01*
G01X339620Y-103075D02*
G03I-355J0D01*
G01Y-103775D02*
G03I-355J0D01*
G01Y-104465D02*
G03I-355J0D01*
G01X342690Y-108625D02*
G03I-355J0D01*
G01Y-109325D02*
G03I-355J0D01*
G01Y-110015D02*
G03I-355J0D01*
G01Y-110715D02*
G03I-355J0D01*
G01Y-111405D02*
G03I-355J0D01*
G01Y-112105D02*
G03I-355J0D01*
G01X345760Y-108625D02*
G03I-354J0D01*
G01Y-109325D02*
G03I-354J0D01*
G01Y-110015D02*
G03I-354J0D01*
G01Y-110715D02*
G03I-354J0D01*
G01Y-111405D02*
G03I-354J0D01*
G01Y-112105D02*
G03I-354J0D01*
G01X342690Y-112555D02*
G03I-355J0D01*
G01X345760D02*
G03I-354J0D01*
G01X349070Y-108625D02*
G03I-355J0D01*
G01Y-109325D02*
G03I-355J0D01*
G01Y-110015D02*
G03I-355J0D01*
G01Y-110715D02*
G03I-355J0D01*
G01Y-111405D02*
G03I-355J0D01*
G01Y-112105D02*
G03I-355J0D01*
G01X352140Y-108625D02*
G03I-355J0D01*
G01Y-109325D02*
G03I-355J0D01*
G01Y-110715D02*
G03I-355J0D01*
G01Y-110015D02*
G03I-355J0D01*
G01Y-111405D02*
G03I-355J0D01*
G01Y-112105D02*
G03I-355J0D01*
G01X349070Y-112555D02*
G03I-355J0D01*
G01X352140D02*
G03I-355J0D01*
G01X339750Y-117405D02*
G03I-355J0D01*
G01X339760Y-118325D02*
G03I-354J0D01*
G01X340420Y-117045D02*
G03I-355J0D01*
G01X340260Y-117065D02*
G03I-354J0D01*
G01X340110Y-117105D02*
G03I-354J0D01*
G01X339980Y-117175D02*
G03I-355J0D01*
G01X339850Y-117275D02*
G03I-355J0D01*
G01X342690Y-117045D02*
G03I-355J0D01*
G01D02*
G03I-355J0D01*
G01X344820Y-118325D02*
G03I-355J0D01*
G01X344840Y-118105D02*
G03I-355J0D01*
G01X344900Y-117885D02*
G03I-355J0D01*
G01X344990Y-117685D02*
G03I-355J0D01*
G01X345120Y-117505D02*
G03I-355J0D01*
G01X345280Y-117345D02*
G03I-355J0D01*
G01X345460Y-117215D02*
G03I-354J0D01*
G01X345660Y-117125D02*
G03I-354J0D01*
G01X345880Y-117065D02*
G03I-355J0D01*
G01X346100Y-117045D02*
G03I-355J0D01*
G01X346840D02*
G03I-355J0D01*
G01X347060Y-117065D02*
G03I-354J0D01*
G01X347280Y-117125D02*
G03I-355J0D01*
G01X347480Y-117215D02*
G03I-355J0D01*
G01X348050Y-117895D02*
G03I-355J0D01*
G01X348110Y-118115D02*
G03I-354J0D01*
G01X348130Y-118335D02*
G03I-355J0D01*
G01X348120D02*
G03I-355J0D01*
G01X350250Y-117045D02*
G03I-355J0D01*
G01X351670D02*
G03I-355J0D01*
G01D02*
G03I-355J0D01*
G01X353080D02*
G03I-355J0D01*
G01X347670Y-117345D02*
G03I-355J0D01*
G01X347830Y-117505D02*
G03I-355J0D01*
G01X347960Y-117685D02*
G03I-354J0D01*
G01X355210Y-108625D02*
G03I-354J0D01*
G01Y-110015D02*
G03I-354J0D01*
G01Y-109325D02*
G03I-354J0D01*
G01Y-110715D02*
G03I-354J0D01*
G01Y-111405D02*
G03I-354J0D01*
G01Y-112105D02*
G03I-354J0D01*
G01X358750Y-108625D02*
G03I-355J0D01*
G01Y-109325D02*
G03I-355J0D01*
G01Y-110715D02*
G03I-355J0D01*
G01Y-110015D02*
G03I-355J0D01*
G01Y-111405D02*
G03I-355J0D01*
G01Y-112105D02*
G03I-355J0D01*
G01X355210Y-112555D02*
G03I-354J0D01*
G01X358750D02*
G03I-355J0D01*
G01X354970Y-117045D02*
G03I-355J0D01*
G01X356770D02*
G03I-355J0D01*
G01X357670Y-117565D02*
G03I-355J0D01*
G01X357570Y-117415D02*
G03I-355J0D01*
G01X357440Y-117285D02*
G03I-355J0D01*
G01X357290Y-117185D02*
G03I-355J0D01*
G01X357130Y-117105D02*
G03I-355J0D01*
G01X356950Y-117065D02*
G03I-355J0D01*
G01X357750Y-117725D02*
G03I-355J0D01*
G01X357810Y-118085D02*
G03I-354J0D01*
G01X357790Y-117905D02*
G03I-355J0D01*
G01X359930Y-117045D02*
G03I-355J0D01*
G01X339870Y-118455D02*
G03I-355J0D01*
G01X340000Y-118565D02*
G03I-355J0D01*
G01X340150Y-118635D02*
G03I-355J0D01*
G01X340310Y-118685D02*
G03I-354J0D01*
G01X340480Y-118705D02*
G03I-355J0D01*
G01X339860Y-120355D02*
G03I-354J0D01*
G01X340760Y-118705D02*
G03I-354J0D01*
G01D02*
G03I-354J0D01*
G01X342690D02*
G03I-355J0D01*
G01D02*
G03I-355J0D01*
G01Y-120355D02*
G03I-355J0D01*
G01X344820Y-119055D02*
G03I-355J0D01*
G01X344840Y-119285D02*
G03I-355J0D01*
G01X344820Y-119055D02*
G03I-355J0D01*
G01X344900Y-119495D02*
G03I-355J0D01*
G01X345680Y-120275D02*
G03I-355J0D01*
G01X345470Y-120185D02*
G03I-355J0D01*
G01X345280Y-120055D02*
G03I-355J0D01*
G01X345120Y-119895D02*
G03I-355J0D01*
G01X344990Y-119705D02*
G03I-355J0D01*
G01X346120Y-120355D02*
G03I-355J0D01*
G01X345890Y-120335D02*
G03I-355J0D01*
G01X347400Y-120215D02*
G03I-355J0D01*
G01X347210Y-120295D02*
G03I-354J0D01*
G01X347010Y-120335D02*
G03I-354J0D01*
G01X346810Y-120355D02*
G03I-354J0D01*
G01X348120Y-119045D02*
G03I-355J0D01*
G01X348100Y-119245D02*
G03I-355J0D01*
G01X348060Y-119445D02*
G03I-354J0D01*
G01X351670Y-120355D02*
G03I-355J0D01*
G01X347980Y-119635D02*
G03I-355J0D01*
G01X347870Y-119815D02*
G03I-355J0D01*
G01X347740Y-119975D02*
G03I-355J0D01*
G01X347580Y-120105D02*
G03I-355J0D01*
G01X354970Y-120355D02*
G03I-355J0D01*
G01X356740D02*
G03I-355J0D01*
G01X356930Y-120335D02*
G03I-355J0D01*
G01X357110Y-120295D02*
G03I-354J0D01*
G01X357280Y-120215D02*
G03I-355J0D01*
G01X357430Y-120105D02*
G03I-355J0D01*
G01X357560Y-119975D02*
G03I-354J0D01*
G01X357670Y-119815D02*
G03I-355J0D01*
G01X357810Y-119285D02*
G03I-354J0D01*
G01X357750Y-119655D02*
G03I-355J0D01*
G01X357790Y-119475D02*
G03I-355J0D01*
G01X359930Y-119045D02*
G03I-355J0D01*
G01X359940D02*
G03I-355J0D01*
G01X359960Y-119275D02*
G03I-354J0D01*
G01X360020Y-119495D02*
G03I-355J0D01*
G01X360120Y-119695D02*
G03I-355J0D01*
G01X360250Y-119885D02*
G03I-355J0D01*
G01X360410Y-120045D02*
G03I-354J0D01*
G01X360590Y-120175D02*
G03I-355J0D01*
G01X342690Y-105155D02*
G03I-355J0D01*
G01Y-105855D02*
G03I-355J0D01*
G01Y-106545D02*
G03I-355J0D01*
G01Y-107245D02*
G03I-355J0D01*
G01Y-107935D02*
G03I-355J0D01*
G01X345760Y-105155D02*
G03I-354J0D01*
G01Y-105855D02*
G03I-354J0D01*
G01Y-106545D02*
G03I-354J0D01*
G01Y-107245D02*
G03I-354J0D01*
G01Y-107935D02*
G03I-354J0D01*
G01X349070Y-105155D02*
G03I-355J0D01*
G01Y-105855D02*
G03I-355J0D01*
G01Y-106545D02*
G03I-355J0D01*
G01Y-107245D02*
G03I-355J0D01*
G01Y-107935D02*
G03I-355J0D01*
G01X352140Y-105155D02*
G03I-355J0D01*
G01Y-105855D02*
G03I-355J0D01*
G01Y-107245D02*
G03I-355J0D01*
G01Y-106545D02*
G03I-355J0D01*
G01Y-107935D02*
G03I-355J0D01*
G01X339830Y-101515D02*
G03I-355J0D01*
G01X340110Y-101035D02*
G03I-354J0D01*
G01X340490Y-100625D02*
G03I-355J0D01*
G01X340150Y-100995D02*
G03I-355J0D01*
G01X339780Y-101685D02*
G03I-355J0D01*
G01X340930Y-100305D02*
G03I-355J0D01*
G01X341140Y-100145D02*
G03I-355J0D01*
G01D02*
G03I-355J0D01*
G01X341870Y-99785D02*
G03I-355J0D01*
G01X342650Y-99565D02*
G03I-355J0D01*
G01X342510Y-99605D02*
G03I-354J0D01*
G01X342980Y-101425D02*
G03I-355J0D01*
G01X342820Y-101665D02*
G03I-355J0D01*
G01X342720Y-101945D02*
G03I-355J0D01*
G01X342690Y-102245D02*
G03I-355J0D01*
G01X342810Y-101685D02*
G03I-354J0D01*
G01X342690Y-102385D02*
G03I-355J0D01*
G01Y-103075D02*
G03I-355J0D01*
G01Y-103775D02*
G03I-355J0D01*
G01Y-104465D02*
G03I-355J0D01*
G01X343810Y-99395D02*
G03I-354J0D01*
G01X343680Y-101055D02*
G03I-355J0D01*
G01X343200Y-101225D02*
G03I-355J0D01*
G01X344190Y-100985D02*
G03I-355J0D01*
G01X344110Y-100995D02*
G03I-354J0D01*
G01X344970Y-99335D02*
G03I-355J0D01*
G01X345650Y-101385D02*
G03I-355J0D01*
G01X345520Y-101225D02*
G03I-355J0D01*
G01X345350Y-101095D02*
G03I-355J0D01*
G01X345160Y-101015D02*
G03I-354J0D01*
G01X344950Y-100985D02*
G03I-355J0D01*
G01X345030Y-100995D02*
G03I-355J0D01*
G01X345730Y-101585D02*
G03I-355J0D01*
G01X345750Y-101685D02*
G03I-355J0D01*
G01X345760Y-101795D02*
G03I-354J0D01*
G01Y-102385D02*
G03I-354J0D01*
G01Y-103075D02*
G03I-354J0D01*
G01Y-103775D02*
G03I-354J0D01*
G01Y-104465D02*
G03I-354J0D01*
G01X349090Y-101575D02*
G03I-355J0D01*
G01X349070Y-101785D02*
G03I-355J0D01*
G01X349080Y-101685D02*
G03I-355J0D01*
G01X349070Y-102385D02*
G03I-355J0D01*
G01Y-103075D02*
G03I-355J0D01*
G01Y-103775D02*
G03I-355J0D01*
G01Y-104465D02*
G03I-355J0D01*
G01X349300Y-99335D02*
G03I-355J0D01*
G01X349870Y-100985D02*
G03I-355J0D01*
G01X349660Y-101015D02*
G03I-354J0D01*
G01X349470Y-101095D02*
G03I-355J0D01*
G01X349300Y-101215D02*
G03I-355J0D01*
G01X349180Y-101385D02*
G03I-355J0D01*
G01X349790Y-100995D02*
G03I-355J0D01*
G01X351530Y-101015D02*
G03I-355J0D01*
G01X351310Y-100985D02*
G03I-354J0D01*
G01X351390Y-100995D02*
G03I-355J0D01*
G01X352270Y-99425D02*
G03I-355J0D01*
G01X352030Y-101395D02*
G03I-355J0D01*
G01X351900Y-101225D02*
G03I-355J0D01*
G01X351720Y-101095D02*
G03I-355J0D01*
G01X352140Y-101815D02*
G03I-355J0D01*
G01X352110Y-101595D02*
G03I-354J0D01*
G01X352120Y-101685D02*
G03I-355J0D01*
G01X352140Y-103075D02*
G03I-355J0D01*
G01Y-102385D02*
G03I-355J0D01*
G01Y-103775D02*
G03I-355J0D01*
G01Y-104465D02*
G03I-355J0D01*
G01X353660Y-99605D02*
G03I-354J0D01*
G01X355210Y-105155D02*
G03I-354J0D01*
G01Y-106545D02*
G03I-354J0D01*
G01Y-105855D02*
G03I-354J0D01*
G01Y-107245D02*
G03I-354J0D01*
G01Y-107935D02*
G03I-354J0D01*
G01X358750Y-105155D02*
G03I-355J0D01*
G01Y-106545D02*
G03I-355J0D01*
G01Y-105855D02*
G03I-355J0D01*
G01Y-107245D02*
G03I-355J0D01*
G01Y-107935D02*
G03I-355J0D01*
G01X355210Y-99805D02*
G03I-354J0D01*
G01Y-100305D02*
G03I-354J0D01*
G01Y-100995D02*
G03I-354J0D01*
G01Y-102385D02*
G03I-354J0D01*
G01Y-101685D02*
G03I-354J0D01*
G01Y-103075D02*
G03I-354J0D01*
G01Y-103775D02*
G03I-354J0D01*
G01Y-104465D02*
G03I-354J0D01*
G01X358750Y-99805D02*
G03I-355J0D01*
G01Y-100305D02*
G03I-355J0D01*
G01Y-100995D02*
G03I-355J0D01*
G01Y-101685D02*
G03I-355J0D01*
G01Y-103075D02*
G03I-355J0D01*
G01Y-102385D02*
G03I-355J0D01*
G01Y-103775D02*
G03I-355J0D01*
G01Y-104465D02*
G03I-355J0D01*
G01X362060Y-108625D02*
G03I-354J0D01*
G01Y-110015D02*
G03I-354J0D01*
G01Y-109325D02*
G03I-354J0D01*
G01Y-110715D02*
G03I-354J0D01*
G01Y-111405D02*
G03I-354J0D01*
G01Y-112105D02*
G03I-354J0D01*
G01X369150Y-108625D02*
G03I-355J0D01*
G01Y-109325D02*
G03I-355J0D01*
G01Y-110015D02*
G03I-355J0D01*
G01Y-110715D02*
G03I-355J0D01*
G01Y-111405D02*
G03I-355J0D01*
G01Y-112105D02*
G03I-355J0D01*
G01X372450Y-108625D02*
G03I-355J0D01*
G01Y-109325D02*
G03I-355J0D01*
G01Y-110015D02*
G03I-355J0D01*
G01Y-110715D02*
G03I-355J0D01*
G01Y-111405D02*
G03I-355J0D01*
G01Y-112105D02*
G03I-355J0D01*
G01X362060Y-112555D02*
G03I-354J0D01*
G01X369150D02*
G03I-355J0D01*
G01X372450D02*
G03I-355J0D01*
G01X375760Y-109135D02*
G03I-354J0D01*
G01Y-108625D02*
G03I-354J0D01*
G01X375810Y-109685D02*
G03I-354J0D01*
G01X375780Y-109325D02*
G03I-355J0D01*
G01X376280Y-110675D02*
G03I-355J0D01*
G01X375990Y-110205D02*
G03I-355J0D01*
G01X376320Y-110715D02*
G03I-355J0D01*
G01X375930Y-110015D02*
G03I-355J0D01*
G01X377130Y-111505D02*
G03I-355J0D01*
G01X376670Y-111065D02*
G03I-355J0D01*
G01X377030Y-111405D02*
G03I-355J0D01*
G01X377660Y-111855D02*
G03I-354J0D01*
G01X378830Y-108665D02*
G03I-355J0D01*
G01Y-108625D02*
G03I-355J0D01*
G01X378890Y-109245D02*
G03I-355J0D01*
G01X378920Y-109325D02*
G03I-355J0D01*
G01X378240Y-112125D02*
G03I-355J0D01*
G01X378190Y-112105D02*
G03I-355J0D01*
G01X379080Y-109805D02*
G03I-355J0D01*
G01X379380Y-110315D02*
G03I-355J0D01*
G01X379850Y-110685D02*
G03I-355J0D01*
G01X379210Y-110015D02*
G03I-354J0D01*
G01X379910Y-110715D02*
G03I-354J0D01*
G01X379110Y-112385D02*
G03I-354J0D01*
G01X363000Y-117045D02*
G03I-355J0D01*
G01X366010Y-117215D02*
G03I-354J0D01*
G01X365830Y-117345D02*
G03I-355J0D01*
G01X365670Y-117505D02*
G03I-355J0D01*
G01X365370Y-118335D02*
G03I-355J0D01*
G01X365540Y-117685D02*
G03I-355J0D01*
G01X365450Y-117895D02*
G03I-355J0D01*
G01X365390Y-118115D02*
G03I-355J0D01*
G01X365370Y-118335D02*
G03I-355J0D01*
G01X366660Y-117045D02*
G03I-354J0D01*
G01X366440Y-117065D02*
G03I-355J0D01*
G01X366220Y-117125D02*
G03I-355J0D01*
G01X368440Y-117045D02*
G03I-355J0D01*
G01X370800D02*
G03I-355J0D01*
G01X373630D02*
G03I-355J0D01*
G01X374110D02*
G03I-354J0D01*
G01X376770Y-117505D02*
G03I-355J0D01*
G01X376930Y-117345D02*
G03I-355J0D01*
G01X377120Y-117215D02*
G03I-355J0D01*
G01X376470Y-118345D02*
G03I-355J0D01*
G01X376490Y-118115D02*
G03I-355J0D01*
G01X376550Y-117905D02*
G03I-355J0D01*
G01X376640Y-117695D02*
G03I-355J0D01*
G01X377330Y-117125D02*
G03I-355J0D01*
G01X377540Y-117065D02*
G03I-355J0D01*
G01X377770Y-117045D02*
G03I-355J0D01*
G01X378510D02*
G03I-354J0D01*
G01X378730Y-117065D02*
G03I-355J0D01*
G01X378940Y-117125D02*
G03I-355J0D01*
G01X379140Y-117215D02*
G03I-355J0D01*
G01X379330Y-117345D02*
G03I-355J0D01*
G01X379480Y-117495D02*
G03I-355J0D01*
G01X379610Y-117675D02*
G03I-354J0D01*
G01X379700Y-117885D02*
G03I-355J0D01*
G01X379760Y-118095D02*
G03I-354J0D01*
G01X379780Y-118315D02*
G03I-355J0D01*
G01X380380Y-110945D02*
G03I-355J0D01*
G01X380950Y-111105D02*
G03I-355J0D01*
G01X380010Y-112525D02*
G03I-354J0D01*
G01X380920Y-112555D02*
G03I-355J0D01*
G01X360800Y-120275D02*
G03I-355J0D01*
G01X361020Y-120335D02*
G03I-355J0D01*
G01X361250Y-120355D02*
G03I-355J0D01*
G01X361770D02*
G03I-355J0D01*
G01X361990Y-120335D02*
G03I-355J0D01*
G01X362190Y-120285D02*
G03I-355J0D01*
G01X362390Y-120185D02*
G03I-355J0D01*
G01X362570Y-120065D02*
G03I-355J0D01*
G01X362720Y-119915D02*
G03I-355J0D01*
G01X362990Y-119335D02*
G03I-355J0D01*
G01X363010Y-119115D02*
G03I-354J0D01*
G01X363000D02*
G03I-355J0D01*
G01X362840Y-119735D02*
G03I-355J0D01*
G01X362940Y-119535D02*
G03I-355J0D01*
G01X365370Y-119045D02*
G03I-355J0D01*
G01X365390Y-119245D02*
G03I-355J0D01*
G01X365430Y-119445D02*
G03I-355J0D01*
G01X365510Y-119635D02*
G03I-354J0D01*
G01X365620Y-119815D02*
G03I-355J0D01*
G01X365750Y-119975D02*
G03I-355J0D01*
G01X365910Y-120105D02*
G03I-354J0D01*
G01X366090Y-120215D02*
G03I-355J0D01*
G01X366280Y-120295D02*
G03I-355J0D01*
G01X366480Y-120335D02*
G03I-355J0D01*
G01X366680Y-120355D02*
G03I-355J0D01*
G01X368440D02*
G03I-355J0D01*
G01X370800D02*
G03I-355J0D01*
G01X371350D02*
G03I-355J0D01*
G01X374110D02*
G03I-354J0D01*
G01X376470Y-119035D02*
G03I-355J0D01*
G01X376530Y-119445D02*
G03I-355J0D01*
G01X376490Y-119245D02*
G03I-355J0D01*
G01X376470Y-119035D02*
G03I-355J0D01*
G01X377190Y-120215D02*
G03I-355J0D01*
G01X377010Y-120105D02*
G03I-354J0D01*
G01X376860Y-119965D02*
G03I-354J0D01*
G01X376720Y-119815D02*
G03I-355J0D01*
G01X376610Y-119635D02*
G03I-354J0D01*
G01X377790Y-120355D02*
G03I-355J0D01*
G01X377580Y-120335D02*
G03I-355J0D01*
G01X377380Y-120295D02*
G03I-355J0D01*
G01X378930Y-120275D02*
G03I-355J0D01*
G01X378710Y-120335D02*
G03I-354J0D01*
G01X378490Y-120355D02*
G03I-355J0D01*
G01X379780Y-119065D02*
G03I-355J0D01*
G01X379760Y-119285D02*
G03I-354J0D01*
G01X379700Y-119505D02*
G03I-355J0D01*
G01X379610Y-119705D02*
G03I-354J0D01*
G01X379480Y-119895D02*
G03I-355J0D01*
G01X379320Y-120055D02*
G03I-355J0D01*
G01X379140Y-120185D02*
G03I-355J0D01*
G01X362290Y-104775D02*
G03I-355J0D01*
G01X362450Y-104895D02*
G03I-355J0D01*
G01X362640Y-104975D02*
G03I-355J0D01*
G01X362680Y-106685D02*
G03I-355J0D01*
G01X362470Y-106765D02*
G03I-355J0D01*
G01X362300Y-106895D02*
G03I-355J0D01*
G01X362170Y-107065D02*
G03I-355J0D01*
G01X362090Y-107265D02*
G03I-355J0D01*
G01X362060Y-107485D02*
G03I-354J0D01*
G01X362100Y-107245D02*
G03I-355J0D01*
G01X362060Y-107935D02*
G03I-354J0D01*
G01X362840Y-104995D02*
G03I-355J0D01*
G01X362890Y-106655D02*
G03I-355J0D01*
G01X368340Y-104995D02*
G03I-355J0D01*
G01X368550Y-104975D02*
G03I-355J0D01*
G01X368740Y-104895D02*
G03I-355J0D01*
G01X368760Y-106755D02*
G03I-354J0D01*
G01X368570Y-106675D02*
G03I-355J0D01*
G01X368370Y-106655D02*
G03I-355J0D01*
G01X368910Y-104765D02*
G03I-354J0D01*
G01X369120Y-107235D02*
G03I-355J0D01*
G01X369040Y-107045D02*
G03I-355J0D01*
G01X368920Y-106885D02*
G03I-355J0D01*
G01X369120Y-107245D02*
G03I-355J0D01*
G01X369150Y-107435D02*
G03I-355J0D01*
G01Y-107935D02*
G03I-355J0D01*
G01X372450Y-105155D02*
G03I-355J0D01*
G01Y-106545D02*
G03I-355J0D01*
G01Y-105855D02*
G03I-355J0D01*
G01Y-107245D02*
G03I-355J0D01*
G01Y-107935D02*
G03I-355J0D01*
G01X375760Y-105155D02*
G03I-354J0D01*
G01Y-106545D02*
G03I-354J0D01*
G01Y-105855D02*
G03I-354J0D01*
G01Y-107245D02*
G03I-354J0D01*
G01Y-107935D02*
G03I-354J0D01*
G01X378830Y-105155D02*
G03I-355J0D01*
G01Y-105855D02*
G03I-355J0D01*
G01Y-107245D02*
G03I-355J0D01*
G01Y-106545D02*
G03I-355J0D01*
G01Y-107935D02*
G03I-355J0D01*
G01X362060Y-99805D02*
G03I-354J0D01*
G01Y-100305D02*
G03I-354J0D01*
G01Y-100995D02*
G03I-354J0D01*
G01Y-101685D02*
G03I-354J0D01*
G01Y-103075D02*
G03I-354J0D01*
G01Y-102385D02*
G03I-354J0D01*
G01Y-103775D02*
G03I-354J0D01*
G01Y-104215D02*
G03I-354J0D01*
G01X362090Y-104415D02*
G03I-355J0D01*
G01X362170Y-104605D02*
G03I-355J0D01*
G01X362110Y-104465D02*
G03I-354J0D01*
G01X369150Y-100305D02*
G03I-355J0D01*
G01Y-99805D02*
G03I-355J0D01*
G01D02*
G03I-355J0D01*
G01Y-100995D02*
G03I-355J0D01*
G01Y-101685D02*
G03I-355J0D01*
G01Y-102385D02*
G03I-355J0D01*
G01Y-103075D02*
G03I-355J0D01*
G01Y-103775D02*
G03I-355J0D01*
G01X369040Y-104595D02*
G03I-355J0D01*
G01X369120Y-104405D02*
G03I-355J0D01*
G01X369150Y-104195D02*
G03I-355J0D01*
G01X369090Y-104465D02*
G03I-355J0D01*
G01X372450Y-100305D02*
G03I-355J0D01*
G01Y-99805D02*
G03I-355J0D01*
G01Y-100995D02*
G03I-355J0D01*
G01Y-101685D02*
G03I-355J0D01*
G01Y-102385D02*
G03I-355J0D01*
G01Y-103075D02*
G03I-355J0D01*
G01Y-103775D02*
G03I-355J0D01*
G01Y-104465D02*
G03I-355J0D01*
G01X376250Y-101315D02*
G03I-355J0D01*
G01X375970Y-101835D02*
G03I-355J0D01*
G01X376050Y-101685D02*
G03I-355J0D01*
G01X375760Y-102995D02*
G03I-354J0D01*
G01X375810Y-102405D02*
G03I-354J0D01*
G01X375760Y-103075D02*
G03I-354J0D01*
G01X375810Y-102385D02*
G03I-354J0D01*
G01X375760Y-103775D02*
G03I-354J0D01*
G01Y-104465D02*
G03I-354J0D01*
G01X377150Y-100425D02*
G03I-355J0D01*
G01X376630Y-100865D02*
G03I-355J0D01*
G01X376520Y-100995D02*
G03I-355J0D01*
G01X377730Y-100075D02*
G03I-355J0D01*
G01X377360Y-100305D02*
G03I-354J0D01*
G01X378930Y-99605D02*
G03I-355J0D01*
G01X378360Y-99805D02*
G03I-354J0D01*
G01X379010Y-102125D02*
G03I-354J0D01*
G01X378870Y-102545D02*
G03I-355J0D01*
G01X378830Y-102995D02*
G03I-355J0D01*
G01Y-103075D02*
G03I-355J0D01*
G01X378920Y-102385D02*
G03I-355J0D01*
G01X378830Y-103775D02*
G03I-355J0D01*
G01Y-104465D02*
G03I-355J0D01*
G01X379170Y-99525D02*
G03I-355J0D01*
G01X379580Y-101455D02*
G03I-355J0D01*
G01X379250Y-101755D02*
G03I-355J0D01*
G01X379330Y-101685D02*
G03I-355J0D01*
G01X380020Y-99365D02*
G03I-355J0D01*
G01X380490Y-100905D02*
G03I-355J0D01*
G01X380010Y-101135D02*
G03I-354J0D01*
G01X380300Y-100995D02*
G03I-355J0D01*
G01X380880Y-99335D02*
G03I-355J0D01*
G01X381010Y-100775D02*
G03I-354J0D01*
G01X387050Y-111835D02*
G03I-355J0D01*
G01X388350Y-110795D02*
G03I-355J0D01*
G01X388400Y-110715D02*
G03I-355J0D01*
G01X388040Y-111165D02*
G03I-355J0D01*
G01X387650Y-111455D02*
G03I-355J0D01*
G01X387720Y-111405D02*
G03I-355J0D01*
G01X388750Y-108625D02*
G03I-355J0D01*
G01Y-109405D02*
G03I-355J0D01*
G01X388720Y-109895D02*
G03I-355J0D01*
G01X388750Y-109325D02*
G03I-355J0D01*
G01X388580Y-110365D02*
G03I-355J0D01*
G01X388680Y-110015D02*
G03I-355J0D01*
G01X391450Y-112105D02*
G03I-355J0D01*
G01X392090Y-111405D02*
G03I-355J0D01*
G01X393350Y-110015D02*
G03I-355J0D01*
G01X392720Y-110715D02*
G03I-355J0D01*
G01X393980Y-109325D02*
G03I-355J0D01*
G01X394620Y-108625D02*
G03I-355J0D01*
G01X395090Y-112105D02*
G03I-355J0D01*
G01X395680Y-111405D02*
G03I-355J0D01*
G01X396870Y-110015D02*
G03I-355J0D01*
G01X396280Y-110715D02*
G03I-355J0D01*
G01X397470Y-109325D02*
G03I-355J0D01*
G01X391040Y-112555D02*
G03I-355J0D01*
G01X394700D02*
G03I-355J0D01*
G01X401270Y-108625D02*
G03I-355J0D01*
G01Y-110015D02*
G03I-355J0D01*
G01Y-109325D02*
G03I-355J0D01*
G01Y-110715D02*
G03I-355J0D01*
G01Y-111405D02*
G03I-355J0D01*
G01Y-112105D02*
G03I-355J0D01*
G01X398060Y-108625D02*
G03I-354J0D01*
G01X401270Y-112555D02*
G03I-355J0D01*
G01X387340Y-117045D02*
G03I-355J0D01*
G01X389930D02*
G03I-355J0D01*
G01X390450D02*
G03I-355J0D01*
G01X393400D02*
G03I-355J0D01*
G01X393950D02*
G03I-355J0D01*
G01X396310D02*
G03I-354J0D01*
G01X398510Y-117125D02*
G03I-354J0D01*
G01X398690Y-117215D02*
G03I-355J0D01*
G01X398840Y-117345D02*
G03I-355J0D01*
G01X398970Y-117495D02*
G03I-355J0D01*
G01X399060Y-117675D02*
G03I-354J0D01*
G01X399120Y-117865D02*
G03I-355J0D01*
G01X399140Y-118065D02*
G03I-355J0D01*
G01X399150D02*
G03I-355J0D01*
G01X401270Y-117045D02*
G03I-355J0D01*
G01X398120D02*
G03I-355J0D01*
G01X398320Y-117065D02*
G03I-355J0D01*
G01X387340Y-120355D02*
G03I-355J0D01*
G01X389930D02*
G03I-355J0D01*
G01X391860D02*
G03I-354J0D01*
G01X393950D02*
G03I-355J0D01*
G01X396310Y-118705D02*
G03I-354J0D01*
G01Y-120355D02*
G03I-354J0D01*
G01X398610Y-120215D02*
G03I-354J0D01*
G01X399140Y-119295D02*
G03I-355J0D01*
G01X399150D02*
G03I-355J0D01*
G01Y-118705D02*
G03I-355J0D01*
G01D02*
G03I-355J0D01*
G01X398760Y-120105D02*
G03I-354J0D01*
G01X398890Y-119975D02*
G03I-355J0D01*
G01X399000Y-119825D02*
G03I-355J0D01*
G01X399080Y-119655D02*
G03I-355J0D01*
G01X399120Y-119475D02*
G03I-355J0D01*
G01X401910Y-118715D02*
G03I-354J0D01*
G01X401760Y-118755D02*
G03I-354J0D01*
G01X401630Y-118825D02*
G03I-355J0D01*
G01X401500Y-118925D02*
G03I-355J0D01*
G01X401400Y-119055D02*
G03I-355J0D01*
G01X401330Y-119185D02*
G03I-355J0D01*
G01X401290Y-119335D02*
G03I-355J0D01*
G01X401270Y-119495D02*
G03I-355J0D01*
G01X401290Y-119665D02*
G03I-355J0D01*
G01X401340Y-119825D02*
G03I-355J0D01*
G01X401410Y-119975D02*
G03I-354J0D01*
G01X401520Y-120105D02*
G03I-355J0D01*
G01X401650Y-120215D02*
G03I-355J0D01*
G01X401800Y-120285D02*
G03I-355J0D01*
G01X401960Y-120335D02*
G03I-354J0D01*
G01X402070Y-118705D02*
G03I-355J0D01*
G01Y-118695D02*
G03I-355J0D01*
G01X402130Y-120355D02*
G03I-355J0D01*
G01X398080D02*
G03I-355J0D01*
G01X398260Y-120335D02*
G03I-354J0D01*
G01X398440Y-120295D02*
G03I-355J0D01*
G01X381550Y-111145D02*
G03I-355J0D01*
G01X383160D02*
G03I-354J0D01*
G01X383640Y-111095D02*
G03I-355J0D01*
G01X384110Y-110945D02*
G03I-354J0D01*
G01X384530Y-110715D02*
G03I-355J0D01*
G01X384890Y-110395D02*
G03I-355J0D01*
G01X384520Y-110715D02*
G03I-355J0D01*
G01X385680Y-108665D02*
G03I-355J0D01*
G01Y-108625D02*
G03I-355J0D01*
G01X385500Y-109625D02*
G03I-355J0D01*
G01X385650Y-109155D02*
G03I-355J0D01*
G01X385590Y-109325D02*
G03I-355J0D01*
G01X385240Y-110045D02*
G03I-355J0D01*
G01X385260Y-110015D02*
G03I-354J0D01*
G01X386400Y-112125D02*
G03I-355J0D01*
G01X386460Y-112105D02*
G03I-354J0D01*
G01X383670Y-112555D02*
G03I-355J0D01*
G01X384700Y-112495D02*
G03I-355J0D01*
G01X385720Y-112325D02*
G03I-355J0D01*
G01X381900Y-117045D02*
G03I-355J0D01*
G01X384070Y-117125D02*
G03I-355J0D01*
G01X383860Y-117065D02*
G03I-354J0D01*
G01X383650Y-117045D02*
G03I-355J0D01*
G01X384560Y-117525D02*
G03I-354J0D01*
G01X384420Y-117365D02*
G03I-355J0D01*
G01X384260Y-117225D02*
G03I-354J0D01*
G01X384740Y-118135D02*
G03I-355J0D01*
G01X384720Y-117925D02*
G03I-355J0D01*
G01X384660Y-117715D02*
G03I-354J0D01*
G01X381900Y-120355D02*
G03I-355J0D01*
G01X383650D02*
G03I-355J0D01*
G01X383840Y-120335D02*
G03I-355J0D01*
G01X384020Y-120285D02*
G03I-355J0D01*
G01X384740Y-119265D02*
G03I-355J0D01*
G01X384200Y-120205D02*
G03I-355J0D01*
G01X384350Y-120095D02*
G03I-355J0D01*
G01X384480Y-119965D02*
G03I-355J0D01*
G01X384590Y-119805D02*
G03I-355J0D01*
G01X384670Y-119635D02*
G03I-355J0D01*
G01X384720Y-119455D02*
G03I-355J0D01*
G01X388750Y-105475D02*
G03I-355J0D01*
G01D02*
G03I-355J0D01*
G01D02*
G03I-355J0D01*
G01Y-105155D02*
G03I-355J0D01*
G01Y-105855D02*
G03I-355J0D01*
G01Y-106545D02*
G03I-355J0D01*
G01Y-107245D02*
G03I-355J0D01*
G01Y-107935D02*
G03I-355J0D01*
G01X391860Y-104885D02*
G03I-354J0D01*
G01X391980Y-105345D02*
G03I-355J0D01*
G01X391930Y-105155D02*
G03I-355J0D01*
G01X392200Y-105765D02*
G03I-355J0D01*
G01X392490Y-106145D02*
G03I-355J0D01*
G01X392260Y-105855D02*
G03I-354J0D01*
G01X392850Y-106455D02*
G03I-355J0D01*
G01X393450Y-106795D02*
G03I-355J0D01*
G01X393010Y-106545D02*
G03I-354J0D01*
G01X394110Y-107035D02*
G03I-354J0D01*
G01X395060Y-104715D02*
G03I-354J0D01*
G01X394790Y-107155D02*
G03I-355J0D01*
G01X395710Y-105485D02*
G03I-354J0D01*
G01X395250Y-105115D02*
G03I-355J0D01*
G01X395300Y-105155D02*
G03I-355J0D01*
G01X395490Y-107165D02*
G03I-355J0D01*
G01Y-107245D02*
G03I-355J0D01*
G01Y-107675D02*
G03I-355J0D01*
G01X395250Y-107935D02*
G03I-355J0D01*
G01X396790Y-105905D02*
G03I-355J0D01*
G01X396230Y-105755D02*
G03I-355J0D01*
G01X396600Y-105855D02*
G03I-355J0D01*
G01X397370Y-105945D02*
G03I-355J0D01*
G01X399150D02*
G03I-355J0D01*
G01Y-107365D02*
G03I-355J0D01*
G01Y-106545D02*
G03I-355J0D01*
G01Y-107245D02*
G03I-355J0D01*
G01X398660Y-107935D02*
G03I-354J0D01*
G01X401270Y-105155D02*
G03I-355J0D01*
G01Y-106545D02*
G03I-355J0D01*
G01Y-105855D02*
G03I-355J0D01*
G01Y-107245D02*
G03I-355J0D01*
G01Y-107935D02*
G03I-355J0D01*
G01X387060Y-100155D02*
G03I-354J0D01*
G01X387240Y-100305D02*
G03I-355J0D01*
G01X387690Y-100665D02*
G03I-355J0D01*
G01X388060Y-100975D02*
G03I-354J0D01*
G01X388350Y-101355D02*
G03I-355J0D01*
G01X388070Y-100995D02*
G03I-355J0D01*
G01X388580Y-101775D02*
G03I-355J0D01*
G01X388710Y-102235D02*
G03I-354J0D01*
G01X388580Y-101775D02*
G03I-355J0D01*
G01X388530Y-101685D02*
G03I-355J0D01*
G01X388750Y-102715D02*
G03I-355J0D01*
G01X388720Y-102385D02*
G03I-355J0D01*
G01X388750Y-103075D02*
G03I-355J0D01*
G01Y-103775D02*
G03I-355J0D01*
G01Y-104465D02*
G03I-355J0D01*
G01X392300Y-100985D02*
G03I-355J0D01*
G01X392080Y-101295D02*
G03I-355J0D01*
G01X392290Y-100995D02*
G03I-355J0D01*
G01X391930Y-101645D02*
G03I-355J0D01*
G01X391840Y-102025D02*
G03I-355J0D01*
G01X391820Y-102405D02*
G03I-355J0D01*
G01X391920Y-101685D02*
G03I-355J0D01*
G01X391820Y-102385D02*
G03I-355J0D01*
G01Y-103075D02*
G03I-355J0D01*
G01Y-103775D02*
G03I-355J0D01*
G01Y-104405D02*
G03I-355J0D01*
G01X391830Y-104465D02*
G03I-355J0D01*
G01X393200Y-100105D02*
G03I-355J0D01*
G01X392710Y-100505D02*
G03I-354J0D01*
G01X392960Y-100305D02*
G03I-354J0D01*
G01X393750Y-99805D02*
G03I-355J0D01*
G01X394670Y-99605D02*
G03I-355J0D01*
G01X395100Y-101905D02*
G03I-355J0D01*
G01X394890Y-102755D02*
G03I-355J0D01*
G01X394950Y-102315D02*
G03I-355J0D01*
G01X394940Y-102385D02*
G03I-355J0D01*
G01X394890Y-103075D02*
G03I-355J0D01*
G01Y-103855D02*
G03I-355J0D01*
G01Y-103775D02*
G03I-355J0D01*
G01X394940Y-104295D02*
G03I-355J0D01*
G01X394990Y-104465D02*
G03I-355J0D01*
G01X395390Y-99455D02*
G03I-355J0D01*
G01X395640Y-101225D02*
G03I-355J0D01*
G01X395230Y-101685D02*
G03I-355J0D01*
G01X395330Y-101535D02*
G03I-355J0D01*
G01X396280Y-100935D02*
G03I-355J0D01*
G01X396150Y-100995D02*
G03I-355J0D01*
G01X397060Y-99335D02*
G03I-354J0D01*
G01X396960Y-100775D02*
G03I-354J0D01*
G01X397650Y-100745D02*
G03I-355J0D01*
G01X400090Y-99335D02*
G03I-355J0D01*
G01X400500Y-100745D02*
G03I-355J0D01*
G01X400700Y-100775D02*
G03I-355J0D01*
G01X400880Y-100855D02*
G03I-355J0D01*
G01X401050Y-100975D02*
G03I-355J0D01*
G01X401170Y-101135D02*
G03I-355J0D01*
G01X401060Y-100995D02*
G03I-354J0D01*
G01X401250Y-101325D02*
G03I-355J0D01*
G01X401270Y-101525D02*
G03I-355J0D01*
G01Y-102385D02*
G03I-355J0D01*
G01Y-101685D02*
G03I-355J0D01*
G01Y-103075D02*
G03I-355J0D01*
G01Y-103775D02*
G03I-355J0D01*
G01Y-104465D02*
G03I-355J0D01*
G01X402340Y-99475D02*
G03I-355J0D01*
G01X385680Y-105475D02*
G03I-355J0D01*
G01D02*
G03I-355J0D01*
G01D02*
G03I-355J0D01*
G01Y-105155D02*
G03I-355J0D01*
G01Y-105855D02*
G03I-355J0D01*
G01Y-106545D02*
G03I-355J0D01*
G01Y-107245D02*
G03I-355J0D01*
G01Y-107935D02*
G03I-355J0D01*
G01X381550Y-100745D02*
G03I-355J0D01*
G01X383000D02*
G03I-355J0D01*
G01X383990Y-99335D02*
G03I-355J0D01*
G01X384120Y-100935D02*
G03I-355J0D01*
G01X383570Y-100785D02*
G03I-355J0D01*
G01X384790Y-99365D02*
G03I-355J0D01*
G01X384620Y-101205D02*
G03I-355J0D01*
G01X384220Y-100995D02*
G03I-355J0D01*
G01X385590Y-99505D02*
G03I-355J0D01*
G01X385050Y-101575D02*
G03I-355J0D01*
G01D02*
G03I-355J0D01*
G01X385150Y-101685D02*
G03I-355J0D01*
G01X385520Y-102235D02*
G03I-355J0D01*
G01X385320Y-101885D02*
G03I-355J0D01*
G01X385680Y-103035D02*
G03I-355J0D01*
G01X385640Y-102625D02*
G03I-355J0D01*
G01X385570Y-102385D02*
G03I-355J0D01*
G01X385680Y-103075D02*
G03I-355J0D01*
G01Y-103775D02*
G03I-355J0D01*
G01Y-104465D02*
G03I-355J0D01*
G01X385880Y-99605D02*
G03I-355J0D01*
G01X386350Y-99765D02*
G03I-355J0D01*
G01X404580Y-108625D02*
G03I-355J0D01*
G01Y-109325D02*
G03I-355J0D01*
G01Y-110715D02*
G03I-355J0D01*
G01Y-110015D02*
G03I-355J0D01*
G01Y-111405D02*
G03I-355J0D01*
G01Y-112105D02*
G03I-355J0D01*
G01Y-112555D02*
G03I-355J0D01*
G01X403820Y-117045D02*
G03I-355J0D01*
G01X403990Y-117065D02*
G03I-355J0D01*
G01X404150Y-117125D02*
G03I-355J0D01*
G01X404290Y-117215D02*
G03I-355J0D01*
G01X404410Y-117335D02*
G03I-354J0D01*
G01X404500Y-117475D02*
G03I-355J0D01*
G01X404560Y-117635D02*
G03I-354J0D01*
G01X404580Y-117805D02*
G03I-355J0D01*
G01X404560Y-117975D02*
G03I-354J0D01*
G01X404510Y-118145D02*
G03I-354J0D01*
G01X404430Y-118295D02*
G03I-355J0D01*
G01X403690Y-118695D02*
G03I-355J0D01*
G01Y-118705D02*
G03I-355J0D01*
G01X404320Y-118435D02*
G03I-355J0D01*
G01X404180Y-118545D02*
G03I-355J0D01*
G01X404030Y-118625D02*
G03I-355J0D01*
G01X403860Y-118675D02*
G03I-354J0D01*
G01X404580Y-120355D02*
G03I-355J0D01*
G01Y-105155D02*
G03I-355J0D01*
G01Y-105855D02*
G03I-355J0D01*
G01Y-107245D02*
G03I-355J0D01*
G01Y-106545D02*
G03I-355J0D01*
G01Y-107935D02*
G03I-355J0D01*
G01X403240Y-99605D02*
G03I-355J0D01*
G01X404580Y-99805D02*
G03I-355J0D01*
G01D02*
G03I-355J0D01*
G01Y-100305D02*
G03I-355J0D01*
G01Y-100995D02*
G03I-355J0D01*
G01Y-101685D02*
G03I-355J0D01*
G01Y-103075D02*
G03I-355J0D01*
G01Y-102385D02*
G03I-355J0D01*
G01Y-103775D02*
G03I-355J0D01*
G01Y-104465D02*
G03I-355J0D01*
M02*
