G04 ================== begin FILE IDENTIFICATION RECORD ==================*
G04 Layout Name:  BD9C601EFJEVK-101_EVAL_BRD_REV01_20140106.brd*
G04 Film Name:    TOP*
G04 File Format:  Gerber RS274X*
G04 File Origin:  Cadence Allegro 16.3-S048*
G04 Origin Date:  Mon Jan 06 13:53:18 2014*
G04 *
G04 Layer:  VIA CLASS/TOP*
G04 Layer:  PIN/TOP*
G04 Layer:  ETCH/TOP*
G04 Layer:  DRAWING FORMAT/TOP*
G04 Layer:  BOARD GEOMETRY/OUTLINE*
G04 Layer:  BOARD GEOMETRY/LOGO*
G04 *
G04 Offset:    (0.000 0.000)*
G04 Mirror:    No*
G04 Mode:      Positive*
G04 Rotation:  0*
G04 FullContactRelief:  No*
G04 UndefLineWidth:     5.000*
G04 ================== end FILE IDENTIFICATION RECORD ====================*
%FSLAX55Y55*MOIN*%
%IR0*IPPOS*OFA0.00000B0.00000*MIA0B0*SFA1.00000B1.00000*%
%ADD24R,.18X.06*%
%ADD25R,.073X.134*%
%ADD23R,.063X.119*%
%ADD10C,.25*%
%ADD20R,.096X.126*%
%ADD22R,.237X.237*%
%ADD18R,.03X.032*%
%ADD17R,.06X.05*%
%ADD21R,.06X.025*%
%ADD26R,.05X.045*%
%ADD19R,.028X.032*%
%ADD15R,.07X.082*%
%ADD11C,.04*%
%ADD16C,.06*%
%ADD12C,.024*%
%ADD13C,.093*%
%ADD14R,.06X.06*%
%ADD27C,.007098*%
%ADD28C,.02*%
%ADD29C,.015*%
%ADD30C,.005*%
%ADD31C,.266004*%
%ADD33C,.080006*%
%ADD32C,.076004*%
G75*
%LPD*%
G75*
G36*
G01X255500Y255500D02*
Y-15000D01*
X-15000D01*
Y255500D01*
X255500D01*
G37*
%LPC*%
G75*
G36*
G01X252000Y82000D02*
X244500Y74500D01*
X197000D01*
X195500Y76000D01*
Y84500D01*
X193500Y86500D01*
X177500D01*
X167000Y76000D01*
X139500D01*
X131000Y84500D01*
Y114000D01*
X130000Y115000D01*
X125658D01*
G03X125375Y114317I0J-400D01*
G01X125550Y114142D01*
Y107900D01*
X126200D01*
Y104500D01*
X126500D01*
Y84500D01*
X126000Y84000D01*
X121500D01*
X114500Y91000D01*
X104000D01*
X91000Y104000D01*
Y115000D01*
X90000Y116000D01*
X83500D01*
X74500Y107000D01*
Y94500D01*
X69500Y89500D01*
X-5500D01*
X-10000Y94000D01*
Y120500D01*
X6500Y137000D01*
X88000D01*
X90500Y134500D01*
X95000D01*
X97500Y132000D01*
X103500D01*
X105000Y130500D01*
Y108300D01*
X106300D01*
Y107255D01*
X108005D01*
Y108105D01*
X112405D01*
Y107255D01*
X113005D01*
Y108105D01*
X117405D01*
Y104500D01*
X121800D01*
Y107900D01*
X122450D01*
Y112858D01*
X120950Y114358D01*
Y115000D01*
X119000D01*
X117500Y116500D01*
Y158000D01*
X129500Y170000D01*
X168000D01*
X179000Y159000D01*
Y143000D01*
X182000Y140000D01*
Y125000D01*
X186500Y120500D01*
Y116000D01*
X189000Y113500D01*
X207500D01*
X209500Y115500D01*
Y122500D01*
X213000Y126000D01*
X247500D01*
X252000Y121500D01*
Y82000D01*
G37*
G54D31*
X240000Y240000D03*
Y0D03*
X0Y240000D03*
Y0D03*
G54D33*
X246295Y221295D03*
X247795Y18295D03*
X-7705Y19795D03*
G54D32*
X79000Y100500D03*
%LPD*%
G75*
G36*
G01X94500Y132500D02*
X96600Y130400D01*
X103300D01*
X104000Y129700D01*
Y126000D01*
X102600Y124600D01*
X94600D01*
X87500Y117500D01*
X82500D01*
X72500Y107500D01*
Y96000D01*
X68500Y92000D01*
X-5500D01*
X-8000Y94500D01*
Y119500D01*
X7500Y135000D01*
X87500D01*
X90000Y132500D01*
X94500D01*
G37*
G36*
G01X158500Y125000D02*
X130000D01*
X128500Y126500D01*
X120000D01*
Y156500D01*
X130000Y166500D01*
X166500D01*
X176500Y156500D01*
Y141000D01*
X179000Y138500D01*
Y126000D01*
X159500D01*
X158500Y125000D01*
G37*
G36*
G01X184000Y118500D02*
Y112500D01*
Y107000D01*
X190500D01*
Y106000D01*
Y94000D01*
X184000D01*
X183000Y93000D01*
Y90000D01*
X181500Y88500D01*
X176500D01*
X175500D01*
X165500Y78500D01*
X141000D01*
X134000Y85500D01*
Y115500D01*
X134500Y116000D01*
X157500D01*
X158500Y117000D01*
Y120000D01*
X161000Y122500D01*
X165000D01*
X180000D01*
X184000Y118500D01*
G37*
G36*
G01X244000Y77000D02*
X198000D01*
Y85000D01*
X199500Y86500D01*
X211000D01*
X212500Y88000D01*
Y94000D01*
X205500D01*
Y107000D01*
X212500D01*
Y120000D01*
X216000Y123500D01*
X246000D01*
X249500Y120000D01*
Y82500D01*
X244000Y77000D01*
G37*
G54D10*
X0Y0D03*
Y240000D03*
X240000Y0D03*
Y240000D03*
G54D11*
X-7705Y19795D03*
X36000Y84000D03*
Y99000D03*
Y144000D03*
Y129000D03*
Y174000D03*
X66000Y74000D03*
X56000Y144000D03*
X66000Y174000D03*
X84500Y114000D03*
X70000Y119500D03*
X95500Y74000D03*
X106000Y86000D03*
X96500Y144000D03*
X91000Y124500D03*
X105500Y174000D03*
X126000Y64000D03*
X111500Y144000D03*
X166000Y64000D03*
Y82000D03*
X170500Y144000D03*
X185500D03*
X175500Y194000D03*
X205500Y44000D03*
X215500Y134000D03*
Y174000D03*
X226000Y54000D03*
X236000Y44000D03*
X232000Y86000D03*
X222000Y85500D03*
X222500Y117500D03*
X247795Y18295D03*
X237000Y63500D03*
X246295Y221295D03*
G54D20*
X111500Y125000D03*
G54D30*
G01X-101700Y-144950D02*
Y-69950D01*
X443300D01*
Y-144950D01*
X-101700D01*
G01X-45400Y-114055D02*
G03I-355J0D01*
G01X-41740D02*
G03I-355J0D01*
G01X-55280D02*
G03I-355J0D01*
G01X-51970D02*
G03I-355J0D01*
G01X-48760Y-110125D02*
G03I-355J0D01*
G01X-48170Y-110825D02*
G03I-355J0D01*
G01X-46980Y-112215D02*
G03I-355J0D01*
G01X-47570Y-111515D02*
G03I-355J0D01*
G01X-46380Y-112905D02*
G03I-355J0D01*
G01X-45950Y-109435D02*
G03I-355J0D01*
G01X-46190Y-109175D02*
G03I-355J0D01*
G01Y-108745D02*
G03I-355J0D01*
G01Y-108665D02*
G03I-355J0D01*
G01X-45790Y-113605D02*
G03I-355J0D01*
G01X-45320Y-110125D02*
G03I-355J0D01*
G01X-45490Y-108655D02*
G03I-355J0D01*
G01X-44680Y-110825D02*
G03I-355J0D01*
G01X-44810Y-108535D02*
G03I-355J0D01*
G01X-43420Y-112215D02*
G03I-355J0D01*
G01X-44050Y-111515D02*
G03I-355J0D01*
G01X-43710Y-108045D02*
G03I-355J0D01*
G01X-44150Y-108295D02*
G03I-355J0D01*
G01X-42790Y-112905D02*
G03I-355J0D01*
G01X-42150Y-113605D02*
G03I-355J0D01*
G01X-39380Y-111515D02*
G03I-355J0D01*
G01X-39280Y-111865D02*
G03I-355J0D01*
G01X-39450Y-110825D02*
G03I-355J0D01*
G01X-39420Y-111395D02*
G03I-355J0D01*
G01X-39450Y-110905D02*
G03I-355J0D01*
G01Y-110125D02*
G03I-355J0D01*
G01Y-109435D02*
G03I-355J0D01*
G01Y-108745D02*
G03I-355J0D01*
G01Y-108045D02*
G03I-355J0D01*
G01X-38420Y-112905D02*
G03I-355J0D01*
G01X-38350Y-112955D02*
G03I-355J0D01*
G01X-38740Y-112665D02*
G03I-355J0D01*
G01X-39100Y-112215D02*
G03I-355J0D01*
G01X-39050Y-112295D02*
G03I-355J0D01*
G01X-37750Y-113335D02*
G03I-355J0D01*
G01X-37160Y-113605D02*
G03I-355J0D01*
G01X-37100Y-113625D02*
G03I-355J0D01*
G01X-55280Y-113605D02*
G03I-355J0D01*
G01Y-112905D02*
G03I-355J0D01*
G01Y-111515D02*
G03I-355J0D01*
G01Y-112215D02*
G03I-355J0D01*
G01Y-110825D02*
G03I-355J0D01*
G01Y-110125D02*
G03I-355J0D01*
G01Y-109435D02*
G03I-355J0D01*
G01Y-108045D02*
G03I-355J0D01*
G01Y-108745D02*
G03I-355J0D01*
G01X-51970Y-113605D02*
G03I-355J0D01*
G01Y-112905D02*
G03I-355J0D01*
G01Y-112215D02*
G03I-355J0D01*
G01Y-110825D02*
G03I-355J0D01*
G01Y-111515D02*
G03I-355J0D01*
G01Y-110125D02*
G03I-355J0D01*
G01Y-109435D02*
G03I-355J0D01*
G01Y-108745D02*
G03I-355J0D01*
G01Y-108045D02*
G03I-355J0D01*
G01X-49360Y-109435D02*
G03I-355J0D01*
G01X-49850Y-108745D02*
G03I-355J0D01*
G01Y-108045D02*
G03I-355J0D01*
G01Y-108865D02*
G03I-355J0D01*
G01X-49140Y-121795D02*
G03I-355J0D01*
G01X-48960Y-121835D02*
G03I-355J0D01*
G01X-48780Y-121855D02*
G03I-355J0D01*
G01X-49020Y-118565D02*
G03I-355J0D01*
G01X-48820Y-118545D02*
G03I-355J0D01*
G01X-47010Y-121855D02*
G03I-355J0D01*
G01Y-120205D02*
G03I-355J0D01*
G01Y-118545D02*
G03I-355J0D01*
G01X-44650Y-121855D02*
G03I-355J0D01*
G01Y-118545D02*
G03I-355J0D01*
G01X-44100D02*
G03I-355J0D01*
G01X-42560Y-121855D02*
G03I-355J0D01*
G01X-41150Y-118545D02*
G03I-355J0D01*
G01X-40630Y-121855D02*
G03I-355J0D01*
G01Y-118545D02*
G03I-355J0D01*
G01X-38040Y-121855D02*
G03I-355J0D01*
G01Y-118545D02*
G03I-355J0D01*
G01X-55280Y-121855D02*
G03I-355J0D01*
G01X-54560Y-120175D02*
G03I-355J0D01*
G01X-54730Y-120125D02*
G03I-355J0D01*
G01X-54880Y-120045D02*
G03I-355J0D01*
G01X-55020Y-119935D02*
G03I-355J0D01*
G01X-55130Y-119795D02*
G03I-355J0D01*
G01X-55210Y-119645D02*
G03I-355J0D01*
G01X-55260Y-119475D02*
G03I-355J0D01*
G01X-55280Y-119305D02*
G03I-355J0D01*
G01X-55260Y-119135D02*
G03I-355J0D01*
G01X-55200Y-118975D02*
G03I-355J0D01*
G01X-55110Y-118835D02*
G03I-355J0D01*
G01X-54990Y-118715D02*
G03I-355J0D01*
G01X-54850Y-118625D02*
G03I-355J0D01*
G01X-54690Y-118565D02*
G03I-354J0D01*
G01X-54520Y-118545D02*
G03I-355J0D01*
G01X-54390Y-120205D02*
G03I-354J0D01*
G01Y-120195D02*
G03I-354J0D01*
G01X-52830Y-121855D02*
G03I-355J0D01*
G01X-52770Y-120195D02*
G03I-355J0D01*
G01Y-120205D02*
G03I-355J0D01*
G01X-52660Y-121835D02*
G03I-355J0D01*
G01X-52500Y-121785D02*
G03I-355J0D01*
G01X-52350Y-121715D02*
G03I-355J0D01*
G01X-52220Y-121605D02*
G03I-355J0D01*
G01X-52110Y-121475D02*
G03I-355J0D01*
G01X-52040Y-121325D02*
G03I-355J0D01*
G01X-51990Y-121165D02*
G03I-355J0D01*
G01X-51970Y-120995D02*
G03I-355J0D01*
G01X-51990Y-120835D02*
G03I-355J0D01*
G01X-52030Y-120685D02*
G03I-355J0D01*
G01X-52100Y-120555D02*
G03I-355J0D01*
G01X-52200Y-120425D02*
G03I-355J0D01*
G01X-52330Y-120325D02*
G03I-355J0D01*
G01X-52460Y-120255D02*
G03I-355J0D01*
G01X-52610Y-120215D02*
G03I-355J0D01*
G01X-51970Y-118545D02*
G03I-355J0D01*
G01X-49820Y-120975D02*
G03I-355J0D01*
G01X-49780Y-121155D02*
G03I-355J0D01*
G01X-49700Y-121325D02*
G03I-355J0D01*
G01X-49590Y-121475D02*
G03I-355J0D01*
G01X-49460Y-121605D02*
G03I-355J0D01*
G01X-49850Y-120205D02*
G03I-355J0D01*
G01D02*
G03I-355J0D01*
G01Y-120795D02*
G03I-355J0D01*
G01X-49840D02*
G03I-355J0D01*
G01X-49850Y-119565D02*
G03I-355J0D01*
G01X-49840D02*
G03I-355J0D01*
G01X-49820Y-119365D02*
G03I-355J0D01*
G01X-49760Y-119175D02*
G03I-355J0D01*
G01X-49670Y-118995D02*
G03I-355J0D01*
G01X-49540Y-118845D02*
G03I-355J0D01*
G01X-49390Y-118715D02*
G03I-355J0D01*
G01X-49310Y-121715D02*
G03I-355J0D01*
G01X-49210Y-118625D02*
G03I-355J0D01*
G01X-48070Y-107445D02*
G03I-355J0D01*
G01X-48350Y-102245D02*
G03I-355J0D01*
G01X-47660Y-102275D02*
G03I-355J0D01*
G01X-47760Y-100835D02*
G03I-355J0D01*
G01X-47300Y-107355D02*
G03I-355J0D01*
G01X-46930Y-107255D02*
G03I-355J0D01*
G01X-47490Y-107405D02*
G03I-355J0D01*
G01X-46850Y-102495D02*
G03I-355J0D01*
G01X-46980Y-102435D02*
G03I-355J0D01*
G01X-46000Y-106655D02*
G03I-355J0D01*
G01X-45950Y-106615D02*
G03I-355J0D01*
G01X-46410Y-106985D02*
G03I-355J0D01*
G01X-46030Y-103035D02*
G03I-355J0D01*
G01X-45930Y-103185D02*
G03I-355J0D01*
G01X-46340Y-102725D02*
G03I-355J0D01*
G01X-46090Y-100955D02*
G03I-355J0D01*
G01X-45690Y-105965D02*
G03I-355J0D01*
G01X-45640Y-105795D02*
G03I-355J0D01*
G01X-45760Y-106215D02*
G03I-355J0D01*
G01X-45590Y-105275D02*
G03I-355J0D01*
G01Y-105355D02*
G03I-355J0D01*
G01Y-104575D02*
G03I-355J0D01*
G01X-45640Y-103885D02*
G03I-355J0D01*
G01X-45650Y-103815D02*
G03I-355J0D01*
G01X-45590Y-104255D02*
G03I-355J0D01*
G01X-45800Y-103405D02*
G03I-355J0D01*
G01X-45370Y-101105D02*
G03I-355J0D01*
G01X-44450Y-101305D02*
G03I-355J0D01*
G01X-43550Y-107955D02*
G03I-355J0D01*
G01X-43660Y-101805D02*
G03I-355J0D01*
G01X-43410Y-102005D02*
G03I-355J0D01*
G01X-43900Y-101605D02*
G03I-355J0D01*
G01X-42960Y-107355D02*
G03I-355J0D01*
G01X-43190Y-107645D02*
G03I-355J0D01*
G01X-42900Y-107265D02*
G03I-355J0D01*
G01X-42630Y-106655D02*
G03I-355J0D01*
G01X-42680Y-106845D02*
G03I-355J0D01*
G01X-42530Y-105965D02*
G03I-355J0D01*
G01X-42560Y-106385D02*
G03I-355J0D01*
G01X-42520Y-105905D02*
G03I-355J0D01*
G01Y-105275D02*
G03I-355J0D01*
G01Y-104575D02*
G03I-355J0D01*
G01Y-103885D02*
G03I-355J0D01*
G01X-42620Y-103185D02*
G03I-355J0D01*
G01X-42520Y-103905D02*
G03I-355J0D01*
G01X-42540Y-103525D02*
G03I-355J0D01*
G01X-42630Y-103145D02*
G03I-355J0D01*
G01X-42990Y-102495D02*
G03I-355J0D01*
G01X-42780Y-102795D02*
G03I-355J0D01*
G01X-43000Y-102485D02*
G03I-355J0D01*
G01X-39450Y-107355D02*
G03I-355J0D01*
G01Y-106655D02*
G03I-355J0D01*
G01Y-106975D02*
G03I-355J0D01*
G01D02*
G03I-355J0D01*
G01D02*
G03I-355J0D01*
G01Y-105965D02*
G03I-355J0D01*
G01Y-105275D02*
G03I-355J0D01*
G01Y-104575D02*
G03I-355J0D01*
G01X-39420Y-103885D02*
G03I-355J0D01*
G01X-39450Y-104215D02*
G03I-355J0D01*
G01X-39230Y-103185D02*
G03I-355J0D01*
G01X-39280Y-103275D02*
G03I-355J0D01*
G01X-39410Y-103735D02*
G03I-355J0D01*
G01X-39280Y-103275D02*
G03I-355J0D01*
G01X-38770Y-102495D02*
G03I-355J0D01*
G01X-39050Y-102855D02*
G03I-355J0D01*
G01X-38760Y-102475D02*
G03I-355J0D01*
G01X-38390Y-102165D02*
G03I-354J0D01*
G01X-37940Y-101805D02*
G03I-355J0D01*
G01X-37760Y-101655D02*
G03I-355J0D01*
G01X-37050Y-101265D02*
G03I-355J0D01*
G01X-55280Y-107355D02*
G03I-355J0D01*
G01Y-106655D02*
G03I-355J0D01*
G01Y-105965D02*
G03I-355J0D01*
G01Y-105275D02*
G03I-355J0D01*
G01Y-103885D02*
G03I-355J0D01*
G01Y-104575D02*
G03I-355J0D01*
G01Y-103185D02*
G03I-355J0D01*
G01Y-102495D02*
G03I-355J0D01*
G01Y-101805D02*
G03I-355J0D01*
G01Y-101305D02*
G03I-355J0D01*
G01D02*
G03I-355J0D01*
G01X-53940Y-101105D02*
G03I-355J0D01*
G01X-53040Y-100975D02*
G03I-355J0D01*
G01X-51970Y-107355D02*
G03I-355J0D01*
G01Y-106655D02*
G03I-355J0D01*
G01Y-105965D02*
G03I-355J0D01*
G01Y-105275D02*
G03I-355J0D01*
G01Y-104575D02*
G03I-355J0D01*
G01Y-103185D02*
G03I-355J0D01*
G01Y-103885D02*
G03I-355J0D01*
G01Y-103025D02*
G03I-355J0D01*
G01X-51950Y-102825D02*
G03I-355J0D01*
G01X-51760Y-102495D02*
G03I-355J0D01*
G01X-51870Y-102635D02*
G03I-355J0D01*
G01X-51750Y-102475D02*
G03I-355J0D01*
G01X-51580Y-102355D02*
G03I-355J0D01*
G01X-51400Y-102275D02*
G03I-355J0D01*
G01X-51200Y-102245D02*
G03I-355J0D01*
G01X-50790Y-100835D02*
G03I-355J0D01*
G01X-49850Y-107445D02*
G03I-355J0D01*
G01X-19850Y-114055D02*
G03I-355J0D01*
G01Y-113605D02*
G03I-355J0D01*
G01Y-112905D02*
G03I-355J0D01*
G01Y-112215D02*
G03I-355J0D01*
G01Y-111515D02*
G03I-355J0D01*
G01Y-110825D02*
G03I-355J0D01*
G01Y-110125D02*
G03I-355J0D01*
G01Y-109435D02*
G03I-355J0D01*
G01Y-108935D02*
G03I-355J0D01*
G01X-19820Y-108745D02*
G03I-355J0D01*
G01X-19620Y-108385D02*
G03I-355J0D01*
G01X-19740Y-108545D02*
G03I-355J0D01*
G01X-19820Y-108735D02*
G03I-355J0D01*
G01X-19070Y-108155D02*
G03I-355J0D01*
G01X-19270Y-108175D02*
G03I-355J0D01*
G01X-19460Y-108255D02*
G03I-355J0D01*
G01X-22050Y-121855D02*
G03I-355J0D01*
G01X-21500D02*
G03I-355J0D01*
G01Y-118545D02*
G03I-355J0D01*
G01X-19140Y-121855D02*
G03I-355J0D01*
G01Y-118545D02*
G03I-355J0D01*
G01X-17380Y-121855D02*
G03I-355J0D01*
G01X-17180Y-121835D02*
G03I-355J0D01*
G01X-16980Y-121795D02*
G03I-355J0D01*
G01X-16920Y-118625D02*
G03I-355J0D01*
G01X-17140Y-118565D02*
G03I-355J0D01*
G01X-17360Y-118545D02*
G03I-355J0D01*
G01X-16790Y-121715D02*
G03I-355J0D01*
G01X-16610Y-121605D02*
G03I-355J0D01*
G01X-16450Y-121475D02*
G03I-355J0D01*
G01X-16320Y-121315D02*
G03I-355J0D01*
G01X-16210Y-121135D02*
G03I-355J0D01*
G01X-16130Y-120945D02*
G03I-355J0D01*
G01X-16090Y-120745D02*
G03I-355J0D01*
G01X-16070Y-120545D02*
G03I-355J0D01*
G01Y-119835D02*
G03I-355J0D01*
G01X-16090Y-119615D02*
G03I-355J0D01*
G01X-16150Y-119395D02*
G03I-355J0D01*
G01X-16240Y-119185D02*
G03I-355J0D01*
G01X-16070Y-119835D02*
G03I-355J0D01*
G01X-16370Y-119005D02*
G03I-355J0D01*
G01X-16530Y-118845D02*
G03I-355J0D01*
G01X-16710Y-118715D02*
G03I-355J0D01*
G01X-23150Y-114055D02*
G03I-355J0D01*
G01X-36420Y-113825D02*
G03I-355J0D01*
G01X-35400Y-113995D02*
G03I-355J0D01*
G01X-34370Y-114055D02*
G03I-355J0D01*
G01X-31620D02*
G03I-355J0D01*
G01X-30710Y-114025D02*
G03I-355J0D01*
G01X-29810Y-113885D02*
G03I-355J0D01*
G01X-23150Y-113605D02*
G03I-355J0D01*
G01Y-112905D02*
G03I-355J0D01*
G01Y-112215D02*
G03I-355J0D01*
G01Y-111515D02*
G03I-355J0D01*
G01Y-110825D02*
G03I-355J0D01*
G01Y-110125D02*
G03I-355J0D01*
G01Y-109435D02*
G03I-355J0D01*
G01Y-108745D02*
G03I-355J0D01*
G01Y-108045D02*
G03I-355J0D01*
G01X-35960Y-111515D02*
G03I-355J0D01*
G01X-35940Y-111545D02*
G03I-355J0D01*
G01X-36290Y-110825D02*
G03I-355J0D01*
G01X-36350Y-110655D02*
G03I-355J0D01*
G01X-36200Y-111125D02*
G03I-355J0D01*
G01X-36380Y-110125D02*
G03I-355J0D01*
G01Y-110165D02*
G03I-355J0D01*
G01Y-109435D02*
G03I-355J0D01*
G01Y-108745D02*
G03I-355J0D01*
G01Y-108045D02*
G03I-355J0D01*
G01X-35220Y-112215D02*
G03I-355J0D01*
G01X-35590Y-111895D02*
G03I-355J0D01*
G01X-35230Y-112215D02*
G03I-355J0D01*
G01X-34810Y-112445D02*
G03I-355J0D01*
G01X-34340Y-112595D02*
G03I-355J0D01*
G01X-33860Y-112645D02*
G03I-355J0D01*
G01X-32250D02*
G03I-355J0D01*
G01X-31650Y-112605D02*
G03I-355J0D01*
G01X-31080Y-112445D02*
G03I-355J0D01*
G01X-30610Y-112215D02*
G03I-355J0D01*
G01X-29910Y-111515D02*
G03I-355J0D01*
G01X-30550Y-112185D02*
G03I-355J0D01*
G01X-30080Y-111815D02*
G03I-355J0D01*
G01X-29780Y-111305D02*
G03I-355J0D01*
G01X-28890Y-113605D02*
G03I-354J0D01*
G01X-28940Y-113625D02*
G03I-354J0D01*
G01X-29620Y-110825D02*
G03I-355J0D01*
G01X-29590Y-110745D02*
G03I-355J0D01*
G01X-29530Y-110125D02*
G03I-355J0D01*
G01Y-110165D02*
G03I-355J0D01*
G01Y-109435D02*
G03I-355J0D01*
G01Y-108045D02*
G03I-355J0D01*
G01Y-108745D02*
G03I-355J0D01*
G01X-28360Y-113355D02*
G03I-355J0D01*
G01X-27730Y-112905D02*
G03I-355J0D01*
G01X-27370Y-112565D02*
G03I-355J0D01*
G01X-27830Y-113005D02*
G03I-355J0D01*
G01X-26630Y-111515D02*
G03I-355J0D01*
G01X-27020Y-112215D02*
G03I-355J0D01*
G01X-26690Y-111705D02*
G03I-355J0D01*
G01X-26980Y-112175D02*
G03I-355J0D01*
G01X-26480Y-110825D02*
G03I-355J0D01*
G01X-26510Y-111185D02*
G03I-355J0D01*
G01X-26460Y-110125D02*
G03I-355J0D01*
G01Y-110635D02*
G03I-355J0D01*
G01Y-109435D02*
G03I-355J0D01*
G01Y-108745D02*
G03I-355J0D01*
G01Y-108045D02*
G03I-355J0D01*
G01X-35420Y-120955D02*
G03I-355J0D01*
G01X-35370Y-121135D02*
G03I-355J0D01*
G01X-35290Y-121305D02*
G03I-355J0D01*
G01X-35180Y-121465D02*
G03I-355J0D01*
G01X-35050Y-121595D02*
G03I-355J0D01*
G01X-34900Y-121705D02*
G03I-355J0D01*
G01X-35440Y-120765D02*
G03I-355J0D01*
G01X-35360Y-119215D02*
G03I-355J0D01*
G01X-35420Y-119425D02*
G03I-355J0D01*
G01X-35440Y-119635D02*
G03I-355J0D01*
G01X-34960Y-118725D02*
G03I-355J0D01*
G01X-35120Y-118865D02*
G03I-355J0D01*
G01X-35260Y-119025D02*
G03I-355J0D01*
G01X-34720Y-121785D02*
G03I-355J0D01*
G01X-34540Y-121835D02*
G03I-355J0D01*
G01X-34350Y-121855D02*
G03I-355J0D01*
G01Y-118545D02*
G03I-355J0D01*
G01X-34560Y-118565D02*
G03I-355J0D01*
G01X-34770Y-118625D02*
G03I-355J0D01*
G01X-32600Y-121855D02*
G03I-355J0D01*
G01Y-118545D02*
G03I-355J0D01*
G01X-29840Y-121685D02*
G03I-355J0D01*
G01X-30020Y-121555D02*
G03I-355J0D01*
G01X-30180Y-121395D02*
G03I-355J0D01*
G01X-30310Y-121205D02*
G03I-355J0D01*
G01X-30400Y-121005D02*
G03I-355J0D01*
G01X-30460Y-120785D02*
G03I-355J0D01*
G01X-30480Y-120565D02*
G03I-355J0D01*
G01Y-119815D02*
G03I-355J0D01*
G01X-30460Y-119595D02*
G03I-355J0D01*
G01X-30400Y-119385D02*
G03I-355J0D01*
G01X-30310Y-119175D02*
G03I-355J0D01*
G01X-30180Y-118995D02*
G03I-355J0D01*
G01X-30030Y-118845D02*
G03I-355J0D01*
G01X-29840Y-118715D02*
G03I-355J0D01*
G01X-29190Y-121855D02*
G03I-354J0D01*
G01X-29410Y-121835D02*
G03I-355J0D01*
G01X-29630Y-121775D02*
G03I-355J0D01*
G01X-29640Y-118625D02*
G03I-354J0D01*
G01X-29430Y-118565D02*
G03I-355J0D01*
G01X-29210Y-118545D02*
G03I-355J0D01*
G01X-28080Y-121795D02*
G03I-355J0D01*
G01X-28280Y-121835D02*
G03I-355J0D01*
G01X-28490Y-121855D02*
G03I-354J0D01*
G01X-28470Y-118545D02*
G03I-355J0D01*
G01X-28240Y-118565D02*
G03I-355J0D01*
G01X-28030Y-118625D02*
G03I-355J0D01*
G01X-27310Y-121135D02*
G03I-355J0D01*
G01X-27420Y-121315D02*
G03I-355J0D01*
G01X-27560Y-121465D02*
G03I-355J0D01*
G01X-27710Y-121605D02*
G03I-355J0D01*
G01X-27890Y-121715D02*
G03I-355J0D01*
G01X-27170Y-120535D02*
G03I-355J0D01*
G01X-27190Y-120745D02*
G03I-355J0D01*
G01X-27230Y-120945D02*
G03I-355J0D01*
G01X-27170Y-120535D02*
G03I-355J0D01*
G01X-27340Y-119195D02*
G03I-355J0D01*
G01X-27250Y-119405D02*
G03I-355J0D01*
G01X-27190Y-119615D02*
G03I-355J0D01*
G01X-27170Y-119845D02*
G03I-355J0D01*
G01X-27820Y-118715D02*
G03I-355J0D01*
G01X-27630Y-118845D02*
G03I-355J0D01*
G01X-27470Y-119005D02*
G03I-355J0D01*
G01X-24810Y-121855D02*
G03I-355J0D01*
G01Y-118545D02*
G03I-355J0D01*
G01X-24330D02*
G03I-355J0D01*
G01X-19790Y-105965D02*
G03I-355J0D01*
G01X-19850Y-105695D02*
G03I-355J0D01*
G01X-19820Y-105905D02*
G03I-355J0D01*
G01X-19740Y-106095D02*
G03I-355J0D01*
G01X-19610Y-106265D02*
G03I-355J0D01*
G01X-19850Y-105275D02*
G03I-355J0D01*
G01Y-104575D02*
G03I-355J0D01*
G01Y-103885D02*
G03I-355J0D01*
G01Y-103185D02*
G03I-355J0D01*
G01Y-102495D02*
G03I-355J0D01*
G01Y-101305D02*
G03I-355J0D01*
G01D02*
G03I-355J0D01*
G01Y-101805D02*
G03I-355J0D01*
G01X-19440Y-106395D02*
G03I-355J0D01*
G01X-19250Y-106475D02*
G03I-355J0D01*
G01X-19040Y-106495D02*
G03I-355J0D01*
G01X-23150Y-107355D02*
G03I-355J0D01*
G01Y-106655D02*
G03I-355J0D01*
G01Y-105965D02*
G03I-355J0D01*
G01Y-105275D02*
G03I-355J0D01*
G01Y-104575D02*
G03I-355J0D01*
G01Y-103885D02*
G03I-355J0D01*
G01Y-103185D02*
G03I-355J0D01*
G01Y-102495D02*
G03I-355J0D01*
G01Y-101305D02*
G03I-355J0D01*
G01Y-101805D02*
G03I-355J0D01*
G01X-36580Y-101105D02*
G03I-355J0D01*
G01X-36380Y-107355D02*
G03I-355J0D01*
G01Y-106655D02*
G03I-355J0D01*
G01Y-106975D02*
G03I-355J0D01*
G01D02*
G03I-355J0D01*
G01D02*
G03I-355J0D01*
G01Y-105965D02*
G03I-355J0D01*
G01Y-105275D02*
G03I-355J0D01*
G01Y-104575D02*
G03I-355J0D01*
G01X-36270Y-103885D02*
G03I-355J0D01*
G01X-36340Y-104125D02*
G03I-355J0D01*
G01X-36380Y-104535D02*
G03I-355J0D01*
G01X-36020Y-103385D02*
G03I-355J0D01*
G01X-36220Y-103735D02*
G03I-355J0D01*
G01X-35850Y-103185D02*
G03I-355J0D01*
G01X-35750Y-103075D02*
G03I-355J0D01*
G01D02*
G03I-355J0D01*
G01X-36290Y-101005D02*
G03I-355J0D01*
G01X-34920Y-102495D02*
G03I-355J0D01*
G01X-35320Y-102705D02*
G03I-355J0D01*
G01X-35490Y-100865D02*
G03I-355J0D01*
G01X-34270Y-102285D02*
G03I-355J0D01*
G01X-34820Y-102435D02*
G03I-355J0D01*
G01X-34690Y-100835D02*
G03I-355J0D01*
G01X-33700Y-102245D02*
G03I-355J0D01*
G01X-31710Y-102275D02*
G03I-355J0D01*
G01X-32250Y-102245D02*
G03I-355J0D01*
G01X-31580Y-100835D02*
G03I-355J0D01*
G01X-31000Y-102495D02*
G03I-355J0D01*
G01X-30710Y-102635D02*
G03I-355J0D01*
G01X-31190Y-102405D02*
G03I-355J0D01*
G01X-30720Y-100865D02*
G03I-355J0D01*
G01X-30030Y-103185D02*
G03I-355J0D01*
G01X-29950Y-103255D02*
G03I-355J0D01*
G01X-30280Y-102955D02*
G03I-355J0D01*
G01X-29870Y-101025D02*
G03I-355J0D01*
G01X-29530Y-107355D02*
G03I-355J0D01*
G01Y-106655D02*
G03I-355J0D01*
G01Y-105965D02*
G03I-355J0D01*
G01Y-105275D02*
G03I-355J0D01*
G01X-29620Y-103885D02*
G03I-355J0D01*
G01X-29530Y-104575D02*
G03I-355J0D01*
G01Y-104495D02*
G03I-355J0D01*
G01X-29570Y-104045D02*
G03I-355J0D01*
G01X-29710Y-103625D02*
G03I-355J0D01*
G01X-29060Y-101305D02*
G03I-355J0D01*
G01X-29630Y-101105D02*
G03I-355J0D01*
G01X-28060Y-101805D02*
G03I-355J0D01*
G01X-28430Y-101575D02*
G03I-355J0D01*
G01X-27220Y-102495D02*
G03I-355J0D01*
G01X-27330Y-102365D02*
G03I-355J0D01*
G01X-27850Y-101925D02*
G03I-355J0D01*
G01X-26460Y-107355D02*
G03I-355J0D01*
G01Y-106655D02*
G03I-355J0D01*
G01Y-105965D02*
G03I-355J0D01*
G01Y-105275D02*
G03I-355J0D01*
G01X-26510Y-103885D02*
G03I-355J0D01*
G01X-26460Y-104575D02*
G03I-355J0D01*
G01X-26510Y-103905D02*
G03I-355J0D01*
G01X-26460Y-104495D02*
G03I-355J0D01*
G01X-26750Y-103185D02*
G03I-355J0D01*
G01X-26670Y-103335D02*
G03I-355J0D01*
G01X-26950Y-102815D02*
G03I-355J0D01*
G01X258091Y-17500D02*
Y258091D01*
X-17500D01*
Y-17500D01*
X258091D01*
G01X3540Y-114055D02*
G03I-355J0D01*
G01X-12760D02*
G03I-355J0D01*
G01X-9450D02*
G03I-355J0D01*
G01X-5910D02*
G03I-355J0D01*
G01X-2840D02*
G03I-355J0D01*
G01X230D02*
G03I-355J0D01*
G01X3540Y-113605D02*
G03I-355J0D01*
G01Y-112905D02*
G03I-355J0D01*
G01Y-112215D02*
G03I-355J0D01*
G01Y-111515D02*
G03I-355J0D01*
G01Y-110825D02*
G03I-355J0D01*
G01Y-110125D02*
G03I-355J0D01*
G01Y-109435D02*
G03I-355J0D01*
G01Y-108745D02*
G03I-355J0D01*
G01Y-108045D02*
G03I-355J0D01*
G01X-13590Y-108155D02*
G03I-355J0D01*
G01X-12760Y-113605D02*
G03I-355J0D01*
G01Y-112905D02*
G03I-355J0D01*
G01Y-112215D02*
G03I-355J0D01*
G01Y-110825D02*
G03I-355J0D01*
G01Y-111515D02*
G03I-355J0D01*
G01Y-110125D02*
G03I-355J0D01*
G01Y-109435D02*
G03I-355J0D01*
G01X-12800Y-108745D02*
G03I-355J0D01*
G01X-12760Y-108985D02*
G03I-355J0D01*
G01X-12790Y-108765D02*
G03I-354J0D01*
G01X-12870Y-108565D02*
G03I-355J0D01*
G01X-13000Y-108395D02*
G03I-355J0D01*
G01X-13170Y-108265D02*
G03I-355J0D01*
G01X-13380Y-108185D02*
G03I-355J0D01*
G01X-9450Y-113605D02*
G03I-355J0D01*
G01Y-112905D02*
G03I-355J0D01*
G01Y-111515D02*
G03I-355J0D01*
G01Y-112215D02*
G03I-355J0D01*
G01Y-110825D02*
G03I-355J0D01*
G01Y-110125D02*
G03I-355J0D01*
G01Y-109435D02*
G03I-355J0D01*
G01Y-108745D02*
G03I-355J0D01*
G01Y-108045D02*
G03I-355J0D01*
G01X-5910Y-113605D02*
G03I-355J0D01*
G01Y-112905D02*
G03I-355J0D01*
G01Y-112215D02*
G03I-355J0D01*
G01Y-110825D02*
G03I-355J0D01*
G01Y-111515D02*
G03I-355J0D01*
G01Y-110125D02*
G03I-355J0D01*
G01Y-109435D02*
G03I-355J0D01*
G01Y-108745D02*
G03I-355J0D01*
G01Y-108045D02*
G03I-355J0D01*
G01X-2840Y-113605D02*
G03I-355J0D01*
G01Y-112905D02*
G03I-355J0D01*
G01Y-111515D02*
G03I-355J0D01*
G01Y-112215D02*
G03I-355J0D01*
G01Y-110825D02*
G03I-355J0D01*
G01Y-110125D02*
G03I-355J0D01*
G01Y-109435D02*
G03I-355J0D01*
G01Y-108045D02*
G03I-355J0D01*
G01Y-108745D02*
G03I-355J0D01*
G01X230Y-113605D02*
G03I-355J0D01*
G01Y-112905D02*
G03I-355J0D01*
G01Y-112215D02*
G03I-355J0D01*
G01Y-111515D02*
G03I-355J0D01*
G01Y-110825D02*
G03I-355J0D01*
G01Y-110125D02*
G03I-355J0D01*
G01Y-109435D02*
G03I-355J0D01*
G01Y-108745D02*
G03I-355J0D01*
G01Y-108045D02*
G03I-355J0D01*
G01X1720Y-121605D02*
G03I-355J0D01*
G01X1560Y-121475D02*
G03I-354J0D01*
G01X1430Y-121315D02*
G03I-355J0D01*
G01X1320Y-121135D02*
G03I-355J0D01*
G01X1340Y-119185D02*
G03I-355J0D01*
G01X1470Y-119005D02*
G03I-355J0D01*
G01X1630Y-118845D02*
G03I-355J0D01*
G01X1820Y-118715D02*
G03I-355J0D01*
G01X2490Y-121855D02*
G03I-355J0D01*
G01X2290Y-121835D02*
G03I-355J0D01*
G01X2090Y-121795D02*
G03I-355J0D01*
G01X1900Y-121715D02*
G03I-355J0D01*
G01X2020Y-118625D02*
G03I-355J0D01*
G01X2240Y-118565D02*
G03I-355J0D01*
G01X2460Y-118545D02*
G03I-354J0D01*
G01X3410Y-121835D02*
G03I-354J0D01*
G01X3180Y-121855D02*
G03I-355J0D01*
G01X3200Y-118545D02*
G03I-355J0D01*
G01X3420Y-118565D02*
G03I-355J0D01*
G01X4310Y-121205D02*
G03I-354J0D01*
G01X4180Y-121395D02*
G03I-355J0D01*
G01X4020Y-121555D02*
G03I-355J0D01*
G01X3830Y-121685D02*
G03I-355J0D01*
G01X3620Y-121775D02*
G03I-355J0D01*
G01X4400Y-120995D02*
G03I-355J0D01*
G01X3640Y-118625D02*
G03I-355J0D01*
G01X3840Y-118715D02*
G03I-355J0D01*
G01X4020Y-118845D02*
G03I-355J0D01*
G01X4180Y-119005D02*
G03I-355J0D01*
G01X4310Y-119185D02*
G03I-354J0D01*
G01X4400Y-119385D02*
G03I-355J0D01*
G01X4480Y-120555D02*
G03I-355J0D01*
G01X4460Y-120785D02*
G03I-354J0D01*
G01X4480Y-120555D02*
G03I-355J0D01*
G01X4460Y-119605D02*
G03I-354J0D01*
G01X4480Y-119825D02*
G03I-355J0D01*
G01X-13640Y-121035D02*
G03I-355J0D01*
G01X-13540Y-121235D02*
G03I-355J0D01*
G01X-13700Y-120615D02*
G03I-355J0D01*
G01X-13710D02*
G03I-355J0D01*
G01X-13690Y-120835D02*
G03I-355J0D01*
G01X-13700Y-118545D02*
G03I-355J0D01*
G01X-13420Y-121415D02*
G03I-355J0D01*
G01X-13270Y-121565D02*
G03I-355J0D01*
G01X-13090Y-121685D02*
G03I-355J0D01*
G01X-12890Y-121785D02*
G03I-355J0D01*
G01X-12690Y-121835D02*
G03I-354J0D01*
G01X-12470Y-121855D02*
G03I-355J0D01*
G01X-11950D02*
G03I-355J0D01*
G01X-11720Y-121835D02*
G03I-355J0D01*
G01X-11500Y-121775D02*
G03I-355J0D01*
G01X-11290Y-121675D02*
G03I-355J0D01*
G01X-11110Y-121545D02*
G03I-355J0D01*
G01X-10950Y-121385D02*
G03I-355J0D01*
G01X-10820Y-121195D02*
G03I-355J0D01*
G01X-10720Y-120995D02*
G03I-355J0D01*
G01X-10660Y-120775D02*
G03I-355J0D01*
G01X-10640Y-120545D02*
G03I-355J0D01*
G01X-10630D02*
G03I-355J0D01*
G01Y-118545D02*
G03I-355J0D01*
G01X-8490Y-120975D02*
G03I-354J0D01*
G01X-8450Y-121155D02*
G03I-355J0D01*
G01X-8510Y-120785D02*
G03I-355J0D01*
G01X-8490Y-119405D02*
G03I-354J0D01*
G01X-8510Y-119585D02*
G03I-355J0D01*
G01X-8450Y-119225D02*
G03I-355J0D01*
G01X-8370Y-121315D02*
G03I-355J0D01*
G01X-8260Y-121475D02*
G03I-355J0D01*
G01X-8130Y-121605D02*
G03I-355J0D01*
G01X-7980Y-121715D02*
G03I-355J0D01*
G01X-7810Y-121795D02*
G03I-355J0D01*
G01X-7630Y-121835D02*
G03I-355J0D01*
G01X-7650Y-118565D02*
G03I-355J0D01*
G01X-7830Y-118605D02*
G03I-355J0D01*
G01X-7990Y-118685D02*
G03I-354J0D01*
G01X-8140Y-118785D02*
G03I-354J0D01*
G01X-8270Y-118915D02*
G03I-355J0D01*
G01X-8370Y-119065D02*
G03I-355J0D01*
G01X-7440Y-121855D02*
G03I-354J0D01*
G01X-7470Y-118545D02*
G03I-355J0D01*
G01X-5670Y-121855D02*
G03I-355J0D01*
G01Y-118545D02*
G03I-355J0D01*
G01X-3780D02*
G03I-355J0D01*
G01X-2370Y-121855D02*
G03I-355J0D01*
G01Y-118545D02*
G03I-355J0D01*
G01D02*
G03I-355J0D01*
G01X-950D02*
G03I-355J0D01*
G01X1240Y-120945D02*
G03I-355J0D01*
G01X1200Y-120745D02*
G03I-355J0D01*
G01X1180Y-120545D02*
G03I-355J0D01*
G01Y-119835D02*
G03I-355J0D01*
G01X1170D02*
G03I-355J0D01*
G01X1190Y-119615D02*
G03I-355J0D01*
G01X1250Y-119395D02*
G03I-355J0D01*
G01X3540Y-107355D02*
G03I-355J0D01*
G01Y-106655D02*
G03I-355J0D01*
G01Y-105965D02*
G03I-355J0D01*
G01Y-105275D02*
G03I-355J0D01*
G01Y-104575D02*
G03I-355J0D01*
G01Y-103885D02*
G03I-355J0D01*
G01Y-103295D02*
G03I-355J0D01*
G01X3550Y-103185D02*
G03I-355J0D01*
G01X3570Y-103085D02*
G03I-355J0D01*
G01X4270Y-102495D02*
G03I-355J0D01*
G01X4350Y-102485D02*
G03I-355J0D01*
G01X4140Y-102515D02*
G03I-355J0D01*
G01X3950Y-102595D02*
G03I-355J0D01*
G01X3780Y-102725D02*
G03I-355J0D01*
G01X3650Y-102885D02*
G03I-355J0D01*
G01X4330Y-100835D02*
G03I-355J0D01*
G01X5110Y-102485D02*
G03I-354J0D01*
G01X-13540Y-106495D02*
G03I-355J0D01*
G01X-13340Y-106475D02*
G03I-355J0D01*
G01X-13150Y-106395D02*
G03I-355J0D01*
G01X-12810Y-105965D02*
G03I-355J0D01*
G01X-12990Y-106275D02*
G03I-355J0D01*
G01X-12870Y-106105D02*
G03I-355J0D01*
G01X-12790Y-105915D02*
G03I-354J0D01*
G01X-12760Y-105715D02*
G03I-355J0D01*
G01Y-105275D02*
G03I-355J0D01*
G01Y-103885D02*
G03I-355J0D01*
G01Y-104575D02*
G03I-355J0D01*
G01Y-103185D02*
G03I-355J0D01*
G01Y-102495D02*
G03I-355J0D01*
G01Y-101805D02*
G03I-355J0D01*
G01Y-101305D02*
G03I-355J0D01*
G01X-9450Y-107355D02*
G03I-355J0D01*
G01Y-106655D02*
G03I-355J0D01*
G01Y-105965D02*
G03I-355J0D01*
G01Y-105275D02*
G03I-355J0D01*
G01Y-103885D02*
G03I-355J0D01*
G01Y-104575D02*
G03I-355J0D01*
G01Y-103185D02*
G03I-355J0D01*
G01Y-102495D02*
G03I-355J0D01*
G01Y-101805D02*
G03I-355J0D01*
G01Y-101305D02*
G03I-355J0D01*
G01X-5910Y-107355D02*
G03I-355J0D01*
G01Y-106655D02*
G03I-355J0D01*
G01Y-105965D02*
G03I-355J0D01*
G01Y-105275D02*
G03I-355J0D01*
G01Y-104575D02*
G03I-355J0D01*
G01Y-103185D02*
G03I-355J0D01*
G01Y-103885D02*
G03I-355J0D01*
G01Y-102495D02*
G03I-355J0D01*
G01Y-101805D02*
G03I-355J0D01*
G01Y-101305D02*
G03I-355J0D01*
G01X-4360Y-101105D02*
G03I-355J0D01*
G01X-2840Y-107355D02*
G03I-355J0D01*
G01Y-106655D02*
G03I-355J0D01*
G01Y-105965D02*
G03I-355J0D01*
G01Y-105275D02*
G03I-355J0D01*
G01Y-103885D02*
G03I-355J0D01*
G01Y-104575D02*
G03I-355J0D01*
G01X-2820Y-103185D02*
G03I-355J0D01*
G01X-2810Y-103095D02*
G03I-355J0D01*
G01X-2840Y-103315D02*
G03I-355J0D01*
G01X-2420Y-102595D02*
G03I-355J0D01*
G01X-2600Y-102725D02*
G03I-355J0D01*
G01X-2730Y-102895D02*
G03I-355J0D01*
G01X-2970Y-100925D02*
G03I-355J0D01*
G01X-2090Y-102495D02*
G03I-354J0D01*
G01X-2010Y-102485D02*
G03I-355J0D01*
G01X-2230Y-102515D02*
G03I-355J0D01*
G01X-490Y-102495D02*
G03I-354J0D01*
G01X120Y-102885D02*
G03I-355J0D01*
G01X0Y-102715D02*
G03I-355J0D01*
G01X-170Y-102595D02*
G03I-355J0D01*
G01X-360Y-102515D02*
G03I-355J0D01*
G01X-570Y-102485D02*
G03I-355J0D01*
G01X0Y-100835D02*
G03I-355J0D01*
G01X230Y-107355D02*
G03I-355J0D01*
G01Y-106655D02*
G03I-355J0D01*
G01Y-105965D02*
G03I-355J0D01*
G01Y-105275D02*
G03I-355J0D01*
G01Y-104575D02*
G03I-355J0D01*
G01Y-103885D02*
G03I-355J0D01*
G01X220Y-103185D02*
G03I-355J0D01*
G01X230Y-103285D02*
G03I-355J0D01*
G01X210Y-103075D02*
G03I-355J0D01*
G01X6610Y-114055D02*
G03I-355J0D01*
G01X9680D02*
G03I-355J0D01*
G01X6610Y-113605D02*
G03I-355J0D01*
G01Y-112905D02*
G03I-355J0D01*
G01Y-112215D02*
G03I-355J0D01*
G01Y-111515D02*
G03I-355J0D01*
G01Y-110825D02*
G03I-355J0D01*
G01Y-110125D02*
G03I-355J0D01*
G01Y-109435D02*
G03I-355J0D01*
G01Y-108745D02*
G03I-355J0D01*
G01Y-108045D02*
G03I-355J0D01*
G01X9680Y-113605D02*
G03I-355J0D01*
G01Y-112905D02*
G03I-355J0D01*
G01Y-112215D02*
G03I-355J0D01*
G01Y-111515D02*
G03I-355J0D01*
G01Y-110825D02*
G03I-355J0D01*
G01Y-110125D02*
G03I-355J0D01*
G01Y-109435D02*
G03I-355J0D01*
G01Y-108745D02*
G03I-355J0D01*
G01Y-108045D02*
G03I-355J0D01*
G01X6610Y-121855D02*
G03I-355J0D01*
G01Y-120205D02*
G03I-355J0D01*
G01D02*
G03I-355J0D01*
G01Y-118545D02*
G03I-355J0D01*
G01D02*
G03I-355J0D01*
G01X8540Y-120205D02*
G03I-355J0D01*
G01D02*
G03I-355J0D01*
G01X9440Y-121855D02*
G03I-355J0D01*
G01X8820Y-120205D02*
G03I-355J0D01*
G01X8990Y-120185D02*
G03I-355J0D01*
G01X9150Y-120135D02*
G03I-355J0D01*
G01X9300Y-120065D02*
G03I-355J0D01*
G01X9430Y-119955D02*
G03I-355J0D01*
G01X9450Y-118775D02*
G03I-355J0D01*
G01X9320Y-118675D02*
G03I-355J0D01*
G01X9190Y-118605D02*
G03I-355J0D01*
G01X9040Y-118565D02*
G03I-355J0D01*
G01X8880Y-118545D02*
G03I-355J0D01*
G01X9540Y-119825D02*
G03I-355J0D01*
G01X9610Y-119675D02*
G03I-355J0D01*
G01X9660Y-119515D02*
G03I-355J0D01*
G01X9680Y-119345D02*
G03I-355J0D01*
G01X9660Y-119185D02*
G03I-355J0D01*
G01X9620Y-119035D02*
G03I-355J0D01*
G01X9550Y-118905D02*
G03I-355J0D01*
G01X5190Y-102495D02*
G03I-355J0D01*
G01X6100Y-102725D02*
G03I-355J0D01*
G01X5620Y-102555D02*
G03I-355J0D01*
G01X5490Y-100895D02*
G03I-355J0D01*
G01X6610Y-107355D02*
G03I-355J0D01*
G01Y-106655D02*
G03I-355J0D01*
G01Y-105965D02*
G03I-355J0D01*
G01Y-105275D02*
G03I-355J0D01*
G01Y-104575D02*
G03I-355J0D01*
G01Y-103885D02*
G03I-355J0D01*
G01X6490Y-103185D02*
G03I-355J0D01*
G01X6610Y-103745D02*
G03I-355J0D01*
G01X6580Y-103445D02*
G03I-355J0D01*
G01X6480Y-103165D02*
G03I-355J0D01*
G01X6320Y-102925D02*
G03I-355J0D01*
G01X6790Y-101105D02*
G03I-355J0D01*
G01X6650Y-101065D02*
G03I-355J0D01*
G01X7430Y-101285D02*
G03I-355J0D01*
G01X8160Y-101645D02*
G03I-355J0D01*
G01D02*
G03I-355J0D01*
G01X8370Y-101805D02*
G03I-355J0D01*
G01X9520Y-103185D02*
G03I-355J0D01*
G01X9150Y-102495D02*
G03I-355J0D01*
G01X8810Y-102125D02*
G03I-354J0D01*
G01X9190Y-102535D02*
G03I-355J0D01*
G01X9470Y-103015D02*
G03I-355J0D01*
G01X9680Y-107355D02*
G03I-355J0D01*
G01Y-106655D02*
G03I-355J0D01*
G01Y-105965D02*
G03I-355J0D01*
G01Y-105275D02*
G03I-355J0D01*
G01Y-104575D02*
G03I-355J0D01*
G01X9660Y-103885D02*
G03I-355J0D01*
G01X9680Y-104095D02*
G03I-355J0D01*
G01X9630Y-103545D02*
G03I-355J0D01*
G01X53833Y-140950D02*
X54100Y-141450D01*
X54420Y-141783D01*
X54793Y-141950D01*
X55220Y-141783D01*
X55540Y-141450D01*
X55860Y-140950D01*
X55967Y-140283D01*
Y-136950D01*
G01X59100Y-141950D02*
X58673Y-141867D01*
X58300Y-141533D01*
X57980Y-141033D01*
X57767Y-140450D01*
X57660Y-139783D01*
Y-139117D01*
X57767Y-138450D01*
X57980Y-137867D01*
X58300Y-137367D01*
X58673Y-137033D01*
X59100Y-136950D01*
X59527Y-137033D01*
X59900Y-137367D01*
X60220Y-137867D01*
X60433Y-138450D01*
X60540Y-139117D01*
Y-139783D01*
X60433Y-140450D01*
X60220Y-141033D01*
X59900Y-141533D01*
X59527Y-141867D01*
X59100Y-141950D01*
G01X63727Y-139283D02*
X63940Y-139033D01*
X64100Y-138617D01*
X64207Y-138033D01*
X64100Y-137533D01*
X63887Y-137200D01*
X63513Y-136950D01*
X62073D01*
Y-141950D01*
X63833D01*
X64207Y-141617D01*
X64420Y-141117D01*
X64527Y-140533D01*
X64420Y-139950D01*
X64100Y-139450D01*
X63727Y-139283D01*
X62073D01*
G01X66433Y-143617D02*
X67500Y-136950D01*
G01X68567D02*
X67500Y-143617D01*
G01X65900Y-141117D02*
X69100D01*
G01Y-139450D02*
X65900D01*
G01X71700Y-142117D02*
X71593Y-142033D01*
Y-141867D01*
X71700Y-141783D01*
X71807Y-141867D01*
Y-142033D01*
X71700Y-142117D01*
G01Y-139867D02*
X71593Y-139783D01*
Y-139617D01*
X71700Y-139533D01*
X71807Y-139617D01*
Y-139783D01*
X71700Y-139867D01*
G01X54727Y-130950D02*
Y-125950D01*
X55793D01*
X56220Y-126200D01*
X56540Y-126533D01*
X56807Y-127033D01*
X57020Y-127617D01*
X57073Y-128450D01*
X57020Y-129283D01*
X56807Y-129867D01*
X56540Y-130367D01*
X56220Y-130700D01*
X55793Y-130950D01*
X54727D01*
G01X58767D02*
X60100Y-125950D01*
X61433Y-130950D01*
G01X60953Y-129200D02*
X59247D01*
G01X64300Y-125950D02*
Y-130950D01*
G01X63073Y-125950D02*
X65527D01*
G01X69567Y-130950D02*
X67433D01*
Y-125950D01*
X69567D01*
G01X68713Y-128367D02*
X67433D01*
G01X72700Y-131117D02*
X72593Y-131033D01*
Y-130867D01*
X72700Y-130783D01*
X72807Y-130867D01*
Y-131033D01*
X72700Y-131117D01*
G01Y-128867D02*
X72593Y-128783D01*
Y-128617D01*
X72700Y-128533D01*
X72807Y-128617D01*
Y-128783D01*
X72700Y-128867D01*
G01X48300Y-69950D02*
Y-144950D01*
G01X165800Y-132950D02*
X48300D01*
G01X56073Y-115367D02*
X55753Y-115117D01*
X55380Y-114950D01*
X54953D01*
X54473Y-115200D01*
X54100Y-115617D01*
X53833Y-116117D01*
X53620Y-116950D01*
X53567Y-117700D01*
X53673Y-118450D01*
X53833Y-118950D01*
X54153Y-119450D01*
X54527Y-119783D01*
X54900Y-119950D01*
X55273D01*
X55647Y-119783D01*
X55967Y-119533D01*
X56233Y-119200D01*
G01X57980Y-119950D02*
Y-114950D01*
G01X60220D02*
Y-119950D01*
G01Y-117450D02*
X57980D01*
G01X64367Y-119950D02*
X62233D01*
Y-114950D01*
X64367D01*
G01X63513Y-117367D02*
X62233D01*
G01X68673Y-115367D02*
X68353Y-115117D01*
X67980Y-114950D01*
X67553D01*
X67073Y-115200D01*
X66700Y-115617D01*
X66433Y-116117D01*
X66220Y-116950D01*
X66167Y-117700D01*
X66273Y-118450D01*
X66433Y-118950D01*
X66753Y-119450D01*
X67127Y-119783D01*
X67500Y-119950D01*
X67873D01*
X68247Y-119783D01*
X68567Y-119533D01*
X68833Y-119200D01*
G01X70527Y-119950D02*
Y-114950D01*
G01X72553D02*
X70527Y-118033D01*
G01X72873Y-119950D02*
X71433Y-116617D01*
G01X76967Y-119950D02*
X74833D01*
Y-114950D01*
X76967D01*
G01X76113Y-117367D02*
X74833D01*
G01X79033Y-119950D02*
Y-114950D01*
X80367D01*
X80793Y-115200D01*
X81060Y-115533D01*
X81167Y-116200D01*
X81060Y-116867D01*
X80740Y-117283D01*
X80367Y-117533D01*
X79033D01*
G01X80367D02*
X81167Y-119950D01*
G01X84300Y-120117D02*
X84193Y-120033D01*
Y-119867D01*
X84300Y-119783D01*
X84407Y-119867D01*
Y-120033D01*
X84300Y-120117D01*
G01Y-117867D02*
X84193Y-117783D01*
Y-117617D01*
X84300Y-117533D01*
X84407Y-117617D01*
Y-117783D01*
X84300Y-117867D01*
G01X53727Y-108950D02*
Y-103950D01*
X54793D01*
X55220Y-104200D01*
X55540Y-104533D01*
X55807Y-105033D01*
X56020Y-105617D01*
X56073Y-106450D01*
X56020Y-107283D01*
X55807Y-107867D01*
X55540Y-108367D01*
X55220Y-108700D01*
X54793Y-108950D01*
X53727D01*
G01X60167D02*
X58033D01*
Y-103950D01*
X60167D01*
G01X59313Y-106367D02*
X58033D01*
G01X62180Y-108284D02*
X62607Y-108700D01*
X63087Y-108950D01*
X63513D01*
X63940Y-108700D01*
X64260Y-108284D01*
X64420Y-107700D01*
X64313Y-107117D01*
X64047Y-106617D01*
X63567Y-106283D01*
X62927Y-106117D01*
X62553Y-105783D01*
X62393Y-105200D01*
X62500Y-104617D01*
X62767Y-104200D01*
X63140Y-103950D01*
X63513D01*
X63887Y-104117D01*
X64207Y-104533D01*
G01X66860Y-103950D02*
X68140D01*
G01X67500D02*
Y-108950D01*
G01X66860D02*
X68140D01*
G01X72020Y-106450D02*
X73087D01*
Y-107950D01*
X72767Y-108450D01*
X72393Y-108783D01*
X71860Y-108950D01*
X71327Y-108783D01*
X70953Y-108450D01*
X70633Y-107950D01*
X70420Y-107367D01*
X70313Y-106700D01*
Y-106117D01*
X70420Y-105617D01*
X70633Y-105033D01*
X70953Y-104533D01*
X71273Y-104200D01*
X71700Y-103950D01*
X72073D01*
X72500Y-104117D01*
X72820Y-104450D01*
G01X74673Y-108950D02*
Y-103950D01*
X77127Y-108950D01*
Y-103950D01*
G01X81167Y-108950D02*
X79033D01*
Y-103950D01*
X81167D01*
G01X80313Y-106367D02*
X79033D01*
G01X83233Y-108950D02*
Y-103950D01*
X84567D01*
X84993Y-104200D01*
X85260Y-104533D01*
X85367Y-105200D01*
X85260Y-105867D01*
X84940Y-106283D01*
X84567Y-106533D01*
X83233D01*
G01X84567D02*
X85367Y-108950D01*
G01X88500Y-109117D02*
X88393Y-109033D01*
Y-108867D01*
X88500Y-108783D01*
X88607Y-108867D01*
Y-109033D01*
X88500Y-109117D01*
G01Y-106867D02*
X88393Y-106783D01*
Y-106617D01*
X88500Y-106533D01*
X88607Y-106617D01*
Y-106783D01*
X88500Y-106867D01*
G01X165800Y-121950D02*
X48300D01*
G01X165800Y-110950D02*
X48300D01*
G01X54133Y-94950D02*
Y-87450D01*
X56133D01*
X56800Y-87825D01*
X57300Y-88700D01*
X57467Y-89700D01*
X57300Y-90700D01*
X56883Y-91450D01*
X56133Y-91825D01*
X54133D01*
G01X60633Y-94950D02*
Y-87450D01*
X62717D01*
X63383Y-87825D01*
X63800Y-88325D01*
X63967Y-89325D01*
X63800Y-90325D01*
X63300Y-90950D01*
X62717Y-91325D01*
X60633D01*
G01X62717D02*
X63967Y-94950D01*
G01X67800Y-87450D02*
X69800D01*
G01X68800D02*
Y-94950D01*
G01X67800D02*
X69800D01*
G01X73133D02*
Y-87450D01*
X75300Y-93700D01*
X77467Y-87450D01*
Y-94950D01*
G01X79717D02*
X81800Y-87450D01*
X83883Y-94950D01*
G01X83133Y-92325D02*
X80467D01*
G01X86633Y-94950D02*
Y-87450D01*
X88717D01*
X89383Y-87825D01*
X89800Y-88325D01*
X89967Y-89325D01*
X89800Y-90325D01*
X89300Y-90950D01*
X88717Y-91325D01*
X86633D01*
G01X88717D02*
X89967Y-94950D01*
G01X94800D02*
Y-91575D01*
X93133Y-87450D01*
G01X96467D02*
X94800Y-91575D01*
G01X100217Y-92450D02*
X102383D01*
G01X106050Y-93950D02*
X106717Y-94575D01*
X107467Y-94950D01*
X108133D01*
X108800Y-94575D01*
X109300Y-93950D01*
X109550Y-93075D01*
X109383Y-92200D01*
X108967Y-91450D01*
X108217Y-90950D01*
X107217Y-90700D01*
X106633Y-90200D01*
X106383Y-89325D01*
X106550Y-88450D01*
X106967Y-87825D01*
X107550Y-87450D01*
X108133D01*
X108717Y-87700D01*
X109217Y-88325D01*
G01X113300Y-87450D02*
X115300D01*
G01X114300D02*
Y-94950D01*
G01X113300D02*
X115300D01*
G01X118967D02*
Y-87450D01*
X120633D01*
X121300Y-87825D01*
X121800Y-88325D01*
X122217Y-89075D01*
X122550Y-89950D01*
X122633Y-91200D01*
X122550Y-92450D01*
X122217Y-93325D01*
X121800Y-94075D01*
X121300Y-94575D01*
X120633Y-94950D01*
X118967D01*
G01X128967D02*
X125633D01*
Y-87450D01*
X128967D01*
G01X127633Y-91075D02*
X125633D01*
G01X165800Y-99950D02*
X48300D01*
G01X54133Y-74950D02*
Y-82450D01*
X57467D01*
G01X60217D02*
X62300Y-74950D01*
X64383Y-82450D01*
G01X63633Y-79825D02*
X60967D01*
G01X68800Y-82450D02*
Y-79075D01*
X67133Y-74950D01*
G01X70467D02*
X68800Y-79075D01*
G01X76967Y-82450D02*
X73633D01*
Y-74950D01*
X76967D01*
G01X75633Y-78575D02*
X73633D01*
G01X80133Y-82450D02*
Y-74950D01*
X82217D01*
X82883Y-75325D01*
X83300Y-75825D01*
X83467Y-76825D01*
X83300Y-77825D01*
X82800Y-78450D01*
X82217Y-78825D01*
X80133D01*
G01X82217D02*
X83467Y-82450D01*
G01X88300Y-82700D02*
X88133Y-82575D01*
Y-82325D01*
X88300Y-82200D01*
X88467Y-82325D01*
Y-82575D01*
X88300Y-82700D01*
G01Y-79325D02*
X88133Y-79200D01*
Y-78950D01*
X88300Y-78825D01*
X88467Y-78950D01*
Y-79200D01*
X88300Y-79325D01*
G01X81900Y-125950D02*
X81473Y-126117D01*
X81153Y-126533D01*
X80940Y-127033D01*
X80780Y-127700D01*
X80727Y-128450D01*
X80780Y-129200D01*
X80940Y-129867D01*
X81153Y-130367D01*
X81473Y-130783D01*
X81900Y-130950D01*
X82327Y-130783D01*
X82647Y-130367D01*
X82860Y-129867D01*
X83020Y-129200D01*
X83073Y-128450D01*
X83020Y-127700D01*
X82860Y-127033D01*
X82647Y-126533D01*
X82327Y-126117D01*
X81900Y-125950D01*
G01X85087Y-128867D02*
X85460Y-128283D01*
X85780Y-127950D01*
X86207Y-127783D01*
X86580Y-127950D01*
X86847Y-128283D01*
X87060Y-128783D01*
X87113Y-129367D01*
X87060Y-129867D01*
X86847Y-130367D01*
X86527Y-130783D01*
X86153Y-130950D01*
X85727Y-130783D01*
X85353Y-130284D01*
X85140Y-129533D01*
X85087Y-128700D01*
X85193Y-127617D01*
X85353Y-127033D01*
X85620Y-126450D01*
X85993Y-126033D01*
X86367Y-125950D01*
X86740Y-126117D01*
X87007Y-126533D01*
G01X89233Y-129950D02*
X89500Y-130450D01*
X89820Y-130783D01*
X90193Y-130950D01*
X90620Y-130783D01*
X90940Y-130450D01*
X91260Y-129950D01*
X91367Y-129283D01*
Y-125950D01*
G01X93167Y-130950D02*
X94500Y-125950D01*
X95833Y-130950D01*
G01X95353Y-129200D02*
X93647D01*
G01X97473Y-130950D02*
Y-125950D01*
X99927Y-130950D01*
Y-125950D01*
G01X102900Y-130950D02*
Y-125950D01*
X102260Y-126950D01*
G01Y-130950D02*
X103540D01*
G01X107740D02*
Y-125950D01*
X105767Y-129533D01*
X108433D01*
G01X78887Y-139867D02*
X79260Y-139283D01*
X79580Y-138950D01*
X80007Y-138783D01*
X80380Y-138950D01*
X80647Y-139283D01*
X80860Y-139783D01*
X80913Y-140367D01*
X80860Y-140867D01*
X80647Y-141367D01*
X80327Y-141783D01*
X79953Y-141950D01*
X79527Y-141783D01*
X79153Y-141284D01*
X78940Y-140533D01*
X78887Y-139700D01*
X78993Y-138617D01*
X79153Y-138033D01*
X79420Y-137450D01*
X79793Y-137033D01*
X80167Y-136950D01*
X80540Y-137117D01*
X80807Y-137533D01*
G01X84100Y-141950D02*
X84473Y-141867D01*
X84900Y-141617D01*
X85167Y-141200D01*
X85273Y-140617D01*
X85167Y-140033D01*
X84847Y-139533D01*
X84367Y-139283D01*
X83833D01*
X83513Y-139117D01*
X83247Y-138700D01*
X83140Y-138117D01*
X83300Y-137533D01*
X83673Y-137117D01*
X84100Y-136950D01*
X84527Y-137117D01*
X84900Y-137533D01*
X85060Y-138117D01*
X84953Y-138700D01*
X84687Y-139117D01*
X84367Y-139283D01*
X83833D01*
X83353Y-139533D01*
X83033Y-140033D01*
X82927Y-140617D01*
X83033Y-141200D01*
X83300Y-141617D01*
X83727Y-141867D01*
X84100Y-141950D01*
G01X87127Y-140950D02*
X87447Y-141533D01*
X87873Y-141867D01*
X88353Y-141950D01*
X88780Y-141867D01*
X89207Y-141450D01*
X89473Y-140950D01*
X89527Y-140450D01*
X89420Y-139867D01*
X89047Y-139450D01*
X88673Y-139283D01*
X88193D01*
G01X88673D02*
X88993Y-139033D01*
X89260Y-138617D01*
X89367Y-138117D01*
X89260Y-137617D01*
X88993Y-137200D01*
X88513Y-136950D01*
X88033Y-137033D01*
X87553Y-137367D01*
G01X91807Y-140283D02*
X93193D01*
G01X96700Y-136950D02*
X96273Y-137117D01*
X95953Y-137533D01*
X95740Y-138033D01*
X95580Y-138700D01*
X95527Y-139450D01*
X95580Y-140200D01*
X95740Y-140867D01*
X95953Y-141367D01*
X96273Y-141783D01*
X96700Y-141950D01*
X97127Y-141783D01*
X97447Y-141367D01*
X97660Y-140867D01*
X97820Y-140200D01*
X97873Y-139450D01*
X97820Y-138700D01*
X97660Y-138033D01*
X97447Y-137533D01*
X97127Y-137117D01*
X96700Y-136950D01*
G01X99727Y-140950D02*
X100047Y-141533D01*
X100473Y-141867D01*
X100953Y-141950D01*
X101380Y-141867D01*
X101807Y-141450D01*
X102073Y-140950D01*
X102127Y-140450D01*
X102020Y-139867D01*
X101647Y-139450D01*
X101273Y-139283D01*
X100793D01*
G01X101273D02*
X101593Y-139033D01*
X101860Y-138617D01*
X101967Y-138117D01*
X101860Y-137617D01*
X101593Y-137200D01*
X101113Y-136950D01*
X100633Y-137033D01*
X100153Y-137367D01*
G01X105100Y-136950D02*
X104673Y-137117D01*
X104353Y-137533D01*
X104140Y-138033D01*
X103980Y-138700D01*
X103927Y-139450D01*
X103980Y-140200D01*
X104140Y-140867D01*
X104353Y-141367D01*
X104673Y-141783D01*
X105100Y-141950D01*
X105527Y-141783D01*
X105847Y-141367D01*
X106060Y-140867D01*
X106220Y-140200D01*
X106273Y-139450D01*
X106220Y-138700D01*
X106060Y-138033D01*
X105847Y-137533D01*
X105527Y-137117D01*
X105100Y-136950D01*
G01X109300Y-141950D02*
Y-136950D01*
X108660Y-137950D01*
G01Y-141950D02*
X109940D01*
G01X112487Y-137783D02*
X112807Y-137283D01*
X113180Y-137033D01*
X113607Y-136950D01*
X114140Y-137117D01*
X114513Y-137533D01*
X114620Y-138033D01*
X114567Y-138534D01*
X114353Y-138950D01*
X113287Y-139783D01*
X112807Y-140367D01*
X112487Y-141200D01*
X112380Y-141950D01*
X114620D01*
G01X117700Y-136950D02*
X117273Y-137117D01*
X116953Y-137533D01*
X116740Y-138033D01*
X116580Y-138700D01*
X116527Y-139450D01*
X116580Y-140200D01*
X116740Y-140867D01*
X116953Y-141367D01*
X117273Y-141783D01*
X117700Y-141950D01*
X118127Y-141783D01*
X118447Y-141367D01*
X118660Y-140867D01*
X118820Y-140200D01*
X118873Y-139450D01*
X118820Y-138700D01*
X118660Y-138033D01*
X118447Y-137533D01*
X118127Y-137117D01*
X117700Y-136950D01*
G01X121900Y-141950D02*
Y-136950D01*
X121260Y-137950D01*
G01Y-141950D02*
X122540D01*
G01X125087Y-137783D02*
X125407Y-137283D01*
X125780Y-137033D01*
X126207Y-136950D01*
X126740Y-137117D01*
X127113Y-137533D01*
X127220Y-138033D01*
X127167Y-138534D01*
X126953Y-138950D01*
X125887Y-139783D01*
X125407Y-140367D01*
X125087Y-141200D01*
X124980Y-141950D01*
X127220D01*
G01X129607Y-140283D02*
X130993D01*
G01X134500Y-136950D02*
X134073Y-137117D01*
X133753Y-137533D01*
X133540Y-138033D01*
X133380Y-138700D01*
X133327Y-139450D01*
X133380Y-140200D01*
X133540Y-140867D01*
X133753Y-141367D01*
X134073Y-141783D01*
X134500Y-141950D01*
X134927Y-141783D01*
X135247Y-141367D01*
X135460Y-140867D01*
X135620Y-140200D01*
X135673Y-139450D01*
X135620Y-138700D01*
X135460Y-138033D01*
X135247Y-137533D01*
X134927Y-137117D01*
X134500Y-136950D01*
G01X138700Y-141950D02*
Y-136950D01*
X138060Y-137950D01*
G01Y-141950D02*
X139340D01*
G01X89333Y-119950D02*
Y-114950D01*
X90667D01*
X91093Y-115200D01*
X91360Y-115533D01*
X91467Y-116200D01*
X91360Y-116867D01*
X91040Y-117283D01*
X90667Y-117533D01*
X89333D01*
G01X90667D02*
X91467Y-119950D01*
G01X94600D02*
X94173Y-119867D01*
X93800Y-119533D01*
X93480Y-119033D01*
X93267Y-118450D01*
X93160Y-117783D01*
Y-117117D01*
X93267Y-116450D01*
X93480Y-115867D01*
X93800Y-115367D01*
X94173Y-115033D01*
X94600Y-114950D01*
X95027Y-115033D01*
X95400Y-115367D01*
X95720Y-115867D01*
X95933Y-116450D01*
X96040Y-117117D01*
Y-117783D01*
X95933Y-118450D01*
X95720Y-119033D01*
X95400Y-119533D01*
X95027Y-119867D01*
X94600Y-119950D01*
G01X97680D02*
Y-114950D01*
G01X99920D02*
Y-119950D01*
G01Y-117450D02*
X97680D01*
G01X101613Y-119950D02*
Y-114950D01*
X103000Y-119117D01*
X104387Y-114950D01*
Y-119950D01*
G01X110280Y-119284D02*
X110707Y-119700D01*
X111187Y-119950D01*
X111613D01*
X112040Y-119700D01*
X112360Y-119284D01*
X112520Y-118700D01*
X112413Y-118117D01*
X112147Y-117617D01*
X111667Y-117283D01*
X111027Y-117117D01*
X110653Y-116783D01*
X110493Y-116200D01*
X110600Y-115617D01*
X110867Y-115200D01*
X111240Y-114950D01*
X111613D01*
X111987Y-115117D01*
X112307Y-115533D01*
G01X116667Y-119950D02*
X114533D01*
Y-114950D01*
X116667D01*
G01X115813Y-117367D02*
X114533D01*
G01X118413Y-119950D02*
Y-114950D01*
X119800Y-119117D01*
X121187Y-114950D01*
Y-119950D01*
G01X123360Y-114950D02*
X124640D01*
G01X124000D02*
Y-119950D01*
G01X123360D02*
X124640D01*
G01X129373Y-115367D02*
X129053Y-115117D01*
X128680Y-114950D01*
X128253D01*
X127773Y-115200D01*
X127400Y-115617D01*
X127133Y-116117D01*
X126920Y-116950D01*
X126867Y-117700D01*
X126973Y-118450D01*
X127133Y-118950D01*
X127453Y-119450D01*
X127827Y-119783D01*
X128200Y-119950D01*
X128573D01*
X128947Y-119783D01*
X129267Y-119533D01*
X129533Y-119200D01*
G01X132400Y-119950D02*
X131973Y-119867D01*
X131600Y-119533D01*
X131280Y-119033D01*
X131067Y-118450D01*
X130960Y-117783D01*
Y-117117D01*
X131067Y-116450D01*
X131280Y-115867D01*
X131600Y-115367D01*
X131973Y-115033D01*
X132400Y-114950D01*
X132827Y-115033D01*
X133200Y-115367D01*
X133520Y-115867D01*
X133733Y-116450D01*
X133840Y-117117D01*
Y-117783D01*
X133733Y-118450D01*
X133520Y-119033D01*
X133200Y-119533D01*
X132827Y-119867D01*
X132400Y-119950D01*
G01X135373D02*
Y-114950D01*
X137827Y-119950D01*
Y-114950D01*
G01X139627Y-119950D02*
Y-114950D01*
X140693D01*
X141120Y-115200D01*
X141440Y-115533D01*
X141707Y-116033D01*
X141920Y-116617D01*
X141973Y-117450D01*
X141920Y-118283D01*
X141707Y-118867D01*
X141440Y-119367D01*
X141120Y-119700D01*
X140693Y-119950D01*
X139627D01*
G01X143827Y-114950D02*
Y-118533D01*
X144040Y-119284D01*
X144467Y-119783D01*
X145000Y-119950D01*
X145533Y-119783D01*
X145960Y-119284D01*
X146173Y-118533D01*
Y-114950D01*
G01X150373Y-115367D02*
X150053Y-115117D01*
X149680Y-114950D01*
X149253D01*
X148773Y-115200D01*
X148400Y-115617D01*
X148133Y-116117D01*
X147920Y-116950D01*
X147867Y-117700D01*
X147973Y-118450D01*
X148133Y-118950D01*
X148453Y-119450D01*
X148827Y-119783D01*
X149200Y-119950D01*
X149573D01*
X149947Y-119783D01*
X150267Y-119533D01*
X150533Y-119200D01*
G01X153400Y-114950D02*
Y-119950D01*
G01X152173Y-114950D02*
X154627D01*
G01X157600Y-119950D02*
X157173Y-119867D01*
X156800Y-119533D01*
X156480Y-119033D01*
X156267Y-118450D01*
X156160Y-117783D01*
Y-117117D01*
X156267Y-116450D01*
X156480Y-115867D01*
X156800Y-115367D01*
X157173Y-115033D01*
X157600Y-114950D01*
X158027Y-115033D01*
X158400Y-115367D01*
X158720Y-115867D01*
X158933Y-116450D01*
X159040Y-117117D01*
Y-117783D01*
X158933Y-118450D01*
X158720Y-119033D01*
X158400Y-119533D01*
X158027Y-119867D01*
X157600Y-119950D01*
G01X160733D02*
Y-114950D01*
X162067D01*
X162493Y-115200D01*
X162760Y-115533D01*
X162867Y-116200D01*
X162760Y-116867D01*
X162440Y-117283D01*
X162067Y-117533D01*
X160733D01*
G01X162067D02*
X162867Y-119950D01*
G01X93833Y-108950D02*
Y-103950D01*
X95113D01*
X95540Y-104200D01*
X95860Y-104783D01*
X95967Y-105450D01*
X95860Y-106117D01*
X95593Y-106617D01*
X95113Y-106867D01*
X93833D01*
G01X99100Y-103950D02*
Y-108950D01*
G01X97873Y-103950D02*
X100327D01*
G01X102180Y-108950D02*
Y-103950D01*
G01X104420D02*
Y-108950D01*
G01Y-106450D02*
X102180D01*
G01X106167Y-103950D02*
X107500Y-108950D01*
X108833Y-103950D01*
G01X110527Y-108950D02*
Y-103950D01*
X111593D01*
X112020Y-104200D01*
X112340Y-104533D01*
X112607Y-105033D01*
X112820Y-105617D01*
X112873Y-106450D01*
X112820Y-107283D01*
X112607Y-107867D01*
X112340Y-108367D01*
X112020Y-108700D01*
X111593Y-108950D01*
X110527D01*
G01X117073Y-104367D02*
X116753Y-104117D01*
X116380Y-103950D01*
X115953D01*
X115473Y-104200D01*
X115100Y-104617D01*
X114833Y-105117D01*
X114620Y-105950D01*
X114567Y-106700D01*
X114673Y-107450D01*
X114833Y-107950D01*
X115153Y-108450D01*
X115527Y-108783D01*
X115900Y-108950D01*
X116273D01*
X116647Y-108783D01*
X116967Y-108533D01*
X117233Y-108200D01*
G01X95800Y-74950D02*
X95133Y-75200D01*
X94633Y-75825D01*
X94300Y-76575D01*
X94050Y-77575D01*
X93967Y-78700D01*
X94050Y-79825D01*
X94300Y-80825D01*
X94633Y-81575D01*
X95133Y-82200D01*
X95800Y-82450D01*
X96467Y-82200D01*
X96967Y-81575D01*
X97300Y-80825D01*
X97550Y-79825D01*
X97633Y-78700D01*
X97550Y-77575D01*
X97300Y-76575D01*
X96967Y-75825D01*
X96467Y-75200D01*
X95800Y-74950D01*
G01X102300Y-82450D02*
Y-74950D01*
X101300Y-76450D01*
G01Y-82450D02*
X103300D01*
G01X168967Y-129950D02*
Y-123950D01*
X170567D01*
X171100Y-124250D01*
X171500Y-124950D01*
X171633Y-125750D01*
X171500Y-126550D01*
X171167Y-127150D01*
X170567Y-127450D01*
X168967D01*
G01X174167Y-129950D02*
Y-123950D01*
X175833D01*
X176367Y-124250D01*
X176700Y-124650D01*
X176833Y-125450D01*
X176700Y-126250D01*
X176300Y-126750D01*
X175833Y-127050D01*
X174167D01*
G01X175833D02*
X176833Y-129950D01*
G01X180700D02*
X180167Y-129850D01*
X179700Y-129450D01*
X179300Y-128850D01*
X179033Y-128150D01*
X178900Y-127350D01*
Y-126550D01*
X179033Y-125750D01*
X179300Y-125050D01*
X179700Y-124450D01*
X180167Y-124050D01*
X180700Y-123950D01*
X181233Y-124050D01*
X181700Y-124450D01*
X182100Y-125050D01*
X182367Y-125750D01*
X182500Y-126550D01*
Y-127350D01*
X182367Y-128150D01*
X182100Y-128850D01*
X181700Y-129450D01*
X181233Y-129850D01*
X180700Y-129950D01*
G01X184567Y-128750D02*
X184900Y-129350D01*
X185300Y-129750D01*
X185767Y-129950D01*
X186300Y-129750D01*
X186700Y-129350D01*
X187100Y-128750D01*
X187233Y-127950D01*
Y-123950D01*
G01X192433Y-129950D02*
X189767D01*
Y-123950D01*
X192433D01*
G01X191367Y-126850D02*
X189767D01*
G01X197767Y-124450D02*
X197367Y-124150D01*
X196900Y-123950D01*
X196367D01*
X195767Y-124250D01*
X195300Y-124750D01*
X194967Y-125350D01*
X194700Y-126350D01*
X194633Y-127250D01*
X194767Y-128150D01*
X194967Y-128750D01*
X195367Y-129350D01*
X195833Y-129750D01*
X196300Y-129950D01*
X196767D01*
X197233Y-129750D01*
X197633Y-129450D01*
X197967Y-129050D01*
G01X201500Y-123950D02*
Y-129950D01*
G01X199967Y-123950D02*
X203033D01*
G01X210367Y-129950D02*
Y-123950D01*
X213433Y-129950D01*
Y-123950D01*
G01X215633D02*
Y-128250D01*
X215900Y-129150D01*
X216433Y-129750D01*
X217100Y-129950D01*
X217767Y-129750D01*
X218300Y-129150D01*
X218567Y-128250D01*
Y-123950D01*
G01X220567Y-129950D02*
Y-123950D01*
X222300Y-128950D01*
X224033Y-123950D01*
Y-129950D01*
G01X228033Y-126750D02*
X228300Y-126450D01*
X228500Y-125950D01*
X228633Y-125250D01*
X228500Y-124650D01*
X228233Y-124250D01*
X227767Y-123950D01*
X225967D01*
Y-129950D01*
X228167D01*
X228633Y-129550D01*
X228900Y-128950D01*
X229033Y-128250D01*
X228900Y-127550D01*
X228500Y-126950D01*
X228033Y-126750D01*
X225967D01*
G01X234033Y-129950D02*
X231367D01*
Y-123950D01*
X234033D01*
G01X232967Y-126850D02*
X231367D01*
G01X236567Y-129950D02*
Y-123950D01*
X238233D01*
X238767Y-124250D01*
X239100Y-124650D01*
X239233Y-125450D01*
X239100Y-126250D01*
X238700Y-126750D01*
X238233Y-127050D01*
X236567D01*
G01X238233D02*
X239233Y-129950D01*
G01X243100Y-130150D02*
X242967Y-130050D01*
Y-129850D01*
X243100Y-129750D01*
X243233Y-129850D01*
Y-130050D01*
X243100Y-130150D01*
G01Y-127450D02*
X242967Y-127350D01*
Y-127150D01*
X243100Y-127050D01*
X243233Y-127150D01*
Y-127350D01*
X243100Y-127450D01*
G01X165800Y-69950D02*
Y-144950D01*
G01X168967Y-107450D02*
Y-101450D01*
X170567D01*
X171100Y-101750D01*
X171500Y-102450D01*
X171633Y-103250D01*
X171500Y-104050D01*
X171167Y-104650D01*
X170567Y-104950D01*
X168967D01*
G01X174167Y-107450D02*
Y-101450D01*
X175833D01*
X176367Y-101750D01*
X176700Y-102150D01*
X176833Y-102950D01*
X176700Y-103750D01*
X176300Y-104250D01*
X175833Y-104550D01*
X174167D01*
G01X175833D02*
X176833Y-107450D01*
G01X180700D02*
X180167Y-107350D01*
X179700Y-106950D01*
X179300Y-106350D01*
X179033Y-105650D01*
X178900Y-104850D01*
Y-104050D01*
X179033Y-103250D01*
X179300Y-102550D01*
X179700Y-101950D01*
X180167Y-101550D01*
X180700Y-101450D01*
X181233Y-101550D01*
X181700Y-101950D01*
X182100Y-102550D01*
X182367Y-103250D01*
X182500Y-104050D01*
Y-104850D01*
X182367Y-105650D01*
X182100Y-106350D01*
X181700Y-106950D01*
X181233Y-107350D01*
X180700Y-107450D01*
G01X184567Y-106250D02*
X184900Y-106850D01*
X185300Y-107250D01*
X185767Y-107450D01*
X186300Y-107250D01*
X186700Y-106850D01*
X187100Y-106250D01*
X187233Y-105450D01*
Y-101450D01*
G01X192433Y-107450D02*
X189767D01*
Y-101450D01*
X192433D01*
G01X191367Y-104350D02*
X189767D01*
G01X197767Y-101950D02*
X197367Y-101650D01*
X196900Y-101450D01*
X196367D01*
X195767Y-101750D01*
X195300Y-102250D01*
X194967Y-102850D01*
X194700Y-103850D01*
X194633Y-104750D01*
X194767Y-105650D01*
X194967Y-106250D01*
X195367Y-106850D01*
X195833Y-107250D01*
X196300Y-107450D01*
X196767D01*
X197233Y-107250D01*
X197633Y-106950D01*
X197967Y-106550D01*
G01X201500Y-101450D02*
Y-107450D01*
G01X199967Y-101450D02*
X203033D01*
G01X210367Y-107450D02*
Y-101450D01*
X213433Y-107450D01*
Y-101450D01*
G01X215433Y-107450D02*
X217100Y-101450D01*
X218767Y-107450D01*
G01X218167Y-105350D02*
X216033D01*
G01X220567Y-107450D02*
Y-101450D01*
X222300Y-106450D01*
X224033Y-101450D01*
Y-107450D01*
G01X228833D02*
X226167D01*
Y-101450D01*
X228833D01*
G01X227767Y-104350D02*
X226167D01*
G01X232700Y-107650D02*
X232567Y-107550D01*
Y-107350D01*
X232700Y-107250D01*
X232833Y-107350D01*
Y-107550D01*
X232700Y-107650D01*
G01Y-104950D02*
X232567Y-104850D01*
Y-104650D01*
X232700Y-104550D01*
X232833Y-104650D01*
Y-104850D01*
X232700Y-104950D01*
G01X363300Y-122450D02*
X165800D01*
G01X363300Y-99950D02*
X165800D01*
G01X171767Y-71950D02*
X171367Y-71650D01*
X170900Y-71450D01*
X170367D01*
X169767Y-71750D01*
X169300Y-72250D01*
X168967Y-72850D01*
X168700Y-73850D01*
X168633Y-74750D01*
X168767Y-75650D01*
X168967Y-76250D01*
X169367Y-76850D01*
X169833Y-77250D01*
X170300Y-77450D01*
X170767D01*
X171233Y-77250D01*
X171633Y-76950D01*
X171967Y-76550D01*
G01X175500Y-77450D02*
X174967Y-77350D01*
X174500Y-76950D01*
X174100Y-76350D01*
X173833Y-75650D01*
X173700Y-74850D01*
Y-74050D01*
X173833Y-73250D01*
X174100Y-72550D01*
X174500Y-71950D01*
X174967Y-71550D01*
X175500Y-71450D01*
X176033Y-71550D01*
X176500Y-71950D01*
X176900Y-72550D01*
X177167Y-73250D01*
X177300Y-74050D01*
Y-74850D01*
X177167Y-75650D01*
X176900Y-76350D01*
X176500Y-76950D01*
X176033Y-77350D01*
X175500Y-77450D01*
G01X178967D02*
Y-71450D01*
X180700Y-76450D01*
X182433Y-71450D01*
Y-77450D01*
G01X184567D02*
Y-71450D01*
X186167D01*
X186700Y-71750D01*
X187100Y-72450D01*
X187233Y-73250D01*
X187100Y-74050D01*
X186767Y-74650D01*
X186167Y-74950D01*
X184567D01*
G01X189433Y-77450D02*
X191100Y-71450D01*
X192767Y-77450D01*
G01X192167Y-75350D02*
X190033D01*
G01X194767Y-77450D02*
Y-71450D01*
X197833Y-77450D01*
Y-71450D01*
G01X201500Y-77450D02*
Y-74750D01*
X200167Y-71450D01*
G01X202833D02*
X201500Y-74750D01*
G01X210367Y-77450D02*
Y-71450D01*
X213433Y-77450D01*
Y-71450D01*
G01X215433Y-77450D02*
X217100Y-71450D01*
X218767Y-77450D01*
G01X218167Y-75350D02*
X216033D01*
G01X220567Y-77450D02*
Y-71450D01*
X222300Y-76450D01*
X224033Y-71450D01*
Y-77450D01*
G01X228833D02*
X226167D01*
Y-71450D01*
X228833D01*
G01X227767Y-74350D02*
X226167D01*
G01X232700Y-77650D02*
X232567Y-77550D01*
Y-77350D01*
X232700Y-77250D01*
X232833Y-77350D01*
Y-77550D01*
X232700Y-77650D01*
G01Y-74950D02*
X232567Y-74850D01*
Y-74650D01*
X232700Y-74550D01*
X232833Y-74650D01*
Y-74850D01*
X232700Y-74950D01*
G01X192667Y-94950D02*
Y-86950D01*
X194833D01*
X195527Y-87350D01*
X195960Y-87883D01*
X196133Y-88950D01*
X195960Y-90017D01*
X195440Y-90683D01*
X194833Y-91083D01*
X192667D01*
G01X194833D02*
X196133Y-94950D01*
G01X201200D02*
X200507Y-94817D01*
X199900Y-94284D01*
X199380Y-93483D01*
X199033Y-92550D01*
X198860Y-91483D01*
Y-90417D01*
X199033Y-89350D01*
X199380Y-88417D01*
X199900Y-87617D01*
X200507Y-87083D01*
X201200Y-86950D01*
X201893Y-87083D01*
X202500Y-87617D01*
X203020Y-88417D01*
X203367Y-89350D01*
X203540Y-90417D01*
Y-91483D01*
X203367Y-92550D01*
X203020Y-93483D01*
X202500Y-94284D01*
X201893Y-94817D01*
X201200Y-94950D01*
G01X206180D02*
Y-86950D01*
G01X209820D02*
Y-94950D01*
G01Y-90950D02*
X206180D01*
G01X212547Y-94950D02*
Y-86950D01*
X214800Y-93617D01*
X217053Y-86950D01*
Y-94950D01*
G01X226580Y-93884D02*
X227273Y-94550D01*
X228053Y-94950D01*
X228747D01*
X229440Y-94550D01*
X229960Y-93884D01*
X230220Y-92950D01*
X230047Y-92017D01*
X229613Y-91217D01*
X228833Y-90683D01*
X227793Y-90417D01*
X227187Y-89883D01*
X226927Y-88950D01*
X227100Y-88017D01*
X227533Y-87350D01*
X228140Y-86950D01*
X228747D01*
X229353Y-87217D01*
X229873Y-87883D01*
G01X236933Y-94950D02*
X233467D01*
Y-86950D01*
X236933D01*
G01X235547Y-90817D02*
X233467D01*
G01X239747Y-94950D02*
Y-86950D01*
X242000Y-93617D01*
X244253Y-86950D01*
Y-94950D01*
G01X247760Y-86950D02*
X249840D01*
G01X248800D02*
Y-94950D01*
G01X247760D02*
X249840D01*
G01X257507Y-87617D02*
X256987Y-87217D01*
X256380Y-86950D01*
X255687D01*
X254907Y-87350D01*
X254300Y-88017D01*
X253867Y-88817D01*
X253520Y-90150D01*
X253433Y-91350D01*
X253607Y-92550D01*
X253867Y-93350D01*
X254387Y-94150D01*
X254993Y-94683D01*
X255600Y-94950D01*
X256207D01*
X256813Y-94683D01*
X257333Y-94284D01*
X257767Y-93750D01*
G01X262400Y-94950D02*
X261707Y-94817D01*
X261100Y-94284D01*
X260580Y-93483D01*
X260233Y-92550D01*
X260060Y-91483D01*
Y-90417D01*
X260233Y-89350D01*
X260580Y-88417D01*
X261100Y-87617D01*
X261707Y-87083D01*
X262400Y-86950D01*
X263093Y-87083D01*
X263700Y-87617D01*
X264220Y-88417D01*
X264567Y-89350D01*
X264740Y-90417D01*
Y-91483D01*
X264567Y-92550D01*
X264220Y-93483D01*
X263700Y-94284D01*
X263093Y-94817D01*
X262400Y-94950D01*
G01X267207D02*
Y-86950D01*
X271193Y-94950D01*
Y-86950D01*
G01X274093Y-94950D02*
Y-86950D01*
X275827D01*
X276520Y-87350D01*
X277040Y-87883D01*
X277473Y-88683D01*
X277820Y-89617D01*
X277907Y-90950D01*
X277820Y-92283D01*
X277473Y-93217D01*
X277040Y-94017D01*
X276520Y-94550D01*
X275827Y-94950D01*
X274093D01*
G01X280893Y-86950D02*
Y-92683D01*
X281240Y-93884D01*
X281933Y-94683D01*
X282800Y-94950D01*
X283667Y-94683D01*
X284360Y-93884D01*
X284707Y-92683D01*
Y-86950D01*
G01X291507Y-87617D02*
X290987Y-87217D01*
X290380Y-86950D01*
X289687D01*
X288907Y-87350D01*
X288300Y-88017D01*
X287867Y-88817D01*
X287520Y-90150D01*
X287433Y-91350D01*
X287607Y-92550D01*
X287867Y-93350D01*
X288387Y-94150D01*
X288993Y-94683D01*
X289600Y-94950D01*
X290207D01*
X290813Y-94683D01*
X291333Y-94284D01*
X291767Y-93750D01*
G01X296400Y-86950D02*
Y-94950D01*
G01X294407Y-86950D02*
X298393D01*
G01X303200Y-94950D02*
X302507Y-94817D01*
X301900Y-94284D01*
X301380Y-93483D01*
X301033Y-92550D01*
X300860Y-91483D01*
Y-90417D01*
X301033Y-89350D01*
X301380Y-88417D01*
X301900Y-87617D01*
X302507Y-87083D01*
X303200Y-86950D01*
X303893Y-87083D01*
X304500Y-87617D01*
X305020Y-88417D01*
X305367Y-89350D01*
X305540Y-90417D01*
Y-91483D01*
X305367Y-92550D01*
X305020Y-93483D01*
X304500Y-94284D01*
X303893Y-94817D01*
X303200Y-94950D01*
G01X308267D02*
Y-86950D01*
X310433D01*
X311127Y-87350D01*
X311560Y-87883D01*
X311733Y-88950D01*
X311560Y-90017D01*
X311040Y-90683D01*
X310433Y-91083D01*
X308267D01*
G01X310433D02*
X311733Y-94950D01*
G01X321693Y-86950D02*
Y-92683D01*
X322040Y-93884D01*
X322733Y-94683D01*
X323600Y-94950D01*
X324467Y-94683D01*
X325160Y-93884D01*
X325507Y-92683D01*
Y-86950D01*
G01X328580Y-93884D02*
X329273Y-94550D01*
X330053Y-94950D01*
X330747D01*
X331440Y-94550D01*
X331960Y-93884D01*
X332220Y-92950D01*
X332047Y-92017D01*
X331613Y-91217D01*
X330833Y-90683D01*
X329793Y-90417D01*
X329187Y-89883D01*
X328927Y-88950D01*
X329100Y-88017D01*
X329533Y-87350D01*
X330140Y-86950D01*
X330747D01*
X331353Y-87217D01*
X331873Y-87883D01*
G01X335033Y-94950D02*
X337200Y-86950D01*
X339367Y-94950D01*
G01X338587Y-92150D02*
X335813D01*
G01X212093Y-115683D02*
X212440Y-115283D01*
X212700Y-114617D01*
X212873Y-113683D01*
X212700Y-112883D01*
X212353Y-112350D01*
X211747Y-111950D01*
X209407D01*
Y-119950D01*
X212267D01*
X212873Y-119417D01*
X213220Y-118617D01*
X213393Y-117683D01*
X213220Y-116750D01*
X212700Y-115950D01*
X212093Y-115683D01*
X209407D01*
G01X216293Y-119950D02*
Y-111950D01*
X218027D01*
X218720Y-112350D01*
X219240Y-112883D01*
X219673Y-113683D01*
X220020Y-114617D01*
X220107Y-115950D01*
X220020Y-117283D01*
X219673Y-118217D01*
X219240Y-119017D01*
X218720Y-119550D01*
X218027Y-119950D01*
X216293D01*
G01X223527Y-119017D02*
X224133Y-119683D01*
X224827Y-119950D01*
X225520Y-119683D01*
X226127Y-118884D01*
X226560Y-117683D01*
X226733Y-116483D01*
Y-115017D01*
X226560Y-113817D01*
X226127Y-112750D01*
X225607Y-112217D01*
X225000Y-111950D01*
X224307Y-112217D01*
X223787Y-112750D01*
X223440Y-113550D01*
X223267Y-114617D01*
X223440Y-115550D01*
X223873Y-116483D01*
X224393Y-117017D01*
X225000Y-117150D01*
X225693Y-116884D01*
X226213Y-116217D01*
X226733Y-115017D01*
G01X233707Y-112617D02*
X233187Y-112217D01*
X232580Y-111950D01*
X231887D01*
X231107Y-112350D01*
X230500Y-113017D01*
X230067Y-113817D01*
X229720Y-115150D01*
X229633Y-116350D01*
X229807Y-117550D01*
X230067Y-118350D01*
X230587Y-119150D01*
X231193Y-119683D01*
X231800Y-119950D01*
X232407D01*
X233013Y-119683D01*
X233533Y-119284D01*
X233967Y-118750D01*
G01X236953Y-116617D02*
X237560Y-115683D01*
X238080Y-115150D01*
X238773Y-114883D01*
X239380Y-115150D01*
X239813Y-115683D01*
X240160Y-116483D01*
X240247Y-117417D01*
X240160Y-118217D01*
X239813Y-119017D01*
X239293Y-119683D01*
X238687Y-119950D01*
X237993Y-119683D01*
X237387Y-118884D01*
X237040Y-117683D01*
X236953Y-116350D01*
X237127Y-114617D01*
X237387Y-113683D01*
X237820Y-112750D01*
X238427Y-112083D01*
X239033Y-111950D01*
X239640Y-112217D01*
X240073Y-112883D01*
G01X245400Y-111950D02*
X244707Y-112217D01*
X244187Y-112883D01*
X243840Y-113683D01*
X243580Y-114750D01*
X243493Y-115950D01*
X243580Y-117150D01*
X243840Y-118217D01*
X244187Y-119017D01*
X244707Y-119683D01*
X245400Y-119950D01*
X246093Y-119683D01*
X246613Y-119017D01*
X246960Y-118217D01*
X247220Y-117150D01*
X247307Y-115950D01*
X247220Y-114750D01*
X246960Y-113683D01*
X246613Y-112883D01*
X246093Y-112217D01*
X245400Y-111950D01*
G01X252200Y-119950D02*
Y-111950D01*
X251160Y-113550D01*
G01Y-119950D02*
X253240D01*
G01X260733D02*
X257267D01*
Y-111950D01*
X260733D01*
G01X259347Y-115817D02*
X257267D01*
G01X264153Y-119950D02*
Y-111950D01*
X267447D01*
G01X266233Y-115817D02*
X264153D01*
G01X270867Y-118350D02*
X271300Y-119150D01*
X271820Y-119683D01*
X272427Y-119950D01*
X273120Y-119683D01*
X273640Y-119150D01*
X274160Y-118350D01*
X274333Y-117283D01*
Y-111950D01*
G01X281133Y-119950D02*
X277667D01*
Y-111950D01*
X281133D01*
G01X279747Y-115817D02*
X277667D01*
G01X284033Y-111950D02*
X286200Y-119950D01*
X288367Y-111950D01*
G01X291093Y-119950D02*
Y-111950D01*
G01X294387D02*
X291093Y-116884D01*
G01X294907Y-119950D02*
X292567Y-114617D01*
G01X298673Y-117283D02*
X300927D01*
G01X306600Y-119950D02*
Y-111950D01*
X305560Y-113550D01*
G01Y-119950D02*
X307640D01*
G01X313400Y-111950D02*
X312707Y-112217D01*
X312187Y-112883D01*
X311840Y-113683D01*
X311580Y-114750D01*
X311493Y-115950D01*
X311580Y-117150D01*
X311840Y-118217D01*
X312187Y-119017D01*
X312707Y-119683D01*
X313400Y-119950D01*
X314093Y-119683D01*
X314613Y-119017D01*
X314960Y-118217D01*
X315220Y-117150D01*
X315307Y-115950D01*
X315220Y-114750D01*
X314960Y-113683D01*
X314613Y-112883D01*
X314093Y-112217D01*
X313400Y-111950D01*
G01X320200Y-119950D02*
Y-111950D01*
X319160Y-113550D01*
G01Y-119950D02*
X321240D01*
G01X229307Y-142450D02*
Y-134450D01*
X233293Y-142450D01*
Y-134450D01*
G01X236193D02*
Y-140183D01*
X236540Y-141384D01*
X237233Y-142183D01*
X238100Y-142450D01*
X238967Y-142183D01*
X239660Y-141384D01*
X240007Y-140183D01*
Y-134450D01*
G01X242647Y-142450D02*
Y-134450D01*
X244900Y-141117D01*
X247153Y-134450D01*
Y-142450D01*
G01X252393Y-138183D02*
X252740Y-137783D01*
X253000Y-137117D01*
X253173Y-136183D01*
X253000Y-135383D01*
X252653Y-134850D01*
X252047Y-134450D01*
X249707D01*
Y-142450D01*
X252567D01*
X253173Y-141917D01*
X253520Y-141117D01*
X253693Y-140183D01*
X253520Y-139250D01*
X253000Y-138450D01*
X252393Y-138183D01*
X249707D01*
G01X260233Y-142450D02*
X256767D01*
Y-134450D01*
X260233D01*
G01X258847Y-138317D02*
X256767D01*
G01X263567Y-142450D02*
Y-134450D01*
X265733D01*
X266427Y-134850D01*
X266860Y-135383D01*
X267033Y-136450D01*
X266860Y-137517D01*
X266340Y-138183D01*
X265733Y-138583D01*
X263567D01*
G01X265733D02*
X267033Y-142450D01*
G01X339167Y-129950D02*
Y-123950D01*
X340833D01*
X341367Y-124250D01*
X341700Y-124650D01*
X341833Y-125450D01*
X341700Y-126250D01*
X341300Y-126750D01*
X340833Y-127050D01*
X339167D01*
G01X340833D02*
X341833Y-129950D01*
G01X347033D02*
X344367D01*
Y-123950D01*
X347033D01*
G01X345967Y-126850D02*
X344367D01*
G01X349233Y-123950D02*
X350900Y-129950D01*
X352567Y-123950D01*
G01X356100Y-130150D02*
X355967Y-130050D01*
Y-129850D01*
X356100Y-129750D01*
X356233Y-129850D01*
Y-130050D01*
X356100Y-130150D01*
G01X333300Y-122450D02*
Y-144950D01*
G01X344900Y-134450D02*
X344207Y-134717D01*
X343687Y-135383D01*
X343340Y-136183D01*
X343080Y-137250D01*
X342993Y-138450D01*
X343080Y-139650D01*
X343340Y-140717D01*
X343687Y-141517D01*
X344207Y-142183D01*
X344900Y-142450D01*
X345593Y-142183D01*
X346113Y-141517D01*
X346460Y-140717D01*
X346720Y-139650D01*
X346807Y-138450D01*
X346720Y-137250D01*
X346460Y-136183D01*
X346113Y-135383D01*
X345593Y-134717D01*
X344900Y-134450D01*
G01X351700Y-142450D02*
Y-134450D01*
X350660Y-136050D01*
G01Y-142450D02*
X352740D01*
G01X372690Y-132450D02*
X374510Y-128450D01*
G01X372690D02*
X374510Y-132450D01*
G01X376090D02*
X377910Y-128450D01*
G01X376090D02*
X377910Y-132450D01*
G01X369290Y-138450D02*
X371110Y-134450D01*
G01X369290D02*
X371110Y-138450D01*
G01X372690D02*
X374510Y-134450D01*
G01X372690D02*
X374510Y-138450D01*
G01X376090D02*
X377910Y-134450D01*
G01X376090D02*
X377910Y-138450D01*
G01X363300Y-69950D02*
Y-144950D01*
G01X380300Y-132450D02*
X383300D01*
G01X380300Y-130250D02*
X383300D01*
G01X380300Y-138450D02*
X383300D01*
G01X380300Y-136250D02*
X383300D01*
G01X370647Y-120950D02*
Y-116950D01*
X371513D01*
X371860Y-117150D01*
X372120Y-117417D01*
X372337Y-117817D01*
X372510Y-118283D01*
X372553Y-118950D01*
X372510Y-119617D01*
X372337Y-120083D01*
X372120Y-120483D01*
X371860Y-120750D01*
X371513Y-120950D01*
X370647D01*
G01X375867D02*
X374133D01*
Y-116950D01*
X375867D01*
G01X375173Y-118883D02*
X374133D01*
G01X379353Y-117283D02*
X379093Y-117083D01*
X378790Y-116950D01*
X378443D01*
X378053Y-117150D01*
X377750Y-117483D01*
X377533Y-117883D01*
X377360Y-118550D01*
X377317Y-119150D01*
X377403Y-119750D01*
X377533Y-120150D01*
X377793Y-120550D01*
X378097Y-120817D01*
X378400Y-120950D01*
X378703D01*
X379007Y-120817D01*
X379267Y-120617D01*
X379483Y-120350D01*
G01X381280Y-116950D02*
X382320D01*
G01X381800D02*
Y-120950D01*
G01X381280D02*
X382320D01*
G01X384073D02*
Y-116950D01*
X385200Y-120283D01*
X386327Y-116950D01*
Y-120950D01*
G01X387517D02*
X388600Y-116950D01*
X389683Y-120950D01*
G01X389293Y-119550D02*
X387907D01*
G01X391133Y-116950D02*
Y-120950D01*
X392867D01*
G01X376090Y-126450D02*
X377910Y-122450D01*
G01X376090D02*
X377910Y-126450D01*
G01X380300Y-124250D02*
X383300D01*
G01X380300Y-126450D02*
X383300D01*
G01X379317Y-97450D02*
X380400Y-93450D01*
X381483Y-97450D01*
G01X381093Y-96050D02*
X379707D01*
G01X382933Y-97450D02*
Y-93450D01*
X384017D01*
X384363Y-93650D01*
X384580Y-93917D01*
X384667Y-94450D01*
X384580Y-94983D01*
X384320Y-95317D01*
X384017Y-95517D01*
X382933D01*
G01X384017D02*
X384667Y-97450D01*
G01X388067D02*
X386333D01*
Y-93450D01*
X388067D01*
G01X387373Y-95383D02*
X386333D01*
G01X393480Y-93450D02*
X394520D01*
G01X394000D02*
Y-97450D01*
G01X393480D02*
X394520D01*
G01X396403D02*
Y-93450D01*
X398397Y-97450D01*
Y-93450D01*
G01X403680D02*
X404720D01*
G01X404200D02*
Y-97450D01*
G01X403680D02*
X404720D01*
G01X406603D02*
Y-93450D01*
X408597Y-97450D01*
Y-93450D01*
G01X411953Y-93783D02*
X411693Y-93583D01*
X411390Y-93450D01*
X411043D01*
X410653Y-93650D01*
X410350Y-93983D01*
X410133Y-94383D01*
X409960Y-95050D01*
X409917Y-95650D01*
X410003Y-96250D01*
X410133Y-96650D01*
X410393Y-97050D01*
X410697Y-97317D01*
X411000Y-97450D01*
X411303D01*
X411607Y-97317D01*
X411867Y-97117D01*
X412083Y-96850D01*
G01X413490Y-97450D02*
Y-93450D01*
G01X415310D02*
Y-97450D01*
G01Y-95450D02*
X413490D01*
G01X418667Y-97450D02*
X416933D01*
Y-93450D01*
X418667D01*
G01X417973Y-95383D02*
X416933D01*
G01X420290Y-96917D02*
X420637Y-97250D01*
X421027Y-97450D01*
X421373D01*
X421720Y-97250D01*
X421980Y-96917D01*
X422110Y-96450D01*
X422023Y-95983D01*
X421807Y-95583D01*
X421417Y-95317D01*
X420897Y-95183D01*
X420593Y-94917D01*
X420463Y-94450D01*
X420550Y-93983D01*
X420767Y-93650D01*
X421070Y-93450D01*
X421373D01*
X421677Y-93583D01*
X421937Y-93917D01*
G01X367590Y-89417D02*
X367937Y-89750D01*
X368327Y-89950D01*
X368673D01*
X369020Y-89750D01*
X369280Y-89417D01*
X369410Y-88950D01*
X369323Y-88483D01*
X369107Y-88083D01*
X368717Y-87817D01*
X368197Y-87683D01*
X367893Y-87417D01*
X367763Y-86950D01*
X367850Y-86483D01*
X368067Y-86150D01*
X368370Y-85950D01*
X368673D01*
X368977Y-86083D01*
X369237Y-86417D01*
G01X371033Y-89950D02*
Y-85950D01*
X372073D01*
X372420Y-86150D01*
X372680Y-86617D01*
X372767Y-87150D01*
X372680Y-87683D01*
X372463Y-88083D01*
X372073Y-88283D01*
X371033D01*
G01X376167Y-89950D02*
X374433D01*
Y-85950D01*
X376167D01*
G01X375473Y-87883D02*
X374433D01*
G01X379653Y-86283D02*
X379393Y-86083D01*
X379090Y-85950D01*
X378743D01*
X378353Y-86150D01*
X378050Y-86483D01*
X377833Y-86883D01*
X377660Y-87550D01*
X377617Y-88150D01*
X377703Y-88750D01*
X377833Y-89150D01*
X378093Y-89550D01*
X378397Y-89817D01*
X378700Y-89950D01*
X379003D01*
X379307Y-89817D01*
X379567Y-89617D01*
X379783Y-89350D01*
G01X381580Y-85950D02*
X382620D01*
G01X382100D02*
Y-89950D01*
G01X381580D02*
X382620D01*
G01X384677D02*
Y-85950D01*
X386323D01*
G01X385717Y-87883D02*
X384677D01*
G01X388380Y-85950D02*
X389420D01*
G01X388900D02*
Y-89950D01*
G01X388380D02*
X389420D01*
G01X393167D02*
X391433D01*
Y-85950D01*
X393167D01*
G01X392473Y-87883D02*
X391433D01*
G01X394747Y-89950D02*
Y-85950D01*
X395613D01*
X395960Y-86150D01*
X396220Y-86417D01*
X396437Y-86817D01*
X396610Y-87283D01*
X396653Y-87950D01*
X396610Y-88617D01*
X396437Y-89083D01*
X396220Y-89483D01*
X395960Y-89750D01*
X395613Y-89950D01*
X394747D01*
G01X401547D02*
Y-85950D01*
X402413D01*
X402760Y-86150D01*
X403020Y-86417D01*
X403237Y-86817D01*
X403410Y-87283D01*
X403453Y-87950D01*
X403410Y-88617D01*
X403237Y-89083D01*
X403020Y-89483D01*
X402760Y-89750D01*
X402413Y-89950D01*
X401547D01*
G01X405380Y-85950D02*
X406420D01*
G01X405900D02*
Y-89950D01*
G01X405380D02*
X406420D01*
G01X408173D02*
Y-85950D01*
X409300Y-89283D01*
X410427Y-85950D01*
Y-89950D01*
G01X413567D02*
X411833D01*
Y-85950D01*
X413567D01*
G01X412873Y-87883D02*
X411833D01*
G01X415103Y-89950D02*
Y-85950D01*
X417097Y-89950D01*
Y-85950D01*
G01X418590Y-89417D02*
X418937Y-89750D01*
X419327Y-89950D01*
X419673D01*
X420020Y-89750D01*
X420280Y-89417D01*
X420410Y-88950D01*
X420323Y-88483D01*
X420107Y-88083D01*
X419717Y-87817D01*
X419197Y-87683D01*
X418893Y-87417D01*
X418763Y-86950D01*
X418850Y-86483D01*
X419067Y-86150D01*
X419370Y-85950D01*
X419673D01*
X419977Y-86083D01*
X420237Y-86417D01*
G01X422380Y-85950D02*
X423420D01*
G01X422900D02*
Y-89950D01*
G01X422380D02*
X423420D01*
G01X426300D02*
X425953Y-89883D01*
X425650Y-89617D01*
X425390Y-89217D01*
X425217Y-88750D01*
X425130Y-88217D01*
Y-87683D01*
X425217Y-87150D01*
X425390Y-86683D01*
X425650Y-86283D01*
X425953Y-86017D01*
X426300Y-85950D01*
X426647Y-86017D01*
X426950Y-86283D01*
X427210Y-86683D01*
X427383Y-87150D01*
X427470Y-87683D01*
Y-88217D01*
X427383Y-88750D01*
X427210Y-89217D01*
X426950Y-89617D01*
X426647Y-89883D01*
X426300Y-89950D01*
G01X428703D02*
Y-85950D01*
X430697Y-89950D01*
Y-85950D01*
G01X432190Y-89417D02*
X432537Y-89750D01*
X432927Y-89950D01*
X433273D01*
X433620Y-89750D01*
X433880Y-89417D01*
X434010Y-88950D01*
X433923Y-88483D01*
X433707Y-88083D01*
X433317Y-87817D01*
X432797Y-87683D01*
X432493Y-87417D01*
X432363Y-86950D01*
X432450Y-86483D01*
X432667Y-86150D01*
X432970Y-85950D01*
X433273D01*
X433577Y-86083D01*
X433837Y-86417D01*
G01X374347Y-78450D02*
Y-81317D01*
X374520Y-81917D01*
X374867Y-82317D01*
X375300Y-82450D01*
X375733Y-82317D01*
X376080Y-81917D01*
X376253Y-81317D01*
Y-78450D01*
G01X377703Y-82450D02*
Y-78450D01*
X379697Y-82450D01*
Y-78450D01*
G01X381233D02*
Y-82450D01*
X382967D01*
G01X386367D02*
X384633D01*
Y-78450D01*
X386367D01*
G01X385673Y-80383D02*
X384633D01*
G01X387990Y-81917D02*
X388337Y-82250D01*
X388727Y-82450D01*
X389073D01*
X389420Y-82250D01*
X389680Y-81917D01*
X389810Y-81450D01*
X389723Y-80983D01*
X389507Y-80583D01*
X389117Y-80317D01*
X388597Y-80183D01*
X388293Y-79917D01*
X388163Y-79450D01*
X388250Y-78983D01*
X388467Y-78650D01*
X388770Y-78450D01*
X389073D01*
X389377Y-78583D01*
X389637Y-78917D01*
G01X391390Y-81917D02*
X391737Y-82250D01*
X392127Y-82450D01*
X392473D01*
X392820Y-82250D01*
X393080Y-81917D01*
X393210Y-81450D01*
X393123Y-80983D01*
X392907Y-80583D01*
X392517Y-80317D01*
X391997Y-80183D01*
X391693Y-79917D01*
X391563Y-79450D01*
X391650Y-78983D01*
X391867Y-78650D01*
X392170Y-78450D01*
X392473D01*
X392777Y-78583D01*
X393037Y-78917D01*
G01X399100Y-82450D02*
X398753Y-82383D01*
X398450Y-82117D01*
X398190Y-81717D01*
X398017Y-81250D01*
X397930Y-80717D01*
Y-80183D01*
X398017Y-79650D01*
X398190Y-79183D01*
X398450Y-78783D01*
X398753Y-78517D01*
X399100Y-78450D01*
X399447Y-78517D01*
X399750Y-78783D01*
X400010Y-79183D01*
X400183Y-79650D01*
X400270Y-80183D01*
Y-80717D01*
X400183Y-81250D01*
X400010Y-81717D01*
X399750Y-82117D01*
X399447Y-82383D01*
X399100Y-82450D01*
G01X402500Y-78450D02*
Y-82450D01*
G01X401503Y-78450D02*
X403497D01*
G01X404990Y-82450D02*
Y-78450D01*
G01X406810D02*
Y-82450D01*
G01Y-80450D02*
X404990D01*
G01X410167Y-82450D02*
X408433D01*
Y-78450D01*
X410167D01*
G01X409473Y-80383D02*
X408433D01*
G01X411833Y-82450D02*
Y-78450D01*
X412917D01*
X413263Y-78650D01*
X413480Y-78917D01*
X413567Y-79450D01*
X413480Y-79983D01*
X413220Y-80317D01*
X412917Y-80517D01*
X411833D01*
G01X412917D02*
X413567Y-82450D01*
G01X414800Y-78450D02*
X415407Y-82450D01*
X416100Y-78450D01*
X416793Y-82450D01*
X417400Y-78450D01*
G01X418980D02*
X420020D01*
G01X419500D02*
Y-82450D01*
G01X418980D02*
X420020D01*
G01X421990Y-81917D02*
X422337Y-82250D01*
X422727Y-82450D01*
X423073D01*
X423420Y-82250D01*
X423680Y-81917D01*
X423810Y-81450D01*
X423723Y-80983D01*
X423507Y-80583D01*
X423117Y-80317D01*
X422597Y-80183D01*
X422293Y-79917D01*
X422163Y-79450D01*
X422250Y-78983D01*
X422467Y-78650D01*
X422770Y-78450D01*
X423073D01*
X423377Y-78583D01*
X423637Y-78917D01*
G01X427167Y-82450D02*
X425433D01*
Y-78450D01*
X427167D01*
G01X426473Y-80383D02*
X425433D01*
G01X385600Y-132583D02*
X385513Y-132517D01*
Y-132383D01*
X385600Y-132317D01*
X385687Y-132383D01*
Y-132517D01*
X385600Y-132583D01*
G01X389000Y-128450D02*
X388653Y-128583D01*
X388393Y-128917D01*
X388220Y-129317D01*
X388090Y-129850D01*
X388047Y-130450D01*
X388090Y-131050D01*
X388220Y-131583D01*
X388393Y-131983D01*
X388653Y-132317D01*
X389000Y-132450D01*
X389347Y-132317D01*
X389607Y-131983D01*
X389780Y-131583D01*
X389910Y-131050D01*
X389953Y-130450D01*
X389910Y-129850D01*
X389780Y-129317D01*
X389607Y-128917D01*
X389347Y-128583D01*
X389000Y-128450D01*
G01X391447Y-131650D02*
X391707Y-132117D01*
X392053Y-132383D01*
X392443Y-132450D01*
X392790Y-132383D01*
X393137Y-132050D01*
X393353Y-131650D01*
X393397Y-131250D01*
X393310Y-130783D01*
X393007Y-130450D01*
X392703Y-130317D01*
X392313D01*
G01X392703D02*
X392963Y-130117D01*
X393180Y-129783D01*
X393267Y-129383D01*
X393180Y-128983D01*
X392963Y-128650D01*
X392573Y-128450D01*
X392183Y-128517D01*
X391793Y-128783D01*
G01X385600Y-138583D02*
X385513Y-138517D01*
Y-138383D01*
X385600Y-138317D01*
X385687Y-138383D01*
Y-138517D01*
X385600Y-138583D01*
G01X389000Y-134450D02*
X388653Y-134583D01*
X388393Y-134917D01*
X388220Y-135317D01*
X388090Y-135850D01*
X388047Y-136450D01*
X388090Y-137050D01*
X388220Y-137583D01*
X388393Y-137983D01*
X388653Y-138317D01*
X389000Y-138450D01*
X389347Y-138317D01*
X389607Y-137983D01*
X389780Y-137583D01*
X389910Y-137050D01*
X389953Y-136450D01*
X389910Y-135850D01*
X389780Y-135317D01*
X389607Y-134917D01*
X389347Y-134583D01*
X389000Y-134450D01*
G01X392400Y-138450D02*
Y-134450D01*
X391880Y-135250D01*
G01Y-138450D02*
X392920D01*
G01X395800Y-134450D02*
X395453Y-134583D01*
X395193Y-134917D01*
X395020Y-135317D01*
X394890Y-135850D01*
X394847Y-136450D01*
X394890Y-137050D01*
X395020Y-137583D01*
X395193Y-137983D01*
X395453Y-138317D01*
X395800Y-138450D01*
X396147Y-138317D01*
X396407Y-137983D01*
X396580Y-137583D01*
X396710Y-137050D01*
X396753Y-136450D01*
X396710Y-135850D01*
X396580Y-135317D01*
X396407Y-134917D01*
X396147Y-134583D01*
X395800Y-134450D01*
G01X381800Y-128750D02*
Y-131750D01*
G01Y-134750D02*
Y-137750D01*
G01X385500Y-108450D02*
Y-112450D01*
G01X384503Y-108450D02*
X386497D01*
G01X388900Y-112450D02*
X388553Y-112383D01*
X388250Y-112117D01*
X387990Y-111717D01*
X387817Y-111250D01*
X387730Y-110717D01*
Y-110183D01*
X387817Y-109650D01*
X387990Y-109183D01*
X388250Y-108783D01*
X388553Y-108517D01*
X388900Y-108450D01*
X389247Y-108517D01*
X389550Y-108783D01*
X389810Y-109183D01*
X389983Y-109650D01*
X390070Y-110183D01*
Y-110717D01*
X389983Y-111250D01*
X389810Y-111717D01*
X389550Y-112117D01*
X389247Y-112383D01*
X388900Y-112450D01*
G01X391433Y-108450D02*
Y-112450D01*
X393167D01*
G01X396567D02*
X394833D01*
Y-108450D01*
X396567D01*
G01X395873Y-110383D02*
X394833D01*
G01X398233Y-112450D02*
Y-108450D01*
X399317D01*
X399663Y-108650D01*
X399880Y-108917D01*
X399967Y-109450D01*
X399880Y-109983D01*
X399620Y-110317D01*
X399317Y-110517D01*
X398233D01*
G01X399317D02*
X399967Y-112450D01*
G01X401417D02*
X402500Y-108450D01*
X403583Y-112450D01*
G01X403193Y-111050D02*
X401807D01*
G01X404903Y-112450D02*
Y-108450D01*
X406897Y-112450D01*
Y-108450D01*
G01X410253Y-108783D02*
X409993Y-108583D01*
X409690Y-108450D01*
X409343D01*
X408953Y-108650D01*
X408650Y-108983D01*
X408433Y-109383D01*
X408260Y-110050D01*
X408217Y-110650D01*
X408303Y-111250D01*
X408433Y-111650D01*
X408693Y-112050D01*
X408997Y-112317D01*
X409300Y-112450D01*
X409603D01*
X409907Y-112317D01*
X410167Y-112117D01*
X410383Y-111850D01*
G01X413567Y-112450D02*
X411833D01*
Y-108450D01*
X413567D01*
G01X412873Y-110383D02*
X411833D01*
G01X415190Y-111917D02*
X415537Y-112250D01*
X415927Y-112450D01*
X416273D01*
X416620Y-112250D01*
X416880Y-111917D01*
X417010Y-111450D01*
X416923Y-110983D01*
X416707Y-110583D01*
X416317Y-110317D01*
X415797Y-110183D01*
X415493Y-109917D01*
X415363Y-109450D01*
X415450Y-108983D01*
X415667Y-108650D01*
X415970Y-108450D01*
X416273D01*
X416577Y-108583D01*
X416837Y-108917D01*
G01X385600Y-126583D02*
X385513Y-126517D01*
Y-126383D01*
X385600Y-126317D01*
X385687Y-126383D01*
Y-126517D01*
X385600Y-126583D01*
G01X389000Y-126450D02*
Y-122450D01*
X388480Y-123250D01*
G01Y-126450D02*
X389520D01*
G01X381800Y-122750D02*
Y-125750D01*
G01X403173Y-132950D02*
Y-128950D01*
X404300Y-132283D01*
X405427Y-128950D01*
Y-132950D01*
G01X406617D02*
X407700Y-128950D01*
X408783Y-132950D01*
G01X408393Y-131550D02*
X407007D01*
G01X412053Y-129283D02*
X411793Y-129083D01*
X411490Y-128950D01*
X411143D01*
X410753Y-129150D01*
X410450Y-129483D01*
X410233Y-129883D01*
X410060Y-130550D01*
X410017Y-131150D01*
X410103Y-131750D01*
X410233Y-132150D01*
X410493Y-132550D01*
X410797Y-132817D01*
X411100Y-132950D01*
X411403D01*
X411707Y-132817D01*
X411967Y-132617D01*
X412183Y-132350D01*
G01X413590Y-132950D02*
Y-128950D01*
G01X415410D02*
Y-132950D01*
G01Y-130950D02*
X413590D01*
G01X420477Y-132950D02*
Y-128950D01*
X422123D01*
G01X421517Y-130883D02*
X420477D01*
G01X424180Y-128950D02*
X425220D01*
G01X424700D02*
Y-132950D01*
G01X424180D02*
X425220D01*
G01X427103D02*
Y-128950D01*
X429097Y-132950D01*
Y-128950D01*
G01X430980D02*
X432020D01*
G01X431500D02*
Y-132950D01*
G01X430980D02*
X432020D01*
G01X433990Y-132417D02*
X434337Y-132750D01*
X434727Y-132950D01*
X435073D01*
X435420Y-132750D01*
X435680Y-132417D01*
X435810Y-131950D01*
X435723Y-131483D01*
X435507Y-131083D01*
X435117Y-130817D01*
X434597Y-130683D01*
X434293Y-130417D01*
X434163Y-129950D01*
X434250Y-129483D01*
X434467Y-129150D01*
X434770Y-128950D01*
X435073D01*
X435377Y-129083D01*
X435637Y-129417D01*
G01X437390Y-132950D02*
Y-128950D01*
G01X439210D02*
Y-132950D01*
G01Y-130950D02*
X437390D01*
G01X422300Y-133950D02*
X425300D01*
G01X423800D02*
X421500Y-138450D01*
X420000Y-136250D01*
G01X410417Y-120950D02*
X411500Y-116950D01*
X412583Y-120950D01*
G01X412193Y-119550D02*
X410807D01*
G01X413903Y-120950D02*
Y-116950D01*
X415897Y-120950D01*
Y-116950D01*
G01X418560Y-118950D02*
X419427D01*
Y-120150D01*
X419167Y-120550D01*
X418863Y-120817D01*
X418430Y-120950D01*
X417997Y-120817D01*
X417693Y-120550D01*
X417433Y-120150D01*
X417260Y-119683D01*
X417173Y-119150D01*
Y-118683D01*
X417260Y-118283D01*
X417433Y-117817D01*
X417693Y-117417D01*
X417953Y-117150D01*
X418300Y-116950D01*
X418603D01*
X418950Y-117083D01*
X419210Y-117350D01*
G01X420833Y-116950D02*
Y-120950D01*
X422567D01*
G01X425967D02*
X424233D01*
Y-116950D01*
X425967D01*
G01X425273Y-118883D02*
X424233D01*
G01X422147Y-126150D02*
X422407Y-126617D01*
X422753Y-126883D01*
X423143Y-126950D01*
X423490Y-126883D01*
X423837Y-126550D01*
X424053Y-126150D01*
X424097Y-125750D01*
X424010Y-125283D01*
X423707Y-124950D01*
X423403Y-124817D01*
X423013D01*
G01X423403D02*
X423663Y-124617D01*
X423880Y-124283D01*
X423967Y-123883D01*
X423880Y-123483D01*
X423663Y-123150D01*
X423273Y-122950D01*
X422883Y-123017D01*
X422493Y-123283D01*
G01X426500Y-122950D02*
X426153Y-123083D01*
X425893Y-123417D01*
X425720Y-123817D01*
X425590Y-124350D01*
X425547Y-124950D01*
X425590Y-125550D01*
X425720Y-126083D01*
X425893Y-126483D01*
X426153Y-126817D01*
X426500Y-126950D01*
X426847Y-126817D01*
X427107Y-126483D01*
X427280Y-126083D01*
X427410Y-125550D01*
X427453Y-124950D01*
X427410Y-124350D01*
X427280Y-123817D01*
X427107Y-123417D01*
X426847Y-123083D01*
X426500Y-122950D01*
G01X417000Y-124250D02*
X420000D01*
G01X417000Y-126450D02*
X420000D01*
G01X418500Y-122750D02*
Y-125750D01*
G54D12*
X-13000Y14000D03*
Y24000D03*
X-3500D03*
X-13000Y34000D03*
X-3500D03*
X-13000Y44000D03*
Y54000D03*
X-3500D03*
Y44000D03*
X-13000Y74000D03*
X-3500D03*
X-13000Y64000D03*
X-3500D03*
Y84000D03*
X-13000Y94000D03*
Y84000D03*
Y114000D03*
Y104000D03*
Y124000D03*
Y134000D03*
Y144000D03*
X-3500Y154000D03*
X-13000D03*
Y164000D03*
X-3500D03*
X-13000Y174000D03*
Y184000D03*
X-3500Y174000D03*
Y184000D03*
X-13000Y204000D03*
X-3500D03*
X-13000Y194000D03*
X-3500D03*
X-13000Y224000D03*
X-3500D03*
X-13000Y214000D03*
X-3500D03*
X16295Y-13205D03*
X25795D03*
X26000Y-6000D03*
X16500D03*
Y4000D03*
Y14000D03*
Y24000D03*
Y34000D03*
X6500Y24000D03*
Y34000D03*
X16500Y54000D03*
Y44000D03*
X6500Y54000D03*
Y44000D03*
X16500Y74000D03*
X26000D03*
X6500D03*
X16500Y64000D03*
X26000D03*
X6500D03*
X16500Y84000D03*
X26000D03*
X6500D03*
X16500Y144000D03*
X26000D03*
X16500Y154000D03*
X26000D03*
X7500Y153500D03*
X6500Y164000D03*
X16500D03*
X26000D03*
X6500Y174000D03*
Y184000D03*
X16500D03*
Y174000D03*
X26000Y184000D03*
Y174000D03*
X6500Y204000D03*
Y194000D03*
X16500Y204000D03*
Y194000D03*
X26000D03*
X6500Y224000D03*
Y214000D03*
X16500Y224000D03*
Y214000D03*
X16000Y244000D03*
Y234000D03*
X26000Y244000D03*
Y254000D03*
X16000D03*
X45795Y-13205D03*
X35795D03*
X36000Y-6000D03*
X46000D03*
Y74000D03*
X36000D03*
X46000Y64000D03*
X36000D03*
X46000Y84000D03*
Y144000D03*
Y154000D03*
X36000D03*
Y164000D03*
X46000D03*
X36000Y184000D03*
X46000D03*
Y174000D03*
X36000Y194000D03*
X46000D03*
X36000Y244000D03*
X46000D03*
X36000Y254000D03*
X46000D03*
X66000Y-13000D03*
X55795Y-13205D03*
X66000Y-6000D03*
X56000D03*
Y74000D03*
X66000Y64000D03*
X56000D03*
X66000Y84000D03*
X56000D03*
X64000Y144000D03*
Y148500D03*
X66000Y154000D03*
X56000D03*
X66000Y164000D03*
X56000D03*
X66000Y184000D03*
X56000D03*
Y174000D03*
X66000Y194000D03*
X56000D03*
X66000Y244000D03*
X56000D03*
X66000Y254000D03*
X56000D03*
X86000Y-13000D03*
X76000D03*
X86000Y-6000D03*
X76000D03*
X86000Y4000D03*
Y14000D03*
Y24000D03*
Y34000D03*
Y44000D03*
Y54000D03*
Y80000D03*
Y74000D03*
Y64000D03*
X76000Y74000D03*
Y64000D03*
Y84000D03*
X85500Y86000D03*
Y92500D03*
X89500Y109000D03*
X84500D03*
X89500Y114000D03*
X76000Y144000D03*
X85000Y147500D03*
X76000Y148500D03*
X80000Y147500D03*
X85000Y154000D03*
Y164000D03*
X76000D03*
X75500Y154000D03*
X86000Y184000D03*
Y174000D03*
X76000Y184000D03*
Y174000D03*
X86000Y194000D03*
X76000D03*
X86000Y224000D03*
Y244000D03*
X76000D03*
X86000Y234000D03*
Y254000D03*
X76000D03*
X106000Y-13000D03*
X96000D03*
Y-6000D03*
X106000D03*
Y4000D03*
X96000D03*
X106000Y14000D03*
X96000D03*
X106000Y24000D03*
X96000D03*
X106000Y34000D03*
X96000D03*
X106000Y44000D03*
Y54000D03*
X96000Y44000D03*
Y54000D03*
X106000Y80000D03*
Y74000D03*
X95500Y80000D03*
X96000Y64000D03*
X106000D03*
X95000Y97500D03*
Y92500D03*
X95500Y86000D03*
X104500Y93000D03*
X110205Y96000D03*
X108000Y120500D03*
X106000Y111000D03*
Y116000D03*
X108000Y125000D03*
Y129500D03*
X91000Y140000D03*
X101500Y144000D03*
X106500D03*
X106000Y134000D03*
X96500Y139000D03*
X101500D03*
X106500D03*
X101500Y154000D03*
X91000Y145000D03*
X96500Y149000D03*
X101500D03*
X106500D03*
X96500Y154000D03*
X106500D03*
X95000Y164000D03*
X105000D03*
X96000Y184000D03*
X106000D03*
X96000Y174000D03*
Y194000D03*
X106000D03*
Y224000D03*
X96000D03*
Y234000D03*
X106000D03*
X96000Y244000D03*
X106000D03*
X96000Y254000D03*
X106000D03*
X116000Y-6000D03*
X126000D03*
X116000Y-13000D03*
X126000D03*
X116000Y14000D03*
Y4000D03*
X126000Y14000D03*
Y4000D03*
X116000Y24000D03*
Y34000D03*
X126000Y24000D03*
Y34000D03*
X116000Y44000D03*
Y54000D03*
X126000D03*
Y44000D03*
X115500Y80000D03*
X126500D03*
X115500Y74000D03*
X126000D03*
X116000Y64000D03*
X129500Y97500D03*
Y92500D03*
Y87500D03*
X115500Y86000D03*
X129500Y112500D03*
Y107500D03*
Y102500D03*
X115000Y120500D03*
X111500D03*
X120000Y106500D03*
X116500Y111000D03*
X111500D03*
X116500Y116000D03*
X111500D03*
X128500Y122500D03*
X111500Y139000D03*
X115000Y125000D03*
X111500D03*
X115000Y129500D03*
X111500D03*
X116500Y144000D03*
X111500Y134000D03*
X116500D03*
Y139000D03*
X111500Y154000D03*
X116500Y149000D03*
X111500D03*
X116500Y154000D03*
X115000Y164000D03*
X115500Y174000D03*
X127500Y170500D03*
Y184000D03*
Y177500D03*
X116700Y184700D03*
X125500Y204000D03*
Y194000D03*
X113500D03*
X125500Y214000D03*
Y224000D03*
X116000D03*
Y234000D03*
X125500D03*
X116000Y244000D03*
X125500D03*
Y254000D03*
X116000D03*
X146000Y-6000D03*
X136000D03*
Y-13000D03*
X146000D03*
X136000Y14000D03*
X146000D03*
X136000Y4000D03*
X146000D03*
X136000Y24000D03*
X146000D03*
Y34000D03*
X136000D03*
X146000Y54000D03*
Y44000D03*
X136000Y54000D03*
Y44000D03*
X146000Y74000D03*
Y64000D03*
X132500Y80000D03*
X136000Y74000D03*
Y64000D03*
X148000Y176000D03*
X142500D03*
X148000Y182500D03*
X142500D03*
X145500Y205000D03*
X135500Y204000D03*
X142500Y194500D03*
X135000D03*
X145500Y214000D03*
X135500D03*
Y224000D03*
X145500D03*
Y234000D03*
X135500D03*
X145500Y244000D03*
X135500D03*
X145500Y254000D03*
X135500D03*
X166000Y-6000D03*
X156000D03*
X166000Y-13000D03*
X156000D03*
X166000Y14000D03*
Y4000D03*
X156000Y14000D03*
Y4000D03*
X166000Y24000D03*
Y34000D03*
X156000Y24000D03*
Y34000D03*
X166000Y54000D03*
Y44000D03*
X156000D03*
Y54000D03*
X166000Y74000D03*
X156000D03*
Y64000D03*
X160000Y182500D03*
Y176000D03*
X165500Y174000D03*
Y184000D03*
Y204000D03*
X155500D03*
X165500Y194000D03*
X156000Y194500D03*
X165500Y214000D03*
X155500D03*
X165500Y224000D03*
X155500D03*
X165500Y244000D03*
X155500D03*
X165500Y234000D03*
X155500D03*
X165500Y254000D03*
X155500D03*
X185500Y-13000D03*
Y-6000D03*
X176000D03*
Y-13000D03*
X185500Y4000D03*
Y14000D03*
X176000D03*
Y4000D03*
X185500Y24000D03*
Y34000D03*
X176000Y24000D03*
Y34000D03*
Y54000D03*
Y44000D03*
X185500D03*
Y54000D03*
X176000Y74000D03*
Y64000D03*
X185500D03*
Y74000D03*
Y84000D03*
X177500D03*
X185500Y134000D03*
Y124000D03*
Y153500D03*
Y164000D03*
Y174000D03*
X175500D03*
X185500Y184000D03*
X175500D03*
X185500Y204000D03*
X175500D03*
X185500Y194000D03*
X175500Y224000D03*
Y214000D03*
X185500Y224000D03*
Y214000D03*
Y234000D03*
Y244000D03*
X175500Y234000D03*
Y244000D03*
X185500Y254000D03*
X175500D03*
X205500Y-13000D03*
X195500D03*
X205500Y-6000D03*
X195500D03*
X205500Y4000D03*
X195500D03*
X205500Y14000D03*
X195500D03*
X205500Y24000D03*
X195500D03*
X205500Y34000D03*
X195500D03*
Y44000D03*
Y54000D03*
X205500D03*
X201000Y62500D03*
X211500Y62000D03*
X196000Y71000D03*
Y66000D03*
X206500D03*
Y71000D03*
X195500Y115000D03*
X205500D03*
X195500Y124000D03*
X205500D03*
Y134000D03*
X195500D03*
Y144000D03*
X205500D03*
X195500Y154000D03*
X205500D03*
Y164000D03*
X195500D03*
X205500Y174000D03*
X195500D03*
X205500Y184000D03*
X195500D03*
X205500Y204000D03*
X195500D03*
X205500Y194000D03*
X195500D03*
X205500Y224000D03*
X195500D03*
X205500Y214000D03*
X195500D03*
X205500Y234000D03*
X195500D03*
X205500Y244000D03*
X195500D03*
X205500Y254000D03*
X195500D03*
X215500Y-13000D03*
X226000D03*
X215500Y-6000D03*
Y4000D03*
Y14000D03*
X226000D03*
X236000Y24000D03*
X215500D03*
X226000D03*
X236000Y34000D03*
X215500D03*
X226000D03*
X236000Y54000D03*
X226000Y44000D03*
X215500D03*
Y54000D03*
X222000Y62000D03*
X227500Y64500D03*
X232000Y67000D03*
X227500Y70500D03*
X217000Y66000D03*
Y71000D03*
X226000Y134000D03*
Y144000D03*
X215500D03*
X236000Y154000D03*
X226000D03*
X215500D03*
X236000Y164000D03*
X226000D03*
X215500D03*
X236000Y184000D03*
Y174000D03*
X226000Y184000D03*
Y174000D03*
X215500Y184000D03*
X236000Y204000D03*
Y194000D03*
X226000Y204000D03*
Y194000D03*
X215500Y204000D03*
Y194000D03*
X236000Y224000D03*
Y214000D03*
X226000Y224000D03*
Y214000D03*
X215500Y224000D03*
Y214000D03*
Y234000D03*
Y244000D03*
X226000Y254000D03*
X215500D03*
X254000Y14000D03*
Y24000D03*
X246500Y34000D03*
X254000D03*
Y44000D03*
X246500D03*
X254000Y54000D03*
X246500D03*
X237000Y71000D03*
X246500Y74000D03*
Y64000D03*
X254000Y74000D03*
Y64000D03*
Y84000D03*
Y94000D03*
Y104000D03*
Y114000D03*
Y124000D03*
Y134000D03*
Y144000D03*
Y154000D03*
X246500D03*
X254000Y164000D03*
X246500D03*
X254000Y184000D03*
Y174000D03*
X246500D03*
Y184000D03*
X254000Y204000D03*
Y194000D03*
X246500Y204000D03*
Y194000D03*
X254000Y224000D03*
Y214000D03*
X246500D03*
G54D21*
X100500Y122500D03*
Y117500D03*
Y132500D03*
Y127500D03*
X122500Y117500D03*
Y122500D03*
Y127500D03*
Y132500D03*
G54D13*
X0Y100000D03*
Y140000D03*
X240000Y100000D03*
Y140000D03*
G54D22*
X145295Y104500D03*
Y155000D03*
G54D14*
X69000Y100500D03*
G54D23*
X154350Y130091D03*
X136240D03*
X154350Y180591D03*
X136240D03*
G54D15*
X70000Y145161D03*
Y127839D03*
G54D24*
X170500Y119700D03*
Y128300D03*
G54D16*
X79000Y100500D03*
X89000D03*
G54D25*
X187075D03*
X208925D03*
G54D26*
X232000Y72250D03*
Y79750D03*
G54D17*
X83000Y142500D03*
Y130500D03*
X211500Y67000D03*
Y79000D03*
X201000Y67000D03*
Y79000D03*
X222000Y67000D03*
Y79000D03*
G54D27*
G01X-42090Y-114050D02*
X-45750D01*
G01X-52320D02*
X-55630D01*
G01X-49110Y-110120D02*
X-45670D01*
G01X-45030Y-110820D02*
X-48520D01*
G01X-43770Y-112210D02*
X-47330D01*
G01X-47920Y-111510D02*
X-44400D01*
G01X-46730Y-112900D02*
X-43140D01*
G01X-46540Y-109170D02*
X-42090Y-114050D01*
G01X-46540Y-108660D02*
Y-109170D01*
G01X-45840Y-108650D02*
X-46540Y-108660D01*
G01X-42500Y-113600D02*
X-46140D01*
G01X-45160Y-108530D02*
X-45840Y-108650D01*
G01X-44500Y-108290D02*
X-45160Y-108530D01*
G01X-43900Y-107950D02*
X-44500Y-108290D01*
G01X-43540Y-107640D02*
X-43900Y-107950D01*
G01X-39730Y-111510D02*
X-36310D01*
G01X-39400Y-112290D02*
X-39090Y-112660D01*
G01X-39630Y-111860D02*
X-39400Y-112290D01*
G01X-39770Y-111390D02*
X-39630Y-111860D01*
G01X-36640Y-110820D02*
X-39800D01*
G01Y-110900D02*
X-39770Y-111390D01*
G01X-39800Y-106970D02*
Y-110900D01*
G01Y-110120D02*
X-36730D01*
G01Y-109430D02*
X-39800D01*
G01Y-108740D02*
X-36730D01*
G01Y-108040D02*
X-39800D01*
G01X-38770Y-112900D02*
X-28080D01*
G01X-38700Y-112950D02*
X-38100Y-113330D01*
G01X-39090Y-112660D02*
X-38700Y-112950D01*
G01X-35570Y-112210D02*
X-39450D01*
G01X-38100Y-113330D02*
X-37450Y-113620D01*
G01X-37510Y-113600D02*
X-29240D01*
G01X-37450Y-113620D02*
X-36770Y-113820D01*
G01X-55630Y-114050D02*
Y-101300D01*
G01X-52320Y-113600D02*
X-55630D01*
G01Y-112900D02*
X-52320D01*
G01X-55630Y-111510D02*
X-52320D01*
G01Y-112210D02*
X-55630D01*
G01X-52320Y-110820D02*
X-55630D01*
G01Y-110120D02*
X-52320D01*
G01Y-109430D02*
X-55630D01*
G01X-52320Y-108040D02*
X-55630D01*
G01Y-108740D02*
X-52320D01*
G01Y-103020D02*
Y-114050D01*
G01X-46300Y-109430D02*
X-49710D01*
G01X-45750Y-114050D02*
X-50200Y-108860D01*
G01Y-108740D02*
X-46540D01*
G01X-44060Y-108040D02*
X-50200D01*
G01Y-108860D02*
Y-107440D01*
G01X-49130Y-121850D02*
X-49310Y-121830D01*
G01X-47360Y-121850D02*
X-49130D01*
G01X-49170Y-118540D02*
X-49370Y-118560D01*
G01X-47360Y-118540D02*
X-49170D01*
G01X-45000D02*
Y-121850D01*
G01X-44450Y-118540D02*
X-45000D01*
G01X-42910Y-121850D02*
X-44450Y-118540D01*
G01X-41500D02*
X-42910Y-121850D01*
G01X-40980Y-118540D02*
X-41500D01*
G01X-40980Y-121850D02*
Y-118540D01*
G01X-38390D02*
Y-121850D01*
G01X-55560Y-119640D02*
X-55480Y-119790D01*
G01X-55610Y-119130D02*
X-55630Y-119300D01*
G01X-55610Y-119470D02*
X-55560Y-119640D01*
G01X-55630Y-119300D02*
X-55610Y-119470D01*
G01X-55550Y-118970D02*
X-55610Y-119130D01*
G01X-55460Y-118830D02*
X-55550Y-118970D01*
G01X-53180Y-121850D02*
X-55630D01*
G01X-54910Y-120170D02*
X-54740Y-120190D01*
G01X-55080Y-120120D02*
X-54910Y-120170D01*
G01X-55230Y-120040D02*
X-55080Y-120120D01*
G01X-55370Y-119930D02*
X-55230Y-120040D01*
G01X-55480Y-119790D02*
X-55370Y-119930D01*
G01X-55340Y-118710D02*
X-55460Y-118830D01*
G01X-55200Y-118620D02*
X-55340Y-118710D01*
G01X-55040Y-118560D02*
X-55200Y-118620D01*
G01X-54870Y-118540D02*
X-55040Y-118560D01*
G01X-52320Y-118540D02*
X-54870D01*
G01X-54740Y-120200D02*
X-53120D01*
G01X-53010Y-121830D02*
X-53180Y-121850D01*
G01X-53120Y-120190D02*
X-52960Y-120210D01*
G01X-52850Y-121780D02*
X-53010Y-121830D01*
G01X-52700Y-121710D02*
X-52850Y-121780D01*
G01X-52570Y-121600D02*
X-52700Y-121710D01*
G01X-52460Y-121470D02*
X-52570Y-121600D01*
G01X-52390Y-121320D02*
X-52460Y-121470D01*
G01X-52340Y-121160D02*
X-52390Y-121320D01*
G01X-52320Y-120990D02*
X-52340Y-121160D01*
G01Y-120830D02*
X-52320Y-120990D01*
G01X-52380Y-120680D02*
X-52340Y-120830D01*
G01X-52450Y-120550D02*
X-52380Y-120680D01*
G01X-52550Y-120420D02*
X-52450Y-120550D01*
G01X-52680Y-120320D02*
X-52550Y-120420D01*
G01X-52810Y-120250D02*
X-52680Y-120320D01*
G01X-52960Y-120210D02*
X-52810Y-120250D01*
G01X-50170Y-120970D02*
X-50190Y-120790D01*
G01X-50130Y-121150D02*
X-50170Y-120970D01*
G01X-50050Y-121320D02*
X-50130Y-121150D01*
G01X-49940Y-121470D02*
X-50050Y-121320D01*
G01X-49810Y-121600D02*
X-49940Y-121470D01*
G01X-49660Y-121710D02*
X-49810Y-121600D01*
G01X-49490Y-121790D02*
X-49660Y-121710D01*
G01X-50200Y-119560D02*
Y-120200D01*
G01D02*
X-47360D01*
G01X-50200Y-120790D02*
Y-120200D01*
G01X-50170Y-119360D02*
X-50190Y-119560D01*
G01X-50110Y-119170D02*
X-50170Y-119360D01*
G01X-50020Y-118990D02*
X-50110Y-119170D01*
G01X-49890Y-118840D02*
X-50020Y-118990D01*
G01X-49740Y-118710D02*
X-49890Y-118840D01*
G01X-49560Y-118620D02*
X-49740Y-118710D01*
G01X-49310Y-121830D02*
X-49490Y-121790D01*
G01X-49370Y-118560D02*
X-49560Y-118620D01*
G01X-48420Y-107440D02*
X-47840Y-107400D01*
G01X-48010Y-102270D02*
X-48700Y-102240D01*
G01X-47330Y-102430D02*
X-48010Y-102270D01*
G01X-48110Y-100830D02*
X-46440Y-100950D01*
G01X-47650Y-107350D02*
X-43310D01*
G01X-47280Y-107250D02*
X-46760Y-106980D01*
G01X-47840Y-107400D02*
X-47280Y-107250D01*
G01X-43340Y-102490D02*
X-47200D01*
G01X-46690Y-102720D02*
X-47330Y-102430D01*
G01X-42980Y-106650D02*
X-46350D01*
G01X-46300Y-106610D02*
X-46110Y-106210D01*
G01X-46760Y-106980D02*
X-46300Y-106610D01*
G01X-46280Y-103180D02*
X-42970D01*
G01X-46380Y-103030D02*
X-46690Y-102720D01*
G01X-46150Y-103400D02*
X-46380Y-103030D01*
G01X-46440Y-100950D02*
X-44800Y-101300D01*
G01X-46040Y-105960D02*
X-42880D01*
G01X-45990Y-105790D02*
X-45940Y-105350D01*
G01X-46110Y-106210D02*
X-45990Y-105790D01*
G01X-42870Y-105270D02*
X-45940D01*
G01Y-105350D02*
Y-104250D01*
G01Y-104570D02*
X-42870D01*
G01Y-103880D02*
X-45990D01*
G01X-46000Y-103810D02*
X-46150Y-103400D01*
G01X-45940Y-104250D02*
X-46000Y-103810D01*
G01X-44800Y-101300D02*
X-44250Y-101600D01*
G01X-43760Y-102000D02*
X-43350Y-102480D01*
G01X-44250Y-101600D02*
X-43760Y-102000D01*
G01X-43250Y-107260D02*
X-43540Y-107640D01*
G01X-43030Y-106840D02*
X-43250Y-107260D01*
G01X-42910Y-106380D02*
X-43030Y-106840D01*
G01X-42870Y-105900D02*
X-42910Y-106380D01*
G01X-42870Y-103900D02*
Y-105900D01*
G01X-42890Y-103520D02*
X-42870Y-103900D01*
G01X-42980Y-103140D02*
X-42890Y-103520D01*
G01X-43130Y-102790D02*
X-42980Y-103140D01*
G01X-43350Y-102480D02*
X-43130Y-102790D01*
G01X-39800Y-107350D02*
X-36730D01*
G01Y-106650D02*
X-39800D01*
G01X-36730Y-106970D02*
X-39800D01*
G01D02*
X-36730D01*
G01X-39800Y-104210D02*
Y-106970D01*
G01Y-105960D02*
X-36730D01*
G01Y-105270D02*
X-39800D01*
G01Y-104570D02*
X-36730D01*
G01X-36620Y-103880D02*
X-39770D01*
G01X-39760Y-103730D02*
X-39800Y-104210D01*
G01X-39580Y-103180D02*
X-36200D01*
G01X-39400Y-102850D02*
X-39630Y-103270D01*
G01D02*
X-39760Y-103730D01*
G01X-39110Y-102470D02*
X-39400Y-102850D01*
G01X-35270Y-102490D02*
X-39120D01*
G01X-38740Y-102160D02*
X-39110Y-102470D01*
G01X-38110Y-101650D02*
X-38740Y-102160D01*
G01X-38290Y-101800D02*
X-28410D01*
G01X-37400Y-101260D02*
X-38110Y-101650D01*
G01X-36640Y-101000D02*
X-37400Y-101260D01*
G01X-55630Y-101300D02*
X-53390Y-100970D01*
G01X-55630Y-107350D02*
X-52320D01*
G01Y-106650D02*
X-55630D01*
G01Y-105960D02*
X-52320D01*
G01Y-105270D02*
X-55630D01*
G01X-52320Y-103880D02*
X-55630D01*
G01Y-104570D02*
X-52320D01*
G01X-55630Y-103180D02*
X-52320D01*
G01X-52110Y-102490D02*
X-55630D01*
G01Y-101800D02*
X-44010D01*
G01X-54290Y-101100D02*
X-45720D01*
G01X-53390Y-100970D02*
X-51140Y-100830D01*
G01X-52300Y-102820D02*
X-52320Y-103020D01*
G01X-52220Y-102630D02*
X-52300Y-102820D01*
G01X-52100Y-102470D02*
X-52220Y-102630D01*
G01X-51930Y-102350D02*
X-52100Y-102470D01*
G01X-51750Y-102270D02*
X-51930Y-102350D01*
G01X-51550Y-102240D02*
X-51750Y-102270D01*
G01X-48700Y-102240D02*
X-51550D01*
G01X-51140Y-100830D02*
X-48110D01*
G01X-50200Y-107440D02*
X-48420D01*
G01X-20200Y-114050D02*
Y-108930D01*
G01D02*
X-20170Y-108730D01*
G01X-19970Y-108380D02*
X-19810Y-108250D01*
G01X-20090Y-108540D02*
X-19970Y-108380D01*
G01X-20170Y-108730D02*
X-20090Y-108540D01*
G01X-19810Y-108250D02*
X-19620Y-108170D01*
G01X-19420Y-108150D02*
X-13940D01*
G01X-19620Y-108170D02*
X-19420Y-108150D01*
G01X-21850Y-121850D02*
X-22400D01*
G01X-21850Y-118540D02*
Y-121850D01*
G01X-19490D02*
Y-118540D01*
G01X-17730Y-121850D02*
X-19490D01*
G01Y-118540D02*
X-17710D01*
G01X-17530Y-121830D02*
X-17730Y-121850D01*
G01X-17330Y-121790D02*
X-17530Y-121830D01*
G01X-17140Y-121710D02*
X-17330Y-121790D01*
G01X-16960Y-121600D02*
X-17140Y-121710D01*
G01X-17270Y-118620D02*
X-17060Y-118710D01*
G01X-17490Y-118560D02*
X-17270Y-118620D01*
G01X-17710Y-118540D02*
X-17490Y-118560D01*
G01X-16800Y-121470D02*
X-16960Y-121600D01*
G01X-16670Y-121310D02*
X-16800Y-121470D01*
G01X-16560Y-121130D02*
X-16670Y-121310D01*
G01X-16480Y-120940D02*
X-16560Y-121130D01*
G01X-16440Y-120740D02*
X-16480Y-120940D01*
G01X-16420Y-120540D02*
X-16440Y-120740D01*
G01X-16420Y-119830D02*
Y-120540D01*
G01X-16440Y-119610D02*
X-16420Y-119830D01*
G01X-16500Y-119390D02*
X-16440Y-119610D01*
G01X-16590Y-119180D02*
X-16500Y-119390D01*
G01X-16720Y-119000D02*
X-16590Y-119180D01*
G01X-16880Y-118840D02*
X-16720Y-119000D01*
G01X-17060Y-118710D02*
X-16880Y-118840D01*
G01X-23500Y-114050D02*
X-20200D01*
G01X-36770Y-113820D02*
X-35750Y-113990D01*
G01D02*
X-34720Y-114050D01*
G01D02*
X-31970D01*
G01D02*
X-31060Y-114020D01*
G01D02*
X-30160Y-113880D01*
G01X-23500Y-101300D02*
Y-114050D01*
G01Y-113600D02*
X-20200D01*
G01Y-112900D02*
X-23500D01*
G01Y-112210D02*
X-20200D01*
G01Y-111510D02*
X-23500D01*
G01Y-110820D02*
X-20200D01*
G01Y-110120D02*
X-23500D01*
G01Y-109430D02*
X-20200D01*
G01X-23500Y-108040D02*
X-9800D01*
G01X-20170Y-108740D02*
X-23500D01*
G01X-36290Y-111540D02*
X-36550Y-111120D01*
G01X-35940Y-111890D02*
X-36290Y-111540D01*
G01X-35580Y-112210D02*
X-35940Y-111890D01*
G01X-36700Y-110650D02*
X-36730Y-110160D01*
G01X-36550Y-111120D02*
X-36700Y-110650D01*
G01X-36730Y-110160D02*
Y-106970D01*
G01X-34690Y-112590D02*
X-35160Y-112440D01*
G01D02*
X-35580Y-112210D01*
G01X-34210Y-112640D02*
X-34690Y-112590D01*
G01X-32600Y-112640D02*
X-34210D01*
G01X-32000Y-112600D02*
X-32600Y-112640D01*
G01X-31430Y-112440D02*
X-32000Y-112600D01*
G01X-30900Y-112180D02*
X-31430Y-112440D01*
G01X-27370Y-112210D02*
X-30960D01*
G01X-30430Y-111810D02*
X-30900Y-112180D01*
G01X-30160Y-113880D02*
X-29290Y-113620D01*
G01X-30260Y-111510D02*
X-26980D01*
G01X-30130Y-111300D02*
X-30430Y-111810D01*
G01X-29940Y-110740D02*
X-30130Y-111300D01*
G01X-29290Y-113620D02*
X-28710Y-113350D01*
G01X-26830Y-110820D02*
X-29970D01*
G01X-29880Y-110160D02*
X-29940Y-110740D01*
G01X-29880Y-110120D02*
X-26810D01*
G01X-29880Y-104490D02*
Y-110160D01*
G01X-26810Y-109430D02*
X-29880D01*
G01X-26810Y-108040D02*
X-29880D01*
G01Y-108740D02*
X-26810D01*
G01X-28710Y-113350D02*
X-28180Y-113000D01*
G01X-27720Y-112560D02*
X-27330Y-112170D01*
G01X-28180Y-113000D02*
X-27720Y-112560D01*
G01X-27330Y-112170D02*
X-27040Y-111700D01*
G01D02*
X-26860Y-111180D01*
G01X-26810Y-110630D02*
Y-104490D01*
G01X-26860Y-111180D02*
X-26810Y-110630D01*
G01X-35770Y-120950D02*
X-35790Y-120760D01*
G01X-35720Y-121130D02*
X-35770Y-120950D01*
G01X-35640Y-121300D02*
X-35720Y-121130D01*
G01X-35530Y-121460D02*
X-35640Y-121300D01*
G01X-35400Y-121590D02*
X-35530Y-121460D01*
G01X-35250Y-121700D02*
X-35400Y-121590D01*
G01X-35070Y-121780D02*
X-35250Y-121700D01*
G01X-35790Y-120760D02*
Y-119630D01*
G01X-35610Y-119020D02*
X-35470Y-118860D01*
G01X-35710Y-119210D02*
X-35610Y-119020D01*
G01X-35770Y-119420D02*
X-35710Y-119210D01*
G01X-35790Y-119630D02*
X-35770Y-119420D01*
G01X-35310Y-118720D02*
X-35120Y-118620D01*
G01X-35470Y-118860D02*
X-35310Y-118720D01*
G01X-35120Y-118620D02*
X-34910Y-118560D01*
G01X-34890Y-121830D02*
X-35070Y-121780D01*
G01X-34700Y-121850D02*
X-34890Y-121830D01*
G01X-32950Y-121850D02*
X-34700D01*
G01Y-118540D02*
X-32950D01*
G01X-34910Y-118560D02*
X-34700Y-118540D01*
G01X-30190Y-121680D02*
X-29980Y-121770D01*
G01X-30370Y-121550D02*
X-30190Y-121680D01*
G01X-30530Y-121390D02*
X-30370Y-121550D01*
G01X-30660Y-121200D02*
X-30530Y-121390D01*
G01X-30750Y-121000D02*
X-30660Y-121200D01*
G01X-30810Y-120780D02*
X-30750Y-121000D01*
G01X-30830Y-120560D02*
X-30810Y-120780D01*
G01X-30830Y-119810D02*
Y-120560D01*
G01X-30810Y-119590D02*
X-30830Y-119810D01*
G01X-30750Y-119380D02*
X-30810Y-119590D01*
G01X-30660Y-119170D02*
X-30750Y-119380D01*
G01X-30530Y-118990D02*
X-30660Y-119170D01*
G01X-30380Y-118840D02*
X-30530Y-118990D01*
G01X-30190Y-118710D02*
X-30380Y-118840D01*
G01X-29990Y-118620D02*
X-30190Y-118710D01*
G01X-29780Y-118560D02*
X-29990Y-118620D01*
G01X-29540Y-121850D02*
X-28840D01*
G01X-29760Y-121830D02*
X-29540Y-121850D01*
G01X-29980Y-121770D02*
X-29760Y-121830D01*
G01X-29560Y-118540D02*
X-29780Y-118560D01*
G01X-28820Y-118540D02*
X-29560D01*
G01X-28240Y-121710D02*
X-28060Y-121600D01*
G01X-28430Y-121790D02*
X-28240Y-121710D01*
G01X-28630Y-121830D02*
X-28430Y-121790D01*
G01X-28840Y-121850D02*
X-28630Y-121830D01*
G01X-28590Y-118560D02*
X-28820Y-118540D01*
G01X-28380Y-118620D02*
X-28590Y-118560D01*
G01X-28170Y-118710D02*
X-28380Y-118620D01*
G01X-27580Y-120940D02*
X-27540Y-120740D01*
G01X-27660Y-121130D02*
X-27580Y-120940D01*
G01X-27770Y-121310D02*
X-27660Y-121130D01*
G01X-27910Y-121460D02*
X-27770Y-121310D01*
G01X-28060Y-121600D02*
X-27910Y-121460D01*
G01X-27540Y-120740D02*
X-27520Y-120530D01*
G01D02*
Y-119840D01*
G01X-27690Y-119190D02*
X-27820Y-119000D01*
G01X-27600Y-119400D02*
X-27690Y-119190D01*
G01X-27540Y-119610D02*
X-27600Y-119400D01*
G01X-27520Y-119840D02*
X-27540Y-119610D01*
G01X-27980Y-118840D02*
X-28170Y-118710D01*
G01X-27820Y-119000D02*
X-27980Y-118840D01*
G01X-25160Y-118540D02*
Y-121850D01*
G01X-24680Y-118540D02*
X-25160D01*
G01X-22400Y-121850D02*
X-24680Y-118540D01*
G01X-20200Y-105690D02*
Y-101300D01*
G01X-20170Y-105900D02*
X-20200Y-105690D01*
G01X-20090Y-106090D02*
X-20170Y-105900D01*
G01X-19960Y-106260D02*
X-20090Y-106090D01*
G01X-19790Y-106390D02*
X-19960Y-106260D01*
G01X-19600Y-106470D02*
X-19790Y-106390D01*
G01X-19390Y-106490D02*
X-19600Y-106470D01*
G01X-13890Y-106490D02*
X-19390D01*
G01X-9800Y-107350D02*
X-23500D01*
G01Y-106650D02*
X-9800D01*
G01X-23500Y-105960D02*
X-20140D01*
G01X-20200Y-105270D02*
X-23500D01*
G01Y-104570D02*
X-20200D01*
G01Y-103880D02*
X-23500D01*
G01Y-103180D02*
X-20200D01*
G01Y-102490D02*
X-23500D01*
G01X-20200Y-101300D02*
X-23500D01*
G01Y-101800D02*
X-20200D01*
G01X-29980Y-101100D02*
X-36930D01*
G01X-36730Y-106970D02*
Y-104530D01*
G01X-36570Y-103730D02*
X-36370Y-103380D01*
G01X-36690Y-104120D02*
X-36570Y-103730D01*
G01X-36730Y-104530D02*
X-36690Y-104120D01*
G01X-36370Y-103380D02*
X-36100Y-103070D01*
G01D02*
X-35670Y-102700D01*
G01X-35840Y-100860D02*
X-36640Y-101000D01*
G01X-35170Y-102430D02*
X-34620Y-102280D01*
G01X-35670Y-102700D02*
X-35170Y-102430D01*
G01X-35040Y-100830D02*
X-35840Y-100860D01*
G01X-34620Y-102280D02*
X-34050Y-102240D01*
G01X-31930Y-100830D02*
X-35040D01*
G01X-34050Y-102240D02*
X-32600D01*
G01X-32060Y-102270D02*
X-31540Y-102400D01*
G01X-32600Y-102240D02*
X-32060Y-102270D01*
G01X-31070Y-100860D02*
X-31930Y-100830D01*
G01X-27570Y-102490D02*
X-31350D01*
G01X-31060Y-102630D02*
X-30630Y-102950D01*
G01X-31540Y-102400D02*
X-31060Y-102630D01*
G01X-30220Y-101020D02*
X-31070Y-100860D01*
G01X-30380Y-103180D02*
X-27100D01*
G01X-30060Y-103620D02*
X-29920Y-104040D01*
G01X-30300Y-103250D02*
X-30060Y-103620D01*
G01X-30630Y-102950D02*
X-30300Y-103250D01*
G01X-29410Y-101300D02*
X-30220Y-101020D01*
G01X-29880Y-107350D02*
X-26810D01*
G01Y-106650D02*
X-29880D01*
G01Y-105960D02*
X-26810D01*
G01Y-105270D02*
X-29880D01*
G01X-26860Y-103880D02*
X-29970D01*
G01X-29880Y-104570D02*
X-26810D01*
G01X-29920Y-104040D02*
X-29880Y-104490D01*
G01X-28780Y-101570D02*
X-29410Y-101300D01*
G01X-28200Y-101920D02*
X-28780Y-101570D01*
G01X-27680Y-102360D02*
X-28200Y-101920D01*
G01X-27300Y-102810D02*
X-27680Y-102360D01*
G01X-26860Y-103900D02*
X-27020Y-103330D01*
G01X-26810Y-104490D02*
X-26860Y-103900D01*
G01X-27020Y-103330D02*
X-27300Y-102810D01*
G01X-13110Y-114050D02*
X-9800D01*
G01X-6260D02*
X-3190D01*
G01X-120D02*
X3190D01*
G01D02*
Y-103290D01*
G01X-13940Y-108150D02*
X-13730Y-108180D01*
G01X-13110Y-108980D02*
Y-114050D01*
G01Y-113600D02*
X-9800D01*
G01Y-112900D02*
X-13110D01*
G01X-9800Y-111510D02*
X-13110D01*
G01Y-112210D02*
X-9800D01*
G01X-13110Y-110820D02*
X-9800D01*
G01Y-110120D02*
X-13110D01*
G01Y-109430D02*
X-9800D01*
G01X-13140Y-108760D02*
X-13110Y-108980D01*
G01X-9800Y-108740D02*
X-13150D01*
G01X-13220Y-108560D02*
X-13140Y-108760D01*
G01X-13350Y-108390D02*
X-13220Y-108560D01*
G01X-13520Y-108260D02*
X-13350Y-108390D01*
G01X-13730Y-108180D02*
X-13520Y-108260D01*
G01X-9800Y-114050D02*
Y-101300D01*
G01X-6260D02*
Y-114050D01*
G01X-3190Y-113600D02*
X-6260D01*
G01Y-112900D02*
X-3190D01*
G01X-6260Y-111510D02*
X-3190D01*
G01Y-112210D02*
X-6260D01*
G01X-3190Y-110820D02*
X-6260D01*
G01Y-110120D02*
X-3190D01*
G01Y-109430D02*
X-6260D01*
G01X-3190Y-108040D02*
X-6260D01*
G01Y-108740D02*
X-3190D01*
G01Y-114050D02*
Y-103310D01*
G01X-120Y-103280D02*
Y-114050D01*
G01X3190Y-113600D02*
X-120D01*
G01Y-112900D02*
X3190D01*
G01Y-112210D02*
X-120D01*
G01Y-111510D02*
X3190D01*
G01Y-110820D02*
X-120D01*
G01Y-110120D02*
X3190D01*
G01Y-109430D02*
X-120D01*
G01Y-108740D02*
X3190D01*
G01Y-108040D02*
X-120D01*
G01X1550Y-121710D02*
X1740Y-121790D01*
G01X1370Y-121600D02*
X1550Y-121710D01*
G01X1210Y-121470D02*
X1370Y-121600D01*
G01X1080Y-121310D02*
X1210Y-121470D01*
G01X1280Y-118840D02*
X1120Y-119000D01*
G01X1470Y-118710D02*
X1280Y-118840D01*
G01X1670Y-118620D02*
X1470Y-118710D01*
G01X2140Y-121850D02*
X2830D01*
G01X1940Y-121830D02*
X2140Y-121850D01*
G01X1740Y-121790D02*
X1940Y-121830D01*
G01X1890Y-118560D02*
X1670Y-118620D01*
G01X2110Y-118540D02*
X1890Y-118560D01*
G01X2850Y-118540D02*
X2110D01*
G01X3270Y-121770D02*
X3480Y-121680D01*
G01X3060Y-121830D02*
X3270Y-121770D01*
G01X2830Y-121850D02*
X3060Y-121830D01*
G01X3070Y-118560D02*
X2850Y-118540D01*
G01X3290Y-118620D02*
X3070Y-118560D01*
G01X3490Y-118710D02*
X3290Y-118620D01*
G01X4050Y-120990D02*
X4110Y-120780D01*
G01X3960Y-121200D02*
X4050Y-120990D01*
G01X3830Y-121390D02*
X3960Y-121200D01*
G01X3670Y-121550D02*
X3830Y-121390D01*
G01X3480Y-121680D02*
X3670Y-121550D01*
G01Y-118840D02*
X3490Y-118710D01*
G01X3830Y-119000D02*
X3670Y-118840D01*
G01X3960Y-119180D02*
X3830Y-119000D01*
G01X4050Y-119380D02*
X3960Y-119180D01*
G01X4110Y-119600D02*
X4050Y-119380D01*
G01X4110Y-120780D02*
X4130Y-120550D01*
G01D02*
Y-119820D01*
G01D02*
X4110Y-119600D01*
G01X-14040Y-120830D02*
X-14060Y-120610D01*
G01X-13990Y-121030D02*
X-14040Y-120830D01*
G01X-13890Y-121230D02*
X-13990Y-121030D01*
G01X-13770Y-121410D02*
X-13890Y-121230D01*
G01X-13620Y-121560D02*
X-13770Y-121410D01*
G01X-14050Y-120610D02*
Y-118540D01*
G01X-13440Y-121680D02*
X-13620Y-121560D01*
G01X-13240Y-121780D02*
X-13440Y-121680D01*
G01X-13040Y-121830D02*
X-13240Y-121780D01*
G01X-12820Y-121850D02*
X-13040Y-121830D01*
G01X-12300Y-121850D02*
X-12820D01*
G01X-12070Y-121830D02*
X-12300Y-121850D01*
G01X-11850Y-121770D02*
X-12070Y-121830D01*
G01X-11640Y-121670D02*
X-11850Y-121770D01*
G01X-11460Y-121540D02*
X-11640Y-121670D01*
G01X-11300Y-121380D02*
X-11460Y-121540D01*
G01X-11170Y-121190D02*
X-11300Y-121380D01*
G01X-11070Y-120990D02*
X-11170Y-121190D01*
G01X-11010Y-120770D02*
X-11070Y-120990D01*
G01X-10990Y-120540D02*
X-11010Y-120770D01*
G01X-10980Y-118540D02*
Y-120540D01*
G01X-8840Y-120970D02*
X-8860Y-120780D01*
G01X-8800Y-121150D02*
X-8840Y-120970D01*
G01X-8720Y-121310D02*
X-8800Y-121150D01*
G01X-8610Y-121470D02*
X-8720Y-121310D01*
G01X-8480Y-121600D02*
X-8610Y-121470D01*
G01X-8860Y-120780D02*
Y-119580D01*
G01X-8840Y-119400D02*
X-8800Y-119220D01*
G01X-8860Y-119580D02*
X-8840Y-119400D01*
G01X-8620Y-118910D02*
X-8490Y-118780D01*
G01X-8720Y-119060D02*
X-8620Y-118910D01*
G01X-8800Y-119220D02*
X-8720Y-119060D01*
G01X-8330Y-121710D02*
X-8480Y-121600D01*
G01X-8160Y-121790D02*
X-8330Y-121710D01*
G01X-7980Y-121830D02*
X-8160Y-121790D01*
G01X-7790Y-121850D02*
X-7980Y-121830D01*
G01X-8000Y-118560D02*
X-7820Y-118540D01*
G01X-8180Y-118600D02*
X-8000Y-118560D01*
G01X-8340Y-118680D02*
X-8180Y-118600D01*
G01X-8490Y-118780D02*
X-8340Y-118680D01*
G01X-6020Y-121850D02*
X-7790D01*
G01X-7820Y-118540D02*
X-6020D01*
G01X-4130D02*
X-2720D01*
G01D02*
Y-121850D01*
G01X-1300Y-118540D02*
X-2720D01*
G01X970Y-121130D02*
X1080Y-121310D01*
G01X890Y-120940D02*
X970Y-121130D01*
G01X850Y-120740D02*
X890Y-120940D01*
G01X830Y-120540D02*
X850Y-120740D01*
G01X830Y-119830D02*
Y-120540D01*
G01X840Y-119610D02*
X820Y-119830D01*
G01X900Y-119390D02*
X840Y-119610D01*
G01X990Y-119180D02*
X900Y-119390D01*
G01X1120Y-119000D02*
X990Y-119180D01*
G01X3220Y-103080D02*
X3300Y-102880D01*
G01X3190Y-103290D02*
X3220Y-103080D01*
G01X3300Y-102880D02*
X3430Y-102720D01*
G01X4000Y-102480D02*
X4760D01*
G01X3790Y-102510D02*
X4000Y-102480D01*
G01X3600Y-102590D02*
X3790Y-102510D01*
G01X3430Y-102720D02*
X3600Y-102590D01*
G01X5140Y-100890D02*
X3980Y-100830D01*
G01X4760Y-102480D02*
X5270Y-102550D01*
G01X-13690Y-106470D02*
X-13890Y-106490D01*
G01X-13500Y-106390D02*
X-13690Y-106470D01*
G01X-13340Y-106270D02*
X-13500Y-106390D01*
G01X-13220Y-106100D02*
X-13340Y-106270D01*
G01X-13160Y-105960D02*
X-9800D01*
G01X-13140Y-105910D02*
X-13220Y-106100D01*
G01X-13110Y-105710D02*
X-13140Y-105910D01*
G01X-13110Y-101300D02*
Y-105710D01*
G01X-9800Y-105270D02*
X-13110D01*
G01X-9800Y-103880D02*
X-13110D01*
G01Y-104570D02*
X-9800D01*
G01X-13110Y-103180D02*
X-9800D01*
G01Y-102490D02*
X-13110D01*
G01Y-101800D02*
X-9800D01*
G01Y-101300D02*
X-13110D01*
G01X-6260Y-107350D02*
X-3190D01*
G01Y-106650D02*
X-6260D01*
G01Y-105960D02*
X-3190D01*
G01Y-105270D02*
X-6260D01*
G01X-3190Y-103880D02*
X-6260D01*
G01Y-104570D02*
X-3190D01*
G01X-6260Y-103180D02*
X-3170D01*
G01X-2440Y-102490D02*
X-6260D01*
G01X-3320Y-100920D02*
X-6260Y-101300D01*
G01Y-101800D02*
X8020D01*
G01X-4710Y-101100D02*
X6440D01*
G01X-3080Y-102890D02*
X-2950Y-102720D01*
G01X-3160Y-103090D02*
X-3080Y-102890D01*
G01X-3190Y-103310D02*
X-3160Y-103090D01*
G01X-2770Y-102590D02*
X-2580Y-102510D01*
G01X-2950Y-102720D02*
X-2770Y-102590D01*
G01X-350Y-100830D02*
X-3320Y-100920D01*
G01X-2360Y-102480D02*
X-920D01*
G01X-2580Y-102510D02*
X-2360Y-102480D01*
G01X3920Y-102490D02*
X-840D01*
G01X-230Y-102880D02*
X-140Y-103070D01*
G01X-350Y-102710D02*
X-230Y-102880D01*
G01X-520Y-102590D02*
X-350Y-102710D01*
G01X-710Y-102510D02*
X-520Y-102590D01*
G01X-920Y-102480D02*
X-710Y-102510D01*
G01X3980Y-100830D02*
X-350D01*
G01X-120Y-107350D02*
X3190D01*
G01Y-106650D02*
X-120D01*
G01Y-105960D02*
X3190D01*
G01Y-105270D02*
X-120D01*
G01Y-104570D02*
X3190D01*
G01Y-103880D02*
X-120D01*
G01X-130Y-103180D02*
X3200D01*
G01X-140Y-103070D02*
X-120Y-103280D01*
G01X6260Y-114050D02*
X9330D01*
G01X6260Y-103740D02*
Y-114050D01*
G01X9330Y-113600D02*
X6260D01*
G01Y-112900D02*
X9330D01*
G01Y-112210D02*
X6260D01*
G01Y-111510D02*
X9330D01*
G01Y-110820D02*
X6260D01*
G01Y-110120D02*
X9330D01*
G01Y-109430D02*
X6260D01*
G01Y-108740D02*
X9330D01*
G01Y-108040D02*
X6260D01*
G01X9330Y-114050D02*
Y-104090D01*
G01X6260Y-120200D02*
Y-121850D01*
G01Y-118540D02*
Y-120200D01*
G01X8190D02*
X6260D01*
G01Y-118540D02*
X8530D01*
G01X9090Y-121850D02*
X8190Y-120200D01*
G01X8470D02*
X8190D01*
G01X8640Y-120180D02*
X8470Y-120200D01*
G01X8800Y-120130D02*
X8640Y-120180D01*
G01X8950Y-120060D02*
X8800Y-120130D01*
G01X9080Y-119950D02*
X8950Y-120060D01*
G01X9190Y-119820D02*
X9080Y-119950D01*
G01X9260Y-119670D02*
X9190Y-119820D01*
G01X9310Y-119510D02*
X9260Y-119670D01*
G01X9200Y-118900D02*
X9270Y-119030D01*
G01X9100Y-118770D02*
X9200Y-118900D01*
G01X8970Y-118670D02*
X9100Y-118770D01*
G01X8840Y-118600D02*
X8970Y-118670D01*
G01X8690Y-118560D02*
X8840Y-118600D01*
G01X8530Y-118540D02*
X8690Y-118560D01*
G01X9330Y-119340D02*
X9310Y-119510D01*
G01Y-119180D02*
X9330Y-119340D01*
G01X9270Y-119030D02*
X9310Y-119180D01*
G01X8800Y-102490D02*
X4840D01*
G01X5750Y-102720D02*
X5970Y-102920D01*
G01X5270Y-102550D02*
X5750Y-102720D01*
G01X6300Y-101060D02*
X5140Y-100890D01*
G01X6260Y-107350D02*
X9330D01*
G01Y-106650D02*
X6260D01*
G01Y-105960D02*
X9330D01*
G01Y-105270D02*
X6260D01*
G01Y-104570D02*
X9330D01*
G01X9310Y-103880D02*
X6260D01*
G01X6230Y-103440D02*
X6260Y-103740D01*
G01X6140Y-103180D02*
X9170D01*
G01X6130Y-103160D02*
X6230Y-103440D01*
G01X5970Y-102920D02*
X6130Y-103160D01*
G01X7080Y-101280D02*
X6300Y-101060D01*
G01X7810Y-101640D02*
X7080Y-101280D01*
G01X8460Y-102120D02*
X7810Y-101640D01*
G01X8840Y-102530D02*
X8460Y-102120D01*
G01X9120Y-103010D02*
X8840Y-102530D01*
G01X9280Y-103540D02*
X9120Y-103010D01*
G01X9330Y-104090D02*
X9280Y-103540D01*
G54D18*
X104000Y100100D03*
Y105900D03*
X92000Y135900D03*
Y130100D03*
X124000Y88100D03*
Y93900D03*
G54D28*
G01X104500Y93000D02*
X94500Y103000D01*
Y121000D01*
X96000Y122500D01*
X100500D01*
G01X115205Y99905D02*
Y95205D01*
X113000Y93000D01*
X104500D01*
G01X104000Y100100D02*
X110009D01*
X110205Y99905D01*
G01X124000Y88100D02*
X120400D01*
X119500Y89000D01*
Y98500D01*
X118095Y99905D01*
X115205D01*
G01X110205Y96000D02*
Y99905D01*
G54D19*
D03*
Y105705D03*
X115205Y99905D03*
X124000Y99700D03*
X115205Y105705D03*
X124000Y105500D03*
G54D29*
G01X110205Y105705D02*
X104195D01*
X104000Y105900D01*
G01X100500Y117500D02*
Y109400D01*
X104000Y105900D01*
G01X124000Y93900D02*
Y99700D01*
G01X115205Y105705D02*
X110205D01*
G01X124000Y105500D02*
Y113500D01*
X122500Y115000D01*
Y117500D01*
G01Y122500D02*
X128500D01*
M02*
